<?xml version="1.0" encoding="utf-8"?>
<!-- Generator: Adobe Illustrator 15.0.2, SVG Export Plug-In . SVG Version: 6.00 Build 0)  -->
<!DOCTYPE svg PUBLIC "-//W3C//DTD SVG 1.1//EN" "http://www.w3.org/Graphics/SVG/1.1/DTD/svg11.dtd">
<svg version="1.1" id="Layer_1" xmlns="http://www.w3.org/2000/svg" xmlns:xlink="http://www.w3.org/1999/xlink" x="0px" y="0px"
	 width="1200px" height="240px" viewBox="0 68.5 1200 240" enable-background="new 0 68.5 1200 240" xml:space="preserve">
<g>
	<g>
		<g>
			<path fill="#76777A" d="M1079.16,197.389l1.604-4.06l16.968,3.808c-0.095,2.434-2.105,7.549-3.56,9.203L1079.16,197.389z"/>
			<path fill="#76777A" d="M1080.451,192.771l-3.363-2.781l8.865-14.96c2.283,0.843,6.527,4.336,7.652,6.229L1080.451,192.771z"/>
			<path fill="#76777A" d="M1076.461,190.117l-3.686,2.339l-11.486-13.054c1.508-1.911,6.139-4.868,8.289-5.353L1076.461,190.117z"
				/>
			<path fill="#76777A" d="M1072.703,193.092l1.086,4.227l-15.965,6.893c-1.353-2.023-2.732-7.344-2.529-9.538L1072.703,193.092z"/>
			<path fill="#76777A" d="M1074.371,197.586l4.354,0.271l1.621,17.314c-2.342,0.66-7.828,0.329-9.852-0.542L1074.371,197.586z"/>
		</g>
		<circle fill="#E6E6E7" stroke="#76777A" stroke-width="1.9363" stroke-miterlimit="10" cx="1076.007" cy="194.082" r="5.72"/>
		<circle fill="none" stroke="#9C9EA0" stroke-width="15.4901" stroke-miterlimit="10" cx="1076.007" cy="194.083" r="28.181"/>
		<circle fill="none" stroke="#898A8D" stroke-width="5.8088" stroke-miterlimit="10" cx="1076.007" cy="194.082" r="28.075"/>
		<g>
			<path fill="none" stroke="#FFFFFF" stroke-width="2.9044" stroke-linecap="round" stroke-miterlimit="10" d="M1057.85,176.727
				c2.83-3.054,6.479-5.425,10.742-6.736"/>
			<path fill="none" stroke="#FFFFFF" stroke-width="2.9044" stroke-linecap="round" stroke-miterlimit="10" d="M1053.527,172.711
				c3.514-3.787,8.039-6.729,13.33-8.357"/>
		</g>
		<g>
			<path fill="#D66F71" d="M1083.01,229.3c-24.219,5.3-78.051-4.837-85.557-37.417c8.836,7.404,12.832,4.559,20.438,11.178
				c-6.821-10.311-0.043-16.847-17.774-28.258c19.002,0,18.729,6.057,24.088,8.416c0.182-9.351-14.527-23.693,3.811-36.85
				c-0.342,16.718,15.992,16.908,17.367,42.427C1046.582,211.062,1053.527,222.264,1083.01,229.3z"/>
			<path fill="#ECBD87" d="M1055.271,225.63c-16.697-3.881-32.189-8.351-44.535-20.452c6.867,2.301,9.562,0.605,15.008,2.784
				c-5.445-6.708-4.23-11.573-8.834-20.936c8.553,2.549,8.67,4.765,12.223,6.329c2.42-10.062-7.928-24.464-2.422-33.558
				c5.576,11.89,14.146,16.111,14.268,32.66C1041.061,203.893,1041.994,217.038,1055.271,225.63z"/>
			<path fill="#F2F098" d="M1045.254,219.986c-13.312-12.93-3.229-30.36-13.514-41.772c1.143,6.414-1.354,23.366-0.201,26.263
				c-2.059-1.85-2.771-7.346-6.521-8.494c1.513,3.838,1.392,10.527,5.244,14.582c-3.211-1.047-4.309,0.041-7.606-0.366
				C1025.371,215.167,1041.381,219.986,1045.254,219.986z"/>
		</g>
	</g>
	<g>
		<g>
			<path fill="#98B7DB" d="M837.013,144.848c-0.447,0-1.183,0-1.631,0h-14.684c-0.448,0-1.184,0-1.631,0h-14.685
				c-0.448,0-0.814,0.366-0.814,0.815v14.684c0,0.448,0.366,0.815,0.814,0.815h14.685c0.447,0,0.814,0.367,0.814,0.816v14.683
				c0,0.449,0.367,0.816,0.815,0.816h14.684c0.448,0,0.815-0.367,0.815-0.816v-14.683c0-0.449,0.367-0.816,0.814-0.816h14.683
				c0.447,0,0.814-0.367,0.814-0.815v-14.684c0-0.449-0.367-0.815-0.814-0.815H837.013L837.013,144.848z"/>
		</g>
		<rect x="839.459" y="148.11" fill="#5890C3" width="9.789" height="9.789"/>
		<rect x="823.145" y="148.11" fill="#5890C3" width="9.789" height="9.789"/>
		<rect x="806.83" y="148.11" fill="#5890C3" width="9.789" height="9.789"/>
		<rect x="823.145" y="164.424" fill="#5890C3" width="9.789" height="9.789"/>
		<g>
			<path fill="#9DC4AE" d="M788.069,215.838c-0.448,0-0.815-0.367-0.815-0.816V200.34c0-0.449,0-1.183,0-1.632v-14.682
				c0-0.449-0.367-0.816-0.814-0.816h-14.685c-0.448,0-0.815,0.367-0.815,0.816v14.682c0,0.449,0,1.183,0,1.632v14.684
				c0,0.449,0,1.183,0,1.631v14.684c0,0.449,0.367,0.816,0.815,0.816h14.685c0.447,0,1.183,0,1.631,0h14.684
				c0.448,0,0.815-0.367,0.815-0.816v-14.684c0-0.448-0.367-0.815-0.815-0.815L788.069,215.838L788.069,215.838z"/>
		</g>
		<rect x="774.201" y="186.474" fill="#6BB476" width="9.789" height="9.788"/>
		<rect x="774.201" y="202.787" fill="#6BB476" width="9.789" height="9.789"/>
		<rect x="774.201" y="219.102" fill="#6BB476" width="9.789" height="9.789"/>
		<rect x="790.516" y="219.102" fill="#6BB476" width="9.789" height="9.789"/>
		<g>
			<path fill="#98B7DB" d="M885.954,183.21c-0.448,0-0.815,0.367-0.815,0.816v14.682c0,0.449-0.367,0.815-0.814,0.815H869.64
				c-0.447,0-0.814,0.367-0.814,0.816v14.684c0,0.449,0.367,0.815,0.814,0.815h14.685c0.448,0,0.814,0.367,0.814,0.815v14.684
				c0,0.449,0.367,0.816,0.815,0.816h14.684c0.448,0,0.815-0.367,0.815-0.816v-14.684c0-0.448,0-1.182,0-1.631V200.34
				c0-0.449,0-1.183,0-1.632v-14.682c0-0.449-0.367-0.816-0.815-0.816H885.954L885.954,183.21z"/>
		</g>
		<rect x="888.402" y="219.102" fill="#5890C3" width="9.789" height="9.789"/>
		<rect x="888.402" y="202.787" fill="#5890C3" width="9.789" height="9.789"/>
		<rect x="888.402" y="186.474" fill="#5890C3" width="9.789" height="9.788"/>
		<rect x="872.088" y="202.787" fill="#5890C3" width="9.789" height="9.789"/>
		<g>
			<path fill="#D66F71" d="M869.64,215.838c-0.447,0-1.183,0-1.631,0h-14.684c-0.448,0-1.184,0-1.631,0h-14.683
				c-0.447,0-1.183,0-1.631,0h-14.684c-0.448,0-0.815,0.367-0.815,0.816v14.683c0,0.449,0.367,0.815,0.815,0.815h14.684
				c0.448,0,1.184,0,1.631,0h14.683c0.447,0,1.183,0,1.631,0h14.684c0.448,0,1.184,0,1.631,0h14.685
				c0.448,0,0.814-0.366,0.814-0.815v-14.683c0-0.449-0.366-0.816-0.814-0.816H869.64z"/>
		</g>
		<rect x="839.459" y="219.102" fill="#B64F4F" width="9.789" height="9.789"/>
		<rect x="855.773" y="219.102" fill="#B64F4F" width="9.789" height="9.789"/>
		<rect x="872.088" y="219.102" fill="#B64F4F" width="9.789" height="9.789"/>
		<rect x="823.145" y="219.102" fill="#B64F4F" width="9.789" height="9.789"/>
		<g>
			<path fill="#F2F098" d="M869.64,183.21c-0.447,0-1.183,0-1.631,0h-14.684c-0.448,0-0.815,0.367-0.815,0.816v14.682
				c0,0.449-0.367,0.815-0.814,0.815h-14.683c-0.447,0-0.814,0.367-0.814,0.816v14.684c0,0.449,0.367,0.815,0.814,0.815h14.683
				c0.447,0,1.183,0,1.631,0h14.684c0.448,0,0.815-0.366,0.815-0.815V200.34c0-0.449,0.367-0.816,0.814-0.816h14.685
				c0.448,0,0.814-0.366,0.814-0.815v-14.682c0-0.449-0.366-0.816-0.814-0.816H869.64z"/>
		</g>
		<rect x="839.459" y="202.787" fill="#DDDA36" width="9.789" height="9.789"/>
		<rect x="855.773" y="202.787" fill="#DDDA36" width="9.789" height="9.789"/>
		<rect x="855.773" y="186.474" fill="#DDDA36" width="9.789" height="9.788"/>
		<rect x="872.088" y="186.474" fill="#DDDA36" width="9.789" height="9.788"/>
		<g>
			<path fill="#F2F098" d="M804.384,199.523c-0.448,0-0.814-0.366-0.814-0.815v-14.682c0-0.449-0.367-0.816-0.815-0.816H788.07
				c-0.448,0-0.815,0.367-0.815,0.816v14.682c0,0.449,0,1.183,0,1.632v14.684c0,0.449,0.367,0.815,0.815,0.815h14.684
				c0.448,0,0.815,0.367,0.815,0.815v14.684c0,0.449,0.366,0.816,0.814,0.816h14.685c0.447,0,0.814-0.367,0.814-0.816v-14.684
				c0-0.448,0-1.182,0-1.631V200.34c0-0.449-0.367-0.816-0.814-0.816H804.384z"/>
		</g>
		<rect x="790.516" y="186.474" fill="#DDDA36" width="9.789" height="9.788"/>
		<rect x="790.516" y="202.787" fill="#DDDA36" width="9.789" height="9.789"/>
		<rect x="806.83" y="202.787" fill="#DDDA36" width="9.789" height="9.789"/>
		<rect x="806.83" y="219.102" fill="#DDDA36" width="9.789" height="9.789"/>
	</g>
	<g>
		<g>
			<polygon fill="#CADFF3" points="586.562,210.729 538.295,227.042 515.74,166.272 564.008,149.958 			"/>
			<polygon fill="#CADFF3" points="626.672,227.042 586.562,210.729 564.008,149.958 604.117,166.272 			"/>
			<polygon fill="#CADFF3" points="674.939,210.729 626.672,227.042 604.117,166.272 652.385,149.958 			"/>
		</g>
		
			<polygon opacity="0.6" fill="none" stroke="#799ED2" stroke-width="1.6314" stroke-linejoin="round" stroke-miterlimit="10" enable-background="new    " points="
			652.385,149.958 604.117,166.272 564.008,149.958 515.74,166.272 538.295,227.042 586.562,210.729 626.672,227.042 
			674.939,210.729 		"/>
		<path fill="#FFFFFF" stroke="#799ED2" stroke-width="1.6314" stroke-miterlimit="10" d="M617.307,192.117
			c-1.026-3.157-3.114-5.097-5.727-5.745c-3.365-3.188-7.6-5.767-11.707-6.867c-0.781-0.209-1.531-0.354-2.24-0.439
			c-3.758-5.981-10.918-11.525-17.772-13.361c-4.375-1.17-9.074,0.242-9.605,1.271c-0.533,1.028-0.699,1.954-0.914,2.928
			c-0.633,0.097-1.272,0.242-1.903,0.458c-5.668,1.938-8.689,8.104-6.752,13.769c0.125,0.364,0.271,0.714,0.426,1.057
			c-2.213,2.352-3.092,5.818-1.974,9.089c1.529,4.471,6.232,6.947,10.734,5.798c0.002,0,4.844-1.663,11.295-3.875l26.918,7.177
			c4.262,1.141,7.787,0.777,9.053-1.551C618.4,199.495,618.256,195.034,617.307,192.117z"/>
		<path fill="#FFFFFF" stroke="#799ED2" stroke-width="1.6314" stroke-miterlimit="10" d="M519.324,175.685
			c0.598-0.912,1.494-1.639,2.604-2.014c0.388-0.13,0.775-0.205,1.16-0.239c-0.258-2.736,1.377-5.392,4.094-6.309
			c1.627-0.548,3.32-0.363,4.734,0.371c0.469-0.307,0.979-0.565,1.533-0.754c3.521-1.188,7.34,0.704,8.526,4.225
			c0.906,2.688,0.004,5.506-2.034,7.236c0,0-14.193,4.832-14.787,5.033c-1.009,0.34-2.05,0.344-3,0.071"/>
		<path fill="#FFFFFF" stroke="#799ED2" stroke-width="1.6314" stroke-miterlimit="10" d="M671.264,200.922
			c-0.639,2.305-2.408,4.246-4.877,5.075c-0.403,0.135-28.463,9.582-28.875,9.721c-2.887,0.968-6.014-0.586-6.981-3.472
			c-0.642-1.909-0.175-3.917,1.047-5.342c-0.527-0.561-0.947-1.236-1.207-2.014c-0.971-2.887,0.584-6.012,3.471-6.979
			c0.672-0.226,1.355-0.31,2.023-0.277c0.967-3.058,3.321-5.63,6.596-6.729c3.244-1.09,6.644-0.479,9.252,1.338
			c0.744-0.762,1.672-1.368,2.752-1.73c2.513-0.843,5.168-0.169,6.976,1.526c0.077-0.029,0.151-0.063,0.229-0.091
			c2.314-0.777,4.74-0.358,6.609,0.921"/>
		<path fill="#FFFFFF" stroke="#799ED2" stroke-width="1.6314" stroke-miterlimit="10" d="M647.086,167.19
			c-1.062-0.99-2.619-1.385-4.094-0.896c-0.428,0.143-0.814,0.351-1.156,0.604c-1.141-0.495-2.457-0.593-3.729-0.172
			c-2.283,0.757-3.691,2.935-3.578,5.226c-1.467,0.897-2.181,2.712-1.615,4.414c0.611,1.846,2.506,2.904,4.365,2.513l11.506-3.785
			c2.131-0.706,3.287-3.008,2.58-5.14C650.754,168.108,648.945,166.996,647.086,167.19z"/>
		
			<path fill="none" stroke="#B64E4F" stroke-width="2.4471" stroke-linecap="round" stroke-linejoin="round" stroke-miterlimit="10" d="
			M545.711,208.175l10.883-0.405l2.06-12.336l11.399-4.11l5.478-8.689l11.791-3.854l11.36,4.067c0,0,6.345,8.201,6.65,8.405
			c0.307,0.204,10.529,6.661,10.529,6.661l12.819-4.014l4.039-6.08l14.824-5.133"/>
		
			<polygon fill="#B64E4F" stroke="#B64E4F" stroke-width="2.4471" stroke-linecap="round" stroke-linejoin="round" stroke-miterlimit="10" points="
			646.635,180.063 651.451,181.155 648.096,184.781 		"/>
		<g>
			<g opacity="0.35">
				<defs>
					<filter id="Adobe_OpacityMaskFilter" filterUnits="userSpaceOnUse" x="540.33" y="197.539" width="15.405" height="12.171">
						<feColorMatrix  type="matrix" values="1 0 0 0 0  0 1 0 0 0  0 0 1 0 0  0 0 0 1 0"/>
					</filter>
				</defs>
				<mask maskUnits="userSpaceOnUse" x="540.33" y="197.539" width="15.405" height="12.171" id="SVGID_1_">
					<g filter="url(#Adobe_OpacityMaskFilter)">
						
							<image overflow="visible" enable-background="new    " width="83" height="71" xlink:href="8828E8D.jpeg"  transform="matrix(0.2342 0 0 0.2299 538.3301 195.5381)">
						</image>
					</g>
				</mask>
				<g mask="url(#SVGID_1_)">
					<path fill="#404040" d="M555.555,203.701c-0.914,2.318-5.006,4.475-10.51,6.009c-3.461-3.459-5.402-6.989-4.49-9.31
						c0.91-2.318,5.008-3.459,9.15-2.547C553.846,198.764,556.465,201.382,555.555,203.701z"/>
				</g>
			</g>
			<path fill="#D66F71" stroke="#D66F71" stroke-width="1.6314" stroke-linejoin="round" stroke-miterlimit="10" d="
				M552.695,194.943c0,4.082-2.943,9.037-7.394,13.484c-4.371-4.371-7.391-9.402-7.391-13.484c0-4.084,3.309-7.394,7.391-7.394
				S552.695,190.859,552.695,194.943z"/>
			<circle fill="#B64E4F" cx="545.303" cy="194.92" r="2.111"/>
		</g>
		
			<polygon opacity="0.4" fill="#799ED2" stroke="#799ED2" stroke-width="1.6314" stroke-linejoin="round" stroke-miterlimit="10" enable-background="new    " points="
			626.672,227.042 586.562,210.729 564.008,149.958 604.117,166.272 		"/>
		
			<line opacity="0.6" fill="none" stroke="#799ED2" stroke-width="1.6314" stroke-linecap="round" stroke-linejoin="round" stroke-miterlimit="10" enable-background="new    " x1="515.74" y1="166.272" x2="538.295" y2="227.042"/>
		
			<line opacity="0.6" fill="none" stroke="#799ED2" stroke-width="1.6314" stroke-linecap="round" stroke-linejoin="round" stroke-miterlimit="10" enable-background="new    " x1="652.385" y1="149.958" x2="674.939" y2="210.729"/>
	</g>
	<g>
		
			<circle fill="none" stroke="#A9CDE6" stroke-width="2.4471" stroke-linecap="round" stroke-miterlimit="10" cx="361.009" cy="188.5" r="42.499"/>
		
			<circle fill="none" stroke="#DBDCDD" stroke-width="2.4471" stroke-linecap="round" stroke-miterlimit="10" cx="361.009" cy="188.5" r="42.499"/>
		<circle fill="#F1F1F2" cx="361.009" cy="188.5" r="15.989"/>
		<g>
			
				<line fill="none" stroke="#DBDCDD" stroke-width="1.6314" stroke-linecap="round" stroke-miterlimit="10" x1="361.01" y1="129.77" x2="361.01" y2="247.23"/>
			
				<line fill="none" stroke="#DBDCDD" stroke-width="1.6314" stroke-linecap="round" stroke-miterlimit="10" x1="302.277" y1="188.5" x2="419.74" y2="188.5"/>
		</g>
		<g>
			
				<line fill="none" stroke="#4270B5" stroke-width="2.4471" stroke-linecap="round" stroke-miterlimit="10" x1="361.01" y1="183.671" x2="361.01" y2="193.33"/>
			
				<line fill="none" stroke="#4270B5" stroke-width="2.4471" stroke-linecap="round" stroke-miterlimit="10" x1="356.18" y1="188.5" x2="365.84" y2="188.5"/>
		</g>
		
			<line fill="none" stroke="#4270B5" stroke-width="2.4471" stroke-linecap="round" stroke-miterlimit="10" x1="361.01" y1="142.138" x2="361.01" y2="149.864"/>
		
			<line fill="none" stroke="#4270B5" stroke-width="2.4471" stroke-linecap="round" stroke-miterlimit="10" x1="361.01" y1="234.863" x2="361.01" y2="227.136"/>
		<g>
			
				<line fill="none" stroke="#799ED2" stroke-width="1.6314" stroke-linecap="round" stroke-miterlimit="10" x1="366.252" y1="143.731" x2="365.652" y2="148.848"/>
			
				<line fill="none" stroke="#799ED2" stroke-width="1.6314" stroke-linecap="round" stroke-miterlimit="10" x1="370.902" y1="144.524" x2="369.771" y2="149.55"/>
			
				<line fill="none" stroke="#799ED2" stroke-width="1.6314" stroke-linecap="round" stroke-miterlimit="10" x1="375.445" y1="145.799" x2="373.795" y2="150.68"/>
			
				<line fill="none" stroke="#799ED2" stroke-width="1.6314" stroke-linecap="round" stroke-miterlimit="10" x1="379.83" y1="147.542" x2="377.68" y2="152.224"/>
			
				<line fill="none" stroke="#799ED2" stroke-width="1.6314" stroke-linecap="round" stroke-miterlimit="10" x1="384.008" y1="149.733" x2="381.381" y2="154.164"/>
			
				<line fill="none" stroke="#799ED2" stroke-width="1.6314" stroke-linecap="round" stroke-miterlimit="10" x1="387.934" y1="152.352" x2="384.857" y2="156.481"/>
			
				<line fill="none" stroke="#799ED2" stroke-width="1.6314" stroke-linecap="round" stroke-miterlimit="10" x1="391.564" y1="155.362" x2="388.072" y2="159.15"/>
			
				<line fill="none" stroke="#799ED2" stroke-width="1.6314" stroke-linecap="round" stroke-miterlimit="10" x1="394.861" y1="158.738" x2="390.994" y2="162.141"/>
			
				<line fill="none" stroke="#799ED2" stroke-width="1.6314" stroke-linecap="round" stroke-miterlimit="10" x1="355.768" y1="233.27" x2="356.365" y2="228.152"/>
			
				<line fill="none" stroke="#799ED2" stroke-width="1.6314" stroke-linecap="round" stroke-miterlimit="10" x1="351.115" y1="232.477" x2="352.246" y2="227.45"/>
			
				<line fill="none" stroke="#799ED2" stroke-width="1.6314" stroke-linecap="round" stroke-miterlimit="10" x1="346.574" y1="231.202" x2="348.223" y2="226.32"/>
			
				<line fill="none" stroke="#799ED2" stroke-width="1.6314" stroke-linecap="round" stroke-miterlimit="10" x1="342.189" y1="229.458" x2="344.34" y2="224.777"/>
			
				<line fill="none" stroke="#799ED2" stroke-width="1.6314" stroke-linecap="round" stroke-miterlimit="10" x1="338.012" y1="227.266" x2="340.641" y2="222.836"/>
			
				<line fill="none" stroke="#799ED2" stroke-width="1.6314" stroke-linecap="round" stroke-miterlimit="10" x1="334.084" y1="224.65" x2="337.162" y2="220.52"/>
			
				<line fill="none" stroke="#799ED2" stroke-width="1.6314" stroke-linecap="round" stroke-miterlimit="10" x1="330.453" y1="221.639" x2="333.945" y2="217.852"/>
			
				<line fill="none" stroke="#799ED2" stroke-width="1.6314" stroke-linecap="round" stroke-miterlimit="10" x1="327.156" y1="218.262" x2="331.027" y2="214.861"/>
		</g>
		<path fill="none" stroke="#929496" stroke-width="3.2629" stroke-linecap="round" stroke-miterlimit="10" d="M312.557,160.53
			c4.912-8.491,11.992-15.57,20.484-20.482"/>
		<path fill="none" stroke="#929496" stroke-width="3.2629" stroke-linecap="round" stroke-miterlimit="10" d="M409.463,216.471
			c-4.912,8.49-11.994,15.57-20.484,20.482"/>
	</g>
	<g>
		
			<line fill="none" stroke="#DBDCDD" stroke-width="5.71" stroke-linecap="round" stroke-miterlimit="10" x1="115.389" y1="242.79" x2="167.455" y2="223.213"/>
		
			<line fill="none" stroke="#DBDCDD" stroke-width="5.71" stroke-linecap="round" stroke-miterlimit="10" x1="183.908" y1="242.79" x2="131.844" y2="223.213"/>
		
			<line fill="none" stroke="#DBDCDD" stroke-width="5.71" stroke-linecap="round" stroke-miterlimit="10" x1="115.389" y1="203.566" x2="167.455" y2="223.145"/>
		
			<line fill="none" stroke="#DBDCDD" stroke-width="5.71" stroke-linecap="round" stroke-miterlimit="10" x1="183.908" y1="203.566" x2="131.844" y2="223.145"/>
		<g>
			<path fill="#9C9EA0" d="M125.178,246.518c0,0.897-0.734,1.631-1.631,1.631h-16.315c-0.897,0-1.631-0.733-1.631-1.631v-5.547
				c0-0.896,0.734-1.631,1.631-1.631h16.315c0.897,0,1.631,0.734,1.631,1.631V246.518z"/>
		</g>
		<g>
			<path fill="#9C9EA0" d="M193.697,246.518c0,0.897-0.734,1.631-1.632,1.631h-16.312c-0.897,0-1.632-0.733-1.632-1.631v-5.547
				c0-0.896,0.734-1.631,1.632-1.631h16.312c0.897,0,1.632,0.734,1.632,1.631V246.518z"/>
		</g>
		<g>
			<path fill="#76777A" d="M198.592,185.951c0,0.897-0.734,1.631-1.632,1.631h-94.622c-0.897,0-1.631-0.733-1.631-1.631v-55.469
				c0-0.897,0.734-1.631,1.631-1.631h94.622c0.897,0,1.632,0.733,1.632,1.631V185.951z"/>
		</g>
		<g>
			<path fill="#FFFFFF" d="M191.74,180.078c0,0.897-0.734,1.631-1.632,1.631H109.19c-0.897,0-1.631-0.733-1.631-1.631v-43.723
				c0-0.897,0.734-1.631,1.631-1.631h80.918c0.897,0,1.632,0.733,1.632,1.631V180.078z"/>
		</g>
		<path fill="#808183" d="M184.398,195.82c-0.795-0.407-18.842-1.022-22.678-2.65c-3.834-1.628-5.383-6.077-5.383-6.077H142.96
			c0,0-1.551,4.449-5.384,6.077c-3.834,1.628-21.943,2.325-22.677,2.65c-0.734,0.326-1.38,2.721-0.652,2.773
			c1.144,0.084,69.6,0.071,70.803,0C185.834,198.549,185.193,196.229,184.398,195.82z"/>
		<g>
			
				<linearGradient id="SVGID_2_" gradientUnits="userSpaceOnUse" x1="301.812" y1="-197.4868" x2="409.4858" y2="-197.4868" gradientTransform="matrix(1 0 0 -1 -206 5)">
				<stop  offset="0" style="stop-color:#4270B5"/>
				<stop  offset="1" style="stop-color:#6BB476"/>
			</linearGradient>
			<path fill="url(#SVGID_2_)" d="M203.486,204.934c0,0.897-0.734,1.631-1.632,1.631H97.443c-0.897,0-1.631-0.733-1.631-1.631
				v-4.894c0-0.897,0.734-1.631,1.631-1.631h104.411c0.897,0,1.632,0.733,1.632,1.631V204.934L203.486,204.934z"/>
		</g>
		<g>
			<path fill="#FFFFFF" d="M206.277,197.43c0,0.896-0.734,1.631-1.632,1.631H172.67c-0.897,0-1.632-0.734-1.632-1.631v-31.977
				c0-0.896,0.734-1.631,1.632-1.631h31.975c0.897,0,1.632,0.734,1.632,1.631V197.43z"/>
		</g>
		<g>
			<path fill="#58595B" d="M187.225,184.989v-0.893c0-0.377,0.027-0.714,0.082-1.011c0.055-0.297,0.141-0.58,0.258-0.846
				c0.117-0.266,0.275-0.525,0.471-0.775c0.197-0.25,0.443-0.516,0.74-0.798l1.057-1.01c0.297-0.267,0.553-0.564,0.764-0.893
				c0.213-0.329,0.316-0.729,0.316-1.198c0-0.611-0.191-1.125-0.576-1.539c-0.383-0.415-0.926-0.623-1.631-0.623
				c-0.361,0-0.686,0.066-0.975,0.2c-0.291,0.132-0.541,0.312-0.752,0.54c-0.213,0.227-0.373,0.488-0.482,0.787
				c-0.109,0.297-0.172,0.603-0.188,0.917l-2.889-0.26c0.094-0.751,0.293-1.421,0.598-2.008c0.307-0.587,0.701-1.084,1.186-1.493
				c0.486-0.406,1.043-0.716,1.668-0.927c0.627-0.212,1.301-0.317,2.021-0.317c0.674,0,1.312,0.099,1.916,0.294
				c0.602,0.195,1.135,0.485,1.596,0.868c0.463,0.385,0.826,0.857,1.094,1.423c0.266,0.563,0.398,1.214,0.398,1.949
				c0,0.502-0.055,0.94-0.164,1.315s-0.266,0.721-0.471,1.034c-0.203,0.312-0.449,0.614-0.738,0.903
				c-0.291,0.29-0.615,0.592-0.977,0.904c-0.312,0.267-0.566,0.501-0.764,0.705c-0.195,0.204-0.352,0.407-0.469,0.611
				s-0.199,0.423-0.246,0.657c-0.047,0.235-0.072,0.525-0.072,0.87v0.61H187.225z M186.754,188.254c0-0.501,0.186-0.932,0.553-1.292
				c0.367-0.359,0.811-0.54,1.328-0.54c0.5,0,0.939,0.172,1.314,0.518c0.377,0.345,0.564,0.767,0.564,1.269
				c0,0.501-0.184,0.933-0.553,1.292c-0.367,0.359-0.811,0.54-1.326,0.54c-0.252,0-0.49-0.047-0.717-0.142
				c-0.227-0.094-0.428-0.219-0.6-0.375c-0.172-0.155-0.309-0.344-0.41-0.563C186.805,188.74,186.754,188.505,186.754,188.254z"/>
		</g>
		<g>
			
				<polyline fill="none" stroke="#B0B2B4" stroke-width="2.4471" stroke-linecap="round" stroke-linejoin="round" stroke-miterlimit="10" points="
				171.039,167.737 171.039,163.822 174.953,163.822 			"/>
			
				<polyline fill="none" stroke="#B0B2B4" stroke-width="2.4471" stroke-linecap="round" stroke-linejoin="round" stroke-miterlimit="10" points="
				174.953,199.061 171.039,199.061 171.039,195.145 			"/>
			
				<polyline fill="none" stroke="#B0B2B4" stroke-width="2.4471" stroke-linecap="round" stroke-linejoin="round" stroke-miterlimit="10" points="
				206.277,195.145 206.277,199.061 202.361,199.061 			"/>
			
				<polyline fill="none" stroke="#B0B2B4" stroke-width="2.4471" stroke-linecap="round" stroke-linejoin="round" stroke-miterlimit="10" points="
				202.361,163.822 206.277,163.822 206.277,167.737 			"/>
			<g>
				
					<line fill="none" stroke="#B0B2B4" stroke-width="2.4471" stroke-linecap="round" stroke-linejoin="round" stroke-miterlimit="10" x1="171.039" y1="171.653" x2="171.039" y2="173.61"/>
				
					<line fill="none" stroke="#B0B2B4" stroke-width="2.4471" stroke-linecap="round" stroke-linejoin="round" stroke-miterlimit="10" x1="171.039" y1="177.526" x2="171.039" y2="179.483"/>
				
					<line fill="none" stroke="#B0B2B4" stroke-width="2.4471" stroke-linecap="round" stroke-linejoin="round" stroke-miterlimit="10" x1="171.039" y1="189.271" x2="171.039" y2="191.23"/>
				
					<line fill="none" stroke="#B0B2B4" stroke-width="2.4471" stroke-linecap="round" stroke-linejoin="round" stroke-miterlimit="10" x1="171.039" y1="183.399" x2="171.039" y2="185.356"/>
			</g>
			<g>
				
					<line fill="none" stroke="#B0B2B4" stroke-width="2.4471" stroke-linecap="round" stroke-linejoin="round" stroke-miterlimit="10" x1="178.869" y1="199.061" x2="180.826" y2="199.061"/>
				
					<line fill="none" stroke="#B0B2B4" stroke-width="2.4471" stroke-linecap="round" stroke-linejoin="round" stroke-miterlimit="10" x1="184.742" y1="199.061" x2="186.701" y2="199.061"/>
				
					<line fill="none" stroke="#B0B2B4" stroke-width="2.4471" stroke-linecap="round" stroke-linejoin="round" stroke-miterlimit="10" x1="196.488" y1="199.061" x2="198.447" y2="199.061"/>
				
					<line fill="none" stroke="#B0B2B4" stroke-width="2.4471" stroke-linecap="round" stroke-linejoin="round" stroke-miterlimit="10" x1="190.615" y1="199.061" x2="192.574" y2="199.061"/>
			</g>
			<g>
				
					<line fill="none" stroke="#B0B2B4" stroke-width="2.4471" stroke-linecap="round" stroke-linejoin="round" stroke-miterlimit="10" x1="206.277" y1="191.23" x2="206.277" y2="189.271"/>
				
					<line fill="none" stroke="#B0B2B4" stroke-width="2.4471" stroke-linecap="round" stroke-linejoin="round" stroke-miterlimit="10" x1="206.277" y1="185.356" x2="206.277" y2="183.399"/>
				
					<line fill="none" stroke="#B0B2B4" stroke-width="2.4471" stroke-linecap="round" stroke-linejoin="round" stroke-miterlimit="10" x1="206.277" y1="173.61" x2="206.277" y2="171.653"/>
				
					<line fill="none" stroke="#B0B2B4" stroke-width="2.4471" stroke-linecap="round" stroke-linejoin="round" stroke-miterlimit="10" x1="206.277" y1="179.483" x2="206.277" y2="177.526"/>
			</g>
			<g>
				
					<line fill="none" stroke="#B0B2B4" stroke-width="2.4471" stroke-linecap="round" stroke-linejoin="round" stroke-miterlimit="10" x1="198.447" y1="163.822" x2="196.488" y2="163.822"/>
				
					<line fill="none" stroke="#B0B2B4" stroke-width="2.4471" stroke-linecap="round" stroke-linejoin="round" stroke-miterlimit="10" x1="192.574" y1="163.822" x2="190.615" y2="163.822"/>
				
					<line fill="none" stroke="#B0B2B4" stroke-width="2.4471" stroke-linecap="round" stroke-linejoin="round" stroke-miterlimit="10" x1="180.826" y1="163.822" x2="178.869" y2="163.822"/>
				
					<line fill="none" stroke="#B0B2B4" stroke-width="2.4471" stroke-linecap="round" stroke-linejoin="round" stroke-miterlimit="10" x1="186.701" y1="163.822" x2="184.742" y2="163.822"/>
			</g>
		</g>
		<g>
			<g>
				<path fill="#58595B" d="M131.541,197.021c0,0.896-0.734,1.631-1.631,1.631h-24.146c-0.897,0-1.631-0.734-1.631-1.631v-31.977
					c0-0.896,0.734-1.631,1.631-1.631h24.146c0.897,0,1.631,0.734,1.631,1.631V197.021z"/>
			</g>
			<g>
				<path fill="#FFFFFF" d="M128.526,190.35c0,0.448-0.367,0.815-0.816,0.815h-19.747c-0.449,0-0.816-0.367-0.816-0.815v-23.036
					c0-0.449,0.367-0.816,0.816-0.816h19.747c0.449,0,0.816,0.367,0.816,0.816V190.35z"/>
			</g>
			<circle fill="#FFFFFF" cx="117.836" cy="195.083" r="1.44"/>
		</g>
		<g>
			<g>
				<path fill="#58595B" d="M158.459,197.021c0,0.896-0.734,1.631-1.632,1.631h-14.355c-0.897,0-1.632-0.734-1.632-1.631v-24.146
					c0-0.896,0.734-1.631,1.632-1.631h14.355c0.897,0,1.632,0.734,1.632,1.631V197.021z"/>
			</g>
			<g>
				<path fill="#FFFFFF" d="M155.992,191.3c0,0.449-0.367,0.816-0.815,0.816h-11.055c-0.448,0-0.815-0.367-0.815-0.816v-16.128
					c0-0.448,0.367-0.815,0.815-0.815h11.055c0.448,0,0.815,0.367,0.815,0.815V191.3z"/>
			</g>
			<circle fill="#FFFFFF" cx="149.648" cy="195.573" r="1.209"/>
		</g>
		<circle fill="#FFFFFF" cx="166.395" cy="223.348" r="1.727"/>
		<circle fill="#FFFFFF" cx="149.649" cy="216.492" r="1.729"/>
		<circle fill="#FFFFFF" cx="149.649" cy="229.999" r="1.728"/>
		<circle fill="#FFFFFF" cx="132.904" cy="223.348" r="1.727"/>
		<g id="Ray">
			<g>
				<path fill="#E4E553" d="M158.41,154.977c-0.121-0.234-0.363-0.38-0.627-0.38h-4.93v-8.454c0-0.308-0.199-0.578-0.492-0.671
					s-0.611,0.014-0.789,0.265l-8.453,11.976c-0.15,0.215-0.17,0.497-0.049,0.73c0.121,0.233,0.361,0.38,0.625,0.38h4.932v8.454
					c0,0.307,0.197,0.579,0.49,0.671c0.07,0.021,0.143,0.033,0.213,0.033c0.225,0,0.441-0.107,0.576-0.298l8.453-11.977
					C158.512,155.491,158.531,155.21,158.41,154.977z"/>
			</g>
		</g>
		<g id="Ray_2_">
			<g>
				<path fill="#E4E553" d="M152.471,182.497c-0.039-0.078-0.121-0.126-0.207-0.126h-1.639v-2.807c0-0.103-0.064-0.192-0.162-0.224
					c-0.098-0.03-0.203,0.006-0.262,0.088l-2.807,3.978c-0.051,0.072-0.057,0.165-0.018,0.243c0.041,0.078,0.121,0.126,0.207,0.126
					h1.639v2.808c0,0.103,0.066,0.192,0.162,0.224c0.023,0.007,0.047,0.011,0.072,0.011c0.074,0,0.145-0.035,0.189-0.1l2.807-3.977
					C152.506,182.668,152.512,182.575,152.471,182.497z"/>
			</g>
		</g>
		<g id="Ray_4_">
			<g>
				<path fill="#E4E553" d="M122.102,178.521c-0.066-0.13-0.201-0.211-0.348-0.211h-2.742v-4.703c0-0.17-0.111-0.322-0.273-0.374
					c-0.163-0.051-0.34,0.008-0.438,0.146l-4.702,6.662c-0.085,0.12-0.096,0.276-0.027,0.406c0.066,0.13,0.201,0.211,0.348,0.211
					h2.742v4.702c0,0.171,0.111,0.322,0.273,0.374c0.039,0.013,0.079,0.019,0.119,0.019c0.125,0,0.244-0.06,0.32-0.166l4.701-6.662
					C122.159,178.807,122.17,178.649,122.102,178.521z"/>
			</g>
		</g>
	</g>
</g>
</svg>
