<?xml version="1.0" encoding="utf-8"?>
<!-- Generator: Adobe Illustrator 18.1.1, SVG Export Plug-In . SVG Version: 6.00 Build 0)  -->
<svg version="1.1" id="Layer_1" xmlns="http://www.w3.org/2000/svg" xmlns:xlink="http://www.w3.org/1999/xlink" x="0px" y="0px"
	 viewBox="0 32.2 60 40" enable-background="new 0 32.2 60 40" xml:space="preserve">
<g>
	<polygon fill="#E0524B" points="11,40.7 10.5,40.2 9.7,41.1 8.8,40.2 8.4,40.7 9.2,41.5 8.4,42.4 8.8,42.8 9.7,42 10.5,42.8 
		11,42.4 10.1,41.5 	"/>
	<polygon fill="#E0524B" points="11,45.5 10.5,45 9.7,45.9 8.8,45 8.4,45.5 9.2,46.4 8.4,47.2 8.8,47.7 9.7,46.8 10.5,47.7 11,47.2 
		10.1,46.4 	"/>
	<text transform="matrix(1 0 0 1 13.4303 42.3353)" fill="#414042" font-family="'Karla-Regular'" font-size="2.4">Bad weather</text>
	<text transform="matrix(1 0 0 1 13.4303 47.1349)" fill="#414042" font-family="'Karla-Regular'" font-size="2.4">Friends unavailable</text>
	<text transform="matrix(1 0 0 1 13.4303 51.9349)" fill="#414042" font-family="'Karla-Regular'" font-size="2.4">Bad weather + friends unavailable</text>
	<text transform="matrix(1 0 0 1 13.4303 56.7356)" fill="#414042" font-family="'Karla-Regular'" font-size="2.4">Good weather + friends unavailable</text>
	<text transform="matrix(1 0 0 1 13.4303 63.5347)" fill="#414042" font-family="'Karla-Regular'" font-size="2.4">Good weather + friends available</text>
	<polygon fill="#E0524B" points="11,50.3 10.5,49.9 9.7,50.7 8.8,49.9 8.4,50.3 9.2,51.2 8.4,52 8.8,52.5 9.7,51.7 10.5,52.5 11,52 
		10.1,51.2 	"/>
	<polygon fill="#E0524B" points="11,55.2 10.5,54.7 9.7,55.6 8.8,54.7 8.4,55.2 9.2,56 8.4,56.9 8.8,57.3 9.7,56.5 10.5,57.3 
		11,56.9 10.1,56 	"/>
	<polygon fill="#42B977" points="11,61.3 9.2,63 8.4,62.2 7.9,62.7 9.2,64 11.4,61.8 	"/>
</g>
</svg>
