<?xml version="1.0" encoding="utf-8"?>
<!-- Generator: Adobe Illustrator 18.1.1, SVG Export Plug-In . SVG Version: 6.00 Build 0)  -->
<svg version="1.1" id="Layer_1" xmlns="http://www.w3.org/2000/svg" xmlns:xlink="http://www.w3.org/1999/xlink" x="0px" y="0px"
	 viewBox="0 0 800 700" enable-background="new 0 0 800 700" xml:space="preserve">
<g>
	<rect x="239" y="92" fill="none" stroke="#939598" stroke-width="2" stroke-miterlimit="10" width="320" height="496"/>
	<path fill="none" stroke="#939598" stroke-width="2" stroke-miterlimit="10" d="M586,612.9c0,31-25.1,56.1-56.1,56.1H269.1
		c-31,0-56.1-25.1-56.1-56.1V66.1c0-31,25.1-56.1,56.1-56.1h260.8c31,0,56.1,25.1,56.1,56.1V612.9z"/>
	<circle fill="none" stroke="#939598" stroke-width="2" stroke-miterlimit="10" cx="341.2" cy="50.8" r="7"/>
	<circle fill="none" stroke="#939598" stroke-width="2" stroke-miterlimit="10" cx="399.8" cy="29.2" r="4.7"/>
	<path fill="none" stroke="#939598" stroke-width="2" stroke-miterlimit="10" d="M429,51c0,2.2-1.8,4-4,4h-52c-2.2,0-4-1.8-4-4v0
		c0-2.2,1.8-4,4-4h52C427.2,47,429,48.8,429,51L429,51z"/>
	<circle fill="none" stroke="#939598" stroke-width="2" stroke-miterlimit="10" cx="399.8" cy="625.2" r="28"/>
	<circle fill="none" stroke="#939598" stroke-width="2" stroke-miterlimit="10" cx="399.8" cy="625.2" r="23.3"/>
</g>
<g>
	<rect x="239.5" y="92" fill="#6D6E71" stroke="#939598" stroke-width="2" stroke-miterlimit="10" width="320" height="39.3"/>
	<g>
		<g>
			
				<line fill="none" stroke="#FFFFFF" stroke-width="3" stroke-linecap="round" stroke-miterlimit="10" x1="251" y1="106.6" x2="268" y2="106.6"/>
			
				<line fill="none" stroke="#FFFFFF" stroke-width="3" stroke-linecap="round" stroke-miterlimit="10" x1="251" y1="112.6" x2="268" y2="112.6"/>
			
				<line fill="none" stroke="#FFFFFF" stroke-width="3" stroke-linecap="round" stroke-miterlimit="10" x1="251" y1="118.6" x2="268" y2="118.6"/>
		</g>
	</g>
	<text transform="matrix(1 0 0 1 352.4133 118.6282)" fill="#FFFFFF" font-family="'Karla-Bold'" font-size="16">Prime Climb</text>
</g>
<g>
	<rect x="253.4" y="228.6" fill="none" stroke="#D1D3D4" stroke-miterlimit="10" width="288.7" height="79.3"/>
	<g>
		<text transform="matrix(1 0 0 1 265.6016 274.5872)"><tspan x="0" y="0" fill="#58595B" font-family="'Karla-Bold'" font-size="16">Jackson Falls, IL</tspan><tspan x="0" y="20" fill="#939598" font-family="'Karla-Regular'" font-size="10">Shaded climbing  </tspan><tspan x="82.7" y="20" fill="#939598" font-family="'AvenirNext-Regular'" font-size="10">·</tspan><tspan x="85.3" y="20" fill="#939598" font-family="'Karla-Regular'" font-size="10">  Moderate routes  </tspan><tspan x="170" y="20" fill="#939598" font-family="'AvenirNext-Regular'" font-size="10">·</tspan><tspan x="172.6" y="20" fill="#939598" font-family="'Karla-Regular'" font-size="10">   4 hour drive</tspan></text>
	</g>
	<line fill="none" stroke="#E6E7E8" stroke-miterlimit="10" x1="542.1" y1="251.3" x2="253.4" y2="251.3"/>
	<text transform="matrix(1 0 0 1 280.3328 244.6434)"><tspan x="0" y="0" fill="#58595B" font-family="'Karla-Bold'" font-size="10">Climb on.</tspan><tspan x="44.9" y="0" fill="#58595B" font-family="'Karla-Regular'" font-size="10">  </tspan><tspan x="49.6" y="0" fill="#939598" font-family="'Karla-Regular'" font-size="10">Mid-70s and sunny all weekend.</tspan></text>
	<polygon fill="#42B977" points="274.3,236 268,242.3 264.9,239.2 263.2,240.9 266.3,244 268,245.6 276,237.7 	"/>
</g>
<g>
	<rect x="253.4" y="319.9" fill="none" stroke="#D1D3D4" stroke-miterlimit="10" width="288.7" height="79.3"/>
	<g>
		<text transform="matrix(1 0 0 1 265.6016 365.8716)"><tspan x="0" y="0" fill="#58595B" font-family="'Karla-Regular'" font-size="16">The Ozarks, MO</tspan><tspan x="0" y="20" fill="#939598" font-family="'Karla-Regular'" font-size="10">Mixed climbing  </tspan><tspan x="75.6" y="20" fill="#939598" font-family="'AvenirNext-Regular'" font-size="10">·</tspan><tspan x="78.2" y="20" fill="#939598" font-family="'Karla-Regular'" font-size="10">  Easier routes  </tspan><tspan x="148" y="20" fill="#939598" font-family="'AvenirNext-Regular'" font-size="10">·</tspan><tspan x="150.6" y="20" fill="#939598" font-family="'Karla-Regular'" font-size="10">   7 hour drive</tspan></text>
	</g>
	<line fill="none" stroke="#E6E7E8" stroke-miterlimit="10" x1="542.1" y1="342.6" x2="253.4" y2="342.6"/>
	<text transform="matrix(1 0 0 1 280.3328 335.9279)"><tspan x="0" y="0" fill="#58595B" font-family="'Karla-Bold'" font-size="10">Climb on.</tspan><tspan x="44.9" y="0" fill="#58595B" font-family="'Karla-Regular'" font-size="10">  </tspan><tspan x="49.6" y="0" fill="#939598" font-family="'Karla-Regular'" font-size="10">Mid-80s and partly sunny all weekend.</tspan></text>
	<polygon fill="#42B977" points="274.3,327.3 268,333.6 264.9,330.5 263.2,332.2 266.3,335.2 268,336.9 276,328.9 	"/>
</g>
<g>
	<rect x="253.4" y="502.4" fill="none" stroke="#D1D3D4" stroke-miterlimit="10" width="288.7" height="79.3"/>
	<g>
		<text transform="matrix(1 0 0 1 265.6016 548.4404)"><tspan x="0" y="0" fill="#58595B" font-family="'Karla-Regular'" font-size="16">Red Rover Gorge, KY</tspan><tspan x="0" y="20" fill="#939598" font-family="'Karla-Regular'" font-size="10">Mixed climbing  </tspan><tspan x="75.6" y="20" fill="#939598" font-family="'AvenirNext-Regular'" font-size="10">·</tspan><tspan x="78.2" y="20" fill="#939598" font-family="'Karla-Regular'" font-size="10">  Challenging routes  </tspan><tspan x="174.5" y="20" fill="#939598" font-family="'AvenirNext-Regular'" font-size="10">·</tspan><tspan x="177.1" y="20" fill="#939598" font-family="'Karla-Regular'" font-size="10">  6.5 hour drive</tspan></text>
	</g>
	<line fill="none" stroke="#E6E7E8" stroke-miterlimit="10" x1="542.1" y1="525.2" x2="253.4" y2="525.2"/>
	<text transform="matrix(1 0 0 1 280.3328 518.4966)"><tspan x="0" y="0" fill="#58595B" font-family="'Karla-Bold'" font-size="10">No go.</tspan><tspan x="29" y="0" fill="#58595B" font-family="'Karla-Regular'" font-size="10">  </tspan><tspan x="33.7" y="0" fill="#939598" font-family="'Karla-Regular'" font-size="10">Thunderstorms expected Saturday.</tspan></text>
	<g>
		
			<rect x="268.4" y="509.1" transform="matrix(-0.7071 0.7071 -0.7071 -0.7071 823.5543 687.2224)" fill="#E0524B" width="2.1" height="10.1"/>
		
			<rect x="268.4" y="509.1" transform="matrix(-0.7071 -0.7071 0.7071 -0.7071 96.4012 1068.2804)" fill="#E0524B" width="2.1" height="10.1"/>
	</g>
</g>
<g>
	<text transform="matrix(1 0 0 1 388.4367 214.6663)" fill="#939598" font-family="'Karla-Regular'" font-size="10">Currently in: Bloomington, IL 61701</text>
</g>
<g>
	<rect x="253.4" y="411.2" fill="none" stroke="#D1D3D4" stroke-miterlimit="10" width="288.7" height="79.3"/>
	<g>
		<text transform="matrix(1 0 0 1 265.6016 457.156)"><tspan x="0" y="0" fill="#58595B" font-family="'Karla-Regular'" font-size="16">Devil’s Lake, WI</tspan><tspan x="0" y="20" fill="#939598" font-family="'Karla-Regular'" font-size="10">Protected climbing  </tspan><tspan x="91.7" y="20" fill="#939598" font-family="'AvenirNext-Regular'" font-size="10">·</tspan><tspan x="94.3" y="20" fill="#939598" font-family="'Karla-Regular'" font-size="10">  Moderate routes  </tspan><tspan x="179" y="20" fill="#939598" font-family="'AvenirNext-Regular'" font-size="10">·</tspan><tspan x="181.6" y="20" fill="#939598" font-family="'Karla-Regular'" font-size="10">  3 hour drive</tspan></text>
	</g>
	<line fill="none" stroke="#E6E7E8" stroke-miterlimit="10" x1="542.1" y1="433.9" x2="253.4" y2="433.9"/>
	<text transform="matrix(1 0 0 1 280.3328 427.2123)"><tspan x="0" y="0" fill="#58595B" font-family="'Karla-Bold'" font-size="10">Iffy.  </tspan><tspan x="22.6" y="0" fill="#939598" font-family="'Karla-Regular'" font-size="10">Hot, chance of rain Friday.</tspan></text>
	<g>
		<path fill="none" stroke="#EF9943" stroke-width="2" stroke-linecap="square" stroke-miterlimit="10" d="M263.1,422.6
			c1.5-0.9,3.4-2.1,5.2-0.3c1.4,1.4,3.4,0,4.8-0.8"/>
		<path fill="none" stroke="#EF9943" stroke-width="2" stroke-linecap="square" stroke-miterlimit="10" d="M263.1,426.4
			c1.5-0.9,3.4-2.1,5.2-0.3c1.4,1.4,3.4,0,4.8-0.8"/>
	</g>
</g>
<g>
	<text transform="matrix(1 0 0 1 253.4346 214.6667)" fill="#939598" font-family="'Karla-Regular'" font-size="10">Favorite locations</text>
</g>
<rect x="239.5" y="131.3" opacity="0.4" fill="#808285" stroke="#939598" stroke-miterlimit="10" width="320" height="456.7"/>
<rect x="253.4" y="146.1" fill="#FFFFFF" stroke="#939598" stroke-miterlimit="10" width="288.7" height="239.4"/>
<g>
	<text transform="matrix(1 0 0 1 265.6025 166.8142)"><tspan x="0" y="0" fill="#58595B" font-family="'Karla-Bold'" font-size="15">Today</tspan><tspan x="0" y="14" fill="#939598" font-family="'Karla-Regular'" font-size="11">Thu, May 7</tspan><tspan x="0" y="42" fill="#58595B" font-family="'Karla-Bold'" font-size="15">This weekend</tspan><tspan x="0" y="56" fill="#939598" font-family="'Karla-Regular'" font-size="11">Fri, May 8 - Sun, May 10</tspan><tspan x="0" y="84" fill="#58595B" font-family="'Karla-Bold'" font-size="15">Next week</tspan><tspan x="0" y="98" fill="#939598" font-family="'Karla-Regular'" font-size="11">Mon, May 11 - Fri May 15</tspan></text>
</g>
<line fill="none" stroke="#E6E7E8" stroke-width="2" stroke-miterlimit="10" x1="265.1" y1="297.8" x2="526.3" y2="297.8"/>
<rect x="265.6" y="321.7" fill="none" stroke="#E6E7E8" stroke-width="2" stroke-miterlimit="10" width="260.7" height="34.7"/>
<g>
	<text transform="matrix(1 0 0 1 280.5 344.5)" fill="#939598" font-family="'Karla-Bold'" font-size="15">Day</text>
</g>
<g>
	<text transform="matrix(1 0 0 1 354 344.5)" fill="#939598" font-family="'Karla-Bold'" font-size="15">Month</text>
</g>
<g>
	<text transform="matrix(1 0 0 1 451.5 344.5)" fill="#939598" font-family="'Karla-Bold'" font-size="15">Year</text>
</g>
<polyline fill="none" stroke="#939598" stroke-width="2" stroke-linecap="round" stroke-linejoin="round" stroke-miterlimit="10" points="
	490.8,337.7 495.6,342.5 500.5,337.7 "/>
<polyline fill="none" stroke="#939598" stroke-width="2" stroke-linecap="round" stroke-linejoin="round" stroke-miterlimit="10" points="
	408.7,337.7 413.6,342.5 418.4,337.7 "/>
<polyline fill="none" stroke="#939598" stroke-width="2" stroke-linecap="round" stroke-linejoin="round" stroke-miterlimit="10" points="
	315.7,337.7 320.5,342.5 325.4,337.7 "/>
</svg>
