<?xml version="1.0" encoding="utf-8"?>
<!-- Generator: Adobe Illustrator 18.1.1, SVG Export Plug-In . SVG Version: 6.00 Build 0)  -->
<svg version="1.1" id="Layer_1" xmlns="http://www.w3.org/2000/svg" xmlns:xlink="http://www.w3.org/1999/xlink" x="0px" y="0px"
	 viewBox="0 0 800 200" enable-background="new 0 0 800 200" xml:space="preserve">
<g>
	<g>
		<path fill="#D1D3D4" d="M551.3,171.4H36.6V28.6h514.7V171.4z M38.6,169.4h510.7V30.6H38.6V169.4z"/>
	</g>
	<g>
		<path fill="#58595B" d="M67.3,93.4c2.7,0,4.8,0.8,6.5,2.4s2.4,3.8,2.4,6.5c0,2.7-0.8,4.9-2.4,6.5c-1.6,1.6-3.8,2.4-6.5,2.4h-5.3
			V93.4H67.3z M64.3,109.3h3c2,0,3.6-0.7,4.7-2c1.2-1.3,1.8-3,1.8-5c0-2-0.6-3.7-1.8-5c-1.2-1.3-2.8-1.9-4.7-1.9h-3V109.3z"/>
		<path fill="#58595B" d="M85.6,109.8c1.9,0,2.9-0.8,3.2-2.5h2.3c-0.2,1.4-0.8,2.4-1.8,3.2c-1,0.7-2.2,1.1-3.7,1.1
			c-1.8,0-3.3-0.6-4.4-1.9c-1.1-1.3-1.7-3-1.7-5.2s0.6-3.9,1.7-5.2s2.7-1.9,4.6-1.9s3.3,0.7,4.3,2.2c0.9,1.5,1.3,3.3,1,5.4h-9.3
			c0,1.4,0.3,2.6,1,3.5C83.4,109.3,84.3,109.8,85.6,109.8z M87.2,99.5c-0.4-0.2-1-0.3-1.6-0.3c-1.2,0-2.1,0.4-2.7,1.2
			c-0.7,0.8-1.1,1.8-1.2,2.9h7.2C88.9,101.4,88.4,100.1,87.2,99.5z"/>
		<path fill="#58595B" d="M95.7,97.7l4.1,11.2l4.1-11.2h2.5l-5.4,13.6h-2.5l-5.4-13.6H95.7z"/>
		<path fill="#58595B" d="M111,94.5c-0.5,0-0.8-0.1-1.1-0.4c-0.3-0.3-0.4-0.6-0.4-1s0.1-0.8,0.4-1c0.3-0.3,0.6-0.4,1.1-0.4
			s0.8,0.1,1.1,0.4c0.3,0.3,0.4,0.6,0.4,1s-0.1,0.8-0.4,1C111.9,94.4,111.5,94.5,111,94.5z M109.9,97.7h2.2v13.6h-2.2V97.7z"/>
		<path fill="#58595B" d="M118.3,91.9h2.2v19.4h-2.2V91.9z"/>
		<path fill="#58595B" d="M124.8,93.9c0.3-0.3,0.7-0.4,1.3-0.4c0.5,0,1,0.2,1.3,0.6c0.4,0.4,0.5,1,0.5,1.6s-0.2,1.3-0.7,2
			c-0.4,0.7-1.1,1.2-1.9,1.7l-1.6-0.9c1.2-0.6,1.9-1.3,2.1-2.2c-0.4,0-0.8-0.2-1.1-0.4c-0.3-0.2-0.4-0.6-0.4-1
			C124.4,94.6,124.5,94.2,124.8,93.9z"/>
		<path fill="#58595B" d="M133,98.4c1-0.7,2.2-1,3.9-1c1.6,0,2.9,0.3,3.8,1c0.9,0.7,1.4,1.5,1.4,2.6H140c-0.2-1.2-1.2-1.8-3.1-1.8
			c-0.9,0-1.6,0.2-2.1,0.6c-0.5,0.4-0.8,0.9-0.8,1.3c0,0.5,0.2,0.9,0.6,1.2c0.4,0.3,1,0.6,1.8,0.9l2.7,0.9c1.2,0.4,2,0.8,2.7,1.4
			s0.9,1.3,0.9,2.3s-0.5,1.9-1.5,2.6s-2.4,1.2-4.2,1.2c-1.8,0-3.2-0.4-4.2-1.2c-1-0.8-1.5-1.8-1.6-3.1h2.2c0,0.9,0.4,1.5,1,1.9
			c0.7,0.4,1.5,0.6,2.5,0.6c1,0,1.8-0.2,2.4-0.6c0.6-0.4,1-0.9,1-1.5c0-0.6-0.2-1-0.6-1.3c-0.4-0.3-1-0.6-1.8-0.8l-2.6-0.9
			c-2.4-0.7-3.6-1.9-3.6-3.7C131.6,99.9,132.1,99,133,98.4z"/>
		<path fill="#58595B" d="M156.3,109.3h8v2H154V93.4h2.2V109.3z"/>
		<path fill="#58595B" d="M175.7,102.5c0-1.2-0.3-2.1-0.8-2.6c-0.5-0.5-1.3-0.8-2.2-0.8s-1.8,0.2-2.4,0.6c-0.6,0.4-0.9,1-0.9,1.8
			H167c0-2.1,1.1-3.4,3.4-3.9c0.7-0.2,1.4-0.2,2.2-0.2c1.7,0,3,0.4,3.9,1.3c0.9,0.9,1.4,2.2,1.4,3.9v8.8H176l-0.2-2.3
			c-0.8,1.7-2.3,2.6-4.5,2.6c-1.5,0-2.6-0.4-3.5-1.2s-1.3-1.8-1.3-3c0-1.2,0.5-2.2,1.5-2.8s2.2-1,3.7-1c1.5,0,2.9,0.2,4.2,0.7V102.5
			z M175.7,105.6c-1.3-0.4-2.5-0.6-3.5-0.6c-1,0-1.8,0.2-2.4,0.5c-0.6,0.4-0.9,0.9-0.9,1.7c0,1.7,1,2.6,2.9,2.6c1.1,0,2-0.4,2.8-1.2
			S175.7,106.9,175.7,105.6z"/>
		<path fill="#58595B" d="M187.3,104.1l-1.8,1.5v5.7h-2.2V91.9h2.2v11.3l6.6-5.5h3.1l-6.3,5.1l6.6,8.5h-2.8L187.3,104.1z"/>
		<path fill="#58595B" d="M204,109.8c1.9,0,2.9-0.8,3.2-2.5h2.3c-0.2,1.4-0.8,2.4-1.8,3.2c-1,0.7-2.2,1.1-3.7,1.1
			c-1.8,0-3.3-0.6-4.4-1.9c-1.1-1.3-1.7-3-1.7-5.2s0.6-3.9,1.7-5.2s2.7-1.9,4.6-1.9s3.3,0.7,4.3,2.2c0.9,1.5,1.3,3.3,1,5.4h-9.3
			c0,1.4,0.3,2.6,1,3.5C201.8,109.3,202.7,109.8,204,109.8z M205.6,99.5c-0.4-0.2-1-0.3-1.6-0.3c-1.2,0-2.1,0.4-2.7,1.2
			c-0.7,0.8-1.1,1.8-1.2,2.9h7.2C207.3,101.4,206.8,100.1,205.6,99.5z"/>
		<path fill="#58595B" d="M212.9,111c-0.3-0.2-0.4-0.6-0.4-1s0.1-0.8,0.4-1.1c0.3-0.3,0.7-0.4,1.2-0.4c0.5,0,1,0.2,1.4,0.6
			c0.4,0.4,0.5,1,0.5,1.6s-0.2,1.3-0.6,2c-0.4,0.7-1.1,1.2-1.9,1.6l-1.7-0.8c1.2-0.6,1.9-1.3,2.1-2.1
			C213.6,111.4,213.2,111.3,212.9,111z"/>
		<path fill="#58595B" d="M226.7,93.4l4.3,14.9l4.4-13h1.5l4.4,13l5-14.9h2.5l-6.3,17.9h-2.4l-3.9-11.5l-4,11.5h-2.4l-5.7-17.9
			H226.7z"/>
		<path fill="#58595B" d="M252.1,93.4h2.2v17.9h-2.2V93.4z"/>
		<path fill="#939598" d="M67.4,136.6c0.6,0.6,1,1.5,1,2.5c0,1.1-0.3,1.9-1,2.5c-0.6,0.6-1.6,0.9-2.8,0.9h-2.2v4.3H61v-11.2h3.6
			C65.8,135.6,66.7,135.9,67.4,136.6z M64.6,141.3c0.8,0,1.4-0.2,1.7-0.6s0.6-0.9,0.6-1.6s-0.2-1.2-0.6-1.6c-0.4-0.4-1-0.6-1.7-0.6
			h-2.2v4.4H64.6z"/>
		<path fill="#939598" d="M74.3,139.5c-1.3,0-2,1.1-2.1,3.2v4.1h-1.4v-8.5h1.4v1.6c0.4-1.2,1.2-1.8,2.3-1.8c0.3,0,0.7,0.1,1,0.2
			l-0.1,1.4C75,139.6,74.7,139.5,74.3,139.5z"/>
		<path fill="#939598" d="M80.7,138.1c1.2,0,2.1,0.4,2.9,1.2c0.7,0.8,1.1,1.9,1.1,3.3c0,1.4-0.4,2.5-1.1,3.3s-1.7,1.2-2.9,1.2
			c-1.2,0-2.1-0.4-2.9-1.2s-1.1-1.9-1.1-3.3c0-1.4,0.4-2.5,1.1-3.3C78.5,138.5,79.5,138.1,80.7,138.1z M83.2,142.6
			c0-1-0.2-1.8-0.6-2.4s-1.1-0.9-1.9-0.9c-0.8,0-1.5,0.3-1.9,0.9s-0.7,1.4-0.7,2.4c0,1,0.2,1.8,0.6,2.4c0.4,0.6,1,0.9,1.9,0.9
			s1.5-0.3,1.9-0.9C83,144.4,83.2,143.6,83.2,142.6z"/>
		<path fill="#939598" d="M91.7,146.6c-1,0.5-1.9,0.6-2.8,0.3c-0.6-0.2-1-0.6-1.3-1.2c-0.1-0.3-0.2-0.7-0.2-1.1v-5.2h-1.4v-1.1h1.4
			V136h1.4v2.4h2.7v1.1h-2.7v5.2c0,0.9,0.4,1.3,1.2,1.3c0.4,0,0.9-0.1,1.5-0.3L91.7,146.6z"/>
		<path fill="#939598" d="M96.9,145.9c1.2,0,1.8-0.5,2-1.5h1.4c-0.1,0.9-0.5,1.5-1.1,2s-1.4,0.7-2.3,0.7c-1.1,0-2.1-0.4-2.8-1.2
			c-0.7-0.8-1.1-1.9-1.1-3.2c0-1.4,0.4-2.4,1.1-3.2s1.7-1.2,2.9-1.2c1.2,0,2.1,0.5,2.7,1.4c0.6,0.9,0.8,2,0.6,3.4h-5.8
			c0,0.9,0.2,1.6,0.6,2.2C95.5,145.6,96.1,145.9,96.9,145.9z M97.9,139.4c-0.3-0.1-0.6-0.2-1-0.2c-0.7,0-1.3,0.2-1.7,0.7
			c-0.4,0.5-0.7,1.1-0.7,1.8H99C99,140.6,98.7,139.8,97.9,139.4z"/>
		<path fill="#939598" d="M106,138.1c1,0,1.8,0.3,2.4,0.8c0.6,0.5,1,1.2,1.2,1.9l-1.4,0.1c-0.2-0.5-0.4-0.9-0.7-1.2
			s-0.7-0.4-1.1-0.4c-0.8,0-1.4,0.3-1.8,0.9s-0.7,1.3-0.7,2.3s0.2,1.8,0.7,2.4c0.5,0.6,1,0.9,1.7,0.9s1.2-0.2,1.5-0.5
			c0.3-0.3,0.5-0.8,0.5-1.3h1.4c0,0.9-0.3,1.6-1,2.2c-0.6,0.6-1.5,0.8-2.5,0.8c-1.1,0-2-0.4-2.7-1.2c-0.8-0.8-1.1-1.9-1.1-3.3
			c0-1.4,0.4-2.4,1.1-3.2C104.1,138.5,105,138.1,106,138.1z"/>
		<path fill="#939598" d="M116.7,146.6c-1,0.5-1.9,0.6-2.8,0.3c-0.6-0.2-1-0.6-1.3-1.2c-0.1-0.3-0.2-0.7-0.2-1.1v-5.2h-1.4v-1.1h1.4
			V136h1.4v2.4h2.7v1.1h-2.7v5.2c0,0.9,0.4,1.3,1.2,1.3c0.4,0,0.9-0.1,1.5-0.3L116.7,146.6z"/>
		<path fill="#939598" d="M121.9,145.9c1.2,0,1.8-0.5,2-1.5h1.4c-0.1,0.9-0.5,1.5-1.1,2s-1.4,0.7-2.3,0.7c-1.1,0-2.1-0.4-2.8-1.2
			c-0.7-0.8-1.1-1.9-1.1-3.2c0-1.4,0.4-2.4,1.1-3.2s1.7-1.2,2.9-1.2c1.2,0,2.1,0.5,2.7,1.4c0.6,0.9,0.8,2,0.6,3.4h-5.8
			c0,0.9,0.2,1.6,0.6,2.2C120.5,145.6,121.1,145.9,121.9,145.9z M122.9,139.4c-0.3-0.1-0.6-0.2-1-0.2c-0.7,0-1.3,0.2-1.7,0.7
			c-0.4,0.5-0.7,1.1-0.7,1.8h4.5C124,140.6,123.6,139.8,122.9,139.4z"/>
		<path fill="#939598" d="M133.7,139.6v-4.9h1.4v12.1h-1.1l-0.2-1.4c-0.3,0.5-0.6,0.9-1.1,1.2c-0.5,0.3-0.9,0.4-1.5,0.4
			c-1.1,0-2-0.4-2.7-1.2c-0.7-0.8-1.1-1.9-1.1-3.2s0.4-2.4,1.1-3.2c0.7-0.8,1.6-1.2,2.7-1.2S133.1,138.6,133.7,139.6z M131.2,139.3
			c-0.7,0-1.3,0.3-1.7,0.9c-0.5,0.6-0.7,1.4-0.7,2.3s0.2,1.7,0.7,2.3s1,0.9,1.7,0.9c0.7,0,1.2-0.2,1.7-0.7s0.7-1,0.7-1.8v-1.4
			c0-0.8-0.2-1.4-0.7-1.9C132.5,139.6,131.9,139.3,131.2,139.3z"/>
		<path fill="#939598" d="M145.7,138.1c1,0,1.8,0.3,2.4,0.8c0.6,0.5,1,1.2,1.2,1.9l-1.4,0.1c-0.2-0.5-0.4-0.9-0.7-1.2
			s-0.7-0.4-1.1-0.4c-0.8,0-1.4,0.3-1.8,0.9s-0.7,1.3-0.7,2.3s0.2,1.8,0.7,2.4c0.5,0.6,1,0.9,1.7,0.9s1.2-0.2,1.5-0.5
			c0.3-0.3,0.5-0.8,0.5-1.3h1.4c0,0.9-0.3,1.6-1,2.2c-0.6,0.6-1.5,0.8-2.5,0.8c-1.1,0-2-0.4-2.7-1.2c-0.8-0.8-1.1-1.9-1.1-3.3
			c0-1.4,0.4-2.4,1.1-3.2C143.8,138.5,144.7,138.1,145.7,138.1z"/>
		<path fill="#939598" d="M152,134.7h1.4v12.1H152V134.7z"/>
		<path fill="#939598" d="M157.8,136.3c-0.3,0-0.5-0.1-0.7-0.2c-0.2-0.2-0.2-0.4-0.2-0.6c0-0.3,0.1-0.5,0.2-0.6
			c0.2-0.2,0.4-0.2,0.7-0.2s0.5,0.1,0.7,0.2c0.2,0.2,0.3,0.4,0.3,0.6c0,0.3-0.1,0.5-0.3,0.6C158.3,136.2,158.1,136.3,157.8,136.3z
			 M157.1,138.3h1.4v8.5h-1.4V138.3z"/>
		<path fill="#939598" d="M163.7,140c0.6-1.2,1.5-1.8,2.9-1.8c0.7,0,1.3,0.2,1.8,0.5c0.5,0.4,0.9,0.9,1.1,1.5c0.5-1.4,1.5-2,3-2
			c1,0,1.8,0.3,2.4,1s0.8,1.6,0.8,2.7v5h-1.4v-5c0-0.8-0.2-1.4-0.6-1.8c-0.4-0.4-0.9-0.6-1.7-0.6s-1.3,0.3-1.7,0.9
			c-0.4,0.6-0.6,1.4-0.6,2.5v4.1h-1.4v-5c0-0.8-0.2-1.4-0.6-1.8c-0.4-0.4-0.9-0.6-1.6-0.6c-0.7,0-1.3,0.3-1.7,0.9
			c-0.4,0.6-0.7,1.4-0.7,2.4v4.2h-1.4v-8.5h1.2L163.7,140z"/>
		<path fill="#939598" d="M180.3,139.6c0.6-1,1.4-1.5,2.5-1.5c1.1,0,2,0.4,2.7,1.2s1.1,1.9,1.1,3.2c0,1.3-0.4,2.4-1.1,3.2
			c-0.7,0.8-1.6,1.2-2.7,1.2c-0.6,0-1.1-0.1-1.5-0.4c-0.5-0.3-0.8-0.7-1.1-1.3l-0.3,1.5h-1v-12.1h1.4V139.6z M182.7,139.3
			c-0.7,0-1.2,0.2-1.7,0.6c-0.4,0.4-0.7,1-0.7,1.8v1.4c0,0.8,0.2,1.4,0.7,1.9s1,0.7,1.7,0.7c0.7,0,1.2-0.3,1.7-0.9
			c0.5-0.6,0.7-1.4,0.7-2.3s-0.2-1.7-0.7-2.3S183.4,139.3,182.7,139.3z"/>
		<path fill="#939598" d="M190.1,136.3c-0.3,0-0.5-0.1-0.7-0.2c-0.2-0.2-0.2-0.4-0.2-0.6c0-0.3,0.1-0.5,0.2-0.6
			c0.2-0.2,0.4-0.2,0.7-0.2s0.5,0.1,0.7,0.2c0.2,0.2,0.3,0.4,0.3,0.6c0,0.3-0.1,0.5-0.3,0.6C190.6,136.2,190.3,136.3,190.1,136.3z
			 M189.4,138.3h1.4v8.5h-1.4V138.3z"/>
		<path fill="#939598" d="M195.9,140c0.6-1.2,1.5-1.8,2.9-1.8c1,0,1.8,0.3,2.4,1s0.8,1.6,0.8,2.7v5h-1.4v-5c0-0.8-0.2-1.4-0.6-1.8
			c-0.4-0.4-0.9-0.6-1.6-0.6c-0.7,0-1.3,0.3-1.7,0.9c-0.4,0.6-0.7,1.4-0.7,2.4v4.2h-1.4v-8.5h1.2L195.9,140z"/>
		<path fill="#939598" d="M205.7,146.5c-0.7-0.3-1.1-0.9-1.1-1.6c0-0.4,0.1-0.7,0.4-1s0.6-0.5,1-0.6c-0.6-0.6-1-1.3-1-2.2
			c0-0.9,0.3-1.7,1-2.2c0.7-0.6,1.4-0.9,2.3-0.9s1.7,0.2,2.3,0.6c0.1-0.6,0.3-1.1,0.8-1.5c0.4-0.4,1-0.6,1.7-0.6l-0.1,1.4
			c-1,0-1.6,0.4-1.6,1.3c0.4,0.5,0.6,1.1,0.6,1.8c0,0.9-0.3,1.7-1,2.2s-1.5,0.9-2.5,0.9c-0.7,0-1.3-0.1-1.8-0.4
			c-0.2,0-0.4,0.2-0.6,0.3c-0.2,0.2-0.3,0.4-0.3,0.7c0,0.6,0.5,0.9,1.6,0.9h3.3c0.8,0,1.4,0.2,1.9,0.5c0.5,0.3,0.7,0.8,0.7,1.4
			c0,0.9-0.5,1.7-1.4,2.4s-2.1,1-3.4,1s-2.5-0.3-3.3-0.8c-0.8-0.5-1.2-1.2-1.2-1.9c0-0.5,0.2-0.9,0.5-1.2
			C204.8,146.9,205.2,146.7,205.7,146.5z M205.4,148.4c0,0.4,0.2,0.8,0.7,1.2c0.5,0.3,1.2,0.5,2.2,0.5s1.8-0.2,2.5-0.6
			c0.7-0.4,1-0.9,1-1.5c0-0.3-0.1-0.5-0.3-0.7s-0.5-0.3-0.9-0.3h-3.4c-0.6,0-1.1,0.2-1.4,0.4C205.5,147.6,205.4,148,205.4,148.4z
			 M210.6,141.2c0-0.6-0.2-1.1-0.6-1.5c-0.4-0.4-0.9-0.6-1.5-0.6c-0.6,0-1.2,0.2-1.5,0.6s-0.6,0.9-0.6,1.5c0,0.6,0.2,1.1,0.6,1.5
			c0.4,0.4,0.9,0.6,1.5,0.6c0.6,0,1.1-0.2,1.5-0.6C210.4,142.3,210.6,141.8,210.6,141.2z"/>
		<path fill="#939598" d="M225.3,141.2c0,0.2-0.1,0.5-0.3,0.7c-0.2,0.2-0.4,0.3-0.7,0.3s-0.5-0.1-0.7-0.3c-0.2-0.2-0.3-0.4-0.3-0.7
			c0-0.2,0.1-0.5,0.3-0.7c0.2-0.2,0.4-0.3,0.7-0.3s0.5,0.1,0.7,0.3C225.2,140.8,225.3,141,225.3,141.2z"/>
		<path fill="#939598" d="M238.9,135.6l3.8,7.6l3.7-7.6h2v11.2h-1.4v-9.2l-3.8,7.8h-0.9l-3.9-7.9v9.3h-1.4v-11.2H238.9z"/>
		<path fill="#939598" d="M255,138.1c1.2,0,2.1,0.4,2.9,1.2c0.7,0.8,1.1,1.9,1.1,3.3c0,1.4-0.4,2.5-1.1,3.3s-1.7,1.2-2.9,1.2
			c-1.2,0-2.1-0.4-2.9-1.2s-1.1-1.9-1.1-3.3c0-1.4,0.4-2.5,1.1-3.3C252.8,138.5,253.8,138.1,255,138.1z M257.5,142.6
			c0-1-0.2-1.8-0.6-2.4s-1.1-0.9-1.9-0.9c-0.8,0-1.5,0.3-1.9,0.9s-0.7,1.4-0.7,2.4c0,1,0.2,1.8,0.6,2.4c0.4,0.6,1,0.9,1.9,0.9
			s1.5-0.3,1.9-0.9C257.3,144.4,257.5,143.6,257.5,142.6z"/>
		<path fill="#939598" d="M267.2,139.6v-4.9h1.4v12.1h-1.1l-0.2-1.4c-0.3,0.5-0.6,0.9-1.1,1.2c-0.5,0.3-0.9,0.4-1.5,0.4
			c-1.1,0-2-0.4-2.7-1.2c-0.7-0.8-1.1-1.9-1.1-3.2s0.4-2.4,1.1-3.2c0.7-0.8,1.6-1.2,2.7-1.2S266.6,138.6,267.2,139.6z M264.8,139.3
			c-0.7,0-1.3,0.3-1.7,0.9c-0.5,0.6-0.7,1.4-0.7,2.3s0.2,1.7,0.7,2.3s1,0.9,1.7,0.9c0.7,0,1.2-0.2,1.7-0.7s0.7-1,0.7-1.8v-1.4
			c0-0.8-0.2-1.4-0.7-1.9C266,139.6,265.4,139.3,264.8,139.3z"/>
		<path fill="#939598" d="M275.1,145.9c1.2,0,1.8-0.5,2-1.5h1.4c-0.1,0.9-0.5,1.5-1.1,2s-1.4,0.7-2.3,0.7c-1.1,0-2.1-0.4-2.8-1.2
			c-0.7-0.8-1.1-1.9-1.1-3.2c0-1.4,0.4-2.4,1.1-3.2s1.7-1.2,2.9-1.2c1.2,0,2.1,0.5,2.7,1.4c0.6,0.9,0.8,2,0.6,3.4h-5.8
			c0,0.9,0.2,1.6,0.6,2.2C273.7,145.6,274.3,145.9,275.1,145.9z M276.1,139.4c-0.3-0.1-0.6-0.2-1-0.2c-0.7,0-1.3,0.2-1.7,0.7
			c-0.4,0.5-0.7,1.1-0.7,1.8h4.5C277.2,140.6,276.8,139.8,276.1,139.4z"/>
		<path fill="#939598" d="M284.8,139.5c-1.3,0-2,1.1-2.1,3.2v4.1h-1.4v-8.5h1.4v1.6c0.4-1.2,1.2-1.8,2.3-1.8c0.3,0,0.7,0.1,1,0.2
			l-0.1,1.4C285.5,139.6,285.1,139.5,284.8,139.5z"/>
		<path fill="#939598" d="M293.3,141.3c0-0.8-0.2-1.3-0.5-1.7c-0.3-0.3-0.8-0.5-1.4-0.5c-0.6,0-1.1,0.1-1.5,0.4
			c-0.4,0.2-0.6,0.6-0.6,1.1h-1.5c0-1.3,0.7-2.1,2.1-2.4c0.4-0.1,0.9-0.1,1.4-0.1c1.1,0,1.9,0.3,2.5,0.8c0.6,0.5,0.9,1.3,0.9,2.4
			v5.5h-1.2l-0.1-1.4c-0.5,1.1-1.5,1.6-2.8,1.6c-0.9,0-1.6-0.3-2.2-0.8c-0.6-0.5-0.8-1.1-0.8-1.9c0-0.8,0.3-1.3,0.9-1.8
			c0.6-0.4,1.4-0.6,2.3-0.6c0.9,0,1.8,0.2,2.6,0.5V141.3z M293.3,143.3c-0.8-0.2-1.6-0.4-2.2-0.4s-1.1,0.1-1.5,0.3s-0.6,0.6-0.6,1.1
			c0,1.1,0.6,1.6,1.8,1.6c0.7,0,1.3-0.2,1.8-0.7C293.1,144.7,293.3,144.1,293.3,143.3z"/>
		<path fill="#939598" d="M302.5,146.6c-1,0.5-1.9,0.6-2.8,0.3c-0.6-0.2-1-0.6-1.3-1.2c-0.1-0.3-0.2-0.7-0.2-1.1v-5.2h-1.4v-1.1h1.4
			V136h1.4v2.4h2.7v1.1h-2.7v5.2c0,0.9,0.4,1.3,1.2,1.3c0.4,0,0.9-0.1,1.5-0.3L302.5,146.6z"/>
		<path fill="#939598" d="M307.6,145.9c1.2,0,1.8-0.5,2-1.5h1.4c-0.1,0.9-0.5,1.5-1.1,2c-0.6,0.5-1.4,0.7-2.3,0.7
			c-1.1,0-2.1-0.4-2.8-1.2c-0.7-0.8-1.1-1.9-1.1-3.2c0-1.4,0.4-2.4,1.1-3.2s1.7-1.2,2.9-1.2c1.2,0,2.1,0.5,2.7,1.4
			c0.6,0.9,0.8,2,0.6,3.4h-5.8c0,0.9,0.2,1.6,0.6,2.2C306.3,145.6,306.9,145.9,307.6,145.9z M308.7,139.4c-0.3-0.1-0.6-0.2-1-0.2
			c-0.7,0-1.3,0.2-1.7,0.7c-0.4,0.5-0.7,1.1-0.7,1.8h4.5C309.7,140.6,309.4,139.8,308.7,139.4z"/>
		<path fill="#939598" d="M321.5,139.5c-1.3,0-2,1.1-2.1,3.2v4.1H318v-8.5h1.4v1.6c0.4-1.2,1.2-1.8,2.3-1.8c0.3,0,0.7,0.1,1,0.2
			l-0.1,1.4C322.3,139.6,321.9,139.5,321.5,139.5z"/>
		<path fill="#939598" d="M327.9,138.1c1.2,0,2.1,0.4,2.9,1.2c0.7,0.8,1.1,1.9,1.1,3.3c0,1.4-0.4,2.5-1.1,3.3
			c-0.7,0.8-1.7,1.2-2.9,1.2c-1.2,0-2.1-0.4-2.9-1.2c-0.7-0.8-1.1-1.9-1.1-3.3c0-1.4,0.4-2.5,1.1-3.3
			C325.7,138.5,326.7,138.1,327.9,138.1z M330.4,142.6c0-1-0.2-1.8-0.6-2.4c-0.4-0.6-1.1-0.9-1.9-0.9c-0.8,0-1.5,0.3-1.9,0.9
			c-0.4,0.6-0.7,1.4-0.7,2.4c0,1,0.2,1.8,0.6,2.4c0.4,0.6,1,0.9,1.9,0.9s1.5-0.3,1.9-0.9C330.2,144.4,330.4,143.6,330.4,142.6z"/>
		<path fill="#939598" d="M340.3,145.1c-0.6,1.2-1.5,1.8-2.8,1.8c-1,0-1.7-0.3-2.3-0.8c-0.6-0.5-0.9-1.4-0.9-2.5v-5.4h1.4v5.3
			c0,1.4,0.7,2.1,2,2.1c0.8,0,1.4-0.3,1.9-0.9s0.7-1.3,0.8-2.3v-4.3h1.4v8.5h-1.4V145.1z"/>
		<path fill="#939598" d="M349.7,146.6c-1,0.5-1.9,0.6-2.8,0.3c-0.6-0.2-1-0.6-1.3-1.2c-0.1-0.3-0.2-0.7-0.2-1.1v-5.2h-1.4v-1.1h1.4
			V136h1.4v2.4h2.7v1.1h-2.7v5.2c0,0.9,0.4,1.3,1.2,1.3c0.4,0,0.9-0.1,1.5-0.3L349.7,146.6z"/>
		<path fill="#939598" d="M354.9,145.9c1.2,0,1.8-0.5,2-1.5h1.4c-0.1,0.9-0.5,1.5-1.1,2c-0.6,0.5-1.4,0.7-2.3,0.7
			c-1.1,0-2.1-0.4-2.8-1.2c-0.7-0.8-1.1-1.9-1.1-3.2c0-1.4,0.4-2.4,1.1-3.2c0.7-0.8,1.7-1.2,2.9-1.2c1.2,0,2.1,0.5,2.7,1.4
			c0.6,0.9,0.8,2,0.6,3.4h-5.8c0,0.9,0.2,1.6,0.6,2.2C353.5,145.6,354.1,145.9,354.9,145.9z M355.9,139.4c-0.3-0.1-0.6-0.2-1-0.2
			c-0.7,0-1.3,0.2-1.7,0.7c-0.4,0.5-0.7,1.1-0.7,1.8h4.5C357,140.6,356.6,139.8,355.9,139.4z"/>
		<path fill="#939598" d="M361.6,138.7c0.6-0.4,1.4-0.6,2.4-0.6c1,0,1.8,0.2,2.4,0.6c0.6,0.4,0.9,1,0.9,1.6h-1.4
			c-0.1-0.8-0.8-1.2-2-1.2c-0.6,0-1,0.1-1.3,0.4s-0.5,0.5-0.5,0.8c0,0.3,0.1,0.6,0.4,0.8s0.6,0.4,1.1,0.5l1.7,0.6
			c0.7,0.2,1.3,0.5,1.7,0.9c0.4,0.3,0.6,0.8,0.6,1.4c0,0.6-0.3,1.2-0.9,1.7c-0.6,0.5-1.5,0.7-2.6,0.7s-2-0.3-2.6-0.8
			c-0.6-0.5-1-1.2-1-1.9h1.3c0,0.5,0.2,0.9,0.6,1.2c0.4,0.3,0.9,0.4,1.5,0.4c0.6,0,1.1-0.1,1.5-0.4c0.4-0.3,0.6-0.6,0.6-0.9
			s-0.1-0.6-0.4-0.8c-0.2-0.2-0.6-0.4-1.2-0.5l-1.7-0.6c-1.5-0.4-2.2-1.2-2.2-2.3C360.7,139.7,361,139.1,361.6,138.7z"/>
		<path fill="#939598" d="M380.4,141.2c0,0.2-0.1,0.5-0.3,0.7s-0.4,0.3-0.7,0.3s-0.5-0.1-0.7-0.3s-0.3-0.4-0.3-0.7
			c0-0.2,0.1-0.5,0.3-0.7s0.4-0.3,0.7-0.3s0.5,0.1,0.7,0.3S380.4,141,380.4,141.2z"/>
		<path fill="#939598" d="M399.2,138.5c0,1.2-0.7,2-2,2.5c0.7,0.2,1.3,0.5,1.7,1c0.4,0.5,0.7,1.1,0.7,1.8c0,1-0.4,1.8-1.1,2.4
			c-0.7,0.6-1.7,0.9-2.9,0.9c-1.2,0-2.3-0.3-3.1-1c-0.9-0.6-1.3-1.5-1.3-2.7h1.5c0,0.8,0.3,1.3,0.8,1.7c0.5,0.4,1.2,0.6,2.1,0.6
			c0.8,0,1.5-0.2,1.9-0.6c0.5-0.4,0.7-0.9,0.7-1.5s-0.2-1.1-0.7-1.4c-0.4-0.4-1.1-0.6-2.1-0.6H394v-1.1h0.9c0.9,0,1.5-0.2,2-0.5
			c0.5-0.3,0.7-0.8,0.7-1.4s-0.2-1-0.6-1.4c-0.4-0.4-0.9-0.6-1.6-0.6s-1.2,0.1-1.7,0.3c-0.4,0.2-0.7,0.7-0.9,1.3h-1.5
			c0.1-1,0.5-1.7,1.2-2.2c0.7-0.5,1.6-0.7,2.7-0.7c1.1,0,2,0.3,2.7,0.9C398.8,136.9,399.2,137.6,399.2,138.5z"/>
		<path fill="#939598" d="M408.1,139.9c0.6-1.2,1.5-1.8,2.8-1.8c1,0,1.8,0.3,2.4,1s0.8,1.6,0.8,2.7v5h-1.4v-5c0-0.8-0.2-1.4-0.6-1.8
			c-0.4-0.4-0.9-0.6-1.7-0.6c-0.7,0-1.3,0.3-1.7,0.9c-0.4,0.6-0.7,1.5-0.7,2.5v4h-1.4v-12.1h1.4V139.9z"/>
		<path fill="#939598" d="M420.5,138.1c1.2,0,2.1,0.4,2.9,1.2c0.7,0.8,1.1,1.9,1.1,3.3c0,1.4-0.4,2.5-1.1,3.3
			c-0.7,0.8-1.7,1.2-2.9,1.2c-1.2,0-2.1-0.4-2.9-1.2c-0.7-0.8-1.1-1.9-1.1-3.3c0-1.4,0.4-2.5,1.1-3.3
			C418.3,138.5,419.3,138.1,420.5,138.1z M423,142.6c0-1-0.2-1.8-0.6-2.4c-0.4-0.6-1.1-0.9-1.9-0.9c-0.8,0-1.5,0.3-1.9,0.9
			c-0.4,0.6-0.7,1.4-0.7,2.4c0,1,0.2,1.8,0.6,2.4c0.4,0.6,1,0.9,1.9,0.9s1.5-0.3,1.9-0.9C422.8,144.4,423,143.6,423,142.6z"/>
		<path fill="#939598" d="M432.9,145.1c-0.6,1.2-1.5,1.8-2.8,1.8c-1,0-1.7-0.3-2.3-0.8c-0.6-0.5-0.9-1.4-0.9-2.5v-5.4h1.4v5.3
			c0,1.4,0.7,2.1,2,2.1c0.8,0,1.4-0.3,1.9-0.9s0.7-1.3,0.8-2.3v-4.3h1.4v8.5h-1.4V145.1z"/>
		<path fill="#939598" d="M441.3,139.5c-1.3,0-2,1.1-2.1,3.2v4.1h-1.4v-8.5h1.4v1.6c0.4-1.2,1.2-1.8,2.3-1.8c0.3,0,0.7,0.1,1,0.2
			l-0.1,1.4C442.1,139.6,441.7,139.5,441.3,139.5z"/>
		<path fill="#939598" d="M454.4,139.6v-4.9h1.4v12.1h-1.1l-0.2-1.4c-0.3,0.5-0.6,0.9-1.1,1.2s-0.9,0.4-1.5,0.4
			c-1.1,0-2-0.4-2.7-1.2c-0.7-0.8-1.1-1.9-1.1-3.2s0.4-2.4,1.1-3.2c0.7-0.8,1.6-1.2,2.7-1.2C453,138.1,453.9,138.6,454.4,139.6z
			 M452,139.3c-0.7,0-1.3,0.3-1.7,0.9s-0.7,1.4-0.7,2.3s0.2,1.7,0.7,2.3c0.5,0.6,1,0.9,1.7,0.9s1.2-0.2,1.7-0.7s0.7-1,0.7-1.8v-1.4
			c0-0.8-0.2-1.4-0.7-1.9C453.3,139.6,452.7,139.3,452,139.3z"/>
		<path fill="#939598" d="M462.9,139.5c-1.3,0-2,1.1-2.1,3.2v4.1h-1.4v-8.5h1.4v1.6c0.4-1.2,1.2-1.8,2.3-1.8c0.3,0,0.7,0.1,1,0.2
			l-0.1,1.4C463.6,139.6,463.3,139.5,462.9,139.5z"/>
		<path fill="#939598" d="M467,136.3c-0.3,0-0.5-0.1-0.7-0.2s-0.2-0.4-0.2-0.6c0-0.3,0.1-0.5,0.2-0.6c0.2-0.2,0.4-0.2,0.7-0.2
			s0.5,0.1,0.7,0.2c0.2,0.2,0.3,0.4,0.3,0.6c0,0.3-0.1,0.5-0.3,0.6S467.3,136.3,467,136.3z M466.3,138.3h1.4v8.5h-1.4V138.3z"/>
		<path fill="#939598" d="M471.6,138.3l2.6,7l2.6-7h1.6l-3.4,8.5h-1.5l-3.4-8.5H471.6z"/>
		<path fill="#939598" d="M483.4,145.9c1.2,0,1.8-0.5,2-1.5h1.4c-0.1,0.9-0.5,1.5-1.1,2c-0.6,0.5-1.4,0.7-2.3,0.7
			c-1.1,0-2.1-0.4-2.8-1.2c-0.7-0.8-1.1-1.9-1.1-3.2c0-1.4,0.4-2.4,1.1-3.2c0.7-0.8,1.7-1.2,2.9-1.2c1.2,0,2.1,0.5,2.7,1.4
			c0.6,0.9,0.8,2,0.6,3.4h-5.8c0,0.9,0.2,1.6,0.6,2.2C482,145.6,482.6,145.9,483.4,145.9z M484.4,139.4c-0.3-0.1-0.6-0.2-1-0.2
			c-0.7,0-1.3,0.2-1.7,0.7c-0.4,0.5-0.7,1.1-0.7,1.8h4.5C485.5,140.6,485.1,139.8,484.4,139.4z"/>
	</g>
	<g>
		<rect x="37.6" y="69" fill="#E6E7E8" width="512.7" height="2"/>
	</g>
	<g>
		<path fill="#58595B" d="M87,46.6h2.1v11.5H87V46.6z"/>
		<path fill="#58595B" d="M91.5,49.5h1.3v-1c0-0.9,0.3-1.6,0.8-2c0.5-0.4,1.1-0.6,1.8-0.6c0.5,0,1.1,0.1,1.8,0.2l-0.4,1.6
			c-0.3-0.1-0.6-0.2-0.9-0.2c-0.3,0-0.5,0.1-0.7,0.2c-0.2,0.1-0.3,0.4-0.3,0.8v1h1.6v1.4h-1.6v7.2h-2.1v-7.2h-1.3V49.5z"/>
		<path fill="#58595B" d="M98,49.5h1.3v-1c0-0.9,0.3-1.6,0.8-2c0.5-0.4,1.1-0.6,1.8-0.6c0.5,0,1.1,0.1,1.8,0.2l-0.4,1.6
			c-0.3-0.1-0.6-0.2-0.9-0.2c-0.3,0-0.5,0.1-0.7,0.2c-0.2,0.1-0.3,0.4-0.3,0.8v1h1.6v1.4h-1.6v7.2h-2.1v-7.2H98V49.5z"/>
		<path fill="#58595B" d="M106.5,49.5l2.1,6.2l1.8-6.2h2.1l-3.3,10.2c-0.3,1-0.8,1.8-1.3,2.2c-0.5,0.4-1.1,0.7-1.9,0.7
			c-0.8,0-1.5-0.2-2.3-0.6v-1.8c0.6,0.4,1.2,0.6,1.9,0.6c0.4,0,0.8-0.2,1-0.5c0.3-0.3,0.5-0.8,0.6-1.3l0.3-0.8l-3.5-8.6H106.5z"/>
		<path fill="#58595B" d="M113.6,57.9c-0.3-0.3-0.4-0.6-0.4-1c0-0.4,0.1-0.7,0.4-1c0.3-0.3,0.6-0.4,1-0.4s0.8,0.1,1.1,0.4
			c0.3,0.3,0.4,0.6,0.4,1c0,0.4-0.1,0.7-0.4,1c-0.3,0.3-0.6,0.4-1.1,0.4S113.8,58.1,113.6,57.9z"/>
		<path fill="#939598" d="M128.7,46.9v4.9h5.5v-4.9h1.4v11.2h-1.4v-5h-5.5v5h-1.4V46.9H128.7z"/>
		<path fill="#939598" d="M142.3,49.4c1.2,0,2.1,0.4,2.9,1.2s1.1,1.9,1.1,3.3c0,1.4-0.4,2.5-1.1,3.3s-1.7,1.2-2.9,1.2
			c-1.2,0-2.1-0.4-2.9-1.2s-1.1-1.9-1.1-3.3c0-1.4,0.4-2.5,1.1-3.3S141.1,49.4,142.3,49.4z M144.8,53.9c0-1-0.2-1.8-0.6-2.4
			s-1.1-0.9-1.9-0.9c-0.8,0-1.5,0.3-1.9,0.9s-0.7,1.4-0.7,2.4s0.2,1.8,0.6,2.4s1,0.9,1.9,0.9s1.5-0.3,1.9-0.9
			C144.6,55.7,144.8,54.9,144.8,53.9z"/>
		<path fill="#939598" d="M153.3,57.9c-1,0.5-1.9,0.6-2.8,0.3c-0.6-0.2-1-0.6-1.3-1.2c-0.1-0.3-0.2-0.7-0.2-1.1v-5.2h-1.4v-1.1h1.4
			v-2.4h1.4v2.4h2.7v1.1h-2.7v5.2c0,0.9,0.4,1.3,1.2,1.3c0.4,0,0.9-0.1,1.5-0.3L153.3,57.9z"/>
		<path fill="#939598" d="M155,57.9c-0.2-0.2-0.3-0.4-0.3-0.6c0-0.3,0.1-0.5,0.3-0.7c0.2-0.2,0.4-0.3,0.8-0.3s0.6,0.1,0.8,0.4
			c0.2,0.3,0.3,0.6,0.3,1s-0.1,0.8-0.4,1.2c-0.3,0.4-0.7,0.8-1.2,1l-1-0.5c0.7-0.4,1.2-0.8,1.3-1.3C155.4,58.2,155.1,58.1,155,57.9z
			"/>
		<path fill="#939598" d="M166.4,49.4c1,0,1.8,0.3,2.4,0.8c0.6,0.5,1,1.2,1.2,1.9l-1.4,0.1c-0.2-0.5-0.4-0.9-0.7-1.2
			c-0.3-0.3-0.7-0.4-1.1-0.4c-0.8,0-1.4,0.3-1.8,0.9s-0.7,1.3-0.7,2.3c0,1,0.2,1.8,0.7,2.4c0.5,0.6,1,0.9,1.7,0.9s1.2-0.2,1.5-0.5
			c0.3-0.3,0.5-0.8,0.5-1.3h1.4c0,0.9-0.3,1.6-1,2.2c-0.6,0.6-1.5,0.8-2.5,0.8c-1.1,0-2-0.4-2.7-1.2c-0.8-0.8-1.1-1.9-1.1-3.3
			c0-1.4,0.4-2.4,1.1-3.2C164.5,49.8,165.4,49.4,166.4,49.4z"/>
		<path fill="#939598" d="M174.1,51.2c0.6-1.2,1.5-1.8,2.8-1.8c1,0,1.8,0.3,2.4,1c0.6,0.7,0.8,1.6,0.8,2.7v5h-1.4v-5
			c0-0.8-0.2-1.4-0.6-1.8c-0.4-0.4-0.9-0.6-1.7-0.6c-0.7,0-1.3,0.3-1.7,0.9s-0.7,1.5-0.7,2.5v4h-1.4V46h1.4V51.2z"/>
		<path fill="#939598" d="M188.7,52.6c0-0.8-0.2-1.3-0.5-1.7s-0.8-0.5-1.4-0.5c-0.6,0-1.1,0.1-1.5,0.4s-0.6,0.6-0.6,1.1h-1.5
			c0-1.3,0.7-2.1,2.1-2.4c0.4-0.1,0.9-0.1,1.4-0.1c1.1,0,1.9,0.3,2.5,0.8c0.6,0.5,0.9,1.3,0.9,2.4v5.5h-1.2l-0.1-1.4
			c-0.5,1.1-1.5,1.6-2.8,1.6c-0.9,0-1.6-0.3-2.2-0.8c-0.6-0.5-0.8-1.1-0.8-1.9s0.3-1.4,0.9-1.8c0.6-0.4,1.4-0.6,2.3-0.6
			c0.9,0,1.8,0.2,2.6,0.5V52.6z M188.7,54.6c-0.8-0.2-1.6-0.4-2.2-0.4s-1.1,0.1-1.5,0.3c-0.4,0.2-0.6,0.6-0.6,1.1
			c0,1.1,0.6,1.6,1.8,1.6c0.7,0,1.3-0.2,1.8-0.7C188.4,56,188.7,55.4,188.7,54.6z"/>
		<path fill="#939598" d="M194.7,51.3c0.6-1.2,1.5-1.8,2.9-1.8c1,0,1.8,0.3,2.4,1c0.6,0.7,0.8,1.6,0.8,2.7v5h-1.4v-5
			c0-0.8-0.2-1.4-0.6-1.8c-0.4-0.4-0.9-0.6-1.6-0.6c-0.7,0-1.3,0.3-1.7,0.9c-0.4,0.6-0.7,1.4-0.7,2.4v4.2h-1.4v-8.5h1.2L194.7,51.3z
			"/>
		<path fill="#939598" d="M206.9,49.4c1,0,1.8,0.3,2.4,0.8c0.6,0.5,1,1.2,1.2,1.9l-1.4,0.1c-0.2-0.5-0.4-0.9-0.7-1.2
			c-0.3-0.3-0.7-0.4-1.1-0.4c-0.8,0-1.4,0.3-1.8,0.9s-0.7,1.3-0.7,2.3c0,1,0.2,1.8,0.7,2.4c0.5,0.6,1,0.9,1.7,0.9s1.2-0.2,1.5-0.5
			c0.3-0.3,0.5-0.8,0.5-1.3h1.4c0,0.9-0.3,1.6-1,2.2c-0.6,0.6-1.5,0.8-2.5,0.8c-1.1,0-2-0.4-2.7-1.2c-0.8-0.8-1.1-1.9-1.1-3.3
			c0-1.4,0.4-2.4,1.1-3.2C205,49.8,205.9,49.4,206.9,49.4z"/>
		<path fill="#939598" d="M216.1,57.2c1.2,0,1.8-0.5,2-1.5h1.4c-0.1,0.9-0.5,1.5-1.1,2c-0.6,0.5-1.4,0.7-2.3,0.7
			c-1.1,0-2.1-0.4-2.8-1.2s-1.1-1.9-1.1-3.2s0.4-2.4,1.1-3.2s1.7-1.2,2.9-1.2c1.2,0,2.1,0.5,2.7,1.4c0.6,0.9,0.8,2,0.6,3.4h-5.8
			c0,0.9,0.2,1.6,0.6,2.2S215.4,57.2,216.1,57.2z M217.2,50.7c-0.3-0.1-0.6-0.2-1-0.2c-0.7,0-1.3,0.2-1.7,0.7
			c-0.4,0.5-0.7,1.1-0.7,1.8h4.5C218.2,51.9,217.9,51.1,217.2,50.7z"/>
		<path fill="#939598" d="M229.6,49.4c1.2,0,2.1,0.4,2.9,1.2s1.1,1.9,1.1,3.3c0,1.4-0.4,2.5-1.1,3.3s-1.7,1.2-2.9,1.2
			c-1.2,0-2.1-0.4-2.9-1.2s-1.1-1.9-1.1-3.3c0-1.4,0.4-2.5,1.1-3.3S228.4,49.4,229.6,49.4z M232.2,53.9c0-1-0.2-1.8-0.6-2.4
			s-1.1-0.9-1.9-0.9c-0.8,0-1.5,0.3-1.9,0.9s-0.7,1.4-0.7,2.4s0.2,1.8,0.6,2.4s1,0.9,1.9,0.9s1.5-0.3,1.9-0.9
			C231.9,55.7,232.2,54.9,232.2,53.9z"/>
		<path fill="#939598" d="M240.4,47.2c-0.4-0.2-0.7-0.2-0.9-0.2c-0.4,0-0.7,0.1-1,0.3c-0.2,0.2-0.4,0.6-0.4,1.1v1.3h1.8v1h-1.8v7.5
			h-1.4v-7.5h-1.4v-1h1.4v-1.3c0-0.8,0.2-1.5,0.7-1.9c0.5-0.4,1-0.6,1.6-0.6c0.6,0,1.1,0.1,1.6,0.2L240.4,47.2z"/>
		<path fill="#939598" d="M250.1,50.8c-1.3,0-2,1.1-2.1,3.2v4.1h-1.4v-8.5h1.4v1.6c0.4-1.2,1.2-1.8,2.3-1.8c0.3,0,0.7,0.1,1,0.2
			l-0.1,1.4C250.8,50.9,250.4,50.8,250.1,50.8z"/>
		<path fill="#939598" d="M258.6,52.6c0-0.8-0.2-1.3-0.5-1.7s-0.8-0.5-1.4-0.5c-0.6,0-1.1,0.1-1.5,0.4s-0.6,0.6-0.6,1.1h-1.5
			c0-1.3,0.7-2.1,2.1-2.4c0.4-0.1,0.9-0.1,1.4-0.1c1.1,0,1.9,0.3,2.5,0.8c0.6,0.5,0.9,1.3,0.9,2.4v5.5h-1.2l-0.1-1.4
			c-0.5,1.1-1.5,1.6-2.8,1.6c-0.9,0-1.6-0.3-2.2-0.8c-0.6-0.5-0.8-1.1-0.8-1.9s0.3-1.4,0.9-1.8c0.6-0.4,1.4-0.6,2.3-0.6
			c0.9,0,1.8,0.2,2.6,0.5V52.6z M258.6,54.6c-0.8-0.2-1.6-0.4-2.2-0.4s-1.1,0.1-1.5,0.3c-0.4,0.2-0.6,0.6-0.6,1.1
			c0,1.1,0.6,1.6,1.8,1.6c0.7,0,1.3-0.2,1.8-0.7C258.4,56,258.6,55.4,258.6,54.6z"/>
		<path fill="#939598" d="M264.1,47.6c-0.3,0-0.5-0.1-0.7-0.2c-0.2-0.2-0.2-0.4-0.2-0.6c0-0.3,0.1-0.5,0.2-0.6
			c0.2-0.2,0.4-0.2,0.7-0.2s0.5,0.1,0.7,0.2c0.2,0.2,0.3,0.4,0.3,0.6c0,0.3-0.1,0.5-0.3,0.6C264.6,47.5,264.4,47.6,264.1,47.6z
			 M263.4,49.6h1.4v8.5h-1.4V49.6z"/>
		<path fill="#939598" d="M270,51.3c0.6-1.2,1.5-1.8,2.9-1.8c1,0,1.8,0.3,2.4,1c0.6,0.7,0.8,1.6,0.8,2.7v5h-1.4v-5
			c0-0.8-0.2-1.4-0.6-1.8c-0.4-0.4-0.9-0.6-1.6-0.6c-0.7,0-1.3,0.3-1.7,0.9c-0.4,0.6-0.7,1.4-0.7,2.4v4.2h-1.4v-8.5h1.2L270,51.3z"
			/>
		<path fill="#939598" d="M283.5,46.9h6.8v1.2h-5.4v3.7h5v1.2h-5v5h-1.4V46.9z"/>
		<path fill="#939598" d="M296.3,50.8c-1.3,0-2,1.1-2.1,3.2v4.1h-1.4v-8.5h1.4v1.6c0.4-1.2,1.2-1.8,2.3-1.8c0.3,0,0.7,0.1,1,0.2
			l-0.1,1.4C297,50.9,296.7,50.8,296.3,50.8z"/>
		<path fill="#939598" d="M300.4,47.6c-0.3,0-0.5-0.1-0.7-0.2c-0.2-0.2-0.2-0.4-0.2-0.6c0-0.3,0.1-0.5,0.2-0.6
			c0.2-0.2,0.4-0.2,0.7-0.2s0.5,0.1,0.7,0.2c0.2,0.2,0.3,0.4,0.3,0.6c0,0.3-0.1,0.5-0.3,0.6C300.9,47.5,300.7,47.6,300.4,47.6z
			 M299.7,49.6h1.4v8.5h-1.4V49.6z"/>
		<path fill="#939598" d="M310.5,50.9V46h1.4v12.1h-1.1l-0.2-1.4c-0.3,0.5-0.6,0.9-1.1,1.2c-0.5,0.3-0.9,0.4-1.5,0.4
			c-1.1,0-2-0.4-2.7-1.2c-0.7-0.8-1.1-1.9-1.1-3.2c0-1.3,0.4-2.4,1.1-3.2c0.7-0.8,1.6-1.2,2.7-1.2S309.9,49.9,310.5,50.9z
			 M308.1,50.7c-0.7,0-1.3,0.3-1.7,0.9c-0.5,0.6-0.7,1.4-0.7,2.3c0,1,0.2,1.7,0.7,2.3s1,0.9,1.7,0.9c0.7,0,1.2-0.2,1.7-0.7
			c0.5-0.4,0.7-1,0.7-1.8v-1.4c0-0.8-0.2-1.4-0.7-1.9C309.3,50.9,308.8,50.7,308.1,50.7z"/>
		<path fill="#939598" d="M320.7,52.6c0-0.8-0.2-1.3-0.5-1.7c-0.3-0.3-0.8-0.5-1.4-0.5c-0.6,0-1.1,0.1-1.5,0.4s-0.6,0.6-0.6,1.1
			h-1.5c0-1.3,0.7-2.1,2.1-2.4c0.4-0.1,0.9-0.1,1.4-0.1c1.1,0,1.9,0.3,2.5,0.8c0.6,0.5,0.9,1.3,0.9,2.4v5.5h-1.2l-0.1-1.4
			c-0.5,1.1-1.5,1.6-2.8,1.6c-0.9,0-1.6-0.3-2.2-0.8c-0.6-0.5-0.8-1.1-0.8-1.9s0.3-1.4,0.9-1.8c0.6-0.4,1.4-0.6,2.3-0.6
			c0.9,0,1.8,0.2,2.6,0.5V52.6z M320.7,54.6c-0.8-0.2-1.6-0.4-2.2-0.4c-0.6,0-1.1,0.1-1.5,0.3c-0.4,0.2-0.6,0.6-0.6,1.1
			c0,1.1,0.6,1.6,1.8,1.6c0.7,0,1.3-0.2,1.8-0.7C320.5,56,320.7,55.4,320.7,54.6z"/>
		<path fill="#939598" d="M323.7,60.6c0.6,0.5,1.2,0.7,1.8,0.7c0.5,0,0.9-0.2,1.2-0.7c0.2-0.3,0.5-0.9,0.7-1.6l0.2-0.9l-3.5-8.5h1.6
			l2.6,6.8l2-6.8h1.4l-3.2,10.2c-0.3,0.9-0.6,1.5-1.1,2c-0.4,0.5-1,0.7-1.7,0.7s-1.4-0.2-2.1-0.6V60.6z"/>
		<path fill="#939598" d="M333.8,58.3c-0.3,0-0.5-0.1-0.7-0.3s-0.3-0.4-0.3-0.7c0-0.3,0.1-0.5,0.3-0.7s0.4-0.3,0.7-0.3
			c0.3,0,0.6,0.1,0.8,0.3s0.3,0.4,0.3,0.7c0,0.3-0.1,0.5-0.3,0.7S334.1,58.3,333.8,58.3z"/>
	</g>
	<g>
		<g>
			<path fill="#EF9943" d="M66.6,51.3c-1.1,0-2.2-0.4-3.2-1.3c-2.4-2.4-4.8-1.3-7.8,0.5l-1.1,0.7l-1-1.7l1.1-0.7
				c2.6-1.5,6.5-3.9,10.2-0.2c1.6,1.6,4,0.4,6.8-1.3l1.4-0.8l1,1.7l-1.4,0.8C70.9,50,68.7,51.3,66.6,51.3z"/>
		</g>
		<g>
			<path fill="#EF9943" d="M66.6,58.1c-1.1,0-2.2-0.4-3.2-1.3c-2.4-2.4-4.8-1.3-7.8,0.5L54.4,58l-1-1.7l1.1-0.7
				c2.6-1.5,6.5-3.9,10.2-0.2c1.6,1.6,4,0.4,6.8-1.3l1.4-0.8l1,1.7l-1.4,0.8C70.9,56.8,68.7,58.1,66.6,58.1z"/>
		</g>
	</g>
</g>
<g>
	<rect x="373.4" y="52.9" fill="#27AAE1" width="209.6" height="2"/>
</g>
<g>
	<path fill="#58595B" d="M613,49.9c0,0.9-0.2,1.7-0.7,2.3s-1.2,0.9-2.2,1.1l3.2,4.7h-1.8l-2.9-4.6h-2V58h-1.4V46.6h3.9
		c1.3,0,2.2,0.3,2.9,0.9C612.7,48.2,613,49,613,49.9z M609,52.4c0.9,0,1.5-0.2,1.9-0.6c0.4-0.4,0.7-1,0.7-1.6c0-0.7-0.2-1.2-0.6-1.6
		c-0.4-0.4-1-0.6-1.8-0.6h-2.5v4.5H609z"/>
	<path fill="#58595B" d="M619.2,57c1.2,0,1.9-0.5,2-1.6h1.5c-0.1,0.9-0.5,1.5-1.1,2c-0.6,0.5-1.4,0.7-2.3,0.7
		c-1.2,0-2.1-0.4-2.8-1.2c-0.7-0.8-1.1-1.9-1.1-3.3c0-1.4,0.4-2.5,1.1-3.3c0.7-0.8,1.7-1.2,2.9-1.2s2.1,0.5,2.7,1.4s0.8,2.1,0.6,3.4
		h-5.9c0,0.9,0.2,1.6,0.6,2.2C617.8,56.7,618.4,57,619.2,57z M620.2,50.5c-0.3-0.1-0.6-0.2-1-0.2c-0.7,0-1.3,0.2-1.7,0.7
		s-0.7,1.1-0.7,1.9h4.6C621.3,51.7,620.9,50.9,620.2,50.5z"/>
	<path fill="#58595B" d="M628.3,49.2c1,0,1.8,0.3,2.4,0.8c0.6,0.5,1,1.2,1.2,2l-1.4,0.1c-0.2-0.5-0.4-0.9-0.8-1.2
		c-0.3-0.3-0.7-0.4-1.2-0.4c-0.8,0-1.4,0.3-1.9,0.9c-0.5,0.6-0.7,1.4-0.7,2.3c0,1,0.2,1.8,0.7,2.4s1,0.9,1.7,0.9
		c0.7,0,1.2-0.2,1.5-0.5c0.3-0.3,0.5-0.8,0.5-1.4h1.5c0,0.9-0.3,1.7-1,2.2c-0.6,0.6-1.5,0.9-2.5,0.9c-1.1,0-2-0.4-2.8-1.2
		s-1.1-1.9-1.1-3.3c0-1.4,0.4-2.5,1.1-3.3C626.4,49.6,627.3,49.2,628.3,49.2z"/>
	<path fill="#58595B" d="M637.8,49.2c1.2,0,2.2,0.4,2.9,1.2c0.7,0.8,1.1,1.9,1.1,3.3c0,1.4-0.4,2.5-1.1,3.3
		c-0.7,0.8-1.7,1.2-2.9,1.2s-2.2-0.4-2.9-1.2c-0.7-0.8-1.1-1.9-1.1-3.3c0-1.5,0.4-2.6,1.1-3.3C635.7,49.5,636.6,49.2,637.8,49.2z
		 M640.4,53.7c0-1-0.2-1.8-0.6-2.4c-0.4-0.6-1.1-0.9-1.9-0.9c-0.8,0-1.5,0.3-1.9,0.9c-0.4,0.6-0.7,1.4-0.7,2.4s0.2,1.8,0.6,2.4
		c0.4,0.6,1,0.9,1.9,0.9s1.5-0.3,1.9-0.9S640.4,54.7,640.4,53.7z"/>
	<path fill="#58595B" d="M645.9,51c0.6-1.2,1.5-1.9,2.9-1.9c0.7,0,1.4,0.2,1.9,0.5c0.5,0.4,0.9,0.9,1.1,1.5c0.5-1.4,1.5-2.1,3-2.1
		c1,0,1.8,0.3,2.4,1c0.6,0.7,0.8,1.6,0.8,2.8V58h-1.4v-5.1c0-0.8-0.2-1.5-0.6-1.9c-0.4-0.4-1-0.6-1.7-0.6c-0.7,0-1.3,0.3-1.7,0.9
		c-0.4,0.6-0.6,1.4-0.6,2.5V58h-1.4v-5.1c0-0.8-0.2-1.5-0.6-1.9c-0.4-0.4-0.9-0.6-1.7-0.6s-1.3,0.3-1.7,0.9
		c-0.4,0.6-0.7,1.4-0.7,2.4V58h-1.4v-8.6h1.2L645.9,51z"/>
	<path fill="#58595B" d="M662.8,51c0.6-1.2,1.5-1.9,2.9-1.9c0.7,0,1.4,0.2,1.9,0.5c0.5,0.4,0.9,0.9,1.1,1.5c0.5-1.4,1.5-2.1,3-2.1
		c1,0,1.8,0.3,2.4,1c0.6,0.7,0.8,1.6,0.8,2.8V58h-1.4v-5.1c0-0.8-0.2-1.5-0.6-1.9c-0.4-0.4-1-0.6-1.7-0.6c-0.7,0-1.3,0.3-1.7,0.9
		c-0.4,0.6-0.6,1.4-0.6,2.5V58h-1.4v-5.1c0-0.8-0.2-1.5-0.6-1.9c-0.4-0.4-0.9-0.6-1.7-0.6s-1.3,0.3-1.7,0.9
		c-0.4,0.6-0.7,1.4-0.7,2.4V58h-1.4v-8.6h1.2L662.8,51z"/>
	<path fill="#58595B" d="M681.2,57c1.2,0,1.9-0.5,2-1.6h1.5c-0.1,0.9-0.5,1.5-1.1,2c-0.6,0.5-1.4,0.7-2.3,0.7
		c-1.2,0-2.1-0.4-2.8-1.2c-0.7-0.8-1.1-1.9-1.1-3.3c0-1.4,0.4-2.5,1.1-3.3c0.7-0.8,1.7-1.2,2.9-1.2s2.1,0.5,2.7,1.4s0.8,2.1,0.6,3.4
		h-5.9c0,0.9,0.2,1.6,0.6,2.2C679.8,56.7,680.4,57,681.2,57z M682.2,50.5c-0.3-0.1-0.6-0.2-1-0.2c-0.7,0-1.3,0.2-1.7,0.7
		s-0.7,1.1-0.7,1.9h4.6C683.3,51.7,683,50.9,682.2,50.5z"/>
	<path fill="#58595B" d="M688.9,51c0.6-1.2,1.5-1.9,2.9-1.9c1,0,1.8,0.3,2.4,1c0.6,0.7,0.9,1.6,0.9,2.8V58h-1.4v-5.1
		c0-0.8-0.2-1.5-0.6-1.9c-0.4-0.4-0.9-0.6-1.7-0.6s-1.3,0.3-1.7,0.9c-0.4,0.6-0.7,1.4-0.7,2.4V58h-1.4v-8.6h1.2L688.9,51z"/>
	<path fill="#58595B" d="M704,50.6v-4.9h1.4V58h-1.2l-0.2-1.4c-0.3,0.5-0.6,0.9-1.1,1.2s-1,0.4-1.5,0.4c-1.1,0-2-0.4-2.7-1.3
		c-0.7-0.8-1.1-1.9-1.1-3.3c0-1.3,0.4-2.4,1.1-3.2c0.7-0.8,1.6-1.2,2.8-1.2S703.4,49.6,704,50.6z M701.5,50.4
		c-0.7,0-1.3,0.3-1.8,0.9c-0.5,0.6-0.7,1.4-0.7,2.4s0.2,1.8,0.7,2.4c0.5,0.6,1.1,0.9,1.7,0.9c0.7,0,1.2-0.2,1.7-0.7
		c0.5-0.5,0.7-1.1,0.7-1.8V53c0-0.8-0.2-1.4-0.7-1.9C702.8,50.6,702.2,50.4,701.5,50.4z"/>
	<path fill="#58595B" d="M714.4,52.4c0-0.8-0.2-1.3-0.5-1.7s-0.8-0.5-1.4-0.5s-1.1,0.1-1.5,0.4c-0.4,0.2-0.6,0.6-0.6,1.2h-1.6
		c0-1.3,0.7-2.1,2.1-2.4c0.4-0.1,0.9-0.1,1.4-0.1c1.1,0,1.9,0.3,2.5,0.8c0.6,0.5,0.9,1.4,0.9,2.5V58h-1.2l-0.1-1.4
		c-0.5,1.1-1.5,1.6-2.9,1.6c-0.9,0-1.7-0.3-2.2-0.8c-0.6-0.5-0.8-1.2-0.8-1.9s0.3-1.4,0.9-1.8c0.6-0.4,1.4-0.6,2.3-0.6
		s1.8,0.2,2.6,0.5V52.4z M714.4,54.4c-0.9-0.2-1.6-0.4-2.2-0.4c-0.6,0-1.2,0.1-1.5,0.3c-0.4,0.2-0.6,0.6-0.6,1.1
		c0,1.1,0.6,1.6,1.8,1.6c0.7,0,1.3-0.2,1.8-0.7C714.1,55.8,714.4,55.2,714.4,54.4z"/>
	<path fill="#58595B" d="M723.6,57.7c-1,0.5-2,0.6-2.8,0.3c-0.6-0.2-1-0.6-1.3-1.2c-0.1-0.3-0.2-0.7-0.2-1.1v-5.3h-1.4v-1.1h1.4V47
		h1.4v2.4h2.7v1.1h-2.7v5.3c0,0.9,0.4,1.3,1.2,1.3c0.4,0,0.9-0.1,1.5-0.3L723.6,57.7z"/>
	<path fill="#58595B" d="M726.7,47.3c-0.3,0-0.5-0.1-0.7-0.2c-0.2-0.2-0.2-0.4-0.2-0.6s0.1-0.5,0.2-0.6c0.2-0.2,0.4-0.2,0.7-0.2
		s0.5,0.1,0.7,0.2c0.2,0.2,0.3,0.4,0.3,0.6s-0.1,0.5-0.3,0.6C727.2,47.3,727,47.3,726.7,47.3z M726,49.3h1.4V58H726V49.3z"/>
	<path fill="#58595B" d="M734.4,49.2c1.2,0,2.2,0.4,2.9,1.2c0.7,0.8,1.1,1.9,1.1,3.3c0,1.4-0.4,2.5-1.1,3.3
		c-0.7,0.8-1.7,1.2-2.9,1.2s-2.2-0.4-2.9-1.2c-0.7-0.8-1.1-1.9-1.1-3.3c0-1.5,0.4-2.6,1.1-3.3C732.2,49.5,733.2,49.2,734.4,49.2z
		 M736.9,53.7c0-1-0.2-1.8-0.6-2.4c-0.4-0.6-1.1-0.9-1.9-0.9c-0.8,0-1.5,0.3-1.9,0.9c-0.4,0.6-0.7,1.4-0.7,2.4s0.2,1.8,0.6,2.4
		c0.4,0.6,1,0.9,1.9,0.9s1.5-0.3,1.9-0.9S736.9,54.7,736.9,53.7z"/>
	<path fill="#58595B" d="M742.5,51c0.6-1.2,1.5-1.9,2.9-1.9c1,0,1.8,0.3,2.4,1c0.6,0.7,0.9,1.6,0.9,2.8V58h-1.4v-5.1
		c0-0.8-0.2-1.5-0.6-1.9c-0.4-0.4-0.9-0.6-1.7-0.6s-1.3,0.3-1.7,0.9c-0.4,0.6-0.7,1.4-0.7,2.4V58h-1.4v-8.6h1.2L742.5,51z"/>
</g>
<g>
	<rect x="301.1" y="99" fill="#27AAE1" width="281.8" height="2"/>
</g>
<g>
	<path fill="#58595B" d="M606.6,102.8h5v1.2h-6.5V92.8h1.4V102.8z"/>
	<path fill="#58595B" d="M616.7,95.3c1.2,0,2.2,0.4,2.9,1.2c0.7,0.8,1.1,1.9,1.1,3.3c0,1.4-0.4,2.5-1.1,3.3
		c-0.7,0.8-1.7,1.2-2.9,1.2s-2.2-0.4-2.9-1.2s-1.1-1.9-1.1-3.3c0-1.5,0.4-2.6,1.1-3.3C614.5,95.7,615.5,95.3,616.7,95.3z
		 M619.3,99.8c0-1-0.2-1.8-0.6-2.4c-0.4-0.6-1.1-0.9-1.9-0.9c-0.8,0-1.5,0.3-1.9,0.9c-0.4,0.6-0.7,1.4-0.7,2.4s0.2,1.8,0.6,2.4
		c0.4,0.6,1,0.9,1.9,0.9s1.5-0.3,1.9-0.9C619,101.6,619.3,100.8,619.3,99.8z"/>
	<path fill="#58595B" d="M626.3,95.3c1,0,1.8,0.3,2.4,0.8c0.6,0.5,1,1.2,1.2,2l-1.4,0.1c-0.2-0.5-0.4-0.9-0.8-1.2
		c-0.3-0.3-0.7-0.4-1.2-0.4c-0.8,0-1.4,0.3-1.9,0.9c-0.5,0.6-0.7,1.4-0.7,2.3c0,1,0.2,1.8,0.7,2.4c0.5,0.6,1,0.9,1.7,0.9
		c0.7,0,1.2-0.2,1.5-0.5c0.3-0.3,0.5-0.8,0.5-1.4h1.5c0,0.9-0.3,1.7-1,2.2c-0.6,0.6-1.5,0.9-2.5,0.9c-1.1,0-2-0.4-2.8-1.2
		s-1.1-1.9-1.1-3.3c0-1.4,0.4-2.5,1.1-3.3C624.4,95.7,625.3,95.3,626.3,95.3z"/>
	<path fill="#58595B" d="M638,98.5c0-0.8-0.2-1.3-0.5-1.7s-0.8-0.5-1.4-0.5s-1.1,0.1-1.5,0.4c-0.4,0.2-0.6,0.6-0.6,1.2h-1.6
		c0-1.3,0.7-2.1,2.1-2.4c0.4-0.1,0.9-0.1,1.4-0.1c1.1,0,1.9,0.3,2.5,0.8c0.6,0.5,0.9,1.4,0.9,2.5v5.5h-1.2l-0.1-1.4
		c-0.5,1.1-1.5,1.6-2.9,1.6c-0.9,0-1.7-0.3-2.2-0.8c-0.6-0.5-0.8-1.2-0.8-1.9c0-0.8,0.3-1.4,0.9-1.8c0.6-0.4,1.4-0.6,2.3-0.6
		s1.8,0.2,2.6,0.5V98.5z M638,100.5c-0.9-0.2-1.6-0.4-2.2-0.4c-0.6,0-1.2,0.1-1.5,0.3c-0.4,0.2-0.6,0.6-0.6,1.1
		c0,1.1,0.6,1.6,1.8,1.6c0.7,0,1.3-0.2,1.8-0.7C637.8,101.9,638,101.3,638,100.5z"/>
	<path fill="#58595B" d="M647.3,103.8c-1,0.5-2,0.6-2.8,0.3c-0.6-0.2-1-0.6-1.3-1.2c-0.1-0.3-0.2-0.7-0.2-1.1v-5.3h-1.4v-1.1h1.4
		v-2.4h1.4v2.4h2.7v1.1h-2.7v5.3c0,0.9,0.4,1.3,1.2,1.3c0.4,0,0.9-0.1,1.5-0.3L647.3,103.8z"/>
	<path fill="#58595B" d="M650.3,93.5c-0.3,0-0.5-0.1-0.7-0.2c-0.2-0.2-0.2-0.4-0.2-0.6s0.1-0.5,0.2-0.6c0.2-0.2,0.4-0.2,0.7-0.2
		s0.5,0.1,0.7,0.2c0.2,0.2,0.3,0.4,0.3,0.6s-0.1,0.5-0.3,0.6C650.8,93.4,650.6,93.5,650.3,93.5z M649.6,95.5h1.4v8.6h-1.4V95.5z"/>
	<path fill="#58595B" d="M658,95.3c1.2,0,2.2,0.4,2.9,1.2c0.7,0.8,1.1,1.9,1.1,3.3c0,1.4-0.4,2.5-1.1,3.3c-0.7,0.8-1.7,1.2-2.9,1.2
		s-2.2-0.4-2.9-1.2s-1.1-1.9-1.1-3.3c0-1.5,0.4-2.6,1.1-3.3C655.8,95.7,656.8,95.3,658,95.3z M660.6,99.8c0-1-0.2-1.8-0.6-2.4
		c-0.4-0.6-1.1-0.9-1.9-0.9c-0.8,0-1.5,0.3-1.9,0.9c-0.4,0.6-0.7,1.4-0.7,2.4s0.2,1.8,0.6,2.4c0.4,0.6,1,0.9,1.9,0.9
		s1.5-0.3,1.9-0.9C660.4,101.6,660.6,100.8,660.6,99.8z"/>
	<path fill="#58595B" d="M666.1,97.1c0.6-1.2,1.5-1.9,2.9-1.9c1,0,1.8,0.3,2.4,1c0.6,0.7,0.9,1.6,0.9,2.8v5.1h-1.4V99
		c0-0.8-0.2-1.5-0.6-1.9c-0.4-0.4-0.9-0.6-1.7-0.6s-1.3,0.3-1.7,0.9c-0.4,0.6-0.7,1.4-0.7,2.4v4.2h-1.4v-8.6h1.2L666.1,97.1z"/>
	<path fill="#58595B" d="M681.2,97.1c0.6-1.2,1.5-1.9,2.9-1.9c1,0,1.8,0.3,2.4,1c0.6,0.7,0.9,1.6,0.9,2.8v5.1H686V99
		c0-0.8-0.2-1.5-0.6-1.9c-0.4-0.4-0.9-0.6-1.7-0.6s-1.3,0.3-1.7,0.9c-0.4,0.6-0.7,1.4-0.7,2.4v4.2h-1.4v-8.6h1.2L681.2,97.1z"/>
	<path fill="#58595B" d="M696.1,98.5c0-0.8-0.2-1.3-0.5-1.7s-0.8-0.5-1.4-0.5s-1.1,0.1-1.5,0.4c-0.4,0.2-0.6,0.6-0.6,1.2h-1.6
		c0-1.3,0.7-2.1,2.1-2.4c0.4-0.1,0.9-0.1,1.4-0.1c1.1,0,1.9,0.3,2.5,0.8c0.6,0.5,0.9,1.4,0.9,2.5v5.5h-1.2l-0.1-1.4
		c-0.5,1.1-1.5,1.6-2.9,1.6c-0.9,0-1.7-0.3-2.2-0.8c-0.6-0.5-0.8-1.2-0.8-1.9c0-0.8,0.3-1.4,0.9-1.8c0.6-0.4,1.4-0.6,2.3-0.6
		s1.8,0.2,2.6,0.5V98.5z M696.1,100.5c-0.9-0.2-1.6-0.4-2.2-0.4c-0.6,0-1.2,0.1-1.5,0.3c-0.4,0.2-0.6,0.6-0.6,1.1
		c0,1.1,0.6,1.6,1.8,1.6c0.7,0,1.3-0.2,1.8-0.7C695.8,101.9,696.1,101.3,696.1,100.5z"/>
	<path fill="#58595B" d="M702.2,97.1c0.6-1.2,1.5-1.9,2.9-1.9c0.7,0,1.4,0.2,1.9,0.5c0.5,0.4,0.9,0.9,1.1,1.5c0.5-1.4,1.5-2.1,3-2.1
		c1,0,1.8,0.3,2.4,1c0.6,0.7,0.8,1.6,0.8,2.8v5.1h-1.4V99c0-0.8-0.2-1.5-0.6-1.9c-0.4-0.4-1-0.6-1.7-0.6c-0.7,0-1.3,0.3-1.7,0.9
		c-0.4,0.6-0.6,1.4-0.6,2.5v4.2h-1.4V99c0-0.8-0.2-1.5-0.6-1.9c-0.4-0.4-0.9-0.6-1.7-0.6s-1.3,0.3-1.7,0.9c-0.4,0.6-0.7,1.4-0.7,2.4
		v4.2h-1.4v-8.6h1.2L702.2,97.1z"/>
	<path fill="#58595B" d="M720.6,103.1c1.2,0,1.9-0.5,2-1.6h1.5c-0.1,0.9-0.5,1.5-1.1,2c-0.6,0.5-1.4,0.7-2.3,0.7
		c-1.2,0-2.1-0.4-2.8-1.2c-0.7-0.8-1.1-1.9-1.1-3.3c0-1.4,0.4-2.5,1.1-3.3c0.7-0.8,1.7-1.2,2.9-1.2s2.1,0.5,2.7,1.4s0.8,2.1,0.6,3.4
		h-5.9c0,0.9,0.2,1.6,0.6,2.2C719.2,102.9,719.8,103.1,720.6,103.1z M721.7,96.6c-0.3-0.1-0.6-0.2-1-0.2c-0.7,0-1.3,0.2-1.7,0.7
		s-0.7,1.1-0.7,1.9h4.6C722.8,97.8,722.4,97,721.7,96.6z"/>
</g>
<g>
	<rect x="503" y="141.6" fill="#27AAE1" width="79.9" height="2"/>
</g>
<g>
	<path fill="#58595B" d="M607.2,135.4l3.8,7.7l3.8-7.7h2v11.3h-1.4v-9.3l-3.9,7.9h-1l-3.9-8v9.4h-1.4v-11.3H607.2z"/>
	<path fill="#58595B" d="M623.4,145.8c1.2,0,1.9-0.5,2-1.6h1.5c-0.1,0.9-0.5,1.5-1.1,2c-0.6,0.5-1.4,0.7-2.3,0.7
		c-1.2,0-2.1-0.4-2.8-1.2c-0.7-0.8-1.1-1.9-1.1-3.3s0.4-2.5,1.1-3.3c0.7-0.8,1.7-1.2,2.9-1.2s2.1,0.5,2.7,1.4s0.8,2.1,0.6,3.4h-5.9
		c0,0.9,0.2,1.6,0.6,2.2C622,145.5,622.6,145.8,623.4,145.8z M624.4,139.2c-0.3-0.1-0.6-0.2-1-0.2c-0.7,0-1.3,0.2-1.7,0.7
		c-0.4,0.5-0.7,1.1-0.7,1.9h4.6C625.5,140.4,625.2,139.6,624.4,139.2z"/>
	<path fill="#58595B" d="M634.2,146.5c-1,0.5-2,0.6-2.8,0.3c-0.6-0.2-1-0.6-1.3-1.2c-0.1-0.3-0.2-0.7-0.2-1.1v-5.3h-1.4v-1.1h1.4
		v-2.4h1.4v2.4h2.7v1.1h-2.7v5.3c0,0.9,0.4,1.3,1.2,1.3c0.4,0,0.9-0.1,1.5-0.3L634.2,146.5z"/>
	<path fill="#58595B" d="M641.8,141.1c0-0.8-0.2-1.3-0.5-1.7s-0.8-0.5-1.4-0.5s-1.1,0.1-1.5,0.4s-0.6,0.6-0.6,1.2h-1.6
		c0-1.3,0.7-2.1,2.1-2.4c0.4-0.1,0.9-0.1,1.4-0.1c1.1,0,1.9,0.3,2.5,0.8c0.6,0.5,0.9,1.4,0.9,2.5v5.5H642l-0.1-1.4
		c-0.5,1.1-1.5,1.6-2.9,1.6c-0.9,0-1.7-0.3-2.2-0.8c-0.6-0.5-0.8-1.2-0.8-1.9s0.3-1.4,0.9-1.8c0.6-0.4,1.4-0.6,2.3-0.6
		s1.8,0.2,2.6,0.5V141.1z M641.8,143.1c-0.9-0.2-1.6-0.4-2.2-0.4c-0.6,0-1.2,0.1-1.5,0.3c-0.4,0.2-0.6,0.6-0.6,1.1
		c0,1.1,0.6,1.6,1.8,1.6c0.7,0,1.3-0.2,1.8-0.7C641.5,144.6,641.8,143.9,641.8,143.1z"/>
	<path fill="#58595B" d="M652.2,139.4v-4.9h1.4v12.3h-1.2l-0.2-1.4c-0.3,0.5-0.6,0.9-1.1,1.2c-0.5,0.3-1,0.4-1.5,0.4
		c-1.1,0-2-0.4-2.7-1.3c-0.7-0.8-1.1-1.9-1.1-3.3c0-1.4,0.4-2.4,1.1-3.2c0.7-0.8,1.6-1.2,2.8-1.2S651.6,138.4,652.2,139.4z
		 M649.7,139.2c-0.7,0-1.3,0.3-1.8,0.9c-0.5,0.6-0.7,1.4-0.7,2.4c0,1,0.2,1.8,0.7,2.4c0.5,0.6,1.1,0.9,1.7,0.9
		c0.7,0,1.2-0.2,1.7-0.7c0.5-0.4,0.7-1.1,0.7-1.8v-1.4c0-0.8-0.2-1.4-0.7-1.9C651,139.4,650.4,139.2,649.7,139.2z"/>
	<path fill="#58595B" d="M662.6,141.1c0-0.8-0.2-1.3-0.5-1.7s-0.8-0.5-1.4-0.5s-1.1,0.1-1.5,0.4s-0.6,0.6-0.6,1.2H657
		c0-1.3,0.7-2.1,2.1-2.4c0.4-0.1,0.9-0.1,1.4-0.1c1.1,0,1.9,0.3,2.5,0.8c0.6,0.5,0.9,1.4,0.9,2.5v5.5h-1.2l-0.1-1.4
		c-0.5,1.1-1.5,1.6-2.9,1.6c-0.9,0-1.7-0.3-2.2-0.8c-0.6-0.5-0.8-1.2-0.8-1.9s0.3-1.4,0.9-1.8c0.6-0.4,1.4-0.6,2.3-0.6
		s1.8,0.2,2.6,0.5V141.1z M662.6,143.1c-0.9-0.2-1.6-0.4-2.2-0.4c-0.6,0-1.2,0.1-1.5,0.3c-0.4,0.2-0.6,0.6-0.6,1.1
		c0,1.1,0.6,1.6,1.8,1.6c0.7,0,1.3-0.2,1.8-0.7C662.3,144.6,662.6,143.9,662.6,143.1z"/>
	<path fill="#58595B" d="M671.8,146.5c-1,0.5-2,0.6-2.8,0.3c-0.6-0.2-1-0.6-1.3-1.2c-0.1-0.3-0.2-0.7-0.2-1.1v-5.3h-1.4v-1.1h1.4
		v-2.4h1.4v2.4h2.7v1.1h-2.7v5.3c0,0.9,0.4,1.3,1.2,1.3c0.4,0,0.9-0.1,1.5-0.3L671.8,146.5z"/>
	<path fill="#58595B" d="M679.4,141.1c0-0.8-0.2-1.3-0.5-1.7s-0.8-0.5-1.4-0.5s-1.1,0.1-1.5,0.4s-0.6,0.6-0.6,1.2h-1.6
		c0-1.3,0.7-2.1,2.1-2.4c0.4-0.1,0.9-0.1,1.4-0.1c1.1,0,1.9,0.3,2.5,0.8c0.6,0.5,0.9,1.4,0.9,2.5v5.5h-1.2l-0.1-1.4
		c-0.5,1.1-1.5,1.6-2.9,1.6c-0.9,0-1.7-0.3-2.2-0.8c-0.6-0.5-0.8-1.2-0.8-1.9s0.3-1.4,0.9-1.8c0.6-0.4,1.4-0.6,2.3-0.6
		s1.8,0.2,2.6,0.5V141.1z M679.4,143.1c-0.9-0.2-1.6-0.4-2.2-0.4c-0.6,0-1.2,0.1-1.5,0.3c-0.4,0.2-0.6,0.6-0.6,1.1
		c0,1.1,0.6,1.6,1.8,1.6c0.7,0,1.3-0.2,1.8-0.7C679.2,144.6,679.4,143.9,679.4,143.1z"/>
</g>
</svg>
