<?xml version="1.0" encoding="utf-8"?>
<!-- Generator: Adobe Illustrator 18.1.1, SVG Export Plug-In . SVG Version: 6.00 Build 0)  -->
<svg version="1.1" id="Layer_1" xmlns="http://www.w3.org/2000/svg" xmlns:xlink="http://www.w3.org/1999/xlink" x="0px" y="0px"
	 viewBox="0 0 800 200" enable-background="new 0 0 800 200" xml:space="preserve">
<g>
	<g>
		<rect x="128.9" y="29.6" fill="none" stroke="#D1D3D4" stroke-width="2" stroke-miterlimit="10" width="512.7" height="140.8"/>
		<g>
			<text transform="matrix(1 0 0 1 150.542 111.291)"><tspan x="0" y="0" fill="#58595B" font-family="'Karla-Regular'" font-size="28.4144">Devil’s Lake, WI</tspan><tspan x="0" y="35.5" fill="#939598" font-family="'Karla-Regular'" font-size="17.759">Protected climbing  </tspan><tspan x="162.8" y="35.5" fill="#939598" font-family="'AvenirNext-Regular'" font-size="17.759">·</tspan><tspan x="167.4" y="35.5" fill="#939598" font-family="'Karla-Regular'" font-size="17.759">  Moderate routes  </tspan><tspan x="317.9" y="35.5" fill="#939598" font-family="'AvenirNext-Regular'" font-size="17.759">·</tspan><tspan x="322.5" y="35.5" fill="#939598" font-family="'Karla-Regular'" font-size="17.759">  3 hour drive</tspan></text>
		</g>
		<line fill="none" stroke="#E6E7E8" stroke-width="2" stroke-miterlimit="10" x1="641.7" y1="70" x2="128.9" y2="70"/>
		<text transform="matrix(1 0 0 1 176.704 58.1149)"><tspan x="0" y="0" fill="#58595B" font-family="'Karla-Bold'" font-size="17.759">Iffy.  </tspan><tspan x="40.2" y="0" fill="#939598" font-family="'Karla-Regular'" font-size="17.759">Hot, chance of rain Friday.</tspan></text>
		<g>
			<path fill="none" stroke="#EF9943" stroke-width="2" stroke-linecap="square" stroke-miterlimit="10" d="M146.1,49.9
				c2.6-1.6,6-3.8,9.3-0.6c2.5,2.4,6.1,0,8.5-1.4"/>
			<path fill="none" stroke="#EF9943" stroke-width="2" stroke-linecap="square" stroke-miterlimit="10" d="M146.1,56.6
				c2.6-1.6,6-3.8,9.3-0.6c2.5,2.4,6.1,0,8.5-1.4"/>
		</g>
	</g>
	<line fill="none" stroke="#27AAE1" stroke-width="2" stroke-miterlimit="10" x1="464.7" y1="53.9" x2="674.3" y2="53.9"/>
	<g>
		<text transform="matrix(1 0 0 1 694.6747 57.9713)" fill="#58595B" font-family="'Karla-Bold'" font-size="17.759">1</text>
	</g>
	<line fill="none" stroke="#27AAE1" stroke-width="2" stroke-miterlimit="10" x1="392.5" y1="100" x2="674.3" y2="100"/>
	<g>
		<text transform="matrix(1 0 0 1 694.6748 104.0898)" fill="#58595B" font-family="'Karla-Bold'" font-size="17.759">2</text>
	</g>
	<line fill="none" stroke="#27AAE1" stroke-width="2" stroke-miterlimit="10" x1="594.3" y1="142.6" x2="674.3" y2="142.6"/>
	<g>
		<text transform="matrix(1 0 0 1 694.6748 146.7129)" fill="#58595B" font-family="'Karla-Bold'" font-size="17.759">3</text>
	</g>
</g>
</svg>
