<?xml version="1.0" encoding="utf-8"?>
<!-- Generator: Adobe Illustrator 18.1.1, SVG Export Plug-In . SVG Version: 6.00 Build 0)  -->
<svg version="1.1" id="Layer_1" xmlns="http://www.w3.org/2000/svg" xmlns:xlink="http://www.w3.org/1999/xlink" x="0px" y="0px"
	 viewBox="0 0 800 700" enable-background="new 0 0 800 700" xml:space="preserve">
<g>
	<rect x="253.5" y="208.4" fill="none" width="293" height="105.6"/>
	<text transform="matrix(1 0 0 1 315.5056 232.8411)"><tspan x="0" y="0" fill="#58595B" font-family="'Karla-Regular'" font-size="30">Prime Climb</tspan><tspan x="-60.2" y="41" fill="#808285" font-family="'Karla-Regular'" font-size="13">Prime Climb looks at weather conditions and route </tspan><tspan x="-45.3" y="58" fill="#808285" font-family="'Karla-Regular'" font-size="13">characteristics to recommend the best crags.</tspan></text>
	<g>
		<rect x="240" y="92" fill="none" stroke="#939598" stroke-width="2" stroke-miterlimit="10" width="320" height="496"/>
		<path fill="none" stroke="#939598" stroke-width="2" stroke-miterlimit="10" d="M587,612.9c0,31-25.1,56.1-56.1,56.1H270.1
			c-31,0-56.1-25.1-56.1-56.1V66.1c0-31,25.1-56.1,56.1-56.1h260.8c31,0,56.1,25.1,56.1,56.1V612.9z"/>
		<circle fill="none" stroke="#939598" stroke-width="2" stroke-miterlimit="10" cx="342.2" cy="50.8" r="7"/>
		<circle fill="none" stroke="#939598" stroke-width="2" stroke-miterlimit="10" cx="400.8" cy="29.2" r="4.7"/>
		<path fill="none" stroke="#939598" stroke-width="2" stroke-miterlimit="10" d="M430,51c0,2.2-1.8,4-4,4h-52c-2.2,0-4-1.8-4-4v0
			c0-2.2,1.8-4,4-4h52C428.2,47,430,48.8,430,51L430,51z"/>
		<circle fill="none" stroke="#939598" stroke-width="2" stroke-miterlimit="10" cx="400.8" cy="625.2" r="28"/>
		<circle fill="none" stroke="#939598" stroke-width="2" stroke-miterlimit="10" cx="400.8" cy="625.2" r="23.3"/>
	</g>
	<g>
		<g>
			<circle fill="#D1D3D4" stroke="#939598" stroke-width="2" stroke-miterlimit="10" cx="405.5" cy="158.1" r="26.9"/>
			<path fill="#FFFFFF" stroke="#939598" stroke-width="2" stroke-linejoin="round" stroke-miterlimit="10" d="M391.8,159.9l7,13.8
				l13.8-27l14.2,27.8c3.5-4.5,5.5-10.2,5.5-16.3c0-14.8-12-26.9-26.9-26.9c-14.8,0-26.9,12-26.9,26.9c0,6.2,2.1,12,5.7,16.5
				L391.8,159.9z"/>
		</g>
		<g>
			
				<circle fill="none" stroke="#939598" stroke-width="2" stroke-linecap="round" stroke-miterlimit="10" cx="399" cy="145.2" r="2.6"/>
			<circle fill="#939598" cx="399" cy="138.6" r="1.1"/>
			
				<circle fill="none" stroke="#939598" stroke-width="2" stroke-linecap="round" stroke-miterlimit="10" cx="399" cy="145.2" r="2.6"/>
			<circle fill="#939598" cx="403.7" cy="140.6" r="1.1"/>
			
				<circle fill="none" stroke="#939598" stroke-width="2" stroke-linecap="round" stroke-miterlimit="10" cx="399" cy="145.2" r="2.6"/>
			<circle fill="#939598" cx="405.6" cy="145.2" r="1.1"/>
			
				<circle fill="none" stroke="#939598" stroke-width="2" stroke-linecap="round" stroke-miterlimit="10" cx="399" cy="145.2" r="2.6"/>
			<circle fill="#939598" cx="403.7" cy="149.9" r="1.1"/>
			
				<circle fill="none" stroke="#939598" stroke-width="2" stroke-linecap="round" stroke-miterlimit="10" cx="399" cy="145.2" r="2.6"/>
			<circle fill="#939598" cx="399" cy="151.8" r="1.1"/>
			
				<circle fill="none" stroke="#939598" stroke-width="2" stroke-linecap="round" stroke-miterlimit="10" cx="399" cy="145.2" r="2.6"/>
			<circle fill="#939598" cx="394.4" cy="149.9" r="1.1"/>
			
				<circle fill="none" stroke="#939598" stroke-width="2" stroke-linecap="round" stroke-miterlimit="10" cx="399" cy="145.2" r="2.6"/>
			<circle fill="#939598" cx="392.4" cy="145.2" r="1.1"/>
			
				<circle fill="none" stroke="#939598" stroke-width="2" stroke-linecap="round" stroke-miterlimit="10" cx="399" cy="145.2" r="2.6"/>
			<circle fill="#939598" cx="394.4" cy="140.6" r="1.1"/>
		</g>
	</g>
	<g>
		<path fill="#F1F2F2" stroke="#939598" stroke-miterlimit="10" d="M529.5,482.5c0,2.2-1.8,4-4,4h-251c-2.2,0-4-1.8-4-4v-31
			c0-2.2,1.8-4,4-4h251c2.2,0,4,1.8,4,4V482.5z"/>
		<g>
			<text transform="matrix(1 0 0 1 381.8499 471.5005)" fill="#58595B" font-family="'Karla-Bold'" font-size="14">Login</text>
		</g>
	</g>
	<rect x="270.5" y="327.5" fill="none" stroke="#939598" stroke-miterlimit="10" width="259" height="39"/>
	<g>
		<text transform="matrix(1 0 0 1 283.6669 352.8342)" fill="#A7A9AC" font-family="'Karla-Regular'" font-size="14">Username</text>
	</g>
	<rect x="270.5" y="386.5" fill="none" stroke="#939598" stroke-miterlimit="10" width="259" height="39"/>
	<g>
		<text transform="matrix(1 0 0 1 283.6669 411.8342)" fill="#A7A9AC" font-family="'Karla-Regular'" font-size="14">Password</text>
	</g>
	<g>
		<text transform="matrix(1 0 0 1 354.5001 540.167)"><tspan x="0" y="0" fill="#808285" font-family="'Karla-Regular'" font-size="14">New? </tspan><tspan x="37.3" y="0" fill="#808285" font-family="'Karla-Regular'" font-size="14" text-decoration=" underline">Sign up</tspan></text>
	</g>
</g>
</svg>
