<?xml version="1.0" encoding="utf-8"?>
<!-- Generator: Adobe Illustrator 18.1.1, SVG Export Plug-In . SVG Version: 6.00 Build 0)  -->
<svg version="1.1" id="Layer_1" xmlns="http://www.w3.org/2000/svg" xmlns:xlink="http://www.w3.org/1999/xlink" x="0px" y="0px"
	 viewBox="0 0 800 700" enable-background="new 0 0 800 700" xml:space="preserve">
<g>
	<g>
		<path fill="#58595B" d="M329.3,215.5c1.1,1,1.6,2.5,1.6,4.2s-0.5,3.2-1.6,4.2s-2.7,1.5-4.8,1.5h-3.7v7.3h-2.4V214h6.1
			C326.6,214,328.2,214.5,329.3,215.5z M324.6,223.5c1.3,0,2.3-0.3,3-1s1-1.6,1-2.7c0-1.1-0.3-2.1-1-2.8c-0.7-0.7-1.7-1-3-1h-3.7
			v7.5H324.6z"/>
		<path fill="#58595B" d="M341,220.5c-2.3,0-3.4,1.8-3.5,5.3v7h-2.4v-14.4h2.4v2.8c0.7-2,2-3,3.8-3c0.6,0,1.1,0.1,1.6,0.3l-0.1,2.3
			C342.2,220.6,341.6,220.5,341,220.5z"/>
		<path fill="#58595B" d="M347.9,215.1c-0.5,0-0.9-0.1-1.1-0.4c-0.3-0.3-0.4-0.6-0.4-1.1s0.1-0.8,0.4-1.1c0.3-0.3,0.6-0.4,1.1-0.4
			c0.5,0,0.9,0.1,1.2,0.4c0.3,0.3,0.4,0.6,0.4,1.1s-0.1,0.8-0.4,1.1C348.8,215,348.4,215.1,347.9,215.1z M346.7,218.5h2.4v14.4h-2.4
			V218.5z"/>
		<path fill="#58595B" d="M357.8,221.3c0.9-2.1,2.5-3.1,4.8-3.1c1.2,0,2.3,0.3,3.1,0.9c0.8,0.6,1.5,1.5,1.8,2.5
			c0.9-2.3,2.6-3.5,5-3.5c1.7,0,3,0.6,4,1.7c0.9,1.1,1.4,2.6,1.4,4.6v8.4h-2.3v-8.4c0-1.4-0.3-2.4-1-3.1c-0.7-0.7-1.6-1-2.8-1
			s-2.2,0.5-2.8,1.5s-1,2.4-1,4.1v7h-2.3v-8.4c0-1.4-0.3-2.4-1-3.1c-0.7-0.7-1.6-1-2.8-1s-2.2,0.5-2.9,1.5c-0.7,1-1.1,2.3-1.2,4.1v7
			h-2.4v-14.3h2L357.8,221.3z"/>
		<path fill="#58595B" d="M388.6,231.3c2,0,3.1-0.9,3.4-2.6h2.4c-0.2,1.4-0.9,2.6-1.9,3.3c-1,0.8-2.4,1.2-3.9,1.2
			c-1.9,0-3.5-0.7-4.7-2.1c-1.2-1.4-1.8-3.2-1.8-5.5s0.6-4.1,1.8-5.5c1.2-1.4,2.8-2,4.8-2c2,0,3.5,0.8,4.5,2.3c1,1.6,1.3,3.5,1,5.7
			h-9.8c0,1.5,0.4,2.7,1.1,3.6S387.3,231.3,388.6,231.3z M390.3,220.4c-0.5-0.2-1-0.4-1.7-0.4c-1.2,0-2.2,0.4-2.9,1.2
			c-0.7,0.8-1.1,1.9-1.2,3.1h7.6C392.1,222.4,391.5,221.1,390.3,220.4z"/>
		<path fill="#58595B" d="M412.7,213.6c2,0,3.6,0.5,4.9,1.5c1.2,1,2.1,2.3,2.5,3.9l-2.5,0.5c-0.4-1.2-1-2.1-1.9-2.8
			c-0.9-0.7-1.8-1-3-1c-1.6,0-2.9,0.7-3.9,2c-1,1.3-1.6,3.2-1.6,5.5c0,2.4,0.5,4.2,1.4,5.7c0.9,1.4,2.3,2.1,4.1,2.1
			c1.5,0,2.7-0.4,3.6-1.2c0.9-0.8,1.3-1.8,1.3-3.1h2.5c0,2-0.7,3.6-2,4.7c-1.3,1.2-3.2,1.7-5.5,1.7c-2.4,0-4.2-0.9-5.7-2.7
			s-2.2-4.2-2.2-7.2c0-3,0.8-5.4,2.2-7.1C408.4,214.5,410.4,213.6,412.7,213.6z"/>
		<path fill="#58595B" d="M424.6,212.4h2.4v20.4h-2.4V212.4z"/>
		<path fill="#58595B" d="M434.3,215.1c-0.5,0-0.9-0.1-1.1-0.4c-0.3-0.3-0.4-0.6-0.4-1.1s0.1-0.8,0.4-1.1c0.3-0.3,0.6-0.4,1.1-0.4
			c0.5,0,0.9,0.1,1.2,0.4c0.3,0.3,0.4,0.6,0.4,1.1s-0.1,0.8-0.4,1.1C435.2,215,434.8,215.1,434.3,215.1z M433.1,218.5h2.4v14.4h-2.4
			V218.5z"/>
		<path fill="#58595B" d="M444.2,221.3c0.9-2.1,2.5-3.1,4.8-3.1c1.2,0,2.3,0.3,3.1,0.9c0.8,0.6,1.5,1.5,1.8,2.5
			c0.9-2.3,2.6-3.5,5-3.5c1.7,0,3,0.6,4,1.7c0.9,1.1,1.4,2.6,1.4,4.6v8.4h-2.3v-8.4c0-1.4-0.3-2.4-1-3.1c-0.7-0.7-1.6-1-2.8-1
			c-1.2,0-2.2,0.5-2.8,1.5c-0.7,1-1,2.4-1,4.1v7h-2.3v-8.4c0-1.4-0.3-2.4-1-3.1c-0.7-0.7-1.6-1-2.8-1c-1.2,0-2.2,0.5-2.9,1.5
			c-0.7,1-1.1,2.3-1.2,4.1v7h-2.4v-14.3h2L444.2,221.3z"/>
		<path fill="#58595B" d="M472.4,220.6c1-1.7,2.4-2.5,4.2-2.5s3.4,0.7,4.6,2.1s1.8,3.2,1.8,5.4s-0.6,4.1-1.9,5.5
			c-1.2,1.4-2.8,2.1-4.5,2.1c-1,0-1.8-0.2-2.6-0.7c-0.8-0.5-1.4-1.2-1.8-2.1l-0.5,2.5H470v-20.4h2.4V220.6z M476.4,220.2
			c-1.1,0-2.1,0.4-2.9,1.1c-0.8,0.7-1.2,1.7-1.2,3v2.3c0,1.3,0.4,2.4,1.2,3.2s1.7,1.2,2.9,1.2c1.1,0,2.1-0.5,2.9-1.5
			s1.2-2.3,1.2-3.9c0-1.6-0.4-2.9-1.2-3.9C478.5,220.7,477.6,220.2,476.4,220.2z"/>
		<path fill="#808285" d="M261.3,266.3c0.5,0.5,0.7,1.1,0.7,1.8c0,0.8-0.2,1.4-0.7,1.8c-0.5,0.4-1.2,0.7-2.1,0.7h-1.6v3.2h-1v-8.2
			h2.6C260.1,265.7,260.8,265.9,261.3,266.3z M259.2,269.8c0.6,0,1-0.1,1.3-0.4c0.3-0.3,0.4-0.7,0.4-1.2s-0.1-0.9-0.4-1.2
			c-0.3-0.3-0.7-0.4-1.3-0.4h-1.6v3.2H259.2z"/>
		<path fill="#808285" d="M266.1,268.5c-1,0-1.5,0.8-1.5,2.3v3h-1v-6.2h1v1.2c0.3-0.9,0.9-1.3,1.7-1.3c0.3,0,0.5,0,0.7,0.1l-0.1,1
			C266.6,268.5,266.4,268.5,266.1,268.5z"/>
		<path fill="#808285" d="M268.8,266.2c-0.2,0-0.4-0.1-0.5-0.2s-0.2-0.3-0.2-0.5c0-0.2,0.1-0.4,0.2-0.5c0.1-0.1,0.3-0.2,0.5-0.2
			s0.4,0.1,0.5,0.2c0.1,0.1,0.2,0.3,0.2,0.5c0,0.2-0.1,0.4-0.2,0.5S269,266.2,268.8,266.2z M268.3,267.6h1v6.2h-1V267.6z"/>
		<path fill="#808285" d="M272.9,268.8c0.4-0.9,1.1-1.4,2.1-1.4c0.5,0,1,0.1,1.4,0.4c0.4,0.3,0.6,0.6,0.8,1.1c0.4-1,1.1-1.5,2.2-1.5
			c0.7,0,1.3,0.2,1.7,0.7s0.6,1.1,0.6,2v3.7h-1v-3.7c0-0.6-0.1-1-0.4-1.4c-0.3-0.3-0.7-0.5-1.2-0.5c-0.5,0-0.9,0.2-1.2,0.7
			c-0.3,0.4-0.4,1-0.4,1.8v3h-1v-3.7c0-0.6-0.1-1-0.4-1.4c-0.3-0.3-0.7-0.5-1.2-0.5c-0.5,0-0.9,0.2-1.3,0.6c-0.3,0.4-0.5,1-0.5,1.8
			v3.1h-1v-6.2h0.9L272.9,268.8z"/>
		<path fill="#808285" d="M285.9,273.2c0.9,0,1.3-0.4,1.5-1.1h1.1c-0.1,0.6-0.4,1.1-0.8,1.5c-0.5,0.3-1,0.5-1.7,0.5
			c-0.8,0-1.5-0.3-2-0.9c-0.5-0.6-0.8-1.4-0.8-2.4s0.3-1.8,0.8-2.4c0.5-0.6,1.2-0.9,2.1-0.9c0.9,0,1.5,0.3,2,1
			c0.4,0.7,0.6,1.5,0.4,2.5h-4.3c0,0.6,0.2,1.2,0.5,1.6C284.9,272.9,285.3,273.2,285.9,273.2z M286.7,268.4
			c-0.2-0.1-0.4-0.2-0.7-0.2c-0.5,0-0.9,0.2-1.3,0.5c-0.3,0.4-0.5,0.8-0.5,1.3h3.3C287.5,269.3,287.2,268.7,286.7,268.4z"/>
		<path fill="#808285" d="M295.9,265.5c0.9,0,1.6,0.2,2.1,0.7s0.9,1,1.1,1.7l-1.1,0.2c-0.2-0.5-0.4-0.9-0.8-1.2s-0.8-0.4-1.3-0.4
			c-0.7,0-1.3,0.3-1.7,0.9c-0.5,0.6-0.7,1.4-0.7,2.4s0.2,1.8,0.6,2.5c0.4,0.6,1,0.9,1.8,0.9c0.6,0,1.2-0.2,1.5-0.5
			c0.4-0.3,0.6-0.8,0.6-1.4h1.1c0,0.9-0.3,1.5-0.9,2c-0.6,0.5-1.4,0.8-2.4,0.8c-1,0-1.8-0.4-2.5-1.2c-0.6-0.8-0.9-1.8-0.9-3.1
			s0.3-2.3,1-3.1C294,265.9,294.8,265.5,295.9,265.5z"/>
		<path fill="#808285" d="M300.7,265h1v8.9h-1V265z"/>
		<path fill="#808285" d="M304.7,266.2c-0.2,0-0.4-0.1-0.5-0.2s-0.2-0.3-0.2-0.5c0-0.2,0.1-0.4,0.2-0.5c0.1-0.1,0.3-0.2,0.5-0.2
			s0.4,0.1,0.5,0.2c0.1,0.1,0.2,0.3,0.2,0.5c0,0.2-0.1,0.4-0.2,0.5S304.9,266.2,304.7,266.2z M304.2,267.6h1v6.2h-1V267.6z"/>
		<path fill="#808285" d="M308.7,268.8c0.4-0.9,1.1-1.4,2.1-1.4c0.5,0,1,0.1,1.4,0.4c0.4,0.3,0.6,0.6,0.8,1.1c0.4-1,1.1-1.5,2.2-1.5
			c0.7,0,1.3,0.2,1.7,0.7s0.6,1.1,0.6,2v3.7h-1v-3.7c0-0.6-0.1-1-0.4-1.4c-0.3-0.3-0.7-0.5-1.2-0.5c-0.5,0-0.9,0.2-1.2,0.7
			c-0.3,0.4-0.4,1-0.4,1.8v3h-1v-3.7c0-0.6-0.1-1-0.4-1.4c-0.3-0.3-0.7-0.5-1.2-0.5c-0.5,0-0.9,0.2-1.3,0.6c-0.3,0.4-0.5,1-0.5,1.8
			v3.1h-1v-6.2h0.9L308.7,268.8z"/>
		<path fill="#808285" d="M320.7,268.6c0.4-0.7,1-1.1,1.8-1.1c0.8,0,1.5,0.3,2,0.9c0.5,0.6,0.8,1.4,0.8,2.4c0,1-0.3,1.8-0.8,2.4
			c-0.5,0.6-1.2,0.9-2,0.9c-0.4,0-0.8-0.1-1.1-0.3c-0.3-0.2-0.6-0.5-0.8-0.9l-0.2,1.1h-0.7V265h1V268.6z M322.4,268.4
			c-0.5,0-0.9,0.2-1.2,0.5s-0.5,0.8-0.5,1.3v1c0,0.6,0.2,1,0.5,1.4c0.3,0.3,0.8,0.5,1.2,0.5c0.5,0,0.9-0.2,1.3-0.6
			c0.4-0.4,0.5-1,0.5-1.7c0-0.7-0.2-1.3-0.5-1.7C323.3,268.6,322.9,268.4,322.4,268.4z"/>
		<path fill="#808285" d="M329.8,265h1v8.9h-1V265z"/>
		<path fill="#808285" d="M335.4,267.5c0.9,0,1.6,0.3,2.1,0.8c0.5,0.6,0.8,1.4,0.8,2.4c0,1-0.3,1.8-0.8,2.4
			c-0.5,0.6-1.2,0.8-2.1,0.8c-0.9,0-1.6-0.3-2.1-0.8c-0.5-0.6-0.8-1.4-0.8-2.4c0-1,0.3-1.9,0.8-2.4
			C333.9,267.8,334.6,267.5,335.4,267.5z M337.3,270.7c0-0.7-0.2-1.3-0.5-1.7c-0.3-0.4-0.8-0.6-1.4-0.6s-1.1,0.2-1.4,0.6
			c-0.3,0.4-0.5,1-0.5,1.7s0.2,1.3,0.5,1.7c0.3,0.4,0.8,0.6,1.4,0.6s1.1-0.2,1.4-0.6C337.1,272,337.3,271.5,337.3,270.7z"/>
		<path fill="#808285" d="M342.3,267.5c0.9,0,1.6,0.3,2.1,0.8c0.5,0.6,0.8,1.4,0.8,2.4c0,1-0.3,1.8-0.8,2.4s-1.2,0.8-2.1,0.8
			c-0.9,0-1.6-0.3-2.1-0.8s-0.8-1.4-0.8-2.4c0-1,0.3-1.9,0.8-2.4C340.7,267.8,341.4,267.5,342.3,267.5z M344.1,270.7
			c0-0.7-0.2-1.3-0.5-1.7c-0.3-0.4-0.8-0.6-1.4-0.6s-1.1,0.2-1.4,0.6c-0.3,0.4-0.5,1-0.5,1.7s0.2,1.3,0.5,1.7
			c0.3,0.4,0.8,0.6,1.4,0.6c0.6,0,1.1-0.2,1.4-0.6C344,272,344.1,271.5,344.1,270.7z"/>
		<path fill="#808285" d="M348.7,270.6l-0.8,0.7v2.6h-1V265h1v5.1l3-2.5h1.4l-2.9,2.3l3,3.9h-1.3L348.7,270.6z"/>
		<path fill="#808285" d="M354.3,267.9c0.4-0.3,1-0.5,1.8-0.5s1.3,0.2,1.7,0.5c0.4,0.3,0.6,0.7,0.7,1.2h-1c-0.1-0.6-0.6-0.8-1.4-0.8
			c-0.4,0-0.8,0.1-1,0.3c-0.2,0.2-0.3,0.4-0.3,0.6c0,0.2,0.1,0.4,0.3,0.6s0.5,0.3,0.8,0.4l1.2,0.4c0.5,0.2,0.9,0.4,1.2,0.6
			c0.3,0.3,0.4,0.6,0.4,1.1s-0.2,0.8-0.7,1.2c-0.5,0.4-1.1,0.5-1.9,0.5c-0.8,0-1.5-0.2-1.9-0.6c-0.5-0.4-0.7-0.8-0.7-1.4h1
			c0,0.4,0.2,0.7,0.5,0.9c0.3,0.2,0.7,0.3,1.1,0.3s0.8-0.1,1.1-0.3c0.3-0.2,0.4-0.4,0.4-0.7c0-0.3-0.1-0.5-0.3-0.6
			c-0.2-0.1-0.5-0.3-0.8-0.4l-1.2-0.4c-1.1-0.3-1.6-0.9-1.6-1.7C353.6,268.6,353.8,268.2,354.3,267.9z"/>
		<path fill="#808285" d="M367.2,269.8c0-0.6-0.1-1-0.4-1.2c-0.2-0.2-0.6-0.4-1-0.4s-0.8,0.1-1.1,0.3c-0.3,0.2-0.4,0.5-0.4,0.8h-1.1
			c0-1,0.5-1.5,1.5-1.8c0.3-0.1,0.6-0.1,1-0.1c0.8,0,1.4,0.2,1.8,0.6c0.4,0.4,0.7,1,0.7,1.8v4h-0.9l-0.1-1c-0.4,0.8-1.1,1.2-2.1,1.2
			c-0.7,0-1.2-0.2-1.6-0.6c-0.4-0.4-0.6-0.8-0.6-1.4s0.2-1,0.7-1.3c0.4-0.3,1-0.5,1.7-0.5c0.7,0,1.3,0.1,1.9,0.3V269.8z
			 M367.2,271.3c-0.6-0.2-1.2-0.3-1.6-0.3c-0.5,0-0.8,0.1-1.1,0.2c-0.3,0.2-0.4,0.4-0.4,0.8c0,0.8,0.4,1.2,1.3,1.2
			c0.5,0,0.9-0.2,1.3-0.5S367.2,271.8,367.2,271.3z"/>
		<path fill="#808285" d="M373.6,273.7c-0.7,0.3-1.4,0.4-2,0.2c-0.4-0.1-0.8-0.4-0.9-0.9c-0.1-0.2-0.1-0.5-0.1-0.8v-3.8h-1v-0.8h1
			v-1.7h1v1.7h2v0.8h-2v3.8c0,0.6,0.3,0.9,0.9,0.9c0.3,0,0.7-0.1,1.1-0.2L373.6,273.7z"/>
		<path fill="#808285" d="M377.8,267.6l1.5,5l1.5-4.7h0.9l1.5,4.7l1.5-5h1l-2,6.2h-1l-1.4-4.4l-1.4,4.4h-1l-2.1-6.2H377.8z"/>
		<path fill="#808285" d="M389.1,273.2c0.9,0,1.3-0.4,1.5-1.1h1.1c-0.1,0.6-0.4,1.1-0.8,1.5c-0.5,0.3-1,0.5-1.7,0.5
			c-0.8,0-1.5-0.3-2-0.9c-0.5-0.6-0.8-1.4-0.8-2.4s0.3-1.8,0.8-2.4c0.5-0.6,1.2-0.9,2.1-0.9c0.9,0,1.5,0.3,2,1
			c0.4,0.7,0.6,1.5,0.4,2.5h-4.3c0,0.6,0.2,1.2,0.5,1.6C388.1,272.9,388.6,273.2,389.1,273.2z M389.9,268.4
			c-0.2-0.1-0.4-0.2-0.7-0.2c-0.5,0-0.9,0.2-1.3,0.5c-0.3,0.4-0.5,0.8-0.5,1.3h3.3C390.7,269.3,390.4,268.7,389.9,268.4z"/>
		<path fill="#808285" d="M397.3,269.8c0-0.6-0.1-1-0.4-1.2c-0.2-0.2-0.6-0.4-1-0.4s-0.8,0.1-1.1,0.3c-0.3,0.2-0.4,0.5-0.4,0.8h-1.1
			c0-1,0.5-1.5,1.5-1.8c0.3-0.1,0.6-0.1,1-0.1c0.8,0,1.4,0.2,1.8,0.6c0.4,0.4,0.7,1,0.7,1.8v4h-0.9l-0.1-1c-0.4,0.8-1.1,1.2-2.1,1.2
			c-0.7,0-1.2-0.2-1.6-0.6c-0.4-0.4-0.6-0.8-0.6-1.4s0.2-1,0.7-1.3c0.4-0.3,1-0.5,1.7-0.5c0.7,0,1.3,0.1,1.9,0.3V269.8z
			 M397.3,271.3c-0.6-0.2-1.2-0.3-1.6-0.3c-0.5,0-0.8,0.1-1.1,0.2c-0.3,0.2-0.4,0.4-0.4,0.8c0,0.8,0.4,1.2,1.3,1.2
			c0.5,0,0.9-0.2,1.3-0.5S397.3,271.8,397.3,271.3z"/>
		<path fill="#808285" d="M403.7,273.7c-0.7,0.3-1.4,0.4-2,0.2c-0.4-0.1-0.8-0.4-0.9-0.9c-0.1-0.2-0.1-0.5-0.1-0.8v-3.8h-1v-0.8h1
			v-1.7h1v1.7h2v0.8h-2v3.8c0,0.6,0.3,0.9,0.9,0.9c0.3,0,0.7-0.1,1.1-0.2L403.7,273.7z"/>
		<path fill="#808285" d="M406.1,268.8c0.4-0.9,1.1-1.3,2.1-1.3c0.7,0,1.3,0.2,1.7,0.7c0.4,0.5,0.6,1.1,0.6,2v3.7h-1v-3.7
			c0-0.6-0.1-1-0.4-1.4c-0.3-0.3-0.7-0.5-1.2-0.5s-1,0.2-1.3,0.7c-0.3,0.4-0.5,1.1-0.5,1.9v2.9h-1V265h1V268.8z"/>
		<path fill="#808285" d="M414.8,273.2c0.9,0,1.3-0.4,1.5-1.1h1.1c-0.1,0.6-0.4,1.1-0.8,1.5c-0.5,0.3-1,0.5-1.7,0.5
			c-0.8,0-1.5-0.3-2-0.9c-0.5-0.6-0.8-1.4-0.8-2.4s0.3-1.8,0.8-2.4c0.5-0.6,1.2-0.9,2.1-0.9c0.9,0,1.5,0.3,2,1
			c0.4,0.7,0.6,1.5,0.4,2.5H413c0,0.6,0.2,1.2,0.5,1.6C413.8,272.9,414.2,273.2,414.8,273.2z M415.6,268.4c-0.2-0.1-0.4-0.2-0.7-0.2
			c-0.5,0-0.9,0.2-1.3,0.5c-0.3,0.4-0.5,0.8-0.5,1.3h3.3C416.4,269.3,416.1,268.7,415.6,268.4z"/>
		<path fill="#808285" d="M421.6,268.5c-1,0-1.5,0.8-1.5,2.3v3h-1v-6.2h1v1.2c0.3-0.9,0.9-1.3,1.7-1.3c0.3,0,0.5,0,0.7,0.1l-0.1,1
			C422.2,268.5,421.9,268.5,421.6,268.5z"/>
		<path fill="#808285" d="M428.7,267.5c0.7,0,1.3,0.2,1.7,0.6s0.7,0.8,0.8,1.4l-1,0.1c-0.1-0.4-0.3-0.6-0.5-0.9
			c-0.3-0.2-0.5-0.3-0.8-0.3c-0.6,0-1,0.2-1.3,0.6c-0.3,0.4-0.5,1-0.5,1.7s0.2,1.3,0.5,1.7s0.8,0.7,1.2,0.7s0.9-0.1,1.1-0.3
			s0.4-0.6,0.4-1h1.1c0,0.7-0.2,1.2-0.7,1.6c-0.5,0.4-1.1,0.6-1.8,0.6c-0.8,0-1.5-0.3-2-0.9c-0.6-0.6-0.8-1.4-0.8-2.4
			s0.3-1.8,0.8-2.4C427.3,267.8,428,267.5,428.7,267.5z"/>
		<path fill="#808285" d="M435.3,267.5c0.9,0,1.6,0.3,2.1,0.8c0.5,0.6,0.8,1.4,0.8,2.4c0,1-0.3,1.8-0.8,2.4
			c-0.5,0.6-1.2,0.8-2.1,0.8c-0.9,0-1.6-0.3-2.1-0.8c-0.5-0.6-0.8-1.4-0.8-2.4c0-1,0.3-1.9,0.8-2.4
			C433.7,267.8,434.4,267.5,435.3,267.5z M437.2,270.7c0-0.7-0.2-1.3-0.5-1.7c-0.3-0.4-0.8-0.6-1.4-0.6s-1.1,0.2-1.4,0.6
			c-0.3,0.4-0.5,1-0.5,1.7s0.2,1.3,0.5,1.7c0.3,0.4,0.8,0.6,1.4,0.6s1.1-0.2,1.4-0.6C437,272,437.2,271.5,437.2,270.7z"/>
		<path fill="#808285" d="M440.9,268.8c0.4-0.9,1.1-1.4,2.1-1.4c0.7,0,1.3,0.2,1.7,0.7c0.4,0.5,0.6,1.1,0.6,2v3.7h-1v-3.7
			c0-0.6-0.1-1-0.4-1.4c-0.3-0.3-0.7-0.5-1.2-0.5c-0.5,0-0.9,0.2-1.3,0.6c-0.3,0.4-0.5,1-0.5,1.8v3.1h-1v-6.2h0.9L440.9,268.8z"/>
		<path fill="#808285" d="M451.5,268.6V265h1v8.9h-0.8l-0.1-1c-0.2,0.4-0.5,0.7-0.8,0.9s-0.7,0.3-1.1,0.3c-0.8,0-1.4-0.3-2-0.9
			s-0.8-1.4-0.8-2.4c0-1,0.3-1.8,0.8-2.3c0.5-0.6,1.2-0.9,2-0.9C450.5,267.5,451.1,267.8,451.5,268.6z M449.8,268.4
			c-0.5,0-0.9,0.2-1.3,0.6c-0.3,0.4-0.5,1-0.5,1.7c0,0.7,0.2,1.3,0.5,1.7c0.3,0.4,0.8,0.6,1.2,0.6s0.9-0.2,1.2-0.5
			c0.3-0.3,0.5-0.8,0.5-1.3v-1c0-0.6-0.2-1-0.5-1.4S450.3,268.4,449.8,268.4z"/>
		<path fill="#808285" d="M455.5,266.2c-0.2,0-0.4-0.1-0.5-0.2s-0.2-0.3-0.2-0.5c0-0.2,0.1-0.4,0.2-0.5c0.1-0.1,0.3-0.2,0.5-0.2
			s0.4,0.1,0.5,0.2c0.1,0.1,0.2,0.3,0.2,0.5c0,0.2-0.1,0.4-0.2,0.5C455.9,266.1,455.7,266.2,455.5,266.2z M455,267.6h1v6.2h-1V267.6
			z"/>
		<path fill="#808285" d="M461.8,273.7c-0.7,0.3-1.4,0.4-2,0.2c-0.4-0.1-0.8-0.4-0.9-0.9c-0.1-0.2-0.1-0.5-0.1-0.8v-3.8h-1v-0.8h1
			v-1.7h1v1.7h2v0.8h-2v3.8c0,0.6,0.3,0.9,0.9,0.9c0.3,0,0.7-0.1,1.1-0.2L461.8,273.7z"/>
		<path fill="#808285" d="M463.8,266.2c-0.2,0-0.4-0.1-0.5-0.2s-0.2-0.3-0.2-0.5c0-0.2,0.1-0.4,0.2-0.5c0.1-0.1,0.3-0.2,0.5-0.2
			s0.4,0.1,0.5,0.2c0.1,0.1,0.2,0.3,0.2,0.5c0,0.2-0.1,0.4-0.2,0.5S464,266.2,463.8,266.2z M463.3,267.6h1v6.2h-1V267.6z"/>
		<path fill="#808285" d="M469.1,267.5c0.9,0,1.6,0.3,2.1,0.8c0.5,0.6,0.8,1.4,0.8,2.4c0,1-0.3,1.8-0.8,2.4
			c-0.5,0.6-1.2,0.8-2.1,0.8c-0.9,0-1.6-0.3-2.1-0.8c-0.5-0.6-0.8-1.4-0.8-2.4c0-1,0.3-1.9,0.8-2.4
			C467.5,267.8,468.2,267.5,469.1,267.5z M470.9,270.7c0-0.7-0.2-1.3-0.5-1.7c-0.3-0.4-0.8-0.6-1.4-0.6s-1.1,0.2-1.4,0.6
			c-0.3,0.4-0.5,1-0.5,1.7s0.2,1.3,0.5,1.7c0.3,0.4,0.8,0.6,1.4,0.6s1.1-0.2,1.4-0.6C470.8,272,470.9,271.5,470.9,270.7z"/>
		<path fill="#808285" d="M474.6,268.8c0.4-0.9,1.1-1.4,2.1-1.4c0.7,0,1.3,0.2,1.7,0.7c0.4,0.5,0.6,1.1,0.6,2v3.7h-1v-3.7
			c0-0.6-0.1-1-0.4-1.4c-0.3-0.3-0.7-0.5-1.2-0.5c-0.5,0-0.9,0.2-1.3,0.6c-0.3,0.4-0.5,1-0.5,1.8v3.1h-1v-6.2h0.9L474.6,268.8z"/>
		<path fill="#808285" d="M481.6,267.9c0.4-0.3,1-0.5,1.8-0.5c0.7,0,1.3,0.2,1.7,0.5c0.4,0.3,0.6,0.7,0.7,1.2h-1
			c-0.1-0.6-0.6-0.8-1.4-0.8c-0.4,0-0.8,0.1-1,0.3c-0.2,0.2-0.3,0.4-0.3,0.6c0,0.2,0.1,0.4,0.3,0.6c0.2,0.2,0.5,0.3,0.8,0.4l1.2,0.4
			c0.5,0.2,0.9,0.4,1.2,0.6s0.4,0.6,0.4,1.1s-0.2,0.8-0.7,1.2c-0.5,0.4-1.1,0.5-1.9,0.5s-1.5-0.2-1.9-0.6c-0.5-0.4-0.7-0.8-0.7-1.4
			h1c0,0.4,0.2,0.7,0.5,0.9c0.3,0.2,0.7,0.3,1.1,0.3c0.5,0,0.8-0.1,1.1-0.3c0.3-0.2,0.4-0.4,0.4-0.7c0-0.3-0.1-0.5-0.3-0.6
			c-0.2-0.1-0.5-0.3-0.8-0.4l-1.2-0.4c-1.1-0.3-1.6-0.9-1.6-1.7C480.9,268.6,481.1,268.2,481.6,267.9z"/>
		<path fill="#808285" d="M494.5,269.8c0-0.6-0.1-1-0.4-1.2c-0.2-0.2-0.6-0.4-1-0.4s-0.8,0.1-1.1,0.3c-0.3,0.2-0.4,0.5-0.4,0.8h-1.1
			c0-1,0.5-1.5,1.5-1.8c0.3-0.1,0.7-0.1,1-0.1c0.8,0,1.4,0.2,1.8,0.6c0.4,0.4,0.6,1,0.6,1.8v4h-0.9l-0.1-1c-0.4,0.8-1.1,1.2-2.1,1.2
			c-0.7,0-1.2-0.2-1.6-0.6c-0.4-0.4-0.6-0.8-0.6-1.4s0.2-1,0.7-1.3c0.4-0.3,1-0.5,1.7-0.5c0.7,0,1.3,0.1,1.9,0.3V269.8z
			 M494.5,271.3c-0.6-0.2-1.2-0.3-1.6-0.3c-0.5,0-0.8,0.1-1.1,0.2c-0.3,0.2-0.4,0.4-0.4,0.8c0,0.8,0.4,1.2,1.3,1.2
			c0.5,0,0.9-0.2,1.3-0.5C494.3,272.3,494.5,271.8,494.5,271.3z"/>
		<path fill="#808285" d="M498.7,268.8c0.4-0.9,1.1-1.4,2.1-1.4c0.7,0,1.3,0.2,1.7,0.7c0.4,0.5,0.6,1.1,0.6,2v3.7h-1v-3.7
			c0-0.6-0.1-1-0.4-1.4c-0.3-0.3-0.7-0.5-1.2-0.5c-0.5,0-0.9,0.2-1.3,0.6c-0.3,0.4-0.5,1-0.5,1.8v3.1h-1v-6.2h0.9L498.7,268.8z"/>
		<path fill="#808285" d="M509.3,268.6V265h1v8.9h-0.8l-0.1-1c-0.2,0.4-0.5,0.7-0.8,0.9c-0.3,0.2-0.7,0.3-1.1,0.3
			c-0.8,0-1.5-0.3-2-0.9c-0.5-0.6-0.8-1.4-0.8-2.4c0-1,0.3-1.8,0.8-2.3c0.5-0.6,1.2-0.9,2-0.9S508.9,267.8,509.3,268.6z
			 M507.5,268.4c-0.5,0-0.9,0.2-1.3,0.6c-0.3,0.4-0.5,1-0.5,1.7c0,0.7,0.2,1.3,0.5,1.7c0.3,0.4,0.8,0.6,1.2,0.6s0.9-0.2,1.2-0.5
			c0.3-0.3,0.5-0.8,0.5-1.3v-1c0-0.6-0.2-1-0.5-1.4S508.1,268.4,507.5,268.4z"/>
		<path fill="#808285" d="M518.1,268.5c-1,0-1.5,0.8-1.5,2.3v3h-1v-6.2h1v1.2c0.3-0.9,0.9-1.3,1.7-1.3c0.3,0,0.5,0,0.7,0.1l-0.1,1
			C518.6,268.5,518.3,268.5,518.1,268.5z"/>
		<path fill="#808285" d="M522.5,267.5c0.9,0,1.6,0.3,2.1,0.8c0.5,0.6,0.8,1.4,0.8,2.4c0,1-0.3,1.8-0.8,2.4s-1.2,0.8-2.1,0.8
			c-0.9,0-1.6-0.3-2.1-0.8s-0.8-1.4-0.8-2.4c0-1,0.3-1.9,0.8-2.4C520.9,267.8,521.6,267.5,522.5,267.5z M524.3,270.7
			c0-0.7-0.2-1.3-0.5-1.7c-0.3-0.4-0.8-0.6-1.4-0.6s-1.1,0.2-1.4,0.6c-0.3,0.4-0.5,1-0.5,1.7s0.2,1.3,0.5,1.7
			c0.3,0.4,0.8,0.6,1.4,0.6c0.6,0,1.1-0.2,1.4-0.6C524.2,272,524.3,271.5,524.3,270.7z"/>
		<path fill="#808285" d="M531.3,272.6c-0.4,0.9-1.1,1.4-2.1,1.4c-0.7,0-1.3-0.2-1.7-0.6c-0.4-0.4-0.6-1-0.6-1.8v-4h1v3.9
			c0,1,0.5,1.6,1.5,1.6c0.6,0,1-0.2,1.4-0.6c0.4-0.4,0.5-1,0.6-1.7v-3.1h1v6.2h-1V272.6z"/>
		<path fill="#808285" d="M537.9,273.7c-0.7,0.3-1.4,0.4-2,0.2c-0.4-0.1-0.8-0.4-0.9-0.9c-0.1-0.2-0.1-0.5-0.1-0.8v-3.8h-1v-0.8h1
			v-1.7h1v1.7h2v0.8h-2v3.8c0,0.6,0.3,0.9,0.9,0.9c0.3,0,0.7-0.1,1.1-0.2L537.9,273.7z"/>
		<path fill="#808285" d="M541.5,273.2c0.9,0,1.3-0.4,1.5-1.1h1.1c-0.1,0.6-0.4,1.1-0.8,1.5c-0.5,0.3-1,0.5-1.7,0.5
			c-0.8,0-1.5-0.3-2-0.9c-0.5-0.6-0.8-1.4-0.8-2.4s0.3-1.8,0.8-2.4c0.5-0.6,1.2-0.9,2.1-0.9c0.9,0,1.5,0.3,2,1
			c0.4,0.7,0.6,1.5,0.4,2.5h-4.3c0,0.6,0.2,1.2,0.5,1.6C540.5,272.9,540.9,273.2,541.5,273.2z M542.2,268.4
			c-0.2-0.1-0.4-0.2-0.7-0.2c-0.5,0-0.9,0.2-1.3,0.5c-0.3,0.4-0.5,0.8-0.5,1.3h3.3C543,269.3,542.7,268.7,542.2,268.4z"/>
		<path fill="#808285" d="M273.6,284.5c0.7,0,1.3,0.2,1.7,0.6c0.4,0.4,0.7,0.8,0.8,1.4l-1,0.1c-0.1-0.4-0.3-0.6-0.5-0.9
			c-0.3-0.2-0.5-0.3-0.8-0.3c-0.6,0-1,0.2-1.3,0.6c-0.3,0.4-0.5,1-0.5,1.7s0.2,1.3,0.5,1.7c0.3,0.4,0.7,0.7,1.2,0.7
			c0.5,0,0.9-0.1,1.1-0.3s0.4-0.6,0.4-1h1.1c0,0.7-0.2,1.2-0.7,1.6c-0.5,0.4-1.1,0.6-1.8,0.6c-0.8,0-1.5-0.3-2-0.9s-0.8-1.4-0.8-2.4
			s0.3-1.8,0.8-2.4C272.3,284.8,272.9,284.5,273.6,284.5z"/>
		<path fill="#808285" d="M279,285.8c0.4-0.9,1.1-1.3,2.1-1.3c0.7,0,1.3,0.2,1.7,0.7c0.4,0.5,0.6,1.1,0.6,2v3.7h-1v-3.7
			c0-0.6-0.1-1-0.4-1.4c-0.3-0.3-0.7-0.5-1.2-0.5s-1,0.2-1.3,0.7c-0.3,0.4-0.5,1.1-0.5,1.9v2.9h-1V282h1V285.8z"/>
		<path fill="#808285" d="M289.4,286.8c0-0.6-0.1-1-0.4-1.2c-0.2-0.2-0.6-0.4-1-0.4s-0.8,0.1-1.1,0.3c-0.3,0.2-0.4,0.5-0.4,0.8h-1.1
			c0-1,0.5-1.5,1.5-1.8c0.3-0.1,0.6-0.1,1-0.1c0.8,0,1.4,0.2,1.8,0.6c0.4,0.4,0.7,1,0.7,1.8v4h-0.9l-0.1-1c-0.4,0.8-1.1,1.2-2.1,1.2
			c-0.7,0-1.2-0.2-1.6-0.6c-0.4-0.4-0.6-0.8-0.6-1.4s0.2-1,0.7-1.3c0.4-0.3,1-0.5,1.7-0.5c0.7,0,1.3,0.1,1.9,0.3V286.8z
			 M289.4,288.3c-0.6-0.2-1.2-0.3-1.6-0.3c-0.5,0-0.8,0.1-1.1,0.2c-0.3,0.2-0.4,0.4-0.4,0.8c0,0.8,0.4,1.2,1.3,1.2
			c0.5,0,0.9-0.2,1.3-0.5S289.4,288.8,289.4,288.3z"/>
		<path fill="#808285" d="M295.2,285.5c-1,0-1.5,0.8-1.5,2.3v3h-1v-6.2h1v1.2c0.3-0.9,0.9-1.3,1.7-1.3c0.3,0,0.5,0,0.7,0.1l-0.1,1
			C295.7,285.5,295.4,285.5,295.2,285.5z"/>
		<path fill="#808285" d="M301.2,286.8c0-0.6-0.1-1-0.4-1.2c-0.2-0.2-0.6-0.4-1-0.4s-0.8,0.1-1.1,0.3c-0.3,0.2-0.4,0.5-0.4,0.8h-1.1
			c0-1,0.5-1.5,1.5-1.8c0.3-0.1,0.6-0.1,1-0.1c0.8,0,1.4,0.2,1.8,0.6c0.4,0.4,0.7,1,0.7,1.8v4h-0.9l-0.1-1c-0.4,0.8-1.1,1.2-2.1,1.2
			c-0.7,0-1.2-0.2-1.6-0.6c-0.4-0.4-0.6-0.8-0.6-1.4s0.2-1,0.7-1.3c0.4-0.3,1-0.5,1.7-0.5c0.7,0,1.3,0.1,1.9,0.3V286.8z
			 M301.2,288.3c-0.6-0.2-1.2-0.3-1.6-0.3c-0.5,0-0.8,0.1-1.1,0.2c-0.3,0.2-0.4,0.4-0.4,0.8c0,0.8,0.4,1.2,1.3,1.2
			c0.5,0,0.9-0.2,1.3-0.5S301.2,288.8,301.2,288.3z"/>
		<path fill="#808285" d="M306.4,284.5c0.7,0,1.3,0.2,1.7,0.6c0.4,0.4,0.7,0.8,0.8,1.4l-1,0.1c-0.1-0.4-0.3-0.6-0.5-0.9
			c-0.3-0.2-0.5-0.3-0.8-0.3c-0.6,0-1,0.2-1.3,0.6c-0.3,0.4-0.5,1-0.5,1.7s0.2,1.3,0.5,1.7c0.3,0.4,0.7,0.7,1.2,0.7
			c0.5,0,0.9-0.1,1.1-0.3s0.4-0.6,0.4-1h1.1c0,0.7-0.2,1.2-0.7,1.6c-0.5,0.4-1.1,0.6-1.8,0.6c-0.8,0-1.5-0.3-2-0.9s-0.8-1.4-0.8-2.4
			s0.3-1.8,0.8-2.4C305,284.8,305.7,284.5,306.4,284.5z"/>
		<path fill="#808285" d="M314,290.7c-0.7,0.3-1.4,0.4-2,0.2c-0.4-0.1-0.8-0.4-0.9-0.9c-0.1-0.2-0.1-0.5-0.1-0.8v-3.8h-1v-0.8h1
			v-1.7h1v1.7h2v0.8h-2v3.8c0,0.6,0.3,0.9,0.9,0.9c0.3,0,0.7-0.1,1.1-0.2L314,290.7z"/>
		<path fill="#808285" d="M317.5,290.2c0.9,0,1.3-0.4,1.5-1.1h1.1c-0.1,0.6-0.4,1.1-0.8,1.5c-0.5,0.3-1,0.5-1.7,0.5
			c-0.8,0-1.5-0.3-2-0.9c-0.5-0.6-0.8-1.4-0.8-2.4s0.3-1.8,0.8-2.4c0.5-0.6,1.2-0.9,2.1-0.9c0.9,0,1.5,0.3,2,1
			c0.4,0.7,0.6,1.5,0.4,2.5h-4.3c0,0.6,0.2,1.2,0.5,1.6C316.5,289.9,317,290.2,317.5,290.2z M318.3,285.4c-0.2-0.1-0.4-0.2-0.7-0.2
			c-0.5,0-0.9,0.2-1.3,0.5c-0.3,0.4-0.5,0.8-0.5,1.3h3.3C319.1,286.3,318.8,285.7,318.3,285.4z"/>
		<path fill="#808285" d="M324.4,285.5c-1,0-1.5,0.8-1.5,2.3v3h-1v-6.2h1v1.2c0.3-0.9,0.9-1.3,1.7-1.3c0.3,0,0.5,0,0.7,0.1l-0.1,1
			C324.9,285.5,324.6,285.5,324.4,285.5z"/>
		<path fill="#808285" d="M327.1,283.2c-0.2,0-0.4-0.1-0.5-0.2s-0.2-0.3-0.2-0.5c0-0.2,0.1-0.4,0.2-0.5c0.1-0.1,0.3-0.2,0.5-0.2
			s0.4,0.1,0.5,0.2c0.1,0.1,0.2,0.3,0.2,0.5c0,0.2-0.1,0.4-0.2,0.5S327.3,283.2,327.1,283.2z M326.6,284.6h1v6.2h-1V284.6z"/>
		<path fill="#808285" d="M330.5,284.9c0.4-0.3,1-0.5,1.8-0.5c0.7,0,1.3,0.2,1.7,0.5c0.4,0.3,0.6,0.7,0.7,1.2h-1
			c-0.1-0.6-0.6-0.8-1.4-0.8c-0.4,0-0.8,0.1-1,0.3c-0.2,0.2-0.3,0.4-0.3,0.6c0,0.2,0.1,0.4,0.3,0.6c0.2,0.2,0.5,0.3,0.8,0.4l1.2,0.4
			c0.5,0.2,0.9,0.4,1.2,0.6s0.4,0.6,0.4,1.1s-0.2,0.8-0.7,1.2c-0.5,0.4-1.1,0.5-1.9,0.5s-1.5-0.2-1.9-0.6c-0.5-0.4-0.7-0.8-0.7-1.4
			h1c0,0.4,0.2,0.7,0.5,0.9c0.3,0.2,0.7,0.3,1.1,0.3c0.5,0,0.8-0.1,1.1-0.3c0.3-0.2,0.4-0.4,0.4-0.7c0-0.3-0.1-0.5-0.3-0.6
			c-0.2-0.1-0.5-0.3-0.8-0.4l-1.2-0.4c-1.1-0.3-1.6-0.9-1.6-1.7C329.8,285.6,330,285.2,330.5,284.9z"/>
		<path fill="#808285" d="M340,290.7c-0.7,0.3-1.4,0.4-2,0.2c-0.4-0.1-0.8-0.4-0.9-0.9c-0.1-0.2-0.1-0.5-0.1-0.8v-3.8h-1v-0.8h1
			v-1.7h1v1.7h2v0.8h-2v3.8c0,0.6,0.3,0.9,0.9,0.9c0.3,0,0.7-0.1,1.1-0.2L340,290.7z"/>
		<path fill="#808285" d="M341.9,283.2c-0.2,0-0.4-0.1-0.5-0.2s-0.2-0.3-0.2-0.5c0-0.2,0.1-0.4,0.2-0.5c0.1-0.1,0.3-0.2,0.5-0.2
			s0.4,0.1,0.5,0.2c0.1,0.1,0.2,0.3,0.2,0.5c0,0.2-0.1,0.4-0.2,0.5S342.1,283.2,341.9,283.2z M341.4,284.6h1v6.2h-1V284.6z"/>
		<path fill="#808285" d="M347.1,284.5c0.7,0,1.3,0.2,1.7,0.6c0.4,0.4,0.7,0.8,0.8,1.4l-1,0.1c-0.1-0.4-0.3-0.6-0.5-0.9
			c-0.3-0.2-0.5-0.3-0.8-0.3c-0.6,0-1,0.2-1.3,0.6c-0.3,0.4-0.5,1-0.5,1.7s0.2,1.3,0.5,1.7c0.3,0.4,0.7,0.7,1.2,0.7
			c0.5,0,0.9-0.1,1.1-0.3s0.4-0.6,0.4-1h1.1c0,0.7-0.2,1.2-0.7,1.6c-0.5,0.4-1.1,0.6-1.8,0.6c-0.8,0-1.5-0.3-2-0.9s-0.8-1.4-0.8-2.4
			s0.3-1.8,0.8-2.4C345.7,284.8,346.3,284.5,347.1,284.5z"/>
		<path fill="#808285" d="M351.7,284.9c0.4-0.3,1-0.5,1.8-0.5s1.3,0.2,1.7,0.5c0.4,0.3,0.6,0.7,0.7,1.2h-1c-0.1-0.6-0.6-0.8-1.4-0.8
			c-0.4,0-0.8,0.1-1,0.3c-0.2,0.2-0.3,0.4-0.3,0.6c0,0.2,0.1,0.4,0.3,0.6s0.5,0.3,0.8,0.4l1.2,0.4c0.5,0.2,0.9,0.4,1.2,0.6
			c0.3,0.3,0.4,0.6,0.4,1.1s-0.2,0.8-0.7,1.2c-0.5,0.4-1.1,0.5-1.9,0.5c-0.8,0-1.5-0.2-1.9-0.6c-0.5-0.4-0.7-0.8-0.7-1.4h1
			c0,0.4,0.2,0.7,0.5,0.9c0.3,0.2,0.7,0.3,1.1,0.3s0.8-0.1,1.1-0.3c0.3-0.2,0.4-0.4,0.4-0.7c0-0.3-0.1-0.5-0.3-0.6
			c-0.2-0.1-0.5-0.3-0.8-0.4l-1.2-0.4c-1.1-0.3-1.6-0.9-1.6-1.7C351.1,285.6,351.3,285.2,351.7,284.9z"/>
		<path fill="#808285" d="M364.1,290.7c-0.7,0.3-1.4,0.4-2,0.2c-0.4-0.1-0.8-0.4-0.9-0.9c-0.1-0.2-0.1-0.5-0.1-0.8v-3.8h-1v-0.8h1
			v-1.7h1v1.7h2v0.8h-2v3.8c0,0.6,0.3,0.9,0.9,0.9c0.3,0,0.7-0.1,1.1-0.2L364.1,290.7z"/>
		<path fill="#808285" d="M367.7,284.5c0.9,0,1.6,0.3,2.1,0.8c0.5,0.6,0.8,1.4,0.8,2.4c0,1-0.3,1.8-0.8,2.4s-1.2,0.8-2.1,0.8
			c-0.9,0-1.6-0.3-2.1-0.8s-0.8-1.4-0.8-2.4c0-1,0.3-1.9,0.8-2.4C366.1,284.8,366.8,284.5,367.7,284.5z M369.5,287.7
			c0-0.7-0.2-1.3-0.5-1.7c-0.3-0.4-0.8-0.6-1.4-0.6s-1.1,0.2-1.4,0.6c-0.3,0.4-0.5,1-0.5,1.7s0.2,1.3,0.5,1.7
			c0.3,0.4,0.8,0.6,1.4,0.6c0.6,0,1.1-0.2,1.4-0.6C369.4,289,369.5,288.5,369.5,287.7z"/>
		<path fill="#808285" d="M377.7,285.5c-1,0-1.5,0.8-1.5,2.3v3h-1v-6.2h1v1.2c0.3-0.9,0.9-1.3,1.7-1.3c0.3,0,0.5,0,0.7,0.1l-0.1,1
			C378.2,285.5,377.9,285.5,377.7,285.5z"/>
		<path fill="#808285" d="M382,290.2c0.9,0,1.3-0.4,1.5-1.1h1.1c-0.1,0.6-0.4,1.1-0.8,1.5c-0.5,0.3-1,0.5-1.7,0.5
			c-0.8,0-1.5-0.3-2-0.9c-0.5-0.6-0.8-1.4-0.8-2.4s0.3-1.8,0.8-2.4c0.5-0.6,1.2-0.9,2.1-0.9s1.5,0.3,2,1c0.4,0.7,0.6,1.5,0.4,2.5
			h-4.3c0,0.6,0.2,1.2,0.5,1.6C381,289.9,381.4,290.2,382,290.2z M382.7,285.4c-0.2-0.1-0.4-0.2-0.7-0.2c-0.5,0-0.9,0.2-1.3,0.5
			c-0.3,0.4-0.5,0.8-0.5,1.3h3.3C383.5,286.3,383.2,285.7,382.7,285.4z"/>
		<path fill="#808285" d="M388.3,284.5c0.7,0,1.3,0.2,1.7,0.6c0.4,0.4,0.7,0.8,0.8,1.4l-1,0.1c-0.1-0.4-0.3-0.6-0.5-0.9
			c-0.3-0.2-0.5-0.3-0.8-0.3c-0.6,0-1,0.2-1.3,0.6c-0.3,0.4-0.5,1-0.5,1.7s0.2,1.3,0.5,1.7c0.3,0.4,0.7,0.7,1.2,0.7
			c0.5,0,0.9-0.1,1.1-0.3s0.4-0.6,0.4-1h1.1c0,0.7-0.2,1.2-0.7,1.6c-0.5,0.4-1.1,0.6-1.8,0.6c-0.8,0-1.5-0.3-2-0.9s-0.8-1.4-0.8-2.4
			s0.3-1.8,0.8-2.4C387,284.8,387.6,284.5,388.3,284.5z"/>
		<path fill="#808285" d="M394.9,284.5c0.9,0,1.6,0.3,2.1,0.8c0.5,0.6,0.8,1.4,0.8,2.4c0,1-0.3,1.8-0.8,2.4
			c-0.5,0.6-1.2,0.8-2.1,0.8c-0.9,0-1.6-0.3-2.1-0.8c-0.5-0.6-0.8-1.4-0.8-2.4c0-1,0.3-1.9,0.8-2.4
			C393.4,284.8,394.1,284.5,394.9,284.5z M396.8,287.7c0-0.7-0.2-1.3-0.5-1.7c-0.3-0.4-0.8-0.6-1.4-0.6s-1.1,0.2-1.4,0.6
			c-0.3,0.4-0.5,1-0.5,1.7s0.2,1.3,0.5,1.7c0.3,0.4,0.8,0.6,1.4,0.6s1.1-0.2,1.4-0.6C396.6,289,396.8,288.5,396.8,287.7z"/>
		<path fill="#808285" d="M400.5,285.8c0.4-0.9,1.1-1.4,2.1-1.4c0.5,0,1,0.1,1.4,0.4c0.4,0.3,0.6,0.6,0.8,1.1c0.4-1,1.1-1.5,2.2-1.5
			c0.7,0,1.3,0.2,1.7,0.7s0.6,1.1,0.6,2v3.7h-1v-3.7c0-0.6-0.1-1-0.4-1.4c-0.3-0.3-0.7-0.5-1.2-0.5c-0.5,0-0.9,0.2-1.2,0.7
			c-0.3,0.4-0.4,1-0.4,1.8v3h-1v-3.7c0-0.6-0.1-1-0.4-1.4c-0.3-0.3-0.7-0.5-1.2-0.5c-0.5,0-0.9,0.2-1.3,0.6c-0.3,0.4-0.5,1-0.5,1.8
			v3.1h-1v-6.2h0.9L400.5,285.8z"/>
		<path fill="#808285" d="M412.4,285.8c0.4-0.9,1.1-1.4,2.1-1.4c0.5,0,1,0.1,1.4,0.4c0.4,0.3,0.6,0.6,0.8,1.1c0.4-1,1.1-1.5,2.2-1.5
			c0.7,0,1.3,0.2,1.7,0.7s0.6,1.1,0.6,2v3.7h-1v-3.7c0-0.6-0.1-1-0.4-1.4c-0.3-0.3-0.7-0.5-1.2-0.5c-0.5,0-0.9,0.2-1.2,0.7
			c-0.3,0.4-0.4,1-0.4,1.8v3h-1v-3.7c0-0.6-0.1-1-0.4-1.4c-0.3-0.3-0.7-0.5-1.2-0.5c-0.5,0-0.9,0.2-1.3,0.6c-0.3,0.4-0.5,1-0.5,1.8
			v3.1h-1v-6.2h0.9L412.4,285.8z"/>
		<path fill="#808285" d="M425.5,290.2c0.9,0,1.3-0.4,1.5-1.1h1.1c-0.1,0.6-0.4,1.1-0.8,1.5c-0.5,0.3-1,0.5-1.7,0.5
			c-0.8,0-1.5-0.3-2-0.9c-0.5-0.6-0.8-1.4-0.8-2.4s0.3-1.8,0.8-2.4c0.5-0.6,1.2-0.9,2.1-0.9s1.5,0.3,2,1c0.4,0.7,0.6,1.5,0.4,2.5
			h-4.3c0,0.6,0.2,1.2,0.5,1.6C424.5,289.9,424.9,290.2,425.5,290.2z M426.2,285.4c-0.2-0.1-0.4-0.2-0.7-0.2c-0.5,0-0.9,0.2-1.3,0.5
			c-0.3,0.4-0.5,0.8-0.5,1.3h3.3C427,286.3,426.7,285.7,426.2,285.4z"/>
		<path fill="#808285" d="M430.7,285.8c0.4-0.9,1.1-1.4,2.1-1.4c0.7,0,1.3,0.2,1.7,0.7c0.4,0.5,0.6,1.1,0.6,2v3.7h-1v-3.7
			c0-0.6-0.1-1-0.4-1.4c-0.3-0.3-0.7-0.5-1.2-0.5c-0.5,0-0.9,0.2-1.3,0.6c-0.3,0.4-0.5,1-0.5,1.8v3.1h-1v-6.2h0.9L430.7,285.8z"/>
		<path fill="#808285" d="M441.4,285.6V282h1v8.9h-0.8l-0.1-1c-0.2,0.4-0.5,0.7-0.8,0.9s-0.7,0.3-1.1,0.3c-0.8,0-1.4-0.3-2-0.9
			s-0.8-1.4-0.8-2.4c0-1,0.3-1.8,0.8-2.3c0.5-0.6,1.2-0.9,2-0.9C440.4,284.5,441,284.8,441.4,285.6z M439.6,285.4
			c-0.5,0-0.9,0.2-1.3,0.6c-0.3,0.4-0.5,1-0.5,1.7c0,0.7,0.2,1.3,0.5,1.7c0.3,0.4,0.8,0.6,1.2,0.6s0.9-0.2,1.2-0.5
			c0.3-0.3,0.5-0.8,0.5-1.3v-1c0-0.6-0.2-1-0.5-1.4S440.1,285.4,439.6,285.4z"/>
		<path fill="#808285" d="M450.9,290.7c-0.7,0.3-1.4,0.4-2,0.2c-0.4-0.1-0.8-0.4-0.9-0.9c-0.1-0.2-0.1-0.5-0.1-0.8v-3.8h-1v-0.8h1
			v-1.7h1v1.7h2v0.8h-2v3.8c0,0.6,0.3,0.9,0.9,0.9c0.3,0,0.7-0.1,1.1-0.2L450.9,290.7z"/>
		<path fill="#808285" d="M453.3,285.8c0.4-0.9,1.1-1.3,2.1-1.3c0.7,0,1.3,0.2,1.7,0.7c0.4,0.5,0.6,1.1,0.6,2v3.7h-1v-3.7
			c0-0.6-0.1-1-0.4-1.4c-0.3-0.3-0.7-0.5-1.2-0.5s-1,0.2-1.3,0.7c-0.3,0.4-0.5,1.1-0.5,1.9v2.9h-1V282h1V285.8z"/>
		<path fill="#808285" d="M462,290.2c0.9,0,1.3-0.4,1.5-1.1h1.1c-0.1,0.6-0.4,1.1-0.8,1.5c-0.5,0.3-1,0.5-1.7,0.5
			c-0.8,0-1.5-0.3-2-0.9c-0.5-0.6-0.8-1.4-0.8-2.4s0.3-1.8,0.8-2.4c0.5-0.6,1.2-0.9,2.1-0.9s1.5,0.3,2,1c0.4,0.7,0.6,1.5,0.4,2.5
			h-4.3c0,0.6,0.2,1.2,0.5,1.6C461,289.9,461.4,290.2,462,290.2z M462.7,285.4c-0.2-0.1-0.4-0.2-0.7-0.2c-0.5,0-0.9,0.2-1.3,0.5
			c-0.3,0.4-0.5,0.8-0.5,1.3h3.3C463.5,286.3,463.3,285.7,462.7,285.4z"/>
		<path fill="#808285" d="M470.1,285.6c0.4-0.7,1-1.1,1.8-1.1c0.8,0,1.5,0.3,2,0.9c0.5,0.6,0.8,1.4,0.8,2.4c0,1-0.3,1.8-0.8,2.4
			c-0.5,0.6-1.2,0.9-2,0.9c-0.4,0-0.8-0.1-1.1-0.3c-0.3-0.2-0.6-0.5-0.8-0.9l-0.2,1.1h-0.7V282h1V285.6z M471.9,285.4
			c-0.5,0-0.9,0.2-1.2,0.5c-0.3,0.3-0.5,0.8-0.5,1.3v1c0,0.6,0.2,1,0.5,1.4c0.3,0.3,0.8,0.5,1.2,0.5s0.9-0.2,1.3-0.6
			c0.4-0.4,0.5-1,0.5-1.7c0-0.7-0.2-1.3-0.5-1.7C472.8,285.6,472.4,285.4,471.9,285.4z"/>
		<path fill="#808285" d="M478.6,290.2c0.9,0,1.3-0.4,1.5-1.1h1.1c-0.1,0.6-0.4,1.1-0.8,1.5c-0.5,0.3-1,0.5-1.7,0.5
			c-0.8,0-1.5-0.3-2-0.9c-0.5-0.6-0.8-1.4-0.8-2.4s0.3-1.8,0.8-2.4c0.5-0.6,1.2-0.9,2.1-0.9s1.5,0.3,2,1c0.4,0.7,0.6,1.5,0.4,2.5
			h-4.3c0,0.6,0.2,1.2,0.5,1.6C477.6,289.9,478,290.2,478.6,290.2z M479.3,285.4c-0.2-0.1-0.4-0.2-0.7-0.2c-0.5,0-0.9,0.2-1.3,0.5
			c-0.3,0.4-0.5,0.8-0.5,1.3h3.3C480.1,286.3,479.9,285.7,479.3,285.4z"/>
		<path fill="#808285" d="M483.2,284.9c0.4-0.3,1-0.5,1.8-0.5c0.7,0,1.3,0.2,1.7,0.5c0.4,0.3,0.6,0.7,0.7,1.2h-1
			c-0.1-0.6-0.6-0.8-1.4-0.8c-0.4,0-0.8,0.1-1,0.3c-0.2,0.2-0.3,0.4-0.3,0.6c0,0.2,0.1,0.4,0.3,0.6c0.2,0.2,0.5,0.3,0.8,0.4l1.2,0.4
			c0.5,0.2,0.9,0.4,1.2,0.6s0.4,0.6,0.4,1.1s-0.2,0.8-0.7,1.2c-0.5,0.4-1.1,0.5-1.9,0.5s-1.5-0.2-1.9-0.6c-0.5-0.4-0.7-0.8-0.7-1.4
			h1c0,0.4,0.2,0.7,0.5,0.9c0.3,0.2,0.7,0.3,1.1,0.3c0.5,0,0.8-0.1,1.1-0.3c0.3-0.2,0.4-0.4,0.4-0.7c0-0.3-0.1-0.5-0.3-0.6
			c-0.2-0.1-0.5-0.3-0.8-0.4l-1.2-0.4c-1.1-0.3-1.6-0.9-1.6-1.7C482.6,285.6,482.8,285.2,483.2,284.9z"/>
		<path fill="#808285" d="M492.7,290.7c-0.7,0.3-1.4,0.4-2,0.2c-0.4-0.1-0.8-0.4-0.9-0.9c-0.1-0.2-0.1-0.5-0.1-0.8v-3.8h-1v-0.8h1
			v-1.7h1v1.7h2v0.8h-2v3.8c0,0.6,0.3,0.9,0.9,0.9c0.3,0,0.7-0.1,1.1-0.2L492.7,290.7z"/>
		<path fill="#808285" d="M499,284.5c0.7,0,1.3,0.2,1.7,0.6c0.4,0.4,0.7,0.8,0.8,1.4l-1,0.1c-0.1-0.4-0.3-0.6-0.5-0.9
			c-0.3-0.2-0.5-0.3-0.8-0.3c-0.6,0-1,0.2-1.3,0.6c-0.3,0.4-0.5,1-0.5,1.7s0.2,1.3,0.5,1.7c0.3,0.4,0.7,0.7,1.2,0.7
			c0.5,0,0.9-0.1,1.1-0.3s0.4-0.6,0.4-1h1.1c0,0.7-0.2,1.2-0.7,1.6c-0.5,0.4-1.1,0.6-1.8,0.6c-0.8,0-1.5-0.3-2-0.9s-0.8-1.4-0.8-2.4
			s0.3-1.8,0.8-2.4C497.6,284.8,498.3,284.5,499,284.5z"/>
		<path fill="#808285" d="M505.9,285.5c-1,0-1.5,0.8-1.5,2.3v3h-1v-6.2h1v1.2c0.3-0.9,0.9-1.3,1.7-1.3c0.3,0,0.5,0,0.7,0.1l-0.1,1
			C506.4,285.5,506.2,285.5,505.9,285.5z"/>
		<path fill="#808285" d="M511.9,286.8c0-0.6-0.1-1-0.4-1.2c-0.2-0.2-0.6-0.4-1-0.4s-0.8,0.1-1.1,0.3c-0.3,0.2-0.4,0.5-0.4,0.8h-1.1
			c0-1,0.5-1.5,1.5-1.8c0.3-0.1,0.7-0.1,1-0.1c0.8,0,1.4,0.2,1.8,0.6c0.4,0.4,0.6,1,0.6,1.8v4H512l-0.1-1c-0.4,0.8-1.1,1.2-2.1,1.2
			c-0.7,0-1.2-0.2-1.6-0.6c-0.4-0.4-0.6-0.8-0.6-1.4s0.2-1,0.7-1.3c0.4-0.3,1-0.5,1.7-0.5c0.7,0,1.3,0.1,1.9,0.3V286.8z
			 M511.9,288.3c-0.6-0.2-1.2-0.3-1.6-0.3c-0.5,0-0.8,0.1-1.1,0.2c-0.3,0.2-0.4,0.4-0.4,0.8c0,0.8,0.4,1.2,1.3,1.2
			c0.5,0,0.9-0.2,1.3-0.5C511.7,289.3,511.9,288.8,511.9,288.3z"/>
		<path fill="#808285" d="M515.3,290.6c-0.5-0.3-0.8-0.6-0.8-1.2c0-0.3,0.1-0.5,0.3-0.7c0.2-0.2,0.5-0.3,0.8-0.4
			c-0.5-0.4-0.7-1-0.7-1.6c0-0.7,0.2-1.2,0.7-1.6c0.5-0.4,1.1-0.6,1.7-0.6c0.7,0,1.2,0.2,1.7,0.5c0.1-0.5,0.2-0.8,0.6-1.1
			s0.7-0.4,1.2-0.4l-0.1,1c-0.8,0-1.2,0.3-1.2,1c0.3,0.4,0.5,0.8,0.5,1.3c0,0.7-0.2,1.2-0.7,1.6c-0.5,0.4-1.1,0.6-1.8,0.6
			c-0.5,0-0.9-0.1-1.3-0.3c-0.2,0-0.3,0.1-0.5,0.2c-0.1,0.1-0.2,0.3-0.2,0.5c0,0.5,0.4,0.7,1.1,0.7h2.4c0.6,0,1,0.1,1.4,0.4
			s0.5,0.6,0.5,1c0,0.7-0.3,1.2-1,1.7s-1.5,0.7-2.5,0.7c-1,0-1.8-0.2-2.4-0.6c-0.6-0.4-0.9-0.9-0.9-1.4c0-0.4,0.1-0.7,0.3-0.9
			C514.7,290.9,515,290.7,515.3,290.6z M515.1,292c0,0.3,0.2,0.6,0.5,0.9c0.4,0.2,0.9,0.4,1.6,0.4s1.3-0.2,1.8-0.5s0.7-0.7,0.7-1.1
			c0-0.2-0.1-0.4-0.2-0.5c-0.1-0.1-0.4-0.2-0.7-0.2h-2.5c-0.4,0-0.8,0.1-1,0.3C515.2,291.4,515.1,291.7,515.1,292z M519,286.7
			c0-0.4-0.1-0.8-0.4-1.1c-0.3-0.3-0.6-0.4-1.1-0.4s-0.8,0.1-1.1,0.4c-0.3,0.3-0.4,0.6-0.4,1.1c0,0.5,0.1,0.8,0.4,1.1
			c0.3,0.3,0.6,0.4,1.1,0.4s0.8-0.1,1.1-0.4S519,287.2,519,286.7z"/>
		<path fill="#808285" d="M522.5,284.9c0.4-0.3,1-0.5,1.8-0.5s1.3,0.2,1.7,0.5c0.4,0.3,0.6,0.7,0.7,1.2h-1c-0.1-0.6-0.6-0.8-1.4-0.8
			c-0.4,0-0.8,0.1-1,0.3c-0.2,0.2-0.3,0.4-0.3,0.6c0,0.2,0.1,0.4,0.3,0.6s0.5,0.3,0.8,0.4l1.2,0.4c0.5,0.2,0.9,0.4,1.2,0.6
			c0.3,0.3,0.4,0.6,0.4,1.1s-0.2,0.8-0.7,1.2c-0.5,0.4-1.1,0.5-1.9,0.5c-0.8,0-1.5-0.2-1.9-0.6c-0.5-0.4-0.7-0.8-0.7-1.4h1
			c0,0.4,0.2,0.7,0.5,0.9c0.3,0.2,0.7,0.3,1.1,0.3s0.8-0.1,1.1-0.3c0.3-0.2,0.4-0.4,0.4-0.7c0-0.3-0.1-0.5-0.3-0.6
			c-0.2-0.1-0.5-0.3-0.8-0.4l-1.2-0.4c-1.1-0.3-1.6-0.9-1.6-1.7C521.8,285.6,522,285.2,522.5,284.9z"/>
		<path fill="#808285" d="M528.6,291c-0.2,0-0.4-0.1-0.5-0.2c-0.1-0.1-0.2-0.3-0.2-0.5c0-0.2,0.1-0.4,0.2-0.5
			c0.1-0.1,0.3-0.2,0.5-0.2s0.4,0.1,0.6,0.2c0.1,0.1,0.2,0.3,0.2,0.5c0,0.2-0.1,0.4-0.2,0.5C529,290.9,528.8,291,528.6,291z"/>
	</g>
	<g>
		<g>
			<path fill="#939598" d="M561,589H239V91h322V589z M241,587h318V93H241V587z"/>
		</g>
		<g>
			<path fill="#939598" d="M530.9,670H270.1c-31.5,0-57.1-25.6-57.1-57.1V66.1C213,34.6,238.6,9,270.1,9h260.8
				C562.4,9,588,34.6,588,66.1v546.8C588,644.4,562.4,670,530.9,670z M270.1,11C239.7,11,215,35.7,215,66.1v546.8
				c0,30.4,24.7,55.1,55.1,55.1h260.8c30.4,0,55.1-24.7,55.1-55.1V66.1c0-30.4-24.7-55.1-55.1-55.1H270.1z"/>
		</g>
		<g>
			<path fill="#939598" d="M342.2,58.8c-4.4,0-8-3.6-8-8s3.6-8,8-8s8,3.6,8,8S346.6,58.8,342.2,58.8z M342.2,44.8c-3.3,0-6,2.7-6,6
				s2.7,6,6,6s6-2.7,6-6S345.5,44.8,342.2,44.8z"/>
		</g>
		<g>
			<path fill="#939598" d="M400.8,34.8c-3.1,0-5.7-2.5-5.7-5.7c0-3.1,2.5-5.7,5.7-5.7c3.1,0,5.7,2.5,5.7,5.7
				C406.5,32.3,403.9,34.8,400.8,34.8z M400.8,25.5c-2,0-3.7,1.6-3.7,3.7c0,2,1.6,3.7,3.7,3.7c2,0,3.7-1.6,3.7-3.7
				C404.5,27.1,402.8,25.5,400.8,25.5z"/>
		</g>
		<g>
			<path fill="#939598" d="M426,56h-52c-2.8,0-5-2.2-5-5s2.2-5,5-5h52c2.8,0,5,2.2,5,5S428.8,56,426,56z M374,48c-1.7,0-3,1.3-3,3
				s1.3,3,3,3h52c1.7,0,3-1.3,3-3s-1.3-3-3-3H374z"/>
		</g>
		<g>
			<path fill="#939598" d="M400.8,654.2c-16,0-29-13-29-29s13-29,29-29c16,0,29,13,29,29S416.8,654.2,400.8,654.2z M400.8,598.2
				c-14.9,0-27,12.1-27,27s12.1,27,27,27s27-12.1,27-27S415.7,598.2,400.8,598.2z"/>
		</g>
		<g>
			<path fill="#939598" d="M400.8,649.5c-13.4,0-24.3-10.9-24.3-24.3c0-13.4,10.9-24.3,24.3-24.3c13.4,0,24.3,10.9,24.3,24.3
				C425.1,638.6,414.2,649.5,400.8,649.5z M400.8,602.8c-12.3,0-22.3,10-22.3,22.3c0,12.3,10,22.3,22.3,22.3s22.3-10,22.3-22.3
				C423.1,612.9,413.1,602.8,400.8,602.8z"/>
		</g>
	</g>
	<g>
		<g>
			<g>
				<circle fill="#D1D3D4" cx="405.5" cy="158.1" r="26.9"/>
				<path fill="#939598" d="M405.5,186c-15.4,0-27.9-12.5-27.9-27.9c0-15.4,12.5-27.9,27.9-27.9c15.4,0,27.9,12.5,27.9,27.9
					C433.3,173.5,420.8,186,405.5,186z M405.5,132.3c-14.3,0-25.9,11.6-25.9,25.9s11.6,25.9,25.9,25.9s25.9-11.6,25.9-25.9
					S419.7,132.3,405.5,132.3z"/>
			</g>
			<g>
				<path fill="#FFFFFF" d="M391.8,159.9l7,13.8l13.8-27l14.2,27.8c3.5-4.5,5.5-10.2,5.5-16.3c0-14.8-12-26.9-26.9-26.9
					c-14.8,0-26.9,12-26.9,26.9c0,6.2,2.1,12,5.7,16.5L391.8,159.9z"/>
				<path fill="#939598" d="M384.3,175.6c-0.3,0-0.6-0.1-0.8-0.4c-3.9-4.9-5.9-10.9-5.9-17.1c0-15.4,12.5-27.9,27.9-27.9
					c15.4,0,27.9,12.5,27.9,27.9c0,6.2-2,12-5.8,16.9c-0.2,0.3-0.5,0.4-0.9,0.4c-0.3,0-0.6-0.2-0.8-0.5l-13.3-26.1l-12.9,25.3
					c-0.2,0.3-0.5,0.5-0.9,0.5l0,0c-0.4,0-0.7-0.2-0.9-0.5l-6.1-12l-6.6,13C385,175.4,384.7,175.6,384.3,175.6
					C384.4,175.6,384.3,175.6,384.3,175.6z M405.5,132.3c-14.3,0-25.9,11.6-25.9,25.9c0,5.3,1.6,10.3,4.5,14.6l6.8-13.3
					c0.3-0.7,1.4-0.7,1.8,0l6.1,12l12.9-25.3c0.3-0.7,1.4-0.7,1.8,0l13.4,26.3c2.9-4.3,4.4-9.2,4.4-14.4
					C431.3,143.9,419.7,132.3,405.5,132.3z"/>
			</g>
		</g>
		<g>
			<g>
				<path fill="#939598" d="M399,148.9c-2,0-3.6-1.6-3.6-3.6s1.6-3.6,3.6-3.6s3.6,1.6,3.6,3.6S401,148.9,399,148.9z M399,143.6
					c-0.9,0-1.6,0.7-1.6,1.6s0.7,1.6,1.6,1.6s1.6-0.7,1.6-1.6S399.9,143.6,399,143.6z"/>
			</g>
			<g>
				<circle fill="#939598" cx="399" cy="138.6" r="1.1"/>
			</g>
			<g>
				<path fill="#939598" d="M399,148.9c-1,0-1.9-0.4-2.6-1.1s-1.1-1.6-1.1-2.6c0-1,0.4-1.9,1.1-2.6c1.4-1.4,3.8-1.4,5.1,0
					c1.4,1.4,1.4,3.7,0,5.1C400.9,148.5,400,148.9,399,148.9z M399,143.6c-0.4,0-0.8,0.2-1.2,0.5s-0.5,0.7-0.5,1.2
					c0,0.4,0.2,0.8,0.5,1.2c0.6,0.6,1.7,0.6,2.3,0c0.6-0.6,0.6-1.7,0-2.3C399.9,143.8,399.5,143.6,399,143.6z"/>
			</g>
			<g>
				<circle fill="#939598" cx="403.7" cy="140.6" r="1.1"/>
			</g>
			<g>
				<path fill="#939598" d="M399,148.9c-2,0-3.6-1.6-3.6-3.6s1.6-3.6,3.6-3.6s3.6,1.6,3.6,3.6S401,148.9,399,148.9z M399,143.6
					c-0.9,0-1.6,0.7-1.6,1.6s0.7,1.6,1.6,1.6s1.6-0.7,1.6-1.6S399.9,143.6,399,143.6z"/>
			</g>
			<g>
				<circle fill="#939598" cx="405.6" cy="145.2" r="1.1"/>
			</g>
			<g>
				<path fill="#939598" d="M399,148.9c-1,0-1.9-0.4-2.6-1.1s-1.1-1.6-1.1-2.6c0-1,0.4-1.9,1.1-2.6c1.4-1.4,3.8-1.4,5.1,0
					c1.4,1.4,1.4,3.7,0,5.1C400.9,148.5,400,148.9,399,148.9z M399,143.6c-0.4,0-0.8,0.2-1.2,0.5s-0.5,0.7-0.5,1.2
					c0,0.4,0.2,0.8,0.5,1.2c0.6,0.6,1.7,0.6,2.3,0c0.6-0.6,0.6-1.7,0-2.3C399.9,143.8,399.5,143.6,399,143.6z"/>
			</g>
			<g>
				<circle fill="#939598" cx="403.7" cy="149.9" r="1.1"/>
			</g>
			<g>
				<path fill="#939598" d="M399,148.9c-2,0-3.6-1.6-3.6-3.6s1.6-3.6,3.6-3.6s3.6,1.6,3.6,3.6S401,148.9,399,148.9z M399,143.6
					c-0.9,0-1.6,0.7-1.6,1.6s0.7,1.6,1.6,1.6s1.6-0.7,1.6-1.6S399.9,143.6,399,143.6z"/>
			</g>
			<g>
				<circle fill="#939598" cx="399" cy="151.8" r="1.1"/>
			</g>
			<g>
				<path fill="#939598" d="M399,148.9c-1,0-1.9-0.4-2.6-1.1s-1.1-1.6-1.1-2.6c0-1,0.4-1.9,1.1-2.6c1.4-1.4,3.8-1.4,5.1,0
					c1.4,1.4,1.4,3.7,0,5.1C400.9,148.5,400,148.9,399,148.9z M399,143.6c-0.4,0-0.8,0.2-1.2,0.5s-0.5,0.7-0.5,1.2
					c0,0.4,0.2,0.8,0.5,1.2c0.6,0.6,1.7,0.6,2.3,0c0.6-0.6,0.6-1.7,0-2.3C399.9,143.8,399.5,143.6,399,143.6z"/>
			</g>
			<g>
				<circle fill="#939598" cx="394.4" cy="149.9" r="1.1"/>
			</g>
			<g>
				<path fill="#939598" d="M399,148.9c-2,0-3.6-1.6-3.6-3.6s1.6-3.6,3.6-3.6s3.6,1.6,3.6,3.6S401,148.9,399,148.9z M399,143.6
					c-0.9,0-1.6,0.7-1.6,1.6s0.7,1.6,1.6,1.6s1.6-0.7,1.6-1.6S399.9,143.6,399,143.6z"/>
			</g>
			<g>
				<circle fill="#939598" cx="392.4" cy="145.2" r="1.1"/>
			</g>
			<g>
				<path fill="#939598" d="M399,148.9c-1,0-1.9-0.4-2.6-1.1s-1.1-1.6-1.1-2.6c0-1,0.4-1.9,1.1-2.6c1.4-1.4,3.8-1.4,5.1,0
					c1.4,1.4,1.4,3.7,0,5.1C400.9,148.5,400,148.9,399,148.9z M399,143.6c-0.4,0-0.8,0.2-1.2,0.5s-0.5,0.7-0.5,1.2
					c0,0.4,0.2,0.8,0.5,1.2c0.6,0.6,1.7,0.6,2.3,0c0.6-0.6,0.6-1.7,0-2.3C399.9,143.8,399.5,143.6,399,143.6z"/>
			</g>
			<g>
				<circle fill="#939598" cx="394.4" cy="140.6" r="1.1"/>
			</g>
		</g>
	</g>
	<g>
		<g>
			<path fill="#F1F2F2" d="M529,483c0,2.2-1.8,4-4,4H274c-2.2,0-4-1.8-4-4v-31c0-2.2,1.8-4,4-4h251c2.2,0,4,1.8,4,4V483z"/>
			<path fill="#939598" d="M525.5,487h-251c-2.5,0-4.5-2-4.5-4.5v-31c0-2.5,2-4.5,4.5-4.5h251c2.5,0,4.5,2,4.5,4.5v31
				C530,485,528,487,525.5,487z M274.5,448c-1.9,0-3.5,1.6-3.5,3.5v31c0,1.9,1.6,3.5,3.5,3.5h251c1.9,0,3.5-1.6,3.5-3.5v-31
				c0-1.9-1.6-3.5-3.5-3.5H274.5z"/>
		</g>
		<g>
			<path fill="#58595B" d="M384.8,470.1h3.7v1.4h-5.4v-9.1h1.7V470.1z"/>
			<path fill="#58595B" d="M392.7,464.5c0.5,0,0.9,0.1,1.3,0.2c0.4,0.1,0.7,0.4,1,0.7c0.6,0.7,1,1.6,1,2.7c0,1.1-0.3,2-1,2.7
				c-0.6,0.6-1.4,0.9-2.3,0.9s-1.8-0.3-2.4-0.9c-0.6-0.6-1-1.5-1-2.7c0-1.2,0.3-2.1,1-2.7C391,464.8,391.8,464.5,392.7,464.5z
				 M394.4,468.1c0-0.7-0.1-1.3-0.4-1.6s-0.7-0.5-1.2-0.5c-0.5,0-0.9,0.2-1.2,0.5s-0.5,0.9-0.5,1.6c0,0.7,0.1,1.3,0.4,1.6
				c0.3,0.4,0.7,0.5,1.2,0.5c0.5,0,0.9-0.2,1.2-0.5C394.2,469.4,394.4,468.8,394.4,468.1z"/>
			<path fill="#58595B" d="M398.6,468.7c-0.6-0.5-0.8-1.1-0.8-1.8c0-0.7,0.3-1.3,0.9-1.8c0.6-0.4,1.2-0.7,1.9-0.7
				c0.7,0,1.3,0.1,1.8,0.4c0.1-0.5,0.3-1,0.7-1.3c0.4-0.3,0.9-0.5,1.4-0.5l-0.1,1.6c-0.8,0-1.2,0.3-1.2,0.8c0.3,0.4,0.5,0.9,0.5,1.3
				c0,0.4-0.1,0.8-0.2,1.1c-0.2,0.3-0.4,0.6-0.6,0.8c-0.6,0.4-1.2,0.7-2,0.7c-0.5,0-0.9-0.1-1.2-0.2c-0.4,0.1-0.6,0.3-0.6,0.7
				c0,0.4,0.4,0.6,1.1,0.6h2.3c1.5,0,2.3,0.5,2.3,1.6c0,0.4-0.1,0.7-0.3,1.1c-0.2,0.3-0.4,0.7-0.8,0.9c-0.8,0.6-1.7,0.9-2.9,0.9
				c-1.1,0-2-0.2-2.7-0.7c-0.7-0.4-1-1-1-1.6c0-0.4,0.1-0.8,0.4-1c0.3-0.2,0.6-0.4,1-0.5c-0.6-0.3-0.8-0.8-0.8-1.2
				c0-0.3,0.1-0.6,0.3-0.8C398,469,398.3,468.8,398.6,468.7z M399.8,471.7c-0.9,0-1.3,0.4-1.3,1c0,0.3,0.2,0.6,0.6,0.8
				c0.4,0.2,0.8,0.3,1.3,0.3s0.9,0,1.2-0.1c0.3-0.1,0.5-0.2,0.7-0.3c0.4-0.3,0.6-0.6,0.6-1c0-0.2-0.1-0.3-0.2-0.4
				c-0.1-0.1-0.3-0.2-0.5-0.2H399.8z M402,466.9c0-0.4-0.1-0.7-0.3-0.9s-0.5-0.4-1-0.4c-0.4,0-0.8,0.1-1,0.4
				c-0.2,0.2-0.3,0.5-0.3,0.9c0,0.4,0.1,0.7,0.3,0.9c0.2,0.2,0.6,0.4,1,0.4c0.4,0,0.7-0.1,1-0.4S402,467.3,402,466.9z"/>
			<path fill="#58595B" d="M406.1,462.5c0-0.3,0.1-0.5,0.3-0.7c0.2-0.2,0.4-0.3,0.8-0.3c0.3,0,0.6,0.1,0.7,0.3
				c0.2,0.2,0.3,0.4,0.3,0.7s-0.1,0.5-0.3,0.7c-0.2,0.2-0.4,0.3-0.7,0.3c-0.3,0-0.6-0.1-0.8-0.3C406.2,463,406.1,462.8,406.1,462.5z
				 M406.3,464.7h1.7v6.8h-1.7V464.7z"/>
			<path fill="#58595B" d="M412.4,465.9c0.4-0.9,1.2-1.4,2.2-1.4c0.8,0,1.5,0.3,1.9,0.8s0.6,1.3,0.6,2.2v4h-1.7v-4
				c0-0.5-0.1-0.9-0.4-1.1c-0.2-0.3-0.6-0.4-1-0.4c-0.4,0-0.8,0.2-1.1,0.6c-0.3,0.4-0.5,1-0.5,1.8v3.2h-1.7v-6.8h1.4L412.4,465.9z"
				/>
		</g>
	</g>
	<g>
		<path fill="#939598" d="M530,367H270v-40h260V367z M271,366h258v-38H271V366z"/>
	</g>
	<g>
		<path fill="#A7A9AC" d="M286,344v5.6c0,0.8,0.2,1.4,0.6,1.8c0.4,0.4,1,0.5,1.6,0.5s1.2-0.2,1.6-0.5c0.4-0.4,0.6-1,0.6-1.8V344h1.1
			v5.6c0,1.1-0.3,1.9-0.9,2.5c-0.6,0.6-1.4,0.8-2.4,0.8s-1.8-0.3-2.4-0.8c-0.6-0.6-0.9-1.4-0.9-2.5V344H286z"/>
		<path fill="#A7A9AC" d="M294.6,346.5c0.5-0.3,1.1-0.5,1.9-0.5c0.8,0,1.4,0.2,1.9,0.5c0.5,0.3,0.7,0.8,0.7,1.3H298
			c-0.1-0.6-0.6-0.9-1.5-0.9c-0.5,0-0.8,0.1-1.1,0.3c-0.2,0.2-0.4,0.4-0.4,0.7c0,0.2,0.1,0.4,0.3,0.6s0.5,0.3,0.9,0.4l1.3,0.4
			c0.6,0.2,1,0.4,1.3,0.7c0.3,0.3,0.5,0.7,0.5,1.1c0,0.5-0.2,0.9-0.7,1.3c-0.5,0.4-1.2,0.6-2.1,0.6s-1.6-0.2-2.1-0.6
			c-0.5-0.4-0.8-0.9-0.8-1.5h1.1c0,0.4,0.2,0.7,0.5,0.9c0.3,0.2,0.7,0.3,1.2,0.3s0.9-0.1,1.2-0.3c0.3-0.2,0.5-0.5,0.5-0.7
			c0-0.3-0.1-0.5-0.3-0.7s-0.5-0.3-0.9-0.4l-1.3-0.4c-1.2-0.3-1.8-1-1.8-1.8C293.9,347.2,294.1,346.8,294.6,346.5z"/>
		<path fill="#A7A9AC" d="M303.9,352.1c0.9,0,1.5-0.4,1.6-1.2h1.1c-0.1,0.7-0.4,1.2-0.9,1.6c-0.5,0.4-1.1,0.6-1.8,0.6
			c-0.9,0-1.6-0.3-2.2-1c-0.6-0.6-0.8-1.5-0.8-2.6c0-1.1,0.3-1.9,0.8-2.5c0.6-0.6,1.3-1,2.3-1s1.6,0.4,2.1,1.1
			c0.5,0.7,0.6,1.6,0.5,2.7H302c0,0.7,0.2,1.3,0.5,1.7S303.3,352.1,303.9,352.1z M304.7,347c-0.2-0.1-0.5-0.2-0.8-0.2
			c-0.6,0-1,0.2-1.4,0.6c-0.3,0.4-0.5,0.9-0.6,1.4h3.6C305.6,348,305.3,347.3,304.7,347z"/>
		<path fill="#A7A9AC" d="M311.5,347.1c-1.1,0-1.6,0.8-1.6,2.5v3.3h-1.1v-6.7h1.1v1.3c0.3-0.9,0.9-1.4,1.8-1.4c0.3,0,0.5,0,0.8,0.1
			l-0.1,1.1C312.1,347.1,311.8,347.1,311.5,347.1z"/>
		<path fill="#A7A9AC" d="M315.2,347.4c0.4-1,1.2-1.5,2.3-1.5c0.8,0,1.4,0.3,1.9,0.8c0.4,0.5,0.7,1.2,0.7,2.1v3.9h-1.1v-3.9
			c0-0.6-0.2-1.1-0.5-1.5c-0.3-0.3-0.7-0.5-1.3-0.5s-1,0.2-1.4,0.7c-0.3,0.5-0.5,1.1-0.5,1.9v3.3h-1.1v-6.7h1L315.2,347.4z"/>
		<path fill="#A7A9AC" d="M326.7,348.5c0-0.6-0.1-1-0.4-1.3c-0.3-0.3-0.6-0.4-1.1-0.4c-0.5,0-0.9,0.1-1.2,0.3s-0.4,0.5-0.4,0.9h-1.2
			c0-1,0.6-1.7,1.7-1.9c0.3-0.1,0.7-0.1,1.1-0.1c0.8,0,1.5,0.2,1.9,0.6c0.5,0.4,0.7,1.1,0.7,1.9v4.3h-1l-0.1-1.1
			c-0.4,0.8-1.2,1.3-2.2,1.3c-0.7,0-1.3-0.2-1.7-0.6s-0.7-0.9-0.7-1.5c0-0.6,0.2-1.1,0.7-1.4c0.5-0.3,1.1-0.5,1.8-0.5
			s1.4,0.1,2.1,0.4V348.5z M326.7,350c-0.7-0.2-1.2-0.3-1.7-0.3s-0.9,0.1-1.2,0.3c-0.3,0.2-0.5,0.5-0.5,0.8c0,0.8,0.5,1.3,1.4,1.3
			c0.5,0,1-0.2,1.4-0.6C326.5,351.2,326.7,350.7,326.7,350z"/>
		<path fill="#A7A9AC" d="M331.5,347.4c0.4-1,1.2-1.5,2.3-1.5c0.6,0,1.1,0.1,1.5,0.4c0.4,0.3,0.7,0.7,0.9,1.2
			c0.4-1.1,1.2-1.6,2.3-1.6c0.8,0,1.4,0.3,1.9,0.8c0.4,0.5,0.7,1.2,0.7,2.1v3.9h-1.1v-3.9c0-0.6-0.2-1.1-0.5-1.5
			c-0.3-0.3-0.7-0.5-1.3-0.5s-1,0.2-1.3,0.7c-0.3,0.5-0.5,1.1-0.5,1.9v3.2h-1.1v-3.9c0-0.6-0.2-1.1-0.5-1.5
			c-0.3-0.3-0.7-0.5-1.3-0.5s-1,0.2-1.4,0.7c-0.3,0.5-0.5,1.1-0.5,1.9v3.3h-1.1v-6.7h1L331.5,347.4z"/>
		<path fill="#A7A9AC" d="M345.8,352.1c0.9,0,1.5-0.4,1.6-1.2h1.1c-0.1,0.7-0.4,1.2-0.9,1.6c-0.5,0.4-1.1,0.6-1.8,0.6
			c-0.9,0-1.6-0.3-2.2-1c-0.6-0.6-0.8-1.5-0.8-2.6c0-1.1,0.3-1.9,0.8-2.5c0.6-0.6,1.3-1,2.3-1s1.6,0.4,2.1,1.1
			c0.5,0.7,0.6,1.6,0.5,2.7h-4.6c0,0.7,0.2,1.3,0.5,1.7S345.2,352.1,345.8,352.1z M346.6,347c-0.2-0.1-0.5-0.2-0.8-0.2
			c-0.6,0-1,0.2-1.4,0.6c-0.3,0.4-0.5,0.9-0.6,1.4h3.6C347.5,348,347.2,347.3,346.6,347z"/>
	</g>
	<g>
		<path fill="#939598" d="M530,426H270v-40h260V426z M271,425h258v-38H271V425z"/>
	</g>
	<g>
		<path fill="#A7A9AC" d="M290.1,403.8c0.5,0.5,0.8,1.2,0.8,2s-0.3,1.5-0.8,2s-1.2,0.7-2.2,0.7h-1.7v3.4h-1.1V403h2.8
			C288.9,403,289.6,403.3,290.1,403.8z M287.9,407.5c0.6,0,1.1-0.2,1.4-0.5c0.3-0.3,0.5-0.7,0.5-1.3c0-0.5-0.2-1-0.5-1.3
			c-0.3-0.3-0.8-0.5-1.4-0.5h-1.7v3.5H287.9z"/>
		<path fill="#A7A9AC" d="M297,407.5c0-0.6-0.1-1-0.4-1.3c-0.3-0.3-0.6-0.4-1.1-0.4c-0.5,0-0.9,0.1-1.2,0.3s-0.4,0.5-0.4,0.9h-1.2
			c0-1,0.6-1.7,1.7-1.9c0.3-0.1,0.7-0.1,1.1-0.1c0.8,0,1.5,0.2,1.9,0.6c0.5,0.4,0.7,1.1,0.7,1.9v4.3h-1l-0.1-1.1
			c-0.4,0.8-1.2,1.3-2.2,1.3c-0.7,0-1.3-0.2-1.7-0.6s-0.7-0.9-0.7-1.5c0-0.6,0.2-1.1,0.7-1.4c0.5-0.3,1.1-0.5,1.8-0.5
			s1.4,0.1,2.1,0.4V407.5z M297,409c-0.7-0.2-1.2-0.3-1.7-0.3s-0.9,0.1-1.2,0.3c-0.3,0.2-0.5,0.5-0.5,0.8c0,0.8,0.5,1.3,1.4,1.3
			c0.5,0,1-0.2,1.4-0.6C296.8,410.2,297,409.7,297,409z"/>
		<path fill="#A7A9AC" d="M301,405.5c0.5-0.3,1.1-0.5,1.9-0.5c0.8,0,1.4,0.2,1.9,0.5c0.5,0.3,0.7,0.8,0.7,1.3h-1.1
			c-0.1-0.6-0.6-0.9-1.5-0.9c-0.5,0-0.8,0.1-1.1,0.3c-0.2,0.2-0.4,0.4-0.4,0.7c0,0.2,0.1,0.4,0.3,0.6s0.5,0.3,0.9,0.4l1.3,0.4
			c0.6,0.2,1,0.4,1.3,0.7c0.3,0.3,0.5,0.7,0.5,1.1c0,0.5-0.2,0.9-0.7,1.3c-0.5,0.4-1.2,0.6-2.1,0.6s-1.6-0.2-2.1-0.6
			c-0.5-0.4-0.8-0.9-0.8-1.5h1.1c0,0.4,0.2,0.7,0.5,0.9c0.3,0.2,0.7,0.3,1.2,0.3s0.9-0.1,1.2-0.3c0.3-0.2,0.5-0.5,0.5-0.7
			c0-0.3-0.1-0.5-0.3-0.7s-0.5-0.3-0.9-0.4l-1.3-0.4c-1.2-0.3-1.8-1-1.8-1.8C300.3,406.2,300.6,405.8,301,405.5z"/>
		<path fill="#A7A9AC" d="M308.4,405.5c0.5-0.3,1.1-0.5,1.9-0.5c0.8,0,1.4,0.2,1.9,0.5c0.5,0.3,0.7,0.8,0.7,1.3h-1.1
			c-0.1-0.6-0.6-0.9-1.5-0.9c-0.5,0-0.8,0.1-1.1,0.3c-0.2,0.2-0.4,0.4-0.4,0.7c0,0.2,0.1,0.4,0.3,0.6s0.5,0.3,0.9,0.4l1.3,0.4
			c0.6,0.2,1,0.4,1.3,0.7c0.3,0.3,0.5,0.7,0.5,1.1c0,0.5-0.2,0.9-0.7,1.3c-0.5,0.4-1.2,0.6-2.1,0.6s-1.6-0.2-2.1-0.6
			c-0.5-0.4-0.8-0.9-0.8-1.5h1.1c0,0.4,0.2,0.7,0.5,0.9c0.3,0.2,0.7,0.3,1.2,0.3s0.9-0.1,1.2-0.3c0.3-0.2,0.5-0.5,0.5-0.7
			c0-0.3-0.1-0.5-0.3-0.7s-0.5-0.3-0.9-0.4l-1.3-0.4c-1.2-0.3-1.8-1-1.8-1.8C307.7,406.2,307.9,405.8,308.4,405.5z"/>
		<path fill="#A7A9AC" d="M315.4,405.1l1.6,5.3l1.6-5h0.9l1.6,5.1l1.6-5.4h1.1l-2.2,6.7h-1.1l-1.5-4.7l-1.5,4.7h-1.1l-2.2-6.7H315.4
			z"/>
		<path fill="#A7A9AC" d="M328,405c0.9,0,1.7,0.3,2.3,0.9c0.6,0.6,0.9,1.5,0.9,2.6c0,1.1-0.3,2-0.9,2.6s-1.3,0.9-2.3,0.9
			c-0.9,0-1.7-0.3-2.3-0.9c-0.6-0.6-0.9-1.5-0.9-2.6c0-1.1,0.3-2,0.9-2.6C326.3,405.3,327,405,328,405z M330,408.5
			c0-0.8-0.2-1.4-0.5-1.9c-0.3-0.5-0.8-0.7-1.5-0.7c-0.6,0-1.1,0.2-1.5,0.7c-0.3,0.5-0.5,1.1-0.5,1.9c0,0.8,0.2,1.4,0.5,1.9
			c0.3,0.5,0.8,0.7,1.5,0.7c0.6,0,1.1-0.2,1.5-0.7C329.8,409.9,330,409.3,330,408.5z"/>
		<path fill="#A7A9AC" d="M335.9,406.1c-1.1,0-1.6,0.8-1.6,2.5v3.3h-1.1v-6.7h1.1v1.3c0.3-0.9,0.9-1.4,1.8-1.4c0.3,0,0.5,0,0.8,0.1
			l-0.1,1.1C336.5,406.1,336.2,406.1,335.9,406.1z"/>
		<path fill="#A7A9AC" d="M342.9,406.1v-3.8h1.1v9.5h-0.9l-0.1-1.1c-0.2,0.4-0.5,0.7-0.9,1c-0.4,0.2-0.7,0.3-1.2,0.3
			c-0.8,0-1.6-0.3-2.1-1c-0.6-0.7-0.9-1.5-0.9-2.6s0.3-1.9,0.8-2.5c0.6-0.6,1.3-1,2.1-1S342.5,405.4,342.9,406.1z M341,406
			c-0.5,0-1,0.2-1.4,0.7c-0.4,0.5-0.6,1.1-0.6,1.8c0,0.8,0.2,1.4,0.6,1.8c0.4,0.5,0.8,0.7,1.3,0.7c0.5,0,1-0.2,1.3-0.5
			c0.4-0.4,0.6-0.8,0.6-1.4V408c0-0.6-0.2-1.1-0.5-1.5S341.6,406,341,406z"/>
	</g>
	<g>
		<path fill="#808285" d="M357.2,531.4l4.4,7.1v-7.1h1.1v8.8h-1.2L357,533v7.2h-1.1v-8.8H357.2z"/>
		<path fill="#808285" d="M367.8,539.4c0.9,0,1.5-0.4,1.6-1.2h1.1c-0.1,0.7-0.4,1.2-0.9,1.6c-0.5,0.4-1.1,0.6-1.8,0.6
			c-0.9,0-1.6-0.3-2.2-1c-0.6-0.6-0.8-1.5-0.8-2.6c0-1.1,0.3-1.9,0.8-2.5c0.6-0.6,1.3-1,2.3-1s1.6,0.4,2.1,1.1
			c0.5,0.7,0.6,1.6,0.5,2.7h-4.6c0,0.7,0.2,1.3,0.5,1.7S367.2,539.4,367.8,539.4z M368.6,534.4c-0.2-0.1-0.5-0.2-0.8-0.2
			c-0.6,0-1,0.2-1.4,0.6c-0.3,0.4-0.5,0.9-0.6,1.4h3.6C369.5,535.3,369.2,534.7,368.6,534.4z"/>
		<path fill="#808285" d="M372.7,533.5l1.6,5.3l1.6-5h0.9l1.6,5.1l1.6-5.4h1.1l-2.2,6.7h-1.1l-1.5-4.7l-1.5,4.7h-1.1l-2.2-6.7H372.7
			z"/>
		<path fill="#808285" d="M384.9,532.2c-1.1,0-1.7,0.4-1.9,1.3h-1.2c0.1-0.7,0.4-1.2,0.9-1.7s1.2-0.6,2.1-0.6s1.6,0.2,2.2,0.7
			s0.8,1,0.8,1.6c0,0.5-0.1,0.9-0.4,1.2c-0.2,0.3-0.6,0.6-1.2,0.9c-0.2,0.1-0.4,0.2-0.6,0.3s-0.3,0.2-0.4,0.4
			c-0.2,0.2-0.3,0.6-0.3,1v0.5h-1.1v-0.6c0-0.6,0.1-1,0.3-1.4c0.2-0.3,0.6-0.6,1.1-0.9s0.9-0.5,1-0.7s0.3-0.5,0.3-0.8
			s-0.1-0.7-0.4-0.9C385.9,532.3,385.4,532.2,384.9,532.2z M384.5,538.7c0.2,0,0.4,0.1,0.6,0.2c0.2,0.2,0.2,0.3,0.2,0.6
			c0,0.2-0.1,0.4-0.2,0.6c-0.2,0.1-0.4,0.2-0.6,0.2s-0.4-0.1-0.6-0.2c-0.1-0.1-0.2-0.3-0.2-0.6c0-0.2,0.1-0.4,0.2-0.6
			C384,538.8,384.2,538.7,384.5,538.7z"/>
		<path fill="#808285" d="M397.9,533.5c-0.2-0.9-0.8-1.3-1.9-1.3c-0.6,0-1,0.1-1.4,0.4c-0.3,0.3-0.5,0.6-0.5,0.9s0.1,0.6,0.3,0.8
			c0.2,0.2,0.5,0.4,1,0.5l1.8,0.6c0.6,0.2,1.1,0.5,1.5,0.9c0.4,0.4,0.6,0.9,0.6,1.6s-0.3,1.2-0.9,1.7c-0.6,0.5-1.4,0.7-2.3,0.7
			s-1.8-0.2-2.4-0.7s-0.9-1.2-1-2.1h1.1c0,0.6,0.2,1,0.6,1.3c0.4,0.3,0.9,0.5,1.6,0.5c0.6,0,1.1-0.1,1.5-0.4c0.4-0.3,0.6-0.6,0.6-1
			c0-0.4-0.1-0.7-0.3-0.9c-0.2-0.2-0.6-0.4-1-0.6l-1.6-0.6c-0.7-0.2-1.3-0.5-1.7-0.9c-0.4-0.3-0.6-0.8-0.6-1.5
			c0-0.6,0.3-1.2,0.8-1.6c0.5-0.4,1.3-0.7,2.2-0.7c0.9,0,1.7,0.2,2.2,0.6c0.5,0.4,0.8,1,0.9,1.7H397.9z"/>
		<path fill="#808285" d="M402.3,531.9c-0.2,0-0.4-0.1-0.5-0.2s-0.2-0.3-0.2-0.5s0.1-0.4,0.2-0.5s0.3-0.2,0.5-0.2
			c0.2,0,0.4,0.1,0.5,0.2c0.1,0.1,0.2,0.3,0.2,0.5s-0.1,0.4-0.2,0.5C402.7,531.8,402.5,531.9,402.3,531.9z M401.7,533.5h1.1v6.7
			h-1.1V533.5z"/>
		<path fill="#808285" d="M406.1,540c-0.6-0.3-0.8-0.7-0.8-1.2c0-0.3,0.1-0.5,0.3-0.8c0.2-0.2,0.5-0.4,0.8-0.4
			c-0.5-0.4-0.8-1-0.8-1.8c0-0.7,0.3-1.3,0.8-1.8c0.5-0.4,1.1-0.7,1.8-0.7c0.7,0,1.3,0.2,1.8,0.5c0.1-0.5,0.3-0.9,0.6-1.2
			s0.8-0.4,1.3-0.4l-0.1,1.1c-0.8,0-1.3,0.3-1.3,1c0.3,0.4,0.5,0.9,0.5,1.4c0,0.7-0.3,1.3-0.8,1.8c-0.5,0.5-1.2,0.7-1.9,0.7
			c-0.5,0-1-0.1-1.4-0.3c-0.2,0-0.4,0.1-0.5,0.3c-0.1,0.1-0.2,0.3-0.2,0.6c0,0.5,0.4,0.7,1.2,0.7h2.6c0.6,0,1.1,0.1,1.5,0.4
			s0.5,0.6,0.5,1.1c0,0.7-0.4,1.3-1.1,1.9c-0.7,0.5-1.6,0.8-2.7,0.8c-1.1,0-2-0.2-2.6-0.6c-0.6-0.4-0.9-0.9-0.9-1.5
			c0-0.4,0.1-0.7,0.4-1C405.4,540.2,405.7,540.1,406.1,540z M405.9,541.4c0,0.4,0.2,0.7,0.6,0.9c0.4,0.3,1,0.4,1.8,0.4
			c0.8,0,1.4-0.2,2-0.5s0.8-0.7,0.8-1.2c0-0.2-0.1-0.4-0.2-0.6c-0.2-0.2-0.4-0.2-0.7-0.2h-2.7c-0.5,0-0.8,0.1-1.1,0.3
			S405.9,541.1,405.9,541.4z M410,535.7c0-0.5-0.1-0.9-0.4-1.2c-0.3-0.3-0.7-0.5-1.2-0.5s-0.9,0.2-1.2,0.5c-0.3,0.3-0.4,0.7-0.4,1.2
			s0.1,0.9,0.4,1.2c0.3,0.3,0.7,0.5,1.2,0.5s0.9-0.2,1.2-0.5C409.9,536.6,410,536.2,410,535.7z"/>
		<path fill="#808285" d="M414.8,534.8c0.4-1,1.2-1.5,2.3-1.5c0.8,0,1.4,0.3,1.9,0.8c0.4,0.5,0.7,1.2,0.7,2.1v3.9h-1.1v-3.9
			c0-0.6-0.2-1.1-0.5-1.5c-0.3-0.3-0.7-0.5-1.3-0.5c-0.6,0-1,0.2-1.4,0.7c-0.3,0.5-0.5,1.1-0.5,1.9v3.3h-1.1v-6.7h1L414.8,534.8z"/>
		<path fill="#808285" d="M430.1,538.8c-0.5,1-1.2,1.5-2.2,1.5c-0.8,0-1.4-0.2-1.8-0.6s-0.7-1.1-0.7-1.9v-4.3h1.1v4.2
			c0,1.1,0.5,1.7,1.6,1.7c0.6,0,1.1-0.2,1.5-0.7s0.6-1.1,0.6-1.8v-3.4h1.1v6.7h-1.1V538.8z"/>
		<path fill="#808285" d="M435,534.5c0.4-0.8,1.1-1.2,2-1.2s1.6,0.3,2.2,1c0.6,0.6,0.9,1.5,0.9,2.5s-0.3,1.9-0.9,2.5
			c-0.6,0.6-1.3,1-2.2,1c-0.9,0-1.5-0.3-1.9-1v4.1H434v-10h0.9L435,534.5z M437,539.3c0.5,0,1-0.2,1.4-0.7s0.6-1.1,0.6-1.8
			s-0.2-1.4-0.6-1.9c-0.4-0.5-0.8-0.7-1.4-0.7c-0.5,0-1,0.2-1.3,0.5c-0.3,0.3-0.5,0.8-0.5,1.4v1.3c0,0.6,0.2,1,0.5,1.4
			C436,539.2,436.4,539.3,437,539.3z"/>
		<path fill="#808285" d="M391.8,541.6v-0.7h49.1v0.7H391.8z"/>
	</g>
</g>
</svg>
