<?xml version="1.0" encoding="utf-8"?>
<!-- Generator: Adobe Illustrator 18.1.1, SVG Export Plug-In . SVG Version: 6.00 Build 0)  -->
<svg version="1.1" id="Layer_1" xmlns="http://www.w3.org/2000/svg" xmlns:xlink="http://www.w3.org/1999/xlink" x="0px" y="0px"
	 viewBox="0 0 800 700" enable-background="new 0 0 800 700" xml:space="preserve">
<g>
	<g>
		<rect x="239" y="92" fill="none" stroke="#939598" stroke-width="2" stroke-miterlimit="10" width="320" height="494"/>
		<path fill="none" stroke="#939598" stroke-width="2" stroke-miterlimit="10" d="M586,610.9c0,31-25.1,56.1-56.1,56.1H269.1
			c-31,0-56.1-25.1-56.1-56.1V66.1c0-31,25.1-56.1,56.1-56.1h260.8c31,0,56.1,25.1,56.1,56.1V610.9z"/>
		<circle fill="none" stroke="#939598" stroke-width="2" stroke-miterlimit="10" cx="341.7" cy="50.8" r="7"/>
		<circle fill="none" stroke="#939598" stroke-width="2" stroke-miterlimit="10" cx="400.3" cy="29.2" r="4.7"/>
		<path fill="none" stroke="#939598" stroke-width="2" stroke-miterlimit="10" d="M429,51c0,2.2-1.8,4-4,4h-52c-2.2,0-4-1.8-4-4v0
			c0-2.2,1.8-4,4-4h52C427.2,47,429,48.8,429,51L429,51z"/>
		<circle fill="none" stroke="#939598" stroke-width="2" stroke-miterlimit="10" cx="400.3" cy="623.2" r="28"/>
		<circle fill="none" stroke="#939598" stroke-width="2" stroke-miterlimit="10" cx="400.3" cy="623.2" r="23.3"/>
	</g>
	<polygon fill="#42B977" points="496.3,236 490,242.3 486.9,239.2 485.2,240.9 488.3,244 490,245.6 498,237.7 	"/>
	<polygon fill="#6D6E71" stroke="#939598" stroke-width="2" stroke-miterlimit="10" points="559.5,92.3 559.5,129.7 467.8,129.7 
		467.8,587 239.5,586 239.5,92 	"/>
	<g>
		<g>
			
				<line fill="none" stroke="#FFFFFF" stroke-width="3" stroke-linecap="round" stroke-miterlimit="10" x1="423" y1="105.6" x2="440" y2="105.6"/>
			
				<line fill="none" stroke="#FFFFFF" stroke-width="3" stroke-linecap="round" stroke-miterlimit="10" x1="423" y1="111.6" x2="440" y2="111.6"/>
			
				<line fill="none" stroke="#FFFFFF" stroke-width="3" stroke-linecap="round" stroke-miterlimit="10" x1="423" y1="117.6" x2="440" y2="117.6"/>
		</g>
	</g>
	<g>
		<rect x="260.5" y="137.5" fill="#FFFFFF" stroke="#939598" stroke-width="2" stroke-miterlimit="10" width="50.8" height="50.8"/>
		<line fill="none" stroke="#D1D3D4" stroke-width="2" stroke-miterlimit="10" x1="308.1" y1="140.7" x2="263.8" y2="185"/>
		<line fill="none" stroke="#D1D3D4" stroke-width="2" stroke-miterlimit="10" x1="308.1" y1="185" x2="263.8" y2="140.7"/>
	</g>
	<text transform="matrix(1 0 0 1 325.833 171.3744)"><tspan x="0" y="0" fill="#FFFFFF" font-family="'Karla-Bold'" font-size="18">bdorn</tspan><tspan x="0" y="14" fill="#FFFFFF" font-family="'Karla-Regular'" font-size="12">Edit your profile</tspan></text>
	<g>
		<rect x="260.5" y="233.8" fill="none" width="206.6" height="249.3"/>
		<text transform="matrix(1 0 0 1 260.5452 248.6494)"><tspan x="0" y="0" fill="#FFFFFF" font-family="'Karla-Bold'" font-size="18">Locations</tspan><tspan x="0" y="16" fill="#FFFFFF" font-family="'Karla-Regular'" font-size="14">10 locations</tspan><tspan x="0" y="64" fill="#FFFFFF" font-family="'Karla-Bold'" font-size="18">Friends</tspan><tspan x="0" y="80" fill="#FFFFFF" font-family="'Karla-Regular'" font-size="14">14 friends</tspan><tspan x="0" y="128" fill="#FFFFFF" font-family="'Karla-Bold'" font-size="18">Alert settings</tspan><tspan x="0" y="176" fill="#FFFFFF" font-family="'Karla-Bold'" font-size="18">Help</tspan></text>
	</g>
	<g>
		<defs>
			<rect id="SVGID_1_" x="457.5" y="92" width="102" height="495"/>
		</defs>
		<clipPath id="SVGID_2_">
			<use xlink:href="#SVGID_1_"  overflow="visible"/>
		</clipPath>
		<g clip-path="url(#SVGID_2_)">
			
				<polyline fill="none" stroke="#58595B" stroke-width="3" stroke-linecap="round" stroke-linejoin="round" stroke-miterlimit="10" points="
				712.8,166.4 719.9,173.5 727.1,166.4 			"/>
			<g>
				<rect x="478.6" y="534.8" fill="none" stroke="#D1D3D4" stroke-miterlimit="10" width="288.7" height="51.2"/>
				<g>
					<text transform="matrix(1 0 0 1 490.7825 580.7728)" fill="#58595B" font-family="'Karla-Regular'" font-size="16">Devil’s Lake, WI</text>
				</g>
				<line fill="none" stroke="#E6E7E8" stroke-miterlimit="10" x1="767.3" y1="557.5" x2="478.6" y2="557.5"/>
				<text transform="matrix(1 0 0 1 505.5137 550.8291)"><tspan x="0" y="0" fill="#58595B" font-family="'Karla-Bold'" font-size="10">Iffy.  </tspan><tspan x="22.6" y="0" fill="#939598" font-family="'Karla-Regular'" font-size="10">Hot, chance of rain Friday.</tspan></text>
				<g>
					<path fill="none" stroke="#EF9943" stroke-width="2" stroke-linecap="square" stroke-miterlimit="10" d="M488.3,546.2
						c1.5-0.9,3.4-2.1,5.2-0.3c1.4,1.4,3.4,0,4.8-0.8"/>
					<path fill="none" stroke="#EF9943" stroke-width="2" stroke-linecap="square" stroke-miterlimit="10" d="M488.3,550
						c1.5-0.9,3.4-2.1,5.2-0.3c1.4,1.4,3.4,0,4.8-0.8"/>
				</g>
			</g>
			<line fill="none" stroke="#E6E7E8" stroke-miterlimit="10" x1="767.3" y1="251.3" x2="478.6" y2="251.3"/>
			<line fill="none" stroke="#E6E7E8" stroke-miterlimit="10" x1="767.3" y1="305.5" x2="478.6" y2="305.5"/>
			<rect x="478.6" y="146.1" fill="none" stroke="#939598" stroke-miterlimit="10" width="288.7" height="43.9"/>
			<g>
				<text transform="matrix(1 0 0 1 490.7832 166.8142)"><tspan x="0" y="0" fill="#58595B" font-family="'Karla-Bold'" font-size="15">This weekend</tspan><tspan x="0" y="14" fill="#939598" font-family="'Karla-Regular'" font-size="11">Fri, May 8 - Sun, May 10</tspan></text>
			</g>
			<rect x="478.6" y="228.6" fill="none" stroke="#939598" stroke-width="2" stroke-miterlimit="10" width="288.7" height="167.9"/>
			<g>
				<text transform="matrix(1 0 0 1 490.7825 274.5872)"><tspan x="0" y="0" fill="#58595B" font-family="'Karla-Bold'" font-size="16">Jackson Falls, IL</tspan><tspan x="0" y="20" fill="#939598" font-family="'Karla-Regular'" font-size="10">Shaded climbing  </tspan><tspan x="82.7" y="20" fill="#939598" font-family="'AvenirNext-Regular'" font-size="10">·</tspan><tspan x="85.3" y="20" fill="#939598" font-family="'Karla-Regular'" font-size="10">  Moderate routes  </tspan><tspan x="170" y="20" fill="#939598" font-family="'AvenirNext-Regular'" font-size="10">·</tspan><tspan x="172.6" y="20" fill="#939598" font-family="'Karla-Regular'" font-size="10">   4 hour drive</tspan></text>
			</g>
			<text transform="matrix(1 0 0 1 505.5137 244.6435)"><tspan x="0" y="0" fill="#58595B" font-family="'Karla-Bold'" font-size="10">Climb on.</tspan><tspan x="44.9" y="0" fill="#58595B" font-family="'Karla-Regular'" font-size="10">  </tspan><tspan x="49.6" y="0" fill="#939598" font-family="'Karla-Regular'" font-size="10">Mid-70s and sunny all weekend.</tspan></text>
			<g>
				<rect x="478.6" y="443.5" fill="none" stroke="#D1D3D4" stroke-miterlimit="10" width="288.7" height="79.3"/>
				<g>
					<text transform="matrix(1 0 0 1 490.7825 489.4884)"><tspan x="0" y="0" fill="#58595B" font-family="'Karla-Regular'" font-size="16">The Ozarks, MO</tspan><tspan x="0" y="20" fill="#939598" font-family="'Karla-Regular'" font-size="10">Mixed climbing  </tspan><tspan x="75.6" y="20" fill="#939598" font-family="'AvenirNext-Regular'" font-size="10">·</tspan><tspan x="78.2" y="20" fill="#939598" font-family="'Karla-Regular'" font-size="10">  Easier routes  </tspan><tspan x="148" y="20" fill="#939598" font-family="'AvenirNext-Regular'" font-size="10">·</tspan><tspan x="150.6" y="20" fill="#939598" font-family="'Karla-Regular'" font-size="10">   7 hour drive</tspan></text>
				</g>
				<line fill="none" stroke="#E6E7E8" stroke-miterlimit="10" x1="767.3" y1="466.2" x2="478.6" y2="466.2"/>
				<text transform="matrix(1 0 0 1 505.5137 459.5447)"><tspan x="0" y="0" fill="#58595B" font-family="'Karla-Bold'" font-size="10">Climb on.</tspan><tspan x="44.9" y="0" fill="#58595B" font-family="'Karla-Regular'" font-size="10">  </tspan><tspan x="49.6" y="0" fill="#939598" font-family="'Karla-Regular'" font-size="10">Mid-80s and partly sunny all weekend.</tspan></text>
				<polygon fill="#42B977" points="499.5,450.9 493.2,457.2 490.1,454.1 488.4,455.8 491.5,458.9 493.2,460.5 501.2,452.6 				"/>
			</g>
			<g>
				<text transform="matrix(1 0 0 1 619.6177 428.6667)" fill="#939598" font-family="'Karla-Regular'" font-size="10">Current in: Bloomington, IL 61701</text>
			</g>
			<g>
				<text transform="matrix(1 0 0 1 478.6179 428.6664)" fill="#939598" font-family="'Karla-Regular'" font-size="10">Favorites</text>
			</g>
			<g>
				<text transform="matrix(1 0 0 1 478.6179 214.6667)" fill="#939598" font-family="'Karla-Regular'" font-size="10">Upcoming trip</text>
			</g>
			<g>
				<text transform="matrix(1 0 0 1 491.1809 326)"><tspan x="0" y="0" fill="#58595B" font-family="'Karla-Bold'" font-size="12">You’re climbing this weekend.</tspan><tspan x="0" y="20" fill="#58595B" font-family="'Karla-Bold'" font-size="10">sashadigiulan</tspan><tspan x="68.3" y="20" fill="#939598" font-family="'Karla-Regular'" font-size="10"> and </tspan><tspan x="90.7" y="20" fill="#58595B" font-family="'Karla-Bold'" font-size="10">jimmywebb</tspan><tspan x="146.5" y="20" fill="#939598" font-family="'Karla-Regular'" font-size="10"> are also climbing here.</tspan><tspan x="0" y="34" fill="#58595B" font-family="'Karla-Bold'" font-size="10">ashimasurashi</tspan><tspan x="72.3" y="34" fill="#939598" font-family="'Karla-Regular'" font-size="10"> might climbing here.</tspan><tspan x="0" y="56" fill="#58595B" font-family="'Karla-Bold'" font-size="10">+ Invite a friend</tspan></text>
			</g>
		</g>
	</g>
	<rect x="467.8" y="91" opacity="0.4" fill="#808285" stroke="#939598" stroke-miterlimit="10" width="91.7" height="496"/>
</g>
</svg>
