<?xml version="1.0" encoding="utf-8"?>
<!-- Generator: Adobe Illustrator 18.1.1, SVG Export Plug-In . SVG Version: 6.00 Build 0)  -->
<svg version="1.1" id="Layer_1" xmlns="http://www.w3.org/2000/svg" xmlns:xlink="http://www.w3.org/1999/xlink" x="0px" y="0px"
	 viewBox="0 0 1100 700" enable-background="new 0 0 1100 700" xml:space="preserve">
<g>
	<g>
		<path fill="#FFFFFF" d="M456,490c0,1.1-0.9,2-2,2H312c-1.1,0-2-0.9-2-2v-84c0-1.1,0.9-2,2-2h142c1.1,0,2,0.9,2,2V490z"/>
		<path fill="#BCBEC0" d="M454,493H312c-1.7,0-3-1.3-3-3v-84c0-1.7,1.3-3,3-3h142c1.7,0,3,1.3,3,3v84C457,491.7,455.7,493,454,493z
			 M312,405c-0.6,0-1,0.4-1,1v84c0,0.6,0.4,1,1,1h142c0.6,0,1-0.4,1-1v-84c0-0.6-0.4-1-1-1H312z"/>
	</g>
	<g>
		<path fill="#FFFFFF" d="M446,480c0,1.1-0.9,2-2,2H302c-1.1,0-2-0.9-2-2v-84c0-1.1,0.9-2,2-2h142c1.1,0,2,0.9,2,2V480z"/>
		<path fill="#BCBEC0" d="M444,483H302c-1.7,0-3-1.3-3-3v-84c0-1.7,1.3-3,3-3h142c1.7,0,3,1.3,3,3v84C447,481.7,445.7,483,444,483z
			 M302,395c-0.6,0-1,0.4-1,1v84c0,0.6,0.4,1,1,1h142c0.6,0,1-0.4,1-1v-84c0-0.6-0.4-1-1-1H302z"/>
	</g>
	<g>
		<path fill="#FFFFFF" d="M436,313c0,1.1-0.9,2-2,2H292c-1.1,0-2-0.9-2-2v-84c0-1.1,0.9-2,2-2h142c1.1,0,2,0.9,2,2V313z"/>
		<path fill="#BCBEC0" d="M434,316H292c-1.7,0-3-1.3-3-3v-84c0-1.7,1.3-3,3-3h142c1.7,0,3,1.3,3,3v84C437,314.7,435.7,316,434,316z
			 M292,228c-0.6,0-1,0.4-1,1v84c0,0.6,0.4,1,1,1h142c0.6,0,1-0.4,1-1v-84c0-0.6-0.4-1-1-1H292z"/>
	</g>
	<g>
		<path fill="#414042" d="M345.6,264.9v4.4h4.9v-4.4h1.3V275h-1.3v-4.5h-4.9v4.5h-1.3v-10.1H345.6z"/>
		<path fill="#414042" d="M357.8,267.2c1.1,0,1.9,0.3,2.6,1c0.7,0.7,1,1.7,1,3c0,1.3-0.3,2.3-1,3c-0.7,0.7-1.5,1-2.6,1
			c-1.1,0-1.9-0.3-2.6-1c-0.7-0.7-1-1.7-1-3c0-1.3,0.3-2.3,1-3C355.8,267.5,356.7,267.2,357.8,267.2z M360,271.2
			c0-0.9-0.2-1.6-0.6-2.1c-0.4-0.5-0.9-0.8-1.7-0.8c-0.7,0-1.3,0.3-1.7,0.8c-0.4,0.5-0.6,1.2-0.6,2.1s0.2,1.6,0.6,2.1
			c0.4,0.5,0.9,0.8,1.7,0.8c0.7,0,1.3-0.3,1.7-0.8C359.8,272.8,360,272.1,360,271.2z"/>
		<path fill="#414042" d="M365,268.8c0.5-1.1,1.4-1.7,2.6-1.7c0.7,0,1.2,0.2,1.7,0.5c0.4,0.3,0.8,0.8,1,1.4c0.5-1.2,1.4-1.8,2.7-1.8
			c0.9,0,1.6,0.3,2.1,0.9c0.5,0.6,0.8,1.4,0.8,2.4v4.5h-1.2v-4.5c0-0.7-0.2-1.3-0.5-1.7c-0.3-0.4-0.8-0.6-1.5-0.6
			c-0.7,0-1.2,0.3-1.5,0.8c-0.4,0.5-0.5,1.3-0.5,2.2v3.7h-1.2v-4.5c0-0.7-0.2-1.3-0.5-1.7c-0.3-0.4-0.8-0.6-1.5-0.6
			s-1.2,0.3-1.6,0.8c-0.4,0.5-0.6,1.2-0.6,2.2v3.8h-1.3v-7.6h1.1L365,268.8z"/>
		<path fill="#414042" d="M381.3,274.2c1.1,0,1.7-0.5,1.8-1.4h1.3c-0.1,0.8-0.5,1.4-1,1.8c-0.6,0.4-1.3,0.6-2.1,0.6
			c-1,0-1.9-0.4-2.5-1.1c-0.6-0.7-1-1.7-1-2.9c0-1.2,0.3-2.2,1-2.9c0.6-0.7,1.5-1.1,2.6-1.1c1.1,0,1.9,0.4,2.4,1.2
			c0.5,0.8,0.7,1.8,0.6,3h-5.2c0,0.8,0.2,1.4,0.6,1.9C380.1,273.9,380.6,274.2,381.3,274.2z M382.3,268.4c-0.2-0.1-0.5-0.2-0.9-0.2
			c-0.7,0-1.2,0.2-1.5,0.7c-0.4,0.4-0.6,1-0.7,1.7h4.1C383.2,269.4,382.9,268.7,382.3,268.4z"/>
	</g>
	<g>
		<path fill="#FFFFFF" d="M436,471c0,1.1-0.9,2-2,2H292c-1.1,0-2-0.9-2-2v-84c0-1.1,0.9-2,2-2h142c1.1,0,2,0.9,2,2V471z"/>
		<path fill="#BCBEC0" d="M434,474H292c-1.7,0-3-1.3-3-3v-84c0-1.7,1.3-3,3-3h142c1.7,0,3,1.3,3,3v84C437,472.7,435.7,474,434,474z
			 M292,386c-0.6,0-1,0.4-1,1v84c0,0.6,0.4,1,1,1h142c0.6,0,1-0.4,1-1v-84c0-0.6-0.4-1-1-1H292z"/>
	</g>
	<g>
		<path fill="#414042" d="M312.7,431.9h4.5v1.1h-5.7v-10.1h1.3V431.9z"/>
		<path fill="#414042" d="M321.7,425.2c1.1,0,1.9,0.3,2.6,1c0.7,0.7,1,1.7,1,3c0,1.3-0.3,2.3-1,3c-0.7,0.7-1.5,1-2.6,1
			c-1.1,0-1.9-0.3-2.6-1c-0.7-0.7-1-1.7-1-3c0-1.3,0.3-2.3,1-3C319.7,425.5,320.6,425.2,321.7,425.2z M323.9,429.2
			c0-0.9-0.2-1.6-0.6-2.1c-0.4-0.5-0.9-0.8-1.7-0.8c-0.7,0-1.3,0.3-1.7,0.8c-0.4,0.5-0.6,1.2-0.6,2.1s0.2,1.6,0.6,2.1
			c0.4,0.5,0.9,0.8,1.7,0.8c0.7,0,1.3-0.3,1.7-0.8S323.9,430.1,323.9,429.2z"/>
		<path fill="#414042" d="M330.2,425.2c0.9,0,1.6,0.2,2.2,0.7c0.5,0.5,0.9,1,1,1.7l-1.3,0.1c-0.1-0.4-0.4-0.8-0.7-1
			c-0.3-0.3-0.7-0.4-1-0.4c-0.7,0-1.2,0.3-1.7,0.8c-0.4,0.5-0.6,1.2-0.6,2.1c0,0.9,0.2,1.6,0.6,2.1s0.9,0.8,1.5,0.8
			c0.6,0,1.1-0.1,1.4-0.4s0.5-0.7,0.5-1.2h1.3c0,0.8-0.3,1.5-0.9,2c-0.6,0.5-1.3,0.8-2.2,0.8c-1,0-1.8-0.4-2.5-1.1s-1-1.7-1-2.9
			c0-1.2,0.3-2.2,1-2.9S329.3,425.2,330.2,425.2z"/>
		<path fill="#414042" d="M340.6,428c0-0.7-0.1-1.2-0.4-1.5c-0.3-0.3-0.7-0.4-1.3-0.4c-0.5,0-1,0.1-1.3,0.3s-0.5,0.6-0.5,1h-1.4
			c0-1.2,0.6-1.9,1.9-2.2c0.4-0.1,0.8-0.1,1.2-0.1c0.9,0,1.7,0.2,2.2,0.7s0.8,1.2,0.8,2.2v4.9h-1.1l-0.1-1.3c-0.5,1-1.3,1.5-2.5,1.5
			c-0.8,0-1.5-0.2-2-0.7c-0.5-0.5-0.7-1-0.7-1.7c0-0.7,0.3-1.2,0.8-1.6c0.5-0.4,1.2-0.6,2.1-0.6s1.6,0.1,2.4,0.4V428z M340.6,429.8
			c-0.8-0.2-1.4-0.3-2-0.3c-0.6,0-1,0.1-1.4,0.3c-0.4,0.2-0.5,0.5-0.5,1c0,1,0.5,1.4,1.6,1.4c0.6,0,1.1-0.2,1.6-0.7
			C340.4,431.1,340.6,430.5,340.6,429.8z"/>
		<path fill="#414042" d="M348.8,432.8c-0.9,0.4-1.8,0.5-2.5,0.3c-0.5-0.2-0.9-0.5-1.2-1.1c-0.1-0.3-0.2-0.6-0.2-1v-4.7h-1.2v-1h1.2
			v-2.1h1.2v2.1h2.4v1h-2.4v4.7c0,0.8,0.4,1.2,1.1,1.2c0.4,0,0.8-0.1,1.3-0.3L348.8,432.8z"/>
		<path fill="#414042" d="M351.6,423.5c-0.3,0-0.5-0.1-0.6-0.2c-0.1-0.1-0.2-0.3-0.2-0.6s0.1-0.4,0.2-0.6c0.1-0.1,0.3-0.2,0.6-0.2
			c0.3,0,0.5,0.1,0.6,0.2c0.2,0.1,0.2,0.3,0.2,0.6s-0.1,0.4-0.2,0.6C352,423.5,351.8,423.5,351.6,423.5z M350.9,425.3h1.3v7.7h-1.3
			V425.3z"/>
		<path fill="#414042" d="M358.4,425.2c1.1,0,1.9,0.3,2.6,1c0.7,0.7,1,1.7,1,3c0,1.3-0.3,2.3-1,3c-0.7,0.7-1.5,1-2.6,1
			c-1.1,0-1.9-0.3-2.6-1c-0.7-0.7-1-1.7-1-3c0-1.3,0.3-2.3,1-3C356.5,425.5,357.3,425.2,358.4,425.2z M360.7,429.2
			c0-0.9-0.2-1.6-0.6-2.1c-0.4-0.5-0.9-0.8-1.7-0.8c-0.7,0-1.3,0.3-1.7,0.8c-0.4,0.5-0.6,1.2-0.6,2.1s0.2,1.6,0.6,2.1
			c0.4,0.5,0.9,0.8,1.7,0.8c0.7,0,1.3-0.3,1.7-0.8S360.7,430.1,360.7,429.2z"/>
		<path fill="#414042" d="M365.6,426.8c0.5-1.1,1.4-1.7,2.6-1.7c0.9,0,1.6,0.3,2.1,0.9c0.5,0.6,0.8,1.4,0.8,2.4v4.5h-1.2v-4.5
			c0-0.7-0.2-1.3-0.5-1.7s-0.8-0.6-1.5-0.6s-1.2,0.3-1.6,0.8c-0.4,0.5-0.6,1.2-0.6,2.2v3.8h-1.3v-7.6h1.1L365.6,426.8z"/>
		<path fill="#414042" d="M382.8,426.5v-4.4h1.2V433h-1l-0.2-1.3c-0.2,0.5-0.6,0.8-1,1.1c-0.4,0.2-0.8,0.4-1.3,0.4
			c-1,0-1.8-0.4-2.4-1.1c-0.7-0.7-1-1.7-1-2.9c0-1.2,0.3-2.2,1-2.9c0.6-0.7,1.5-1.1,2.4-1.1C381.6,425.2,382.3,425.6,382.8,426.5z
			 M380.7,426.3c-0.6,0-1.1,0.3-1.6,0.8c-0.4,0.5-0.6,1.2-0.6,2.1s0.2,1.6,0.6,2.1c0.4,0.5,0.9,0.8,1.5,0.8c0.6,0,1.1-0.2,1.5-0.6
			s0.6-0.9,0.7-1.6v-1.2c0-0.7-0.2-1.3-0.6-1.7S381.3,426.3,380.7,426.3z"/>
		<path fill="#414042" d="M390,432.2c1.1,0,1.7-0.5,1.8-1.4h1.3c-0.1,0.8-0.5,1.4-1,1.8c-0.6,0.4-1.3,0.6-2.1,0.6
			c-1,0-1.9-0.4-2.5-1.1c-0.6-0.7-1-1.7-1-2.9c0-1.2,0.3-2.2,1-2.9c0.6-0.7,1.5-1.1,2.6-1.1c1.1,0,1.9,0.4,2.4,1.2
			c0.5,0.8,0.7,1.8,0.6,3h-5.2c0,0.8,0.2,1.4,0.6,1.9C388.7,431.9,389.3,432.2,390,432.2z M390.9,426.4c-0.2-0.1-0.5-0.2-0.9-0.2
			c-0.7,0-1.2,0.2-1.5,0.7c-0.4,0.4-0.6,1-0.7,1.7h4.1C391.9,427.4,391.6,426.7,390.9,426.4z"/>
		<path fill="#414042" d="M399.6,432.8c-0.9,0.4-1.8,0.5-2.5,0.3c-0.5-0.2-0.9-0.5-1.2-1.1c-0.1-0.3-0.2-0.6-0.2-1v-4.7h-1.2v-1h1.2
			v-2.1h1.2v2.1h2.4v1H397v4.7c0,0.8,0.4,1.2,1.1,1.2c0.4,0,0.8-0.1,1.3-0.3L399.6,432.8z"/>
		<path fill="#414042" d="M406.3,428c0-0.7-0.1-1.2-0.4-1.5c-0.3-0.3-0.7-0.4-1.3-0.4c-0.5,0-1,0.1-1.3,0.3s-0.5,0.6-0.5,1h-1.4
			c0-1.2,0.6-1.9,1.9-2.2c0.4-0.1,0.8-0.1,1.2-0.1c0.9,0,1.7,0.2,2.2,0.7s0.8,1.2,0.8,2.2v4.9h-1.1l-0.1-1.3c-0.5,1-1.3,1.5-2.5,1.5
			c-0.8,0-1.5-0.2-2-0.7c-0.5-0.5-0.7-1-0.7-1.7c0-0.7,0.3-1.2,0.8-1.6c0.5-0.4,1.2-0.6,2.1-0.6s1.6,0.1,2.4,0.4V428z M406.3,429.8
			c-0.8-0.2-1.4-0.3-2-0.3c-0.6,0-1,0.1-1.4,0.3c-0.4,0.2-0.5,0.5-0.5,1c0,1,0.5,1.4,1.6,1.4c0.6,0,1.1-0.2,1.6-0.7
			C406.1,431.1,406.3,430.5,406.3,429.8z"/>
		<path fill="#414042" d="M411.3,423.5c-0.3,0-0.5-0.1-0.6-0.2c-0.1-0.1-0.2-0.3-0.2-0.6s0.1-0.4,0.2-0.6c0.1-0.1,0.3-0.2,0.6-0.2
			c0.3,0,0.5,0.1,0.6,0.2c0.2,0.1,0.2,0.3,0.2,0.6s-0.1,0.4-0.2,0.6C411.7,423.5,411.5,423.5,411.3,423.5z M410.6,425.3h1.3v7.7
			h-1.3V425.3z"/>
		<path fill="#414042" d="M415.3,422.1h1.3V433h-1.3V422.1z"/>
	</g>
	<g>
		<path fill="#FFFFFF" d="M436,629c0,1.1-0.9,2-2,2H292c-1.1,0-2-0.9-2-2v-84c0-1.1,0.9-2,2-2h142c1.1,0,2,0.9,2,2V629z"/>
		<path fill="#BCBEC0" d="M434,632H292c-1.7,0-3-1.3-3-3v-84c0-1.7,1.3-3,3-3h142c1.7,0,3,1.3,3,3v84C437,630.7,435.7,632,434,632z
			 M292,544c-0.6,0-1,0.4-1,1v84c0,0.6,0.4,1,1,1h142c0.6,0,1-0.4,1-1v-84c0-0.6-0.4-1-1-1H292z"/>
	</g>
	<g>
		<path fill="#414042" d="M321.2,580.9h1.3V591h-1.3V580.9z"/>
		<path fill="#414042" d="M326.9,584.8c0.5-1.1,1.4-1.7,2.6-1.7c0.9,0,1.6,0.3,2.1,0.9c0.5,0.6,0.8,1.4,0.8,2.4v4.5h-1.2v-4.5
			c0-0.7-0.2-1.3-0.5-1.7s-0.8-0.6-1.5-0.6s-1.2,0.3-1.6,0.8c-0.4,0.5-0.6,1.2-0.6,2.2v3.8h-1.3v-7.6h1.1L326.9,584.8z"/>
		<path fill="#414042" d="M335.4,583.4l2.3,6.3l2.3-6.3h1.4l-3,7.6h-1.4l-3-7.6H335.4z"/>
		<path fill="#414042" d="M344.1,581.5c-0.3,0-0.5-0.1-0.6-0.2c-0.1-0.1-0.2-0.3-0.2-0.6s0.1-0.4,0.2-0.6c0.1-0.1,0.3-0.2,0.6-0.2
			c0.3,0,0.5,0.1,0.6,0.2c0.2,0.1,0.2,0.3,0.2,0.6s-0.1,0.4-0.2,0.6C344.6,581.5,344.4,581.5,344.1,581.5z M343.5,583.3h1.3v7.7
			h-1.3V583.3z"/>
		<path fill="#414042" d="M352.2,590.8c-0.9,0.4-1.8,0.5-2.5,0.3c-0.5-0.2-0.9-0.5-1.2-1.1c-0.1-0.3-0.2-0.6-0.2-1v-4.7h-1.2v-1h1.2
			v-2.1h1.2v2.1h2.4v1h-2.4v4.7c0,0.8,0.4,1.2,1.1,1.2c0.4,0,0.8-0.1,1.3-0.3L352.2,590.8z"/>
		<path fill="#414042" d="M356.8,590.2c1.1,0,1.7-0.5,1.8-1.4h1.3c-0.1,0.8-0.5,1.4-1,1.8c-0.6,0.4-1.3,0.6-2.1,0.6
			c-1,0-1.9-0.4-2.5-1.1c-0.6-0.7-1-1.7-1-2.9c0-1.2,0.3-2.2,1-2.9c0.6-0.7,1.5-1.1,2.6-1.1c1.1,0,1.9,0.4,2.4,1.2
			c0.5,0.8,0.7,1.8,0.6,3h-5.2c0,0.8,0.2,1.4,0.6,1.9C355.6,589.9,356.1,590.2,356.8,590.2z M357.8,584.4c-0.2-0.1-0.5-0.2-0.9-0.2
			c-0.7,0-1.2,0.2-1.5,0.7c-0.4,0.4-0.6,1-0.7,1.7h4.1C358.7,585.4,358.4,584.7,357.8,584.4z"/>
		<path fill="#414042" d="M370,581.2c-0.4-0.1-0.6-0.2-0.8-0.2c-0.4,0-0.7,0.1-0.9,0.3c-0.2,0.2-0.3,0.5-0.3,1v1.2h1.6v0.9h-1.6v6.8
			h-1.2v-6.8h-1.3v-0.9h1.3v-1.2c0-0.8,0.2-1.3,0.6-1.7s0.9-0.5,1.4-0.5s1,0.1,1.4,0.2L370,581.2z"/>
		<path fill="#414042" d="M374.9,584.4c-1.2,0-1.8,0.9-1.9,2.8v3.7h-1.3v-7.7h1.3v1.5c0.4-1.1,1.1-1.6,2-1.6c0.3,0,0.6,0,0.9,0.1
			l-0.1,1.2C375.5,584.5,375.2,584.4,374.9,584.4z"/>
		<path fill="#414042" d="M378.5,581.5c-0.3,0-0.5-0.1-0.6-0.2c-0.1-0.1-0.2-0.3-0.2-0.6s0.1-0.4,0.2-0.6c0.1-0.1,0.3-0.2,0.6-0.2
			c0.3,0,0.5,0.1,0.6,0.2c0.2,0.1,0.2,0.3,0.2,0.6s-0.1,0.4-0.2,0.6C379,581.5,378.8,581.5,378.5,581.5z M377.9,583.3h1.3v7.7h-1.3
			V583.3z"/>
		<path fill="#414042" d="M385.3,590.2c1.1,0,1.7-0.5,1.8-1.4h1.3c-0.1,0.8-0.5,1.4-1,1.8c-0.6,0.4-1.3,0.6-2.1,0.6
			c-1,0-1.9-0.4-2.5-1.1c-0.6-0.7-1-1.7-1-2.9c0-1.2,0.3-2.2,1-2.9c0.6-0.7,1.5-1.1,2.6-1.1c1.1,0,1.9,0.4,2.4,1.2
			c0.5,0.8,0.7,1.8,0.6,3h-5.2c0,0.8,0.2,1.4,0.6,1.9C384,589.9,384.6,590.2,385.3,590.2z M386.2,584.4c-0.2-0.1-0.5-0.2-0.9-0.2
			c-0.7,0-1.2,0.2-1.5,0.7c-0.4,0.4-0.6,1-0.7,1.7h4.1C387.2,585.4,386.8,584.7,386.2,584.4z"/>
		<path fill="#414042" d="M392.1,584.8c0.5-1.1,1.4-1.7,2.6-1.7c0.9,0,1.6,0.3,2.1,0.9c0.5,0.6,0.8,1.4,0.8,2.4v4.5h-1.2v-4.5
			c0-0.7-0.2-1.3-0.5-1.7s-0.8-0.6-1.5-0.6s-1.2,0.3-1.6,0.8c-0.4,0.5-0.6,1.2-0.6,2.2v3.8h-1.3v-7.6h1.1L392.1,584.8z"/>
		<path fill="#414042" d="M405.5,584.5v-4.4h1.2V591h-1l-0.2-1.3c-0.2,0.5-0.6,0.8-1,1.1c-0.4,0.2-0.8,0.4-1.3,0.4
			c-1,0-1.8-0.4-2.4-1.1c-0.7-0.7-1-1.7-1-2.9c0-1.2,0.3-2.2,1-2.9c0.6-0.7,1.5-1.1,2.4-1.1C404.2,583.2,405,583.6,405.5,584.5z
			 M403.3,584.3c-0.6,0-1.1,0.3-1.6,0.8c-0.4,0.5-0.6,1.2-0.6,2.1s0.2,1.6,0.6,2.1c0.4,0.5,0.9,0.8,1.5,0.8c0.6,0,1.1-0.2,1.5-0.6
			s0.6-0.9,0.7-1.6v-1.2c0-0.7-0.2-1.3-0.6-1.7S404,584.3,403.3,584.3z"/>
	</g>
	<g>
		<path fill="#FFFFFF" d="M180,471c0,1.1-0.9,2-2,2H36c-1.1,0-2-0.9-2-2v-84c0-1.1,0.9-2,2-2h142c1.1,0,2,0.9,2,2V471z"/>
		<path fill="#BCBEC0" d="M178,474H36c-1.7,0-3-1.3-3-3v-84c0-1.7,1.3-3,3-3h142c1.7,0,3,1.3,3,3v84C181,472.7,179.7,474,178,474z
			 M36,386c-0.6,0-1,0.4-1,1v84c0,0.6,0.4,1,1,1h142c0.6,0,1-0.4,1-1v-84c0-0.6-0.4-1-1-1H36z"/>
	</g>
	<g>
		<path fill="#414042" d="M80.1,422.9v6.4c0,0.9,0.2,1.6,0.7,2s1.1,0.6,1.9,0.6c0.8,0,1.4-0.2,1.9-0.6s0.7-1.1,0.7-2v-6.4h1.3v6.4
			c0,1.3-0.3,2.2-1,2.8s-1.6,1-2.8,1s-2.1-0.3-2.8-1s-1-1.6-1-2.8v-6.4H80.1z"/>
		<path fill="#414042" d="M90.7,426.5c0.5-0.9,1.3-1.4,2.2-1.4s1.8,0.4,2.5,1.1s1,1.7,1,2.9s-0.3,2.2-1,2.9
			c-0.7,0.7-1.5,1.1-2.5,1.1c-1,0-1.7-0.4-2.2-1.1v4.7h-1.3v-11.4h1L90.7,426.5z M92.9,432.1c0.6,0,1.1-0.3,1.6-0.8
			c0.5-0.5,0.7-1.2,0.7-2.1s-0.2-1.6-0.6-2.1c-0.4-0.5-1-0.8-1.6-0.8s-1.1,0.2-1.5,0.6c-0.4,0.4-0.6,0.9-0.6,1.6v1.5
			c0,0.7,0.2,1.2,0.6,1.6C91.8,431.9,92.3,432.1,92.9,432.1z"/>
		<path fill="#414042" d="M104,426.5v-4.4h1.2V433h-1l-0.2-1.3c-0.2,0.5-0.6,0.8-1,1.1c-0.4,0.2-0.8,0.4-1.3,0.4
			c-1,0-1.8-0.4-2.4-1.1c-0.7-0.7-1-1.7-1-2.9c0-1.2,0.3-2.2,1-2.9c0.6-0.7,1.5-1.1,2.4-1.1C102.8,425.2,103.5,425.6,104,426.5z
			 M101.9,426.3c-0.6,0-1.1,0.3-1.6,0.8c-0.4,0.5-0.6,1.2-0.6,2.1s0.2,1.6,0.6,2.1c0.4,0.5,0.9,0.8,1.5,0.8c0.6,0,1.1-0.2,1.5-0.6
			s0.6-0.9,0.7-1.6v-1.2c0-0.7-0.2-1.3-0.6-1.7S102.5,426.3,101.9,426.3z"/>
		<path fill="#414042" d="M113.3,428c0-0.7-0.1-1.2-0.4-1.5c-0.3-0.3-0.7-0.4-1.3-0.4c-0.5,0-1,0.1-1.3,0.3s-0.5,0.6-0.5,1h-1.4
			c0-1.2,0.6-1.9,1.9-2.2c0.4-0.1,0.8-0.1,1.2-0.1c0.9,0,1.7,0.2,2.2,0.7s0.8,1.2,0.8,2.2v4.9h-1.1l-0.1-1.3c-0.5,1-1.3,1.5-2.5,1.5
			c-0.8,0-1.5-0.2-2-0.7c-0.5-0.5-0.7-1-0.7-1.7c0-0.7,0.3-1.2,0.8-1.6c0.5-0.4,1.2-0.6,2.1-0.6s1.6,0.1,2.4,0.4V428z M113.3,429.8
			c-0.8-0.2-1.4-0.3-2-0.3c-0.6,0-1,0.1-1.4,0.3c-0.4,0.2-0.5,0.5-0.5,1c0,1,0.5,1.4,1.6,1.4c0.6,0,1.1-0.2,1.6-0.7
			C113.1,431.1,113.3,430.5,113.3,429.8z"/>
		<path fill="#414042" d="M121.5,432.8c-0.9,0.4-1.8,0.5-2.5,0.3c-0.5-0.2-0.9-0.5-1.2-1.1c-0.1-0.3-0.2-0.6-0.2-1v-4.7h-1.2v-1h1.2
			v-2.1h1.2v2.1h2.4v1h-2.4v4.7c0,0.8,0.4,1.2,1.1,1.2c0.4,0,0.8-0.1,1.3-0.3L121.5,432.8z"/>
		<path fill="#414042" d="M126.2,432.2c1.1,0,1.7-0.5,1.8-1.4h1.3c-0.1,0.8-0.5,1.4-1,1.8c-0.6,0.4-1.3,0.6-2.1,0.6
			c-1,0-1.9-0.4-2.5-1.1c-0.6-0.7-1-1.7-1-2.9c0-1.2,0.3-2.2,1-2.9c0.6-0.7,1.5-1.1,2.6-1.1c1.1,0,1.9,0.4,2.4,1.2
			c0.5,0.8,0.7,1.8,0.6,3H124c0,0.8,0.2,1.4,0.6,1.9C124.9,431.9,125.5,432.2,126.2,432.2z M127.1,426.4c-0.2-0.1-0.5-0.2-0.9-0.2
			c-0.7,0-1.2,0.2-1.5,0.7c-0.4,0.4-0.6,1-0.7,1.7h4.1C128.1,427.4,127.7,426.7,127.1,426.4z"/>
		<path fill="#414042" d="M132.2,425.7c0.5-0.4,1.3-0.6,2.2-0.6s1.6,0.2,2.2,0.6c0.5,0.4,0.8,0.9,0.8,1.5h-1.2c-0.1-0.7-0.7-1-1.8-1
			c-0.5,0-0.9,0.1-1.2,0.4s-0.4,0.5-0.4,0.8c0,0.3,0.1,0.5,0.3,0.7s0.6,0.3,1,0.5l1.5,0.5c0.7,0.2,1.1,0.5,1.5,0.8s0.5,0.7,0.5,1.3
			c0,0.6-0.3,1-0.8,1.5c-0.6,0.4-1.4,0.7-2.4,0.7c-1,0-1.8-0.2-2.4-0.7s-0.9-1-0.9-1.8h1.2c0,0.5,0.2,0.8,0.6,1.1
			c0.4,0.2,0.8,0.4,1.4,0.4s1-0.1,1.4-0.4c0.4-0.2,0.5-0.5,0.5-0.8s-0.1-0.6-0.3-0.7c-0.2-0.2-0.6-0.3-1-0.4l-1.5-0.5
			c-1.3-0.4-2-1.1-2-2.1C131.4,426.6,131.6,426.1,132.2,425.7z"/>
	</g>
	<g>
		<path fill="#414042" d="M789,423.8c0.6,0.6,0.9,1.3,0.9,2.3s-0.3,1.7-0.9,2.2s-1.4,0.8-2.5,0.8h-2v3.9h-1.3v-10.1h3.2
			C787.6,422.9,788.4,423.2,789,423.8z M786.5,428c0.7,0,1.2-0.2,1.6-0.5s0.5-0.8,0.5-1.4c0-0.6-0.2-1.1-0.5-1.5
			c-0.4-0.4-0.9-0.6-1.6-0.6h-2v4H786.5z"/>
		<path fill="#414042" d="M795.3,426.4c-1.2,0-1.8,0.9-1.9,2.8v3.7h-1.3v-7.7h1.3v1.5c0.4-1.1,1.1-1.6,2-1.6c0.3,0,0.6,0,0.9,0.1
			l-0.1,1.2C795.9,426.5,795.6,426.4,795.3,426.4z"/>
		<path fill="#414042" d="M801,425.2c1.1,0,1.9,0.3,2.6,1s1,1.7,1,3c0,1.3-0.3,2.3-1,3s-1.5,1-2.6,1s-1.9-0.3-2.6-1s-1-1.7-1-3
			c0-1.3,0.3-2.3,1-3S799.9,425.2,801,425.2z M803.3,429.2c0-0.9-0.2-1.6-0.6-2.1c-0.4-0.5-0.9-0.8-1.7-0.8c-0.7,0-1.3,0.3-1.7,0.8
			c-0.4,0.5-0.6,1.2-0.6,2.1s0.2,1.6,0.6,2.1c0.4,0.5,0.9,0.8,1.7,0.8s1.3-0.3,1.7-0.8S803.3,430.1,803.3,429.2z"/>
		<path fill="#414042" d="M810.7,423.2c-0.4-0.1-0.6-0.2-0.8-0.2c-0.4,0-0.7,0.1-0.9,0.3c-0.2,0.2-0.3,0.5-0.3,1v1.2h1.6v0.9h-1.6
			v6.8h-1.2v-6.8h-1.3v-0.9h1.3v-1.2c0-0.8,0.2-1.3,0.6-1.7s0.9-0.5,1.4-0.5c0.5,0,1,0.1,1.4,0.2L810.7,423.2z"/>
		<path fill="#414042" d="M813.2,423.5c-0.3,0-0.5-0.1-0.6-0.2c-0.1-0.1-0.2-0.3-0.2-0.6s0.1-0.4,0.2-0.6c0.1-0.1,0.3-0.2,0.6-0.2
			s0.5,0.1,0.6,0.2c0.2,0.1,0.2,0.3,0.2,0.6s-0.1,0.4-0.2,0.6S813.4,423.5,813.2,423.5z M812.5,425.3h1.3v7.7h-1.3V425.3z"/>
		<path fill="#414042" d="M817.2,422.1h1.3V433h-1.3V422.1z"/>
		<path fill="#414042" d="M824.4,432.2c1.1,0,1.7-0.5,1.8-1.4h1.3c-0.1,0.8-0.5,1.4-1,1.8c-0.6,0.4-1.3,0.6-2.1,0.6
			c-1,0-1.9-0.4-2.5-1.1c-0.6-0.7-1-1.7-1-2.9c0-1.2,0.3-2.2,1-2.9c0.6-0.7,1.5-1.1,2.6-1.1s1.9,0.4,2.4,1.2c0.5,0.8,0.7,1.8,0.6,3
			h-5.2c0,0.8,0.2,1.4,0.6,1.9C823.1,431.9,823.7,432.2,824.4,432.2z M825.3,426.4c-0.2-0.1-0.5-0.2-0.9-0.2c-0.7,0-1.2,0.2-1.5,0.7
			c-0.4,0.4-0.6,1-0.7,1.7h4.1C826.3,427.4,825.9,426.7,825.3,426.4z"/>
	</g>
	<g>
		<path fill="#FFFFFF" d="M876,601c0,1.1-0.9,2-2,2H732c-1.1,0-2-0.9-2-2v-84c0-1.1,0.9-2,2-2h142c1.1,0,2,0.9,2,2V601z"/>
		<path fill="#BCBEC0" d="M874,604H732c-1.7,0-3-1.3-3-3v-84c0-1.7,1.3-3,3-3h142c1.7,0,3,1.3,3,3v84C877,602.7,875.7,604,874,604z
			 M732,516c-0.6,0-1,0.4-1,1v84c0,0.6,0.4,1,1,1h142c0.6,0,1-0.4,1-1v-84c0-0.6-0.4-1-1-1H732z"/>
	</g>
	<g>
		<path fill="#414042" d="M760.9,552.9l3.4,6.8l3.4-6.8h1.8V563h-1.3v-8.3l-3.5,7h-0.8l-3.5-7.1v8.4H759v-10.1H760.9z"/>
		<path fill="#414042" d="M771.1,565.2c0.5,0.4,1.1,0.6,1.6,0.6c0.4,0,0.8-0.2,1.1-0.6c0.2-0.3,0.4-0.8,0.6-1.4l0.2-0.8l-3.1-7.6
			h1.4l2.3,6.1l1.8-6.1h1.3l-2.9,9.2c-0.2,0.8-0.6,1.4-1,1.8c-0.4,0.4-0.9,0.6-1.5,0.6s-1.2-0.2-1.9-0.6V565.2z"/>
		<path fill="#414042" d="M784.2,552.1h1.3V563h-1.3V552.1z"/>
		<path fill="#414042" d="M791.4,555.2c1.1,0,1.9,0.3,2.6,1s1,1.7,1,3c0,1.3-0.3,2.3-1,3s-1.5,1-2.6,1s-1.9-0.3-2.6-1s-1-1.7-1-3
			c0-1.3,0.3-2.3,1-3S790.3,555.2,791.4,555.2z M793.7,559.2c0-0.9-0.2-1.6-0.6-2.1c-0.4-0.5-0.9-0.8-1.7-0.8
			c-0.7,0-1.3,0.3-1.7,0.8c-0.4,0.5-0.6,1.2-0.6,2.1s0.2,1.6,0.6,2.1c0.4,0.5,0.9,0.8,1.7,0.8s1.3-0.3,1.7-0.8
			S793.7,560.1,793.7,559.2z"/>
		<path fill="#414042" d="M799.9,555.2c0.9,0,1.6,0.2,2.2,0.7c0.5,0.5,0.9,1,1,1.7l-1.3,0.1c-0.1-0.4-0.4-0.8-0.7-1
			c-0.3-0.3-0.7-0.4-1-0.4c-0.7,0-1.2,0.3-1.7,0.8c-0.4,0.5-0.6,1.2-0.6,2.1c0,0.9,0.2,1.6,0.6,2.1c0.4,0.5,0.9,0.8,1.5,0.8
			s1.1-0.1,1.4-0.4c0.3-0.3,0.5-0.7,0.5-1.2h1.3c0,0.8-0.3,1.5-0.9,2c-0.6,0.5-1.3,0.8-2.2,0.8c-1,0-1.8-0.4-2.5-1.1s-1-1.7-1-2.9
			c0-1.2,0.3-2.2,1-2.9S799,555.2,799.9,555.2z"/>
		<path fill="#414042" d="M810.4,558c0-0.7-0.1-1.2-0.4-1.5c-0.3-0.3-0.7-0.4-1.3-0.4c-0.5,0-1,0.1-1.3,0.3s-0.5,0.6-0.5,1h-1.4
			c0-1.2,0.6-1.9,1.9-2.2c0.4-0.1,0.8-0.1,1.2-0.1c0.9,0,1.7,0.2,2.2,0.7s0.8,1.2,0.8,2.2v4.9h-1.1l-0.1-1.3c-0.5,1-1.3,1.5-2.5,1.5
			c-0.8,0-1.5-0.2-2-0.7c-0.5-0.5-0.7-1-0.7-1.7c0-0.7,0.3-1.2,0.8-1.6c0.5-0.4,1.2-0.6,2.1-0.6s1.6,0.1,2.4,0.4V558z M810.4,559.8
			c-0.8-0.2-1.4-0.3-2-0.3s-1,0.1-1.4,0.3c-0.4,0.2-0.5,0.5-0.5,1c0,1,0.5,1.4,1.6,1.4c0.6,0,1.1-0.2,1.6-0.7
			C810.1,561.1,810.4,560.5,810.4,559.8z"/>
		<path fill="#414042" d="M818.6,562.8c-0.9,0.4-1.8,0.5-2.5,0.3c-0.5-0.2-0.9-0.5-1.2-1.1c-0.1-0.3-0.2-0.6-0.2-1v-4.7h-1.2v-1h1.2
			v-2.1h1.2v2.1h2.4v1H816v4.7c0,0.8,0.4,1.2,1.1,1.2c0.4,0,0.8-0.1,1.3-0.3L818.6,562.8z"/>
		<path fill="#414042" d="M821.3,553.5c-0.3,0-0.5-0.1-0.6-0.2s-0.2-0.3-0.2-0.6s0.1-0.4,0.2-0.6c0.1-0.1,0.3-0.2,0.6-0.2
			c0.3,0,0.5,0.1,0.6,0.2c0.2,0.1,0.2,0.3,0.2,0.6s-0.1,0.4-0.2,0.6S821.6,553.5,821.3,553.5z M820.7,555.3h1.3v7.7h-1.3V555.3z"/>
		<path fill="#414042" d="M828.1,555.2c1.1,0,1.9,0.3,2.6,1c0.7,0.7,1,1.7,1,3c0,1.3-0.3,2.3-1,3c-0.7,0.7-1.5,1-2.6,1
			c-1.1,0-1.9-0.3-2.6-1c-0.7-0.7-1-1.7-1-3c0-1.3,0.3-2.3,1-3C826.2,555.5,827.1,555.2,828.1,555.2z M830.4,559.2
			c0-0.9-0.2-1.6-0.6-2.1c-0.4-0.5-0.9-0.8-1.7-0.8c-0.7,0-1.3,0.3-1.7,0.8c-0.4,0.5-0.6,1.2-0.6,2.1s0.2,1.6,0.6,2.1
			s0.9,0.8,1.7,0.8c0.7,0,1.3-0.3,1.7-0.8S830.4,560.1,830.4,559.2z"/>
		<path fill="#414042" d="M835.3,556.8c0.5-1.1,1.4-1.7,2.6-1.7c0.9,0,1.6,0.3,2.1,0.9c0.5,0.6,0.8,1.4,0.8,2.4v4.5h-1.2v-4.5
			c0-0.7-0.2-1.3-0.5-1.7c-0.3-0.4-0.8-0.6-1.5-0.6s-1.2,0.3-1.6,0.8c-0.4,0.5-0.6,1.2-0.6,2.2v3.8h-1.3v-7.6h1.1L835.3,556.8z"/>
		<path fill="#414042" d="M844.2,555.7c0.5-0.4,1.3-0.6,2.2-0.6s1.6,0.2,2.2,0.6c0.5,0.4,0.8,0.9,0.8,1.5h-1.2c-0.1-0.7-0.7-1-1.8-1
			c-0.5,0-0.9,0.1-1.2,0.4s-0.4,0.5-0.4,0.8c0,0.3,0.1,0.5,0.3,0.7c0.2,0.2,0.6,0.3,1,0.5l1.5,0.5c0.7,0.2,1.1,0.5,1.5,0.8
			s0.5,0.7,0.5,1.3c0,0.6-0.3,1-0.8,1.5c-0.6,0.4-1.4,0.7-2.4,0.7s-1.8-0.2-2.4-0.7c-0.6-0.5-0.9-1-0.9-1.8h1.2
			c0,0.5,0.2,0.8,0.6,1.1s0.8,0.4,1.4,0.4s1-0.1,1.4-0.4c0.4-0.2,0.5-0.5,0.5-0.8s-0.1-0.6-0.3-0.7c-0.2-0.2-0.6-0.3-1-0.4l-1.5-0.5
			c-1.3-0.4-2-1.1-2-2.1C843.4,556.6,843.6,556.1,844.2,555.7z"/>
	</g>
	<g>
		<path fill="#FFFFFF" d="M1066,601c0,1.1-0.9,2-2,2H922c-1.1,0-2-0.9-2-2v-84c0-1.1,0.9-2,2-2h142c1.1,0,2,0.9,2,2V601z"/>
		<path fill="#BCBEC0" d="M1064,604H922c-1.7,0-3-1.3-3-3v-84c0-1.7,1.3-3,3-3h142c1.7,0,3,1.3,3,3v84
			C1067,602.7,1065.7,604,1064,604z M922,516c-0.6,0-1,0.4-1,1v84c0,0.6,0.4,1,1,1h142c0.6,0,1-0.4,1-1v-84c0-0.6-0.4-1-1-1H922z"/>
	</g>
	<g>
		<path fill="#414042" d="M968.1,552.9h6.1v1.1h-4.8v3.3h4.5v1.1h-4.5v4.5h-1.3V552.9z"/>
		<path fill="#414042" d="M979.6,556.4c-1.2,0-1.8,0.9-1.9,2.8v3.7h-1.3v-7.7h1.3v1.5c0.4-1.1,1.1-1.6,2-1.6c0.3,0,0.6,0,0.9,0.1
			l-0.1,1.2C980.2,556.5,979.9,556.4,979.6,556.4z"/>
		<path fill="#414042" d="M983.3,553.5c-0.3,0-0.5-0.1-0.6-0.2c-0.1-0.1-0.2-0.3-0.2-0.6s0.1-0.4,0.2-0.6c0.1-0.1,0.3-0.2,0.6-0.2
			c0.3,0,0.5,0.1,0.6,0.2c0.2,0.1,0.2,0.3,0.2,0.6s-0.1,0.4-0.2,0.6C983.7,553.5,983.5,553.5,983.3,553.5z M982.6,555.3h1.3v7.7
			h-1.3V555.3z"/>
		<path fill="#414042" d="M990,562.2c1.1,0,1.7-0.5,1.8-1.4h1.3c-0.1,0.8-0.5,1.4-1,1.8c-0.6,0.4-1.3,0.6-2.1,0.6
			c-1,0-1.9-0.4-2.5-1.1c-0.6-0.7-1-1.7-1-2.9c0-1.2,0.3-2.2,1-2.9c0.6-0.7,1.5-1.1,2.6-1.1s1.9,0.4,2.4,1.2c0.5,0.8,0.7,1.8,0.6,3
			h-5.2c0,0.8,0.2,1.4,0.6,1.9C988.8,561.9,989.3,562.2,990,562.2z M990.9,556.4c-0.2-0.1-0.5-0.2-0.9-0.2c-0.7,0-1.2,0.2-1.5,0.7
			c-0.4,0.4-0.6,1-0.7,1.7h4.1C991.9,557.4,991.6,556.7,990.9,556.4z"/>
		<path fill="#414042" d="M996.8,556.8c0.5-1.1,1.4-1.7,2.6-1.7c0.9,0,1.6,0.3,2.1,0.9c0.5,0.6,0.8,1.4,0.8,2.4v4.5h-1.2v-4.5
			c0-0.7-0.2-1.3-0.5-1.7c-0.3-0.4-0.8-0.6-1.5-0.6s-1.2,0.3-1.6,0.8c-0.4,0.5-0.6,1.2-0.6,2.2v3.8h-1.3v-7.6h1.1L996.8,556.8z"/>
		<path fill="#414042" d="M1010.2,556.5v-4.4h1.2V563h-1l-0.2-1.3c-0.2,0.5-0.6,0.8-1,1.1c-0.4,0.2-0.8,0.4-1.3,0.4
			c-1,0-1.8-0.4-2.4-1.1c-0.7-0.7-1-1.7-1-2.9c0-1.2,0.3-2.2,1-2.9c0.6-0.7,1.5-1.1,2.4-1.1S1009.7,555.6,1010.2,556.5z
			 M1008.1,556.3c-0.6,0-1.1,0.3-1.6,0.8c-0.4,0.5-0.6,1.2-0.6,2.1s0.2,1.6,0.6,2.1c0.4,0.5,0.9,0.8,1.5,0.8c0.6,0,1.1-0.2,1.5-0.6
			s0.6-0.9,0.7-1.6v-1.2c0-0.7-0.2-1.3-0.6-1.7S1008.7,556.3,1008.1,556.3z"/>
		<path fill="#414042" d="M1015.1,555.7c0.5-0.4,1.3-0.6,2.2-0.6s1.6,0.2,2.2,0.6c0.5,0.4,0.8,0.9,0.8,1.5h-1.2
			c-0.1-0.7-0.7-1-1.8-1c-0.5,0-0.9,0.1-1.2,0.4s-0.4,0.5-0.4,0.8c0,0.3,0.1,0.5,0.3,0.7c0.2,0.2,0.6,0.3,1,0.5l1.5,0.5
			c0.7,0.2,1.1,0.5,1.5,0.8s0.5,0.7,0.5,1.3c0,0.6-0.3,1-0.8,1.5c-0.6,0.4-1.4,0.7-2.4,0.7s-1.8-0.2-2.4-0.7c-0.6-0.5-0.9-1-0.9-1.8
			h1.2c0,0.5,0.2,0.8,0.6,1.1s0.8,0.4,1.4,0.4s1-0.1,1.4-0.4c0.4-0.2,0.5-0.5,0.5-0.8s-0.1-0.6-0.3-0.7c-0.2-0.2-0.6-0.3-1-0.4
			l-1.5-0.5c-1.3-0.4-2-1.1-2-2.1C1014.3,556.6,1014.6,556.1,1015.1,555.7z"/>
	</g>
	<g>
		<path fill="#FFFFFF" d="M686,601c0,1.1-0.9,2-2,2H542c-1.1,0-2-0.9-2-2v-84c0-1.1,0.9-2,2-2h142c1.1,0,2,0.9,2,2V601z"/>
		<path fill="#BCBEC0" d="M684,604H542c-1.7,0-3-1.3-3-3v-84c0-1.7,1.3-3,3-3h142c1.7,0,3,1.3,3,3v84C687,602.7,685.7,604,684,604z
			 M542,516c-0.6,0-1,0.4-1,1v84c0,0.6,0.4,1,1,1h142c0.6,0,1-0.4,1-1v-84c0-0.6-0.4-1-1-1H542z"/>
	</g>
	<g>
		<path fill="#414042" d="M590.1,555.4c-0.2-1-0.9-1.5-2.2-1.5c-0.7,0-1.2,0.1-1.6,0.4c-0.4,0.3-0.5,0.6-0.5,1.1s0.1,0.7,0.3,0.9
			c0.2,0.2,0.6,0.4,1.1,0.6l2.1,0.7c0.7,0.2,1.3,0.6,1.7,1s0.6,1,0.6,1.8s-0.3,1.4-1,2c-0.7,0.5-1.5,0.8-2.7,0.8
			c-1.1,0-2-0.3-2.7-0.8c-0.7-0.6-1.1-1.3-1.1-2.4h1.2c0,0.7,0.2,1.2,0.7,1.5c0.5,0.4,1.1,0.5,1.8,0.5s1.3-0.2,1.7-0.5
			c0.4-0.3,0.6-0.7,0.6-1.2s-0.1-0.8-0.4-1s-0.6-0.5-1.2-0.6L587,558c-0.8-0.3-1.5-0.6-1.9-1s-0.6-0.9-0.6-1.7
			c0-0.7,0.3-1.4,0.9-1.9s1.4-0.7,2.5-0.7c1.1,0,1.9,0.2,2.5,0.7s0.9,1.1,1,1.9H590.1z"/>
		<path fill="#414042" d="M597,562.2c1.1,0,1.7-0.5,1.8-1.4h1.3c-0.1,0.8-0.5,1.4-1,1.8c-0.6,0.4-1.3,0.6-2.1,0.6
			c-1,0-1.9-0.4-2.5-1.1s-1-1.7-1-2.9c0-1.2,0.3-2.2,1-2.9c0.6-0.7,1.5-1.1,2.6-1.1c1.1,0,1.9,0.4,2.4,1.2s0.7,1.8,0.6,3h-5.2
			c0,0.8,0.2,1.4,0.6,1.9C595.8,561.9,596.3,562.2,597,562.2z M597.9,556.4c-0.2-0.1-0.5-0.2-0.9-0.2c-0.7,0-1.2,0.2-1.5,0.7
			c-0.4,0.4-0.6,1-0.7,1.7h4.1C598.9,557.4,598.6,556.7,597.9,556.4z"/>
		<path fill="#414042" d="M606.6,562.8c-0.9,0.4-1.8,0.5-2.5,0.3c-0.5-0.2-0.9-0.5-1.2-1.1c-0.1-0.3-0.2-0.6-0.2-1v-4.7h-1.2v-1h1.2
			v-2.1h1.2v2.1h2.4v1H604v4.7c0,0.8,0.4,1.2,1.1,1.2c0.4,0,0.8-0.1,1.3-0.3L606.6,562.8z"/>
		<path fill="#414042" d="M612.6,562.8c-0.9,0.4-1.8,0.5-2.5,0.3c-0.5-0.2-0.9-0.5-1.2-1.1c-0.1-0.3-0.2-0.6-0.2-1v-4.7h-1.2v-1h1.2
			v-2.1h1.2v2.1h2.4v1H610v4.7c0,0.8,0.4,1.2,1.1,1.2c0.4,0,0.8-0.1,1.3-0.3L612.6,562.8z"/>
		<path fill="#414042" d="M615.4,553.5c-0.3,0-0.5-0.1-0.6-0.2c-0.1-0.1-0.2-0.3-0.2-0.6s0.1-0.4,0.2-0.6c0.1-0.1,0.3-0.2,0.6-0.2
			c0.3,0,0.5,0.1,0.6,0.2c0.2,0.1,0.2,0.3,0.2,0.6s-0.1,0.4-0.2,0.6C615.8,553.5,615.6,553.5,615.4,553.5z M614.7,555.3h1.3v7.7
			h-1.3V555.3z"/>
		<path fill="#414042" d="M620.6,556.8c0.5-1.1,1.4-1.7,2.6-1.7c0.9,0,1.6,0.3,2.1,0.9c0.5,0.6,0.8,1.4,0.8,2.4v4.5h-1.2v-4.5
			c0-0.7-0.2-1.3-0.5-1.7c-0.3-0.4-0.8-0.6-1.5-0.6s-1.2,0.3-1.6,0.8c-0.4,0.5-0.6,1.2-0.6,2.2v3.8h-1.3v-7.6h1.1L620.6,556.8z"/>
		<path fill="#414042" d="M629.4,562.8c-0.6-0.3-1-0.8-1-1.4c0-0.3,0.1-0.6,0.4-0.9c0.2-0.3,0.6-0.4,0.9-0.5c-0.6-0.5-0.9-1.2-0.9-2
			s0.3-1.5,0.9-2s1.3-0.8,2.1-0.8s1.5,0.2,2.1,0.6c0.1-0.6,0.3-1,0.7-1.4c0.4-0.3,0.9-0.5,1.5-0.5l-0.1,1.2c-0.9,0-1.4,0.4-1.5,1.2
			c0.4,0.5,0.6,1,0.6,1.6c0,0.8-0.3,1.5-0.9,2c-0.6,0.5-1.3,0.8-2.2,0.8c-0.6,0-1.1-0.1-1.6-0.4c-0.2,0-0.4,0.1-0.6,0.3
			c-0.2,0.2-0.3,0.4-0.3,0.6c0,0.6,0.5,0.8,1.4,0.8h3c0.7,0,1.3,0.2,1.7,0.5s0.6,0.7,0.6,1.3c0,0.8-0.4,1.5-1.2,2.1
			c-0.8,0.6-1.8,0.9-3.1,0.9s-2.2-0.2-2.9-0.7c-0.7-0.5-1.1-1-1.1-1.8c0-0.5,0.1-0.8,0.4-1.1C628.6,563.1,629,562.9,629.4,562.8z
			 M629.2,564.4c0,0.4,0.2,0.8,0.7,1c0.4,0.3,1.1,0.4,2,0.4s1.7-0.2,2.3-0.6c0.6-0.4,0.9-0.8,0.9-1.4c0-0.2-0.1-0.5-0.3-0.6
			s-0.4-0.3-0.8-0.3h-3.1c-0.5,0-1,0.2-1.2,0.4C629.3,563.7,629.2,564,629.2,564.4z M633.9,557.9c0-0.5-0.2-1-0.5-1.3
			c-0.3-0.3-0.8-0.5-1.4-0.5c-0.6,0-1,0.2-1.4,0.5c-0.3,0.3-0.5,0.8-0.5,1.4c0,0.6,0.2,1,0.5,1.4c0.3,0.4,0.8,0.5,1.4,0.5
			s1-0.2,1.4-0.5C633.7,558.9,633.9,558.5,633.9,557.9z"/>
		<path fill="#414042" d="M638.5,555.7c0.5-0.4,1.3-0.6,2.2-0.6s1.6,0.2,2.2,0.6c0.5,0.4,0.8,0.9,0.8,1.5h-1.2c-0.1-0.7-0.7-1-1.8-1
			c-0.5,0-0.9,0.1-1.2,0.4s-0.4,0.5-0.4,0.8c0,0.3,0.1,0.5,0.3,0.7c0.2,0.2,0.6,0.3,1,0.5l1.5,0.5c0.7,0.2,1.1,0.5,1.5,0.8
			s0.5,0.7,0.5,1.3c0,0.6-0.3,1-0.8,1.5c-0.6,0.4-1.4,0.7-2.4,0.7c-1,0-1.8-0.2-2.4-0.7c-0.6-0.5-0.9-1-0.9-1.8h1.2
			c0,0.5,0.2,0.8,0.6,1.1c0.4,0.2,0.8,0.4,1.4,0.4s1-0.1,1.4-0.4c0.4-0.2,0.5-0.5,0.5-0.8s-0.1-0.6-0.3-0.7c-0.2-0.2-0.6-0.3-1-0.4
			l-1.5-0.5c-1.3-0.4-2-1.1-2-2.1C637.7,556.6,638,556.1,638.5,555.7z"/>
	</g>
	<g>
		<path fill="#FFFFFF" d="M436,155c0,1.1-0.9,2-2,2H292c-1.1,0-2-0.9-2-2V71c0-1.1,0.9-2,2-2h142c1.1,0,2,0.9,2,2V155z"/>
		<path fill="#BCBEC0" d="M434,158H292c-1.7,0-3-1.3-3-3V71c0-1.7,1.3-3,3-3h142c1.7,0,3,1.3,3,3v84C437,156.7,435.7,158,434,158z
			 M292,70c-0.6,0-1,0.4-1,1v84c0,0.6,0.4,1,1,1h142c0.6,0,1-0.4,1-1V71c0-0.6-0.4-1-1-1H292z"/>
	</g>
	<g>
		<path fill="#414042" d="M347,115.9h4.5v1.1h-5.7v-10.1h1.3V115.9z"/>
		<path fill="#414042" d="M356,109.2c1.1,0,1.9,0.3,2.6,1c0.7,0.7,1,1.7,1,3c0,1.3-0.3,2.3-1,3c-0.7,0.7-1.5,1-2.6,1
			c-1.1,0-1.9-0.3-2.6-1c-0.7-0.7-1-1.7-1-3c0-1.3,0.3-2.3,1-3C354.1,109.5,354.9,109.2,356,109.2z M358.3,113.2
			c0-0.9-0.2-1.6-0.6-2.1c-0.4-0.5-0.9-0.8-1.7-0.8c-0.7,0-1.3,0.3-1.7,0.8c-0.4,0.5-0.6,1.2-0.6,2.1s0.2,1.6,0.6,2.1
			c0.4,0.5,0.9,0.8,1.7,0.8c0.7,0,1.3-0.3,1.7-0.8C358.1,114.8,358.3,114.1,358.3,113.2z"/>
		<path fill="#414042" d="M362.3,116.8c-0.6-0.3-1-0.8-1-1.4c0-0.3,0.1-0.6,0.4-0.9c0.3-0.3,0.6-0.4,0.9-0.5c-0.6-0.5-0.9-1.2-0.9-2
			s0.3-1.5,0.9-2c0.6-0.5,1.3-0.8,2.1-0.8s1.5,0.2,2.1,0.6c0.1-0.6,0.3-1,0.7-1.4c0.4-0.3,0.9-0.5,1.5-0.5l-0.1,1.2
			c-0.9,0-1.4,0.4-1.5,1.2c0.4,0.5,0.6,1,0.6,1.6c0,0.8-0.3,1.5-0.9,2c-0.6,0.5-1.3,0.8-2.2,0.8c-0.6,0-1.1-0.1-1.6-0.4
			c-0.2,0-0.4,0.1-0.6,0.3c-0.2,0.2-0.3,0.4-0.3,0.6c0,0.6,0.5,0.8,1.4,0.8h3c0.7,0,1.3,0.2,1.7,0.5s0.6,0.7,0.6,1.3
			c0,0.8-0.4,1.5-1.2,2.1s-1.8,0.9-3.1,0.9s-2.2-0.2-2.9-0.7c-0.7-0.5-1.1-1-1.1-1.8c0-0.5,0.1-0.8,0.4-1.1
			C361.5,117.1,361.9,116.9,362.3,116.8z M362.1,118.4c0,0.4,0.2,0.8,0.7,1c0.4,0.3,1.1,0.4,2,0.4s1.7-0.2,2.3-0.6
			c0.6-0.4,0.9-0.8,0.9-1.4c0-0.2-0.1-0.5-0.3-0.6c-0.2-0.2-0.4-0.3-0.8-0.3h-3.1c-0.5,0-1,0.2-1.2,0.4
			C362.2,117.7,362.1,118,362.1,118.4z M366.8,111.9c0-0.5-0.2-1-0.5-1.3c-0.3-0.3-0.8-0.5-1.4-0.5c-0.6,0-1,0.2-1.4,0.5
			c-0.3,0.3-0.5,0.8-0.5,1.4c0,0.6,0.2,1,0.5,1.4c0.3,0.4,0.8,0.5,1.4,0.5s1-0.2,1.4-0.5S366.8,112.5,366.8,111.9z"/>
		<path fill="#414042" d="M371.7,107.5c-0.3,0-0.5-0.1-0.6-0.2c-0.1-0.1-0.2-0.3-0.2-0.6c0-0.2,0.1-0.4,0.2-0.6
			c0.1-0.1,0.3-0.2,0.6-0.2c0.3,0,0.5,0.1,0.6,0.2c0.2,0.1,0.2,0.3,0.2,0.6c0,0.2-0.1,0.4-0.2,0.6
			C372.2,107.5,372,107.5,371.7,107.5z M371.1,109.3h1.3v7.7h-1.3V109.3z"/>
		<path fill="#414042" d="M377,110.8c0.5-1.1,1.4-1.7,2.6-1.7c0.9,0,1.6,0.3,2.1,0.9c0.5,0.6,0.8,1.4,0.8,2.4v4.5h-1.2v-4.5
			c0-0.7-0.2-1.3-0.5-1.7c-0.3-0.4-0.8-0.6-1.5-0.6s-1.2,0.3-1.6,0.8c-0.4,0.5-0.6,1.2-0.6,2.2v3.8h-1.3v-7.6h1.1L377,110.8z"/>
	</g>
	<g>
		<rect x="362" y="156" fill="#BCBEC0" width="2" height="70"/>
	</g>
	<g>
		<rect x="362" y="315" fill="#BCBEC0" width="2" height="70"/>
	</g>
	<g>
		<rect x="362" y="473" fill="#BCBEC0" width="2" height="70"/>
	</g>
	<g>
		<polygon fill="#BCBEC0" points="805,404 803,404 803,272 436,272 436,270 805,270 		"/>
	</g>
	<g>
		<polygon fill="#BCBEC0" points="622,515 620,515 620,428 765,428 765,430 622,430 		"/>
	</g>
	<g>
		<polygon fill="#BCBEC0" points="990,515 988,515 988,430 843,430 843,428 990,428 		"/>
	</g>
	<g>
		<polygon fill="#BCBEC0" points="107,385 105,385 105,270 290,270 290,272 107,272 		"/>
	</g>
	<g>
		<rect x="802" y="450.5" fill="#BCBEC0" width="2" height="64.5"/>
	</g>
</g>
</svg>
