<?xml version="1.0" encoding="utf-8"?>
<!-- Generator: Adobe Illustrator 18.1.1, SVG Export Plug-In . SVG Version: 6.00 Build 0)  -->
<svg version="1.1" id="Layer_1" xmlns="http://www.w3.org/2000/svg" xmlns:xlink="http://www.w3.org/1999/xlink" x="0px" y="0px"
	 viewBox="0 0 1100 700" enable-background="new 0 0 1100 700" xml:space="preserve">
<g>
	<path fill="#FFFFFF" stroke="#BCBEC0" stroke-width="2" stroke-miterlimit="10" d="M456,490c0,1.1-0.9,2-2,2H312c-1.1,0-2-0.9-2-2
		v-84c0-1.1,0.9-2,2-2h142c1.1,0,2,0.9,2,2V490z"/>
	<path fill="#FFFFFF" stroke="#BCBEC0" stroke-width="2" stroke-miterlimit="10" d="M446,480c0,1.1-0.9,2-2,2H302c-1.1,0-2-0.9-2-2
		v-84c0-1.1,0.9-2,2-2h142c1.1,0,2,0.9,2,2V480z"/>
	<path fill="#FFFFFF" stroke="#BCBEC0" stroke-width="2" stroke-miterlimit="10" d="M436,313c0,1.1-0.9,2-2,2H292c-1.1,0-2-0.9-2-2
		v-84c0-1.1,0.9-2,2-2h142c1.1,0,2,0.9,2,2V313z"/>
	<g>
		<text transform="matrix(1 0 0 1 342.6802 275)" fill="#414042" font-family="'Karla-Regular'" font-size="16">Home</text>
	</g>
	<path fill="#FFFFFF" stroke="#BCBEC0" stroke-width="2" stroke-miterlimit="10" d="M436,471c0,1.1-0.9,2-2,2H292c-1.1,0-2-0.9-2-2
		v-84c0-1.1,0.9-2,2-2h142c1.1,0,2,0.9,2,2V471z"/>
	<g>
		<text transform="matrix(1 0 0 1 309.8008 433)" fill="#414042" font-family="'Karla-Regular'" font-size="16">Location detail</text>
	</g>
	<path fill="#FFFFFF" stroke="#BCBEC0" stroke-width="2" stroke-miterlimit="10" d="M436,629c0,1.1-0.9,2-2,2H292c-1.1,0-2-0.9-2-2
		v-84c0-1.1,0.9-2,2-2h142c1.1,0,2,0.9,2,2V629z"/>
	<g>
		<text transform="matrix(1 0 0 1 319.6084 591)" fill="#414042" font-family="'Karla-Regular'" font-size="16">Invite friend</text>
	</g>
	<path fill="#FFFFFF" stroke="#BCBEC0" stroke-width="2" stroke-miterlimit="10" d="M180,471c0,1.1-0.9,2-2,2H36c-1.1,0-2-0.9-2-2
		v-84c0-1.1,0.9-2,2-2h142c1.1,0,2,0.9,2,2V471z"/>
	<g>
		<text transform="matrix(1 0 0 1 77.4482 433)" fill="#414042" font-family="'Karla-Regular'" font-size="16">Updates</text>
	</g>
	<g>
		<text transform="matrix(1 0 0 1 781.6562 433)" fill="#414042" font-family="'Karla-Regular'" font-size="16">Profile</text>
	</g>
	<path fill="#FFFFFF" stroke="#BCBEC0" stroke-width="2" stroke-miterlimit="10" d="M876,601c0,1.1-0.9,2-2,2H732c-1.1,0-2-0.9-2-2
		v-84c0-1.1,0.9-2,2-2h142c1.1,0,2,0.9,2,2V601z"/>
	<g>
		<text transform="matrix(1 0 0 1 757.4326 563)" fill="#414042" font-family="'Karla-Regular'" font-size="16">My locations</text>
	</g>
	<path fill="#FFFFFF" stroke="#BCBEC0" stroke-width="2" stroke-miterlimit="10" d="M1066,601c0,1.1-0.9,2-2,2H922c-1.1,0-2-0.9-2-2
		v-84c0-1.1,0.9-2,2-2h142c1.1,0,2,0.9,2,2V601z"/>
	<g>
		<text transform="matrix(1 0 0 1 966.4644 563)" fill="#414042" font-family="'Karla-Regular'" font-size="16">Friends</text>
	</g>
	<path fill="#FFFFFF" stroke="#BCBEC0" stroke-width="2" stroke-miterlimit="10" d="M686,601c0,1.1-0.9,2-2,2H542c-1.1,0-2-0.9-2-2
		v-84c0-1.1,0.9-2,2-2h142c1.1,0,2,0.9,2,2V601z"/>
	<g>
		<text transform="matrix(1 0 0 1 583.0806 563)" fill="#414042" font-family="'Karla-Regular'" font-size="16">Settings</text>
	</g>
	<path fill="#FFFFFF" stroke="#BCBEC0" stroke-width="2" stroke-miterlimit="10" d="M436,155c0,1.1-0.9,2-2,2H292c-1.1,0-2-0.9-2-2
		V71c0-1.1,0.9-2,2-2h142c1.1,0,2,0.9,2,2V155z"/>
	<g>
		<text transform="matrix(1 0 0 1 344.1523 117)" fill="#414042" font-family="'Karla-Regular'" font-size="16">Login</text>
	</g>
	<line fill="none" stroke="#BCBEC0" stroke-width="2" stroke-miterlimit="10" x1="363" y1="156" x2="363" y2="226"/>
	<line fill="none" stroke="#BCBEC0" stroke-width="2" stroke-miterlimit="10" x1="363" y1="315" x2="363" y2="385"/>
	<line fill="none" stroke="#BCBEC0" stroke-width="2" stroke-miterlimit="10" x1="363" y1="473" x2="363" y2="543"/>
	<polyline fill="none" stroke="#BCBEC0" stroke-width="2" stroke-miterlimit="10" points="436,271 804,271 804,404 	"/>
	<polyline fill="none" stroke="#BCBEC0" stroke-width="2" stroke-miterlimit="10" points="765,429 621,429 621,515 	"/>
	<polyline fill="none" stroke="#BCBEC0" stroke-width="2" stroke-miterlimit="10" points="989,515 989,429 843,429 	"/>
	<polyline fill="none" stroke="#BCBEC0" stroke-width="2" stroke-miterlimit="10" points="290,271 106,271 106,385 	"/>
	<line fill="none" stroke="#BCBEC0" stroke-width="2" stroke-miterlimit="10" x1="803" y1="450.5" x2="803" y2="515"/>
</g>
</svg>
