<?xml version="1.0" encoding="utf-8"?>
<!-- Generator: Adobe Illustrator 18.1.1, SVG Export Plug-In . SVG Version: 6.00 Build 0)  -->
<svg version="1.1" id="Layer_1" xmlns="http://www.w3.org/2000/svg" xmlns:xlink="http://www.w3.org/1999/xlink" x="0px" y="0px"
	 viewBox="0 0 800 700" enable-background="new 0 0 800 700" xml:space="preserve">
<g>
	<g>
		<g>
			<path fill="#939598" d="M560,589H238V91h322V589z M240,587h318V93H240V587z"/>
		</g>
		<g>
			<path fill="#939598" d="M529.9,670H269.1c-31.5,0-57.1-25.6-57.1-57.1V66.1C212,34.6,237.6,9,269.1,9h260.8
				C561.4,9,587,34.6,587,66.1v546.8C587,644.4,561.4,670,529.9,670z M269.1,11C238.7,11,214,35.7,214,66.1v546.8
				c0,30.4,24.7,55.1,55.1,55.1h260.8c30.4,0,55.1-24.7,55.1-55.1V66.1c0-30.4-24.7-55.1-55.1-55.1H269.1z"/>
		</g>
		<g>
			<path fill="#939598" d="M341.2,58.8c-4.4,0-8-3.6-8-8s3.6-8,8-8s8,3.6,8,8S345.6,58.8,341.2,58.8z M341.2,44.8c-3.3,0-6,2.7-6,6
				s2.7,6,6,6s6-2.7,6-6S344.5,44.8,341.2,44.8z"/>
		</g>
		<g>
			<path fill="#939598" d="M399.8,34.8c-3.1,0-5.7-2.5-5.7-5.7c0-3.1,2.5-5.7,5.7-5.7c3.1,0,5.7,2.5,5.7,5.7
				C405.5,32.3,402.9,34.8,399.8,34.8z M399.8,25.5c-2,0-3.7,1.6-3.7,3.7c0,2,1.6,3.7,3.7,3.7c2,0,3.7-1.6,3.7-3.7
				C403.5,27.1,401.8,25.5,399.8,25.5z"/>
		</g>
		<g>
			<path fill="#939598" d="M425,56h-52c-2.8,0-5-2.2-5-5s2.2-5,5-5h52c2.8,0,5,2.2,5,5S427.8,56,425,56z M373,48c-1.7,0-3,1.3-3,3
				s1.3,3,3,3h52c1.7,0,3-1.3,3-3s-1.3-3-3-3H373z"/>
		</g>
		<g>
			<path fill="#939598" d="M399.8,654.2c-16,0-29-13-29-29s13-29,29-29c16,0,29,13,29,29S415.8,654.2,399.8,654.2z M399.8,598.2
				c-14.9,0-27,12.1-27,27s12.1,27,27,27s27-12.1,27-27S414.7,598.2,399.8,598.2z"/>
		</g>
		<g>
			<path fill="#939598" d="M399.8,649.5c-13.4,0-24.3-10.9-24.3-24.3c0-13.4,10.9-24.3,24.3-24.3c13.4,0,24.3,10.9,24.3,24.3
				C424.1,638.6,413.2,649.5,399.8,649.5z M399.8,602.8c-12.3,0-22.3,10-22.3,22.3c0,12.3,10,22.3,22.3,22.3s22.3-10,22.3-22.3
				C422.1,612.9,412.1,602.8,399.8,602.8z"/>
		</g>
	</g>
	<g>
		<g>
			<g>
				
					<rect x="285.6" y="120.7" transform="matrix(0.7071 0.7071 -0.7071 0.7071 193.5472 -157.7125)" fill="#BCBEC0" width="3" height="68.1"/>
			</g>
			<g>
				
					<rect x="253.1" y="153.3" transform="matrix(0.7071 0.7071 -0.7071 0.7071 193.5472 -157.7125)" fill="#BCBEC0" width="68.1" height="3"/>
			</g>
			<g>
				<path fill="#939598" d="M306.4,184.1h-38.6c-5.2,0-9.5-4.3-9.5-9.5V136c0-5.2,4.3-9.5,9.5-9.5h38.6c5.2,0,9.5,4.3,9.5,9.5v38.6
					C315.9,179.8,311.7,184.1,306.4,184.1z M267.9,129.5c-3.6,0-6.5,2.9-6.5,6.5v38.6c0,3.6,2.9,6.5,6.5,6.5h38.6
					c3.6,0,6.5-2.9,6.5-6.5V136c0-3.6-2.9-6.5-6.5-6.5H267.9z"/>
			</g>
		</g>
		<g>
			<g>
				
					<rect x="360.2" y="120.7" transform="matrix(0.7071 0.7071 -0.7071 0.7071 215.3873 -210.4393)" fill="#BCBEC0" width="3" height="68.1"/>
			</g>
			<g>
				
					<rect x="327.7" y="153.3" transform="matrix(0.7071 0.7071 -0.7071 0.7071 215.3873 -210.4393)" fill="#BCBEC0" width="68.1" height="3"/>
			</g>
			<g>
				<path fill="#939598" d="M381,184.1h-38.6c-5.2,0-9.5-4.3-9.5-9.5V136c0-5.2,4.3-9.5,9.5-9.5H381c5.2,0,9.5,4.3,9.5,9.5v38.6
					C390.5,179.8,386.2,184.1,381,184.1z M342.4,129.5c-3.6,0-6.5,2.9-6.5,6.5v38.6c0,3.6,2.9,6.5,6.5,6.5H381
					c3.6,0,6.5-2.9,6.5-6.5V136c0-3.6-2.9-6.5-6.5-6.5H342.4z"/>
			</g>
		</g>
		<g>
			<g>
				
					<rect x="434.8" y="120.7" transform="matrix(0.7071 0.7071 -0.7071 0.7071 237.2276 -263.1664)" fill="#BCBEC0" width="3" height="68.1"/>
			</g>
			<g>
				
					<rect x="402.3" y="153.3" transform="matrix(0.7071 0.7071 -0.7071 0.7071 237.2276 -263.1664)" fill="#BCBEC0" width="68.1" height="3"/>
			</g>
			<g>
				<path fill="#939598" d="M455.6,184.1H417c-5.2,0-9.5-4.3-9.5-9.5V136c0-5.2,4.3-9.5,9.5-9.5h38.6c5.2,0,9.5,4.3,9.5,9.5v38.6
					C465.1,179.8,460.8,184.1,455.6,184.1z M417,129.5c-3.6,0-6.5,2.9-6.5,6.5v38.6c0,3.6,2.9,6.5,6.5,6.5h38.6
					c3.6,0,6.5-2.9,6.5-6.5V136c0-3.6-2.9-6.5-6.5-6.5H417z"/>
			</g>
		</g>
		<g>
			<g>
				
					<rect x="509.4" y="120.7" transform="matrix(0.7071 0.7071 -0.7071 0.7071 259.0677 -315.8931)" fill="#BCBEC0" width="3" height="68.1"/>
			</g>
			<g>
				
					<rect x="476.8" y="153.3" transform="matrix(0.7071 0.7071 -0.7071 0.7071 259.0725 -315.8957)" fill="#BCBEC0" width="68.1" height="3"/>
			</g>
			<g>
				<path fill="#939598" d="M530.1,184.1h-38.6c-5.2,0-9.5-4.3-9.5-9.5V136c0-5.2,4.3-9.5,9.5-9.5h38.6c5.2,0,9.5,4.3,9.5,9.5v38.6
					C539.6,179.8,535.4,184.1,530.1,184.1z M491.6,129.5c-3.6,0-6.5,2.9-6.5,6.5v38.6c0,3.6,2.9,6.5,6.5,6.5h38.6
					c3.6,0,6.5-2.9,6.5-6.5V136c0-3.6-2.9-6.5-6.5-6.5H491.6z"/>
			</g>
		</g>
	</g>
	<g>
		<g>
			<g>
				
					<rect x="285.6" y="209.3" transform="matrix(0.7071 0.7071 -0.7071 0.7071 256.1735 -131.7719)" fill="#BCBEC0" width="3" height="68.1"/>
			</g>
			<g>
				
					<rect x="253.1" y="241.8" transform="matrix(0.7071 0.7071 -0.7071 0.7071 256.1735 -131.7719)" fill="#BCBEC0" width="68.1" height="3"/>
			</g>
			<g>
				<path fill="#939598" d="M306.4,272.6h-38.6c-5.2,0-9.5-4.3-9.5-9.5v-38.6c0-5.2,4.3-9.5,9.5-9.5h38.6c5.2,0,9.5,4.3,9.5,9.5
					v38.6C315.9,268.4,311.7,272.6,306.4,272.6z M267.9,218.1c-3.6,0-6.5,2.9-6.5,6.5v38.6c0,3.6,2.9,6.5,6.5,6.5h38.6
					c3.6,0,6.5-2.9,6.5-6.5v-38.6c0-3.6-2.9-6.5-6.5-6.5H267.9z"/>
			</g>
		</g>
		<g>
			<g>
				
					<rect x="360.2" y="209.3" transform="matrix(0.7071 0.7071 -0.7071 0.7071 278.0136 -184.4986)" fill="#BCBEC0" width="3" height="68.1"/>
			</g>
			<g>
				
					<rect x="327.7" y="241.8" transform="matrix(0.7071 0.7071 -0.7071 0.7071 278.0136 -184.4986)" fill="#BCBEC0" width="68.1" height="3"/>
			</g>
			<g>
				<path fill="#939598" d="M381,272.6h-38.6c-5.2,0-9.5-4.3-9.5-9.5v-38.6c0-5.2,4.3-9.5,9.5-9.5H381c5.2,0,9.5,4.3,9.5,9.5v38.6
					C390.5,268.4,386.2,272.6,381,272.6z M342.4,218.1c-3.6,0-6.5,2.9-6.5,6.5v38.6c0,3.6,2.9,6.5,6.5,6.5H381
					c3.6,0,6.5-2.9,6.5-6.5v-38.6c0-3.6-2.9-6.5-6.5-6.5H342.4z"/>
			</g>
		</g>
		<g>
			<g>
				
					<rect x="434.8" y="209.3" transform="matrix(0.7071 0.7071 -0.7071 0.7071 299.8539 -237.2257)" fill="#BCBEC0" width="3" height="68.1"/>
			</g>
			<g>
				
					<rect x="402.3" y="241.8" transform="matrix(0.7071 0.7071 -0.7071 0.7071 299.8539 -237.2257)" fill="#BCBEC0" width="68.1" height="3"/>
			</g>
			<g>
				<path fill="#939598" d="M455.6,272.6H417c-5.2,0-9.5-4.3-9.5-9.5v-38.6c0-5.2,4.3-9.5,9.5-9.5h38.6c5.2,0,9.5,4.3,9.5,9.5v38.6
					C465.1,268.4,460.8,272.6,455.6,272.6z M417,218.1c-3.6,0-6.5,2.9-6.5,6.5v38.6c0,3.6,2.9,6.5,6.5,6.5h38.6
					c3.6,0,6.5-2.9,6.5-6.5v-38.6c0-3.6-2.9-6.5-6.5-6.5H417z"/>
			</g>
		</g>
		<g>
			<g>
				
					<rect x="509.4" y="209.3" transform="matrix(0.7071 0.7071 -0.7071 0.7071 321.694 -289.9525)" fill="#BCBEC0" width="3" height="68.1"/>
			</g>
			<g>
				
					<rect x="476.8" y="241.8" transform="matrix(0.7071 0.7071 -0.7071 0.7071 321.6994 -289.9544)" fill="#BCBEC0" width="68.1" height="3"/>
			</g>
			<g>
				<path fill="#939598" d="M530.1,272.6h-38.6c-5.2,0-9.5-4.3-9.5-9.5v-38.6c0-5.2,4.3-9.5,9.5-9.5h38.6c5.2,0,9.5,4.3,9.5,9.5
					v38.6C539.6,268.4,535.4,272.6,530.1,272.6z M491.6,218.1c-3.6,0-6.5,2.9-6.5,6.5v38.6c0,3.6,2.9,6.5,6.5,6.5h38.6
					c3.6,0,6.5-2.9,6.5-6.5v-38.6c0-3.6-2.9-6.5-6.5-6.5H491.6z"/>
			</g>
		</g>
	</g>
	<g>
		<g>
			<g>
				
					<rect x="285.6" y="297.9" transform="matrix(0.7071 0.7071 -0.7071 0.7071 318.7999 -105.8311)" fill="#BCBEC0" width="3" height="68.1"/>
			</g>
			<g>
				
					<rect x="253.1" y="330.4" transform="matrix(0.7071 0.7071 -0.7071 0.7071 318.7977 -105.8313)" fill="#BCBEC0" width="68.1" height="3"/>
			</g>
			<g>
				<path fill="#939598" d="M306.4,361.2h-38.6c-5.2,0-9.5-4.3-9.5-9.5v-38.6c0-5.2,4.3-9.5,9.5-9.5h38.6c5.2,0,9.5,4.3,9.5,9.5
					v38.6C315.9,356.9,311.7,361.2,306.4,361.2z M267.9,306.6c-3.6,0-6.5,2.9-6.5,6.5v38.6c0,3.6,2.9,6.5,6.5,6.5h38.6
					c3.6,0,6.5-2.9,6.5-6.5v-38.6c0-3.6-2.9-6.5-6.5-6.5H267.9z"/>
			</g>
		</g>
		<g>
			<g>
				
					<rect x="360.2" y="297.9" transform="matrix(0.7071 0.7071 -0.7071 0.7071 340.64 -158.5579)" fill="#BCBEC0" width="3" height="68.1"/>
			</g>
			<g>
				
					<rect x="327.7" y="330.4" transform="matrix(0.7071 0.7071 -0.7071 0.7071 340.6375 -158.5578)" fill="#BCBEC0" width="68.1" height="3"/>
			</g>
			<g>
				<path fill="#939598" d="M381,361.2h-38.6c-5.2,0-9.5-4.3-9.5-9.5v-38.6c0-5.2,4.3-9.5,9.5-9.5H381c5.2,0,9.5,4.3,9.5,9.5v38.6
					C390.5,356.9,386.2,361.2,381,361.2z M342.4,306.6c-3.6,0-6.5,2.9-6.5,6.5v38.6c0,3.6,2.9,6.5,6.5,6.5H381
					c3.6,0,6.5-2.9,6.5-6.5v-38.6c0-3.6-2.9-6.5-6.5-6.5H342.4z"/>
			</g>
		</g>
		<g>
			<g>
				
					<rect x="434.8" y="297.9" transform="matrix(0.7071 0.7071 -0.7071 0.7071 362.4803 -211.285)" fill="#BCBEC0" width="3" height="68.1"/>
			</g>
			<g>
				
					<rect x="402.3" y="330.4" transform="matrix(0.7071 0.7071 -0.7071 0.7071 362.4775 -211.2846)" fill="#BCBEC0" width="68.1" height="3"/>
			</g>
			<g>
				<path fill="#939598" d="M455.6,361.2H417c-5.2,0-9.5-4.3-9.5-9.5v-38.6c0-5.2,4.3-9.5,9.5-9.5h38.6c5.2,0,9.5,4.3,9.5,9.5v38.6
					C465.1,356.9,460.8,361.2,455.6,361.2z M417,306.6c-3.6,0-6.5,2.9-6.5,6.5v38.6c0,3.6,2.9,6.5,6.5,6.5h38.6
					c3.6,0,6.5-2.9,6.5-6.5v-38.6c0-3.6-2.9-6.5-6.5-6.5H417z"/>
			</g>
		</g>
		<g>
			<g>
				
					<rect x="509.4" y="297.9" transform="matrix(0.7071 0.7071 -0.7071 0.7071 384.3204 -264.0117)" fill="#BCBEC0" width="3" height="68.1"/>
			</g>
			<g>
				
					<rect x="476.8" y="330.4" transform="matrix(0.7071 0.7071 -0.7071 0.7071 384.3235 -264.0124)" fill="#BCBEC0" width="68.1" height="3"/>
			</g>
			<g>
				<path fill="#939598" d="M530.1,361.2h-38.6c-5.2,0-9.5-4.3-9.5-9.5v-38.6c0-5.2,4.3-9.5,9.5-9.5h38.6c5.2,0,9.5,4.3,9.5,9.5
					v38.6C539.6,356.9,535.4,361.2,530.1,361.2z M491.6,306.6c-3.6,0-6.5,2.9-6.5,6.5v38.6c0,3.6,2.9,6.5,6.5,6.5h38.6
					c3.6,0,6.5-2.9,6.5-6.5v-38.6c0-3.6-2.9-6.5-6.5-6.5H491.6z"/>
			</g>
		</g>
	</g>
	<g>
		<g>
			<g>
				
					<rect x="285.6" y="386.4" transform="matrix(0.7071 0.7071 -0.7071 0.7071 381.4263 -79.8904)" fill="#BCBEC0" width="3" height="68.1"/>
			</g>
			<g>
				
					<rect x="253.1" y="419" transform="matrix(0.7071 0.7071 -0.7071 0.7071 381.4263 -79.8904)" fill="#BCBEC0" width="68.1" height="3"/>
			</g>
			<g>
				<path fill="#939598" d="M306.4,449.8h-38.6c-5.2,0-9.5-4.3-9.5-9.5v-38.6c0-5.2,4.3-9.5,9.5-9.5h38.6c5.2,0,9.5,4.3,9.5,9.5
					v38.6C315.9,445.5,311.7,449.8,306.4,449.8z M267.9,395.2c-3.6,0-6.5,2.9-6.5,6.5v38.6c0,3.6,2.9,6.5,6.5,6.5h38.6
					c3.6,0,6.5-2.9,6.5-6.5v-38.6c0-3.6-2.9-6.5-6.5-6.5H267.9z"/>
			</g>
		</g>
		<g>
			<g>
				
					<rect x="360.2" y="386.4" transform="matrix(0.7071 0.7071 -0.7071 0.7071 403.2664 -132.6172)" fill="#BCBEC0" width="3" height="68.1"/>
			</g>
			<g>
				
					<rect x="327.7" y="419" transform="matrix(0.7071 0.7071 -0.7071 0.7071 403.2664 -132.6172)" fill="#BCBEC0" width="68.1" height="3"/>
			</g>
			<g>
				<path fill="#939598" d="M381,449.8h-38.6c-5.2,0-9.5-4.3-9.5-9.5v-38.6c0-5.2,4.3-9.5,9.5-9.5H381c5.2,0,9.5,4.3,9.5,9.5v38.6
					C390.5,445.5,386.2,449.8,381,449.8z M342.4,395.2c-3.6,0-6.5,2.9-6.5,6.5v38.6c0,3.6,2.9,6.5,6.5,6.5H381
					c3.6,0,6.5-2.9,6.5-6.5v-38.6c0-3.6-2.9-6.5-6.5-6.5H342.4z"/>
			</g>
		</g>
		<g>
			<g>
				
					<rect x="434.8" y="386.4" transform="matrix(0.7071 0.7071 -0.7071 0.7071 425.1067 -185.3443)" fill="#BCBEC0" width="3" height="68.1"/>
			</g>
			<g>
				
					<rect x="402.3" y="419" transform="matrix(0.7071 0.7071 -0.7071 0.7071 425.1067 -185.3443)" fill="#BCBEC0" width="68.1" height="3"/>
			</g>
			<g>
				<path fill="#939598" d="M455.6,449.8H417c-5.2,0-9.5-4.3-9.5-9.5v-38.6c0-5.2,4.3-9.5,9.5-9.5h38.6c5.2,0,9.5,4.3,9.5,9.5v38.6
					C465.1,445.5,460.8,449.8,455.6,449.8z M417,395.2c-3.6,0-6.5,2.9-6.5,6.5v38.6c0,3.6,2.9,6.5,6.5,6.5h38.6
					c3.6,0,6.5-2.9,6.5-6.5v-38.6c0-3.6-2.9-6.5-6.5-6.5H417z"/>
			</g>
		</g>
		<g>
			<g>
				
					<rect x="509.4" y="386.4" transform="matrix(0.7071 0.7071 -0.7071 0.7071 446.9469 -238.071)" fill="#BCBEC0" width="3" height="68.1"/>
			</g>
			<g>
				
					<rect x="476.8" y="419" transform="matrix(0.7071 0.7071 -0.7071 0.7071 446.9535 -238.0717)" fill="#BCBEC0" width="68.1" height="3"/>
			</g>
			<g>
				<path fill="#939598" d="M530.1,449.8h-38.6c-5.2,0-9.5-4.3-9.5-9.5v-38.6c0-5.2,4.3-9.5,9.5-9.5h38.6c5.2,0,9.5,4.3,9.5,9.5
					v38.6C539.6,445.5,535.4,449.8,530.1,449.8z M491.6,395.2c-3.6,0-6.5,2.9-6.5,6.5v38.6c0,3.6,2.9,6.5,6.5,6.5h38.6
					c3.6,0,6.5-2.9,6.5-6.5v-38.6c0-3.6-2.9-6.5-6.5-6.5H491.6z"/>
			</g>
		</g>
	</g>
	<g>
		<g>
			<g>
				
					<rect x="285.6" y="475" transform="matrix(0.7071 0.7071 -0.7071 0.7071 444.0529 -53.9496)" fill="#BCBEC0" width="3" height="68.1"/>
			</g>
			<g>
				
					<rect x="253.1" y="507.5" transform="matrix(0.7071 0.7071 -0.7071 0.7071 444.0529 -53.9496)" fill="#BCBEC0" width="68.1" height="3"/>
			</g>
			<g>
				<path fill="#939598" d="M306.4,538.3h-38.6c-5.2,0-9.5-4.3-9.5-9.5v-38.6c0-5.2,4.3-9.5,9.5-9.5h38.6c5.2,0,9.5,4.3,9.5,9.5
					v38.6C315.9,534.1,311.7,538.3,306.4,538.3z M267.9,483.8c-3.6,0-6.5,2.9-6.5,6.5v38.6c0,3.6,2.9,6.5,6.5,6.5h38.6
					c3.6,0,6.5-2.9,6.5-6.5v-38.6c0-3.6-2.9-6.5-6.5-6.5H267.9z"/>
			</g>
		</g>
	</g>
	<g>
		<rect x="239" y="92" fill="#939598" width="320" height="17.2"/>
	</g>
	<g>
		<circle fill="#FFFFFF" cx="251.3" cy="100.3" r="3"/>
	</g>
	<g>
		<circle fill="#FFFFFF" cx="261.7" cy="100.3" r="3"/>
	</g>
	<g>
		<circle fill="#FFFFFF" cx="272" cy="100.3" r="3"/>
	</g>
	<g>
		<circle fill="#FFFFFF" cx="282.4" cy="100.3" r="3"/>
	</g>
	<g>
		<path fill="#FFFFFF" d="M292.8,103.8c-1.9,0-3.5-1.6-3.5-3.5s1.6-3.5,3.5-3.5s3.5,1.6,3.5,3.5S294.7,103.8,292.8,103.8z
			 M292.8,97.8c-1.4,0-2.5,1.1-2.5,2.5s1.1,2.5,2.5,2.5s2.5-1.1,2.5-2.5S294.1,97.8,292.8,97.8z"/>
	</g>
	<g>
		<path fill="#FFFFFF" d="M385.3,96.5v1.1l-2.8,5.4H381l3-5.3h-3.2v-1.1H385.3z"/>
		<path fill="#FFFFFF" d="M386.2,99.7c-0.2-0.1-0.2-0.3-0.2-0.6s0.1-0.4,0.2-0.6c0.2-0.2,0.3-0.2,0.6-0.2s0.4,0.1,0.6,0.2
			c0.2,0.2,0.2,0.3,0.2,0.6s-0.1,0.4-0.2,0.6c-0.2,0.1-0.4,0.2-0.6,0.2S386.4,99.9,386.2,99.7z M386.2,102.7
			c-0.2-0.1-0.2-0.3-0.2-0.6c0-0.2,0.1-0.4,0.2-0.6s0.3-0.2,0.6-0.2s0.4,0.1,0.6,0.2s0.2,0.3,0.2,0.6c0,0.2-0.1,0.4-0.2,0.6
			s-0.4,0.2-0.6,0.2S386.4,102.8,386.2,102.7z"/>
		<path fill="#FFFFFF" d="M392.9,96.4v4.1h1.1v1h-1.1v1.4h-1.2v-1.4h-3.3v-0.9l3.3-4.2H392.9z M389.8,100.7h2v-2.5L389.8,100.7z"/>
		<path fill="#FFFFFF" d="M396.3,99c0.4-0.1,0.7-0.1,1-0.1c0.7,0,1.2,0.2,1.6,0.5s0.6,0.8,0.6,1.4c0,0.7-0.2,1.2-0.7,1.6
			c-0.5,0.4-1.1,0.7-1.8,0.7c-0.7,0-1.3-0.2-1.7-0.5c-0.4-0.4-0.7-0.9-0.7-1.5h1.2c0,0.3,0.1,0.6,0.3,0.8c0.2,0.2,0.5,0.2,0.9,0.2
			s0.6-0.1,0.9-0.3c0.2-0.2,0.3-0.5,0.3-0.9c0-0.7-0.4-1-1.3-1h-2l0.3-3.3h3.9v1.1h-2.8L396.3,99z"/>
		<path fill="#FFFFFF" d="M404.9,96.5h1.5l2.1,6.5h-1.2l-0.5-1.4h-2.4L404,103h-1.2L404.9,96.5z M404.7,100.7h1.8l-0.9-2.8
			L404.7,100.7z"/>
		<path fill="#FFFFFF" d="M411.4,96.5l1.8,3.9l1.8-3.9h1.6v6.5h-1.2v-4.9l-1.8,4.2h-0.8l-1.9-4.4v5.1h-1.2v-6.5H411.4z"/>
	</g>
	<g>
		<rect x="526.3" y="97" fill="#FFFFFF" width="17.7" height="6.7"/>
	</g>
	<g>
		<path fill="#FFFFFF" d="M551.8,104.2h-26v-7.7h26v1.7l1,0v4.5l-1,0.1V104.2z M526.8,103.2h24v-1.3l1-0.1v-2.5l-1,0v-1.7h-24V103.2
			z"/>
	</g>
	<g opacity="0.4">
		<rect x="239" y="92" fill="#808285" width="320" height="496"/>
		<path fill="#939598" d="M559.5,588.5h-321v-497h321V588.5z M239.5,587.5h319v-495h-319V587.5z"/>
	</g>
	<g>
		<g>
			<path fill="#FFFFFF" d="M539,437.5H259c-2.2,0-4-1.8-4-4v-200c0-2.2,1.8-4,4-4h280c2.2,0,4,1.8,4,4v200
				C543,435.8,541.2,437.5,539,437.5z"/>
			<path fill="#939598" d="M539,438H259c-2.5,0-4.5-2-4.5-4.5v-200c0-2.5,2-4.5,4.5-4.5h280c2.5,0,4.5,2,4.5,4.5v200
				C543.5,436,541.5,438,539,438z M259,230.1c-1.9,0-3.5,1.6-3.5,3.5v200c0,1.9,1.6,3.5,3.5,3.5h280c1.9,0,3.5-1.6,3.5-3.5v-200
				c0-1.9-1.6-3.5-3.5-3.5H259z"/>
		</g>
		<g>
			<path fill="#58595B" d="M304.3,254.2c0.6,0,1.2,0.1,1.7,0.2c0.5,0.2,0.9,0.4,1.2,0.6c0.7,0.5,1.1,1.3,1.3,2.3l-2,0.4
				c-0.2-0.5-0.4-1-0.8-1.3s-0.8-0.5-1.3-0.5c-0.7,0-1.3,0.3-1.8,0.9c-0.5,0.7-0.7,1.6-0.7,2.7s0.2,2.1,0.6,2.7c0.4,0.7,1,1,1.7,1
				c0.7,0,1.3-0.2,1.7-0.5c0.4-0.4,0.6-0.8,0.6-1.4h2c0,1.2-0.4,2.1-1.1,2.7s-1.8,1-3,1c-1.4,0-2.5-0.5-3.3-1.4
				c-0.8-1-1.2-2.3-1.2-4c0-1.7,0.4-3,1.3-4C301.9,254.7,302.9,254.2,304.3,254.2z"/>
			<path fill="#58595B" d="M310.7,253.9h1.9v11h-1.9V253.9z"/>
			<path fill="#58595B" d="M315.5,254.5c0-0.3,0.1-0.6,0.3-0.8c0.2-0.2,0.5-0.3,0.9-0.3c0.4,0,0.6,0.1,0.9,0.3
				c0.2,0.2,0.3,0.5,0.3,0.8c0,0.3-0.1,0.6-0.3,0.8c-0.2,0.2-0.5,0.3-0.9,0.3c-0.4,0-0.7-0.1-0.9-0.3
				C315.6,255.2,315.5,254.9,315.5,254.5z M315.7,257h1.9v7.8h-1.9V257z"/>
			<path fill="#58595B" d="M327.7,258.5c0.5-1.1,1.4-1.7,2.6-1.7c0.9,0,1.6,0.3,2.2,0.9c0.5,0.6,0.7,1.4,0.7,2.5v4.5h-1.9v-4.5
				c0-0.6-0.1-1-0.4-1.3c-0.3-0.3-0.7-0.4-1.2-0.4c-0.5,0-0.9,0.2-1.2,0.7c-0.3,0.4-0.5,1.1-0.5,2v3.6h-1.9v-4.5
				c0-0.6-0.1-1-0.4-1.3c-0.3-0.3-0.7-0.4-1.2-0.4c-0.5,0-0.9,0.2-1.3,0.7s-0.5,1.1-0.6,2v3.6h-1.9v-7.8h1.6l0.2,1.3
				c0.5-1,1.3-1.6,2.5-1.6c0.7,0,1.2,0.1,1.6,0.4C327.2,257.6,327.5,258,327.7,258.5z"/>
			<path fill="#58595B" d="M342.5,258c0.7,0.7,1,1.7,1,2.9s-0.3,2.2-1,3c-0.7,0.8-1.5,1.1-2.5,1.1c-0.5,0-0.9-0.1-1.3-0.4
				c-0.4-0.3-0.7-0.7-1-1.2l-0.5,1.3H336v-11h1.9v4.2c0.5-0.8,1.2-1.2,2.2-1.2S341.8,257.2,342.5,258z M337.9,260.5v1
				c0,0.5,0.2,1,0.6,1.3c0.4,0.3,0.8,0.5,1.3,0.5s0.9-0.2,1.3-0.7c0.4-0.4,0.5-1,0.5-1.8c0-0.7-0.2-1.3-0.5-1.7
				c-0.4-0.4-0.8-0.6-1.3-0.6s-1,0.2-1.3,0.5C338,259.4,337.9,259.9,337.9,260.5z"/>
			<path fill="#58595B" d="M345.7,254.5c0-0.3,0.1-0.6,0.3-0.8c0.2-0.2,0.5-0.3,0.9-0.3c0.4,0,0.6,0.1,0.9,0.3s0.3,0.5,0.3,0.8
				c0,0.3-0.1,0.6-0.3,0.8c-0.2,0.2-0.5,0.3-0.9,0.3c-0.4,0-0.7-0.1-0.9-0.3C345.8,255.2,345.7,254.9,345.7,254.5z M346,257h1.9v7.8
				H346V257z"/>
			<path fill="#58595B" d="M352.9,258.4c0.5-1,1.3-1.6,2.5-1.6c1,0,1.7,0.3,2.2,0.9c0.5,0.6,0.7,1.5,0.7,2.5v4.5h-1.9v-4.5
				c0-0.6-0.1-1-0.4-1.3c-0.3-0.3-0.7-0.4-1.2-0.4c-0.5,0-0.9,0.2-1.3,0.7s-0.5,1.1-0.6,2v3.6H351v-7.8h1.6L352.9,258.4z"/>
			<path fill="#58595B" d="M361.7,261.7c-0.6-0.5-0.9-1.2-0.9-2c0-0.8,0.3-1.5,1-2c0.6-0.5,1.4-0.8,2.2-0.8c0.8,0,1.5,0.2,2.1,0.5
				c0.1-0.6,0.3-1.1,0.8-1.5c0.4-0.4,1-0.6,1.6-0.6l-0.1,1.8c-0.9,0-1.4,0.3-1.4,0.9c0.4,0.5,0.6,1,0.6,1.5s-0.1,0.9-0.3,1.3
				c-0.2,0.3-0.4,0.6-0.7,0.9c-0.6,0.5-1.4,0.8-2.3,0.8c-0.5,0-1-0.1-1.4-0.2c-0.4,0.1-0.6,0.4-0.6,0.8c0,0.5,0.4,0.7,1.2,0.7h2.6
				c1.8,0,2.7,0.6,2.7,1.9c0,0.4-0.1,0.8-0.3,1.2c-0.2,0.4-0.5,0.8-0.9,1.1c-0.9,0.7-2,1-3.3,1c-1.3,0-2.3-0.3-3.1-0.8
				c-0.7-0.5-1.1-1.1-1.1-1.8c0-0.5,0.1-0.9,0.4-1.1c0.3-0.3,0.7-0.5,1.2-0.5c-0.6-0.4-0.9-0.9-0.9-1.4c0-0.4,0.1-0.7,0.4-0.9
				C361,261.9,361.3,261.8,361.7,261.7z M363.1,265c-1,0-1.5,0.4-1.5,1.1c0,0.4,0.2,0.7,0.6,0.9c0.4,0.2,0.9,0.3,1.5,0.3
				c0.6,0,1,0,1.4-0.1s0.6-0.2,0.8-0.4c0.5-0.3,0.7-0.7,0.7-1.2c0-0.2-0.1-0.3-0.2-0.5c-0.1-0.1-0.3-0.2-0.6-0.2H363.1z
				 M365.6,259.6c0-0.4-0.1-0.8-0.4-1.1c-0.2-0.3-0.6-0.4-1.1-0.4c-0.5,0-0.9,0.1-1.1,0.4c-0.3,0.3-0.4,0.6-0.4,1.1s0.1,0.8,0.4,1.1
				c0.3,0.3,0.6,0.4,1.1,0.4c0.5,0,0.9-0.1,1.1-0.4S365.6,260.1,365.6,259.6z"/>
			<path fill="#58595B" d="M375.3,254.5l2.3,7.9l2.2-7.2h1.3l2.4,7.2l2.4-7.9h2.1l-3.6,10.4h-2l-2-5.9l-1.9,5.9h-2l-3.4-10.4H375.3z
				"/>
			<path fill="#58595B" d="M395.2,259.2c0.1,0.4,0.2,0.9,0.2,1.2c0,0.4,0,0.7-0.1,1h-5c0,0.6,0.2,1.1,0.5,1.5s0.7,0.6,1.3,0.6
				c0.8,0,1.2-0.3,1.4-1h1.9c-0.1,0.8-0.5,1.4-1.1,1.8c-0.6,0.5-1.3,0.7-2.2,0.7c-1,0-1.9-0.4-2.6-1.1c-0.7-0.8-1.1-1.8-1.1-3
				c0-1.2,0.4-2.3,1.1-3c0.7-0.7,1.5-1.1,2.6-1.1c1.1,0,1.9,0.4,2.5,1.1C394.9,258.3,395.1,258.7,395.2,259.2z M392.1,258.4
				c-0.5,0-1,0.2-1.2,0.5c-0.3,0.3-0.5,0.8-0.5,1.3h3.3c0-0.8-0.3-1.4-0.8-1.7C392.6,258.4,392.4,258.4,392.1,258.4z"/>
			<path fill="#58595B" d="M400.2,260.3c0.6,0,1.3,0.1,2.1,0.3v-0.8c0-0.5-0.1-0.9-0.3-1.2s-0.6-0.4-1.1-0.4s-0.9,0.1-1.1,0.3
				s-0.4,0.5-0.4,0.8h-2.1c0-0.9,0.3-1.5,0.9-1.9s1.5-0.6,2.6-0.6c1.6,0,2.6,0.6,3.1,1.7c0.2,0.4,0.2,0.8,0.2,1.4v4.9h-1.6l-0.1-1
				c-0.5,0.8-1.3,1.3-2.3,1.3c-1,0-1.8-0.2-2.3-0.7c-0.5-0.5-0.8-1.1-0.8-1.8s0.3-1.3,0.8-1.7S399.2,260.3,400.2,260.3z
				 M402.4,261.8c-0.6-0.2-1.2-0.3-1.8-0.3c-1,0-1.5,0.3-1.5,1c0,0.3,0.1,0.5,0.4,0.7s0.6,0.3,1.1,0.3s0.9-0.2,1.3-0.5
				C402.2,262.8,402.3,262.3,402.4,261.8z"/>
			<path fill="#58595B" d="M411.4,264.6c-0.7,0.3-1.3,0.4-1.7,0.4s-0.8,0-1.1-0.1c-0.3-0.1-0.6-0.2-0.8-0.4c-0.5-0.4-0.7-1-0.7-1.8
				v-4.4H406v-1.3h1.1v-2h1.9v2h2.1v1.3H409v4.3c0,0.6,0.3,1,0.9,1c0.3,0,0.7-0.1,1.2-0.3L411.4,264.6z"/>
			<path fill="#58595B" d="M415.2,258.3c0.5-1,1.3-1.5,2.3-1.5c1,0,1.8,0.3,2.3,0.9c0.5,0.6,0.7,1.5,0.7,2.5v4.5h-1.9v-4.5
				c0-0.6-0.1-1-0.4-1.3c-0.3-0.3-0.7-0.4-1.2-0.4c-0.5,0-0.9,0.2-1.3,0.7s-0.5,1.1-0.6,2v3.6h-1.9v-11h1.9V258.3z"/>
			<path fill="#58595B" d="M429.3,259.2c0.1,0.4,0.2,0.9,0.2,1.2c0,0.4,0,0.7-0.1,1h-5c0,0.6,0.2,1.1,0.5,1.5s0.7,0.6,1.3,0.6
				c0.8,0,1.2-0.3,1.4-1h1.9c-0.1,0.8-0.5,1.4-1.1,1.8c-0.6,0.5-1.3,0.7-2.2,0.7c-1,0-1.9-0.4-2.6-1.1c-0.7-0.8-1.1-1.8-1.1-3
				c0-1.2,0.4-2.3,1.1-3c0.7-0.7,1.5-1.1,2.6-1.1c1.1,0,1.9,0.4,2.5,1.1C429,258.3,429.2,258.7,429.3,259.2z M426.2,258.4
				c-0.5,0-0.9,0.2-1.2,0.5s-0.5,0.8-0.5,1.3h3.3c0-0.8-0.3-1.4-0.8-1.7C426.7,258.4,426.5,258.4,426.2,258.4z"/>
			<path fill="#58595B" d="M433.6,258.6c0.5-1.1,1.2-1.7,2.1-1.7c0.2,0,0.4,0,0.7,0.1l0,1.9c-0.3-0.1-0.6-0.1-0.9-0.1
				c-1.3,0-1.9,0.9-1.9,2.6v3.4h-1.9V257h1.9V258.6z"/>
			<path fill="#58595B" d="M446.2,254.2c0.6,0,1.2,0.1,1.7,0.2c0.5,0.2,0.9,0.4,1.2,0.6c0.7,0.5,1.1,1.3,1.3,2.3l-2,0.4
				c-0.2-0.5-0.4-1-0.8-1.3c-0.4-0.3-0.8-0.5-1.3-0.5c-0.7,0-1.3,0.3-1.8,0.9c-0.5,0.7-0.7,1.6-0.7,2.7s0.2,2.1,0.6,2.7
				c0.4,0.7,1,1,1.7,1c0.7,0,1.3-0.2,1.7-0.5s0.6-0.8,0.6-1.4h2c0,1.2-0.4,2.1-1.1,2.7c-0.7,0.6-1.8,1-3,1c-1.4,0-2.5-0.5-3.3-1.4
				c-0.8-1-1.2-2.3-1.2-4c0-1.7,0.4-3,1.3-4C443.8,254.7,444.9,254.2,446.2,254.2z"/>
			<path fill="#58595B" d="M454.5,258.3c0.5-1,1.3-1.5,2.3-1.5c1,0,1.8,0.3,2.3,0.9c0.5,0.6,0.7,1.5,0.7,2.5v4.5h-1.9v-4.5
				c0-0.6-0.1-1-0.4-1.3c-0.3-0.3-0.7-0.4-1.2-0.4c-0.5,0-0.9,0.2-1.3,0.7s-0.5,1.1-0.6,2v3.6h-1.9v-11h1.9V258.3z"/>
			<path fill="#58595B" d="M465.1,260.3c0.6,0,1.3,0.1,2.1,0.3v-0.8c0-0.5-0.1-0.9-0.3-1.2s-0.6-0.4-1.1-0.4s-0.9,0.1-1.1,0.3
				s-0.4,0.5-0.4,0.8h-2.1c0-0.9,0.3-1.5,0.9-1.9s1.5-0.6,2.6-0.6c1.6,0,2.6,0.6,3.1,1.7c0.2,0.4,0.2,0.8,0.2,1.4v4.9h-1.6l-0.1-1
				c-0.5,0.8-1.3,1.3-2.3,1.3c-1,0-1.8-0.2-2.3-0.7c-0.5-0.5-0.8-1.1-0.8-1.8s0.3-1.3,0.8-1.7S464.2,260.3,465.1,260.3z
				 M467.3,261.8c-0.6-0.2-1.2-0.3-1.8-0.3c-1,0-1.5,0.3-1.5,1c0,0.3,0.1,0.5,0.4,0.7c0.2,0.2,0.6,0.3,1.1,0.3
				c0.5,0,0.9-0.2,1.3-0.5C467.1,262.8,467.3,262.3,467.3,261.8z"/>
			<path fill="#58595B" d="M473.8,258.4c0.5-1,1.3-1.6,2.5-1.6c1,0,1.7,0.3,2.2,0.9c0.5,0.6,0.7,1.5,0.7,2.5v4.5h-1.9v-4.5
				c0-0.6-0.1-1-0.4-1.3c-0.3-0.3-0.7-0.4-1.2-0.4c-0.5,0-0.9,0.2-1.3,0.7s-0.5,1.1-0.6,2v3.6h-1.9v-7.8h1.6L473.8,258.4z"/>
			<path fill="#58595B" d="M482.6,261.7c-0.6-0.5-0.9-1.2-0.9-2c0-0.8,0.3-1.5,1-2c0.6-0.5,1.4-0.8,2.2-0.8c0.8,0,1.5,0.2,2.1,0.5
				c0.1-0.6,0.3-1.1,0.8-1.5c0.4-0.4,1-0.6,1.6-0.6l-0.1,1.8c-0.9,0-1.4,0.3-1.4,0.9c0.4,0.5,0.6,1,0.6,1.5s-0.1,0.9-0.3,1.3
				s-0.4,0.6-0.7,0.9c-0.6,0.5-1.4,0.8-2.3,0.8c-0.5,0-1-0.1-1.4-0.2c-0.4,0.1-0.6,0.4-0.6,0.8c0,0.5,0.4,0.7,1.2,0.7h2.6
				c1.8,0,2.7,0.6,2.7,1.9c0,0.4-0.1,0.8-0.3,1.2c-0.2,0.4-0.5,0.8-0.9,1.1c-0.9,0.7-2,1-3.3,1c-1.3,0-2.3-0.3-3.1-0.8
				c-0.7-0.5-1.1-1.1-1.1-1.8c0-0.5,0.1-0.9,0.4-1.1s0.7-0.5,1.2-0.5c-0.6-0.4-0.9-0.9-0.9-1.4c0-0.4,0.1-0.7,0.4-0.9
				C481.9,261.9,482.2,261.8,482.6,261.7z M484,265c-1,0-1.5,0.4-1.5,1.1c0,0.4,0.2,0.7,0.6,0.9c0.4,0.2,0.9,0.3,1.5,0.3
				s1,0,1.4-0.1c0.3-0.1,0.6-0.2,0.8-0.4c0.5-0.3,0.7-0.7,0.7-1.2c0-0.2-0.1-0.3-0.2-0.5c-0.1-0.1-0.3-0.2-0.6-0.2H484z
				 M486.4,259.6c0-0.4-0.1-0.8-0.4-1.1c-0.2-0.3-0.6-0.4-1.1-0.4c-0.5,0-0.9,0.1-1.1,0.4c-0.3,0.3-0.4,0.6-0.4,1.1s0.1,0.8,0.4,1.1
				s0.6,0.4,1.1,0.4c0.5,0,0.9-0.1,1.1-0.4C486.3,260.4,486.4,260.1,486.4,259.6z"/>
			<path fill="#58595B" d="M497.2,259.2c0.1,0.4,0.2,0.9,0.2,1.2c0,0.4,0,0.7-0.1,1h-5c0,0.6,0.2,1.1,0.5,1.5s0.7,0.6,1.3,0.6
				c0.8,0,1.2-0.3,1.4-1h1.9c-0.1,0.8-0.5,1.4-1.1,1.8c-0.6,0.5-1.3,0.7-2.2,0.7c-1,0-1.9-0.4-2.6-1.1c-0.7-0.8-1.1-1.8-1.1-3
				c0-1.2,0.4-2.3,1.1-3c0.7-0.7,1.5-1.1,2.6-1.1c1.1,0,1.9,0.4,2.5,1.1C496.9,258.3,497.1,258.7,497.2,259.2z M494.1,258.4
				c-0.5,0-1,0.2-1.2,0.5c-0.3,0.3-0.5,0.8-0.5,1.3h3.3c0-0.8-0.3-1.4-0.8-1.7C494.7,258.4,494.4,258.4,494.1,258.4z"/>
			<path fill="#6D6E71" d="M275.9,294.7v3.6h4v-3.6h1v8.2h-1v-3.7h-4v3.7h-1v-8.2H275.9z"/>
			<path fill="#6D6E71" d="M285.7,302.1c0.9,0,1.3-0.4,1.5-1.1h1.1c-0.1,0.6-0.4,1.1-0.8,1.5c-0.5,0.3-1,0.5-1.7,0.5
				c-0.8,0-1.5-0.3-2-0.9c-0.5-0.6-0.8-1.4-0.8-2.4s0.3-1.8,0.8-2.4c0.5-0.6,1.2-0.9,2.1-0.9s1.5,0.3,2,1c0.4,0.7,0.6,1.5,0.4,2.5
				H284c0,0.6,0.2,1.2,0.5,1.6C284.7,301.9,285.2,302.1,285.7,302.1z M286.5,297.4c-0.2-0.1-0.4-0.2-0.7-0.2c-0.5,0-0.9,0.2-1.3,0.5
				c-0.3,0.4-0.5,0.8-0.5,1.3h3.3C287.3,298.3,287,297.7,286.5,297.4z"/>
			<path fill="#6D6E71" d="M294.1,298.8c0-0.6-0.1-1-0.4-1.2c-0.2-0.2-0.6-0.4-1-0.4s-0.8,0.1-1.1,0.3c-0.3,0.2-0.4,0.5-0.4,0.8
				h-1.1c0-1,0.5-1.5,1.5-1.8c0.3-0.1,0.7-0.1,1-0.1c0.8,0,1.4,0.2,1.8,0.6c0.4,0.4,0.6,1,0.6,1.8v4h-0.9l-0.1-1
				c-0.4,0.8-1.1,1.2-2.1,1.2c-0.7,0-1.2-0.2-1.6-0.6c-0.4-0.4-0.6-0.8-0.6-1.4s0.2-1,0.7-1.3c0.4-0.3,1-0.5,1.7-0.5
				c0.7,0,1.3,0.1,1.9,0.3V298.8z M294.1,300.2c-0.6-0.2-1.2-0.3-1.6-0.3c-0.5,0-0.8,0.1-1.1,0.2c-0.3,0.2-0.4,0.4-0.4,0.8
				c0,0.8,0.4,1.2,1.3,1.2c0.5,0,0.9-0.2,1.3-0.5C294,301.3,294.1,300.8,294.1,300.2z"/>
			<path fill="#6D6E71" d="M301.6,297.5V294h1v8.9h-0.8l-0.1-1c-0.2,0.4-0.5,0.7-0.8,0.9s-0.7,0.3-1.1,0.3c-0.8,0-1.4-0.3-2-0.9
				s-0.8-1.4-0.8-2.4c0-1,0.3-1.8,0.8-2.3c0.5-0.6,1.2-0.9,2-0.9C300.6,296.5,301.2,296.8,301.6,297.5z M299.9,297.4
				c-0.5,0-0.9,0.2-1.3,0.6c-0.3,0.4-0.5,1-0.5,1.7c0,0.7,0.2,1.3,0.5,1.7c0.3,0.4,0.8,0.6,1.2,0.6s0.9-0.2,1.2-0.5
				c0.3-0.3,0.5-0.8,0.5-1.3v-1c0-0.6-0.2-1-0.5-1.4S300.4,297.4,299.9,297.4z"/>
			<path fill="#6D6E71" d="M305.6,296.9c0.4-0.3,1-0.5,1.8-0.5s1.3,0.2,1.7,0.5c0.4,0.3,0.6,0.7,0.7,1.2h-1
				c-0.1-0.6-0.6-0.8-1.4-0.8c-0.4,0-0.8,0.1-1,0.3c-0.2,0.2-0.3,0.4-0.3,0.6c0,0.2,0.1,0.4,0.3,0.6s0.5,0.3,0.8,0.4l1.2,0.4
				c0.5,0.2,0.9,0.4,1.2,0.6c0.3,0.3,0.4,0.6,0.4,1.1s-0.2,0.8-0.7,1.2c-0.5,0.4-1.1,0.5-1.9,0.5c-0.8,0-1.5-0.2-1.9-0.6
				c-0.5-0.4-0.7-0.8-0.7-1.4h1c0,0.4,0.2,0.7,0.5,0.9c0.3,0.2,0.7,0.3,1.1,0.3s0.8-0.1,1.1-0.3c0.3-0.2,0.4-0.4,0.4-0.7
				c0-0.3-0.1-0.5-0.3-0.6c-0.2-0.1-0.5-0.3-0.8-0.4l-1.2-0.4c-1.1-0.3-1.6-0.9-1.6-1.7C305,297.6,305.2,297.2,305.6,296.9z"/>
			<path fill="#6D6E71" d="M319.5,301.6c-0.4,0.9-1.1,1.4-2.1,1.4c-0.7,0-1.3-0.2-1.7-0.6c-0.4-0.4-0.6-1-0.6-1.8v-4h1v3.9
				c0,1,0.5,1.6,1.5,1.6c0.6,0,1-0.2,1.4-0.6c0.4-0.4,0.5-1,0.6-1.7v-3.1h1v6.2h-1V301.6z"/>
			<path fill="#6D6E71" d="M324.1,297.6c0.4-0.7,1-1.1,1.8-1.1s1.5,0.3,2,0.9c0.5,0.6,0.8,1.4,0.8,2.4c0,1-0.3,1.8-0.8,2.4
				s-1.2,0.9-2,0.9c-0.8,0-1.4-0.3-1.8-0.9v3.8h-1v-9.3h0.8L324.1,297.6z M325.9,302.1c0.5,0,0.9-0.2,1.3-0.6s0.6-1,0.6-1.7
				s-0.2-1.3-0.5-1.7c-0.4-0.4-0.8-0.6-1.3-0.6s-0.9,0.2-1.2,0.5c-0.3,0.3-0.5,0.7-0.5,1.3v1.2c0,0.5,0.2,1,0.5,1.3
				C325,301.9,325.4,302.1,325.9,302.1z"/>
			<path fill="#6D6E71" d="M333.1,298.6h3.5v0.9h-3.5V298.6z"/>
			<path fill="#6D6E71" d="M344.8,302.7c-0.7,0.3-1.4,0.4-2,0.2c-0.4-0.1-0.8-0.4-0.9-0.9c-0.1-0.2-0.1-0.5-0.1-0.8v-3.8h-1v-0.8h1
				v-1.7h1v1.7h2v0.8h-2v3.8c0,0.6,0.3,0.9,0.9,0.9c0.3,0,0.7-0.1,1.1-0.2L344.8,302.7z"/>
			<path fill="#6D6E71" d="M347.5,297.8c0.4-0.9,1.1-1.3,2.1-1.3c0.7,0,1.3,0.2,1.7,0.7c0.4,0.5,0.6,1.1,0.6,2v3.7h-1v-3.7
				c0-0.6-0.1-1-0.4-1.4s-0.7-0.5-1.2-0.5c-0.5,0-1,0.2-1.3,0.7s-0.5,1.1-0.5,1.9v2.9h-1V294h1V297.8z"/>
			<path fill="#6D6E71" d="M356.4,302.1c0.9,0,1.3-0.4,1.5-1.1h1.1c-0.1,0.6-0.4,1.1-0.8,1.5c-0.5,0.3-1,0.5-1.7,0.5
				c-0.8,0-1.5-0.3-2-0.9c-0.5-0.6-0.8-1.4-0.8-2.4s0.3-1.8,0.8-2.4c0.5-0.6,1.2-0.9,2.1-0.9s1.5,0.3,2,1c0.4,0.7,0.6,1.5,0.4,2.5
				h-4.3c0,0.6,0.2,1.2,0.5,1.6C355.4,301.9,355.9,302.1,356.4,302.1z M357.2,297.4c-0.2-0.1-0.4-0.2-0.7-0.2
				c-0.5,0-0.9,0.2-1.3,0.5c-0.3,0.4-0.5,0.8-0.5,1.3h3.3C358,298.3,357.7,297.7,357.2,297.4z"/>
			<path fill="#6D6E71" d="M364.1,296.6l1.5,5l1.5-4.7h0.9l1.5,4.7l1.5-5h1l-2,6.2h-1l-1.4-4.4l-1.4,4.4h-1l-2.1-6.2H364.1z"/>
			<path fill="#6D6E71" d="M375.7,302.1c0.9,0,1.3-0.4,1.5-1.1h1.1c-0.1,0.6-0.4,1.1-0.8,1.5c-0.5,0.3-1,0.5-1.7,0.5
				c-0.8,0-1.5-0.3-2-0.9c-0.5-0.6-0.8-1.4-0.8-2.4s0.3-1.8,0.8-2.4c0.5-0.6,1.2-0.9,2.1-0.9c0.9,0,1.5,0.3,2,1
				c0.4,0.7,0.6,1.5,0.4,2.5h-4.3c0,0.6,0.2,1.2,0.5,1.6C374.7,301.9,375.1,302.1,375.7,302.1z M376.4,297.4
				c-0.2-0.1-0.4-0.2-0.7-0.2c-0.5,0-0.9,0.2-1.3,0.5c-0.3,0.4-0.5,0.8-0.5,1.3h3.3C377.2,298.3,376.9,297.7,376.4,297.4z"/>
			<path fill="#6D6E71" d="M384.1,298.8c0-0.6-0.1-1-0.4-1.2c-0.2-0.2-0.6-0.4-1-0.4s-0.8,0.1-1.1,0.3c-0.3,0.2-0.4,0.5-0.4,0.8
				h-1.1c0-1,0.5-1.5,1.5-1.8c0.3-0.1,0.6-0.1,1-0.1c0.8,0,1.4,0.2,1.8,0.6c0.4,0.4,0.7,1,0.7,1.8v4h-0.9l-0.1-1
				c-0.4,0.8-1.1,1.2-2.1,1.2c-0.7,0-1.2-0.2-1.6-0.6c-0.4-0.4-0.6-0.8-0.6-1.4s0.2-1,0.7-1.3c0.4-0.3,1-0.5,1.7-0.5
				c0.7,0,1.3,0.1,1.9,0.3V298.8z M384.1,300.2c-0.6-0.2-1.2-0.3-1.6-0.3c-0.5,0-0.8,0.1-1.1,0.2c-0.3,0.2-0.4,0.4-0.4,0.8
				c0,0.8,0.4,1.2,1.3,1.2c0.5,0,0.9-0.2,1.3-0.5S384.1,300.8,384.1,300.2z"/>
			<path fill="#6D6E71" d="M390.7,302.7c-0.7,0.3-1.4,0.4-2,0.2c-0.4-0.1-0.8-0.4-0.9-0.9c-0.1-0.2-0.1-0.5-0.1-0.8v-3.8h-1v-0.8h1
				v-1.7h1v1.7h2v0.8h-2v3.8c0,0.6,0.3,0.9,0.9,0.9c0.3,0,0.7-0.1,1.1-0.2L390.7,302.7z"/>
			<path fill="#6D6E71" d="M393.4,297.8c0.4-0.9,1.1-1.3,2.1-1.3c0.7,0,1.3,0.2,1.7,0.7c0.4,0.5,0.6,1.1,0.6,2v3.7h-1v-3.7
				c0-0.6-0.1-1-0.4-1.4s-0.7-0.5-1.2-0.5c-0.5,0-1,0.2-1.3,0.7s-0.5,1.1-0.5,1.9v2.9h-1V294h1V297.8z"/>
			<path fill="#6D6E71" d="M402.4,302.1c0.9,0,1.3-0.4,1.5-1.1h1.1c-0.1,0.6-0.4,1.1-0.8,1.5c-0.5,0.3-1,0.5-1.7,0.5
				c-0.8,0-1.5-0.3-2-0.9c-0.5-0.6-0.8-1.4-0.8-2.4s0.3-1.8,0.8-2.4c0.5-0.6,1.2-0.9,2.1-0.9s1.5,0.3,2,1c0.4,0.7,0.6,1.5,0.4,2.5
				h-4.3c0,0.6,0.2,1.2,0.5,1.6C401.4,301.9,401.8,302.1,402.4,302.1z M403.1,297.4c-0.2-0.1-0.4-0.2-0.7-0.2
				c-0.5,0-0.9,0.2-1.3,0.5c-0.3,0.4-0.5,0.8-0.5,1.3h3.3C403.9,298.3,403.7,297.7,403.1,297.4z"/>
			<path fill="#6D6E71" d="M409.5,297.5c-1,0-1.5,0.8-1.5,2.3v3h-1v-6.2h1v1.2c0.3-0.9,0.9-1.3,1.7-1.3c0.3,0,0.5,0,0.7,0.1l-0.1,1
				C410,297.5,409.7,297.5,409.5,297.5z"/>
			<path fill="#6D6E71" d="M415.5,295.2c-0.2,0-0.4-0.1-0.5-0.2s-0.2-0.3-0.2-0.5c0-0.2,0.1-0.4,0.2-0.5c0.1-0.1,0.3-0.2,0.5-0.2
				s0.4,0.1,0.5,0.2c0.1,0.1,0.2,0.3,0.2,0.5c0,0.2-0.1,0.4-0.2,0.5S415.7,295.2,415.5,295.2z M415,296.6h1v6.2h-1V296.6z"/>
			<path fill="#6D6E71" d="M419.2,296.9c0.4-0.3,1-0.5,1.8-0.5s1.3,0.2,1.7,0.5c0.4,0.3,0.6,0.7,0.7,1.2h-1
				c-0.1-0.6-0.6-0.8-1.4-0.8c-0.4,0-0.8,0.1-1,0.3c-0.2,0.2-0.3,0.4-0.3,0.6c0,0.2,0.1,0.4,0.3,0.6s0.5,0.3,0.8,0.4l1.2,0.4
				c0.5,0.2,0.9,0.4,1.2,0.6c0.3,0.3,0.4,0.6,0.4,1.1s-0.2,0.8-0.7,1.2c-0.5,0.4-1.1,0.5-1.9,0.5c-0.8,0-1.5-0.2-1.9-0.6
				c-0.5-0.4-0.7-0.8-0.7-1.4h1c0,0.4,0.2,0.7,0.5,0.9c0.3,0.2,0.7,0.3,1.1,0.3s0.8-0.1,1.1-0.3c0.3-0.2,0.4-0.4,0.4-0.7
				c0-0.3-0.1-0.5-0.3-0.6c-0.2-0.1-0.5-0.3-0.8-0.4l-1.2-0.4c-1.1-0.3-1.6-0.9-1.6-1.7C418.5,297.6,418.7,297.2,419.2,296.9z"/>
			<path fill="#6D6E71" d="M426.7,297.8c0.4-0.9,1.1-1.4,2.1-1.4c0.7,0,1.3,0.2,1.7,0.7c0.4,0.5,0.6,1.1,0.6,2v3.7h-1v-3.7
				c0-0.6-0.1-1-0.4-1.4c-0.3-0.3-0.7-0.5-1.2-0.5c-0.5,0-0.9,0.2-1.3,0.6c-0.3,0.4-0.5,1-0.5,1.8v3.1h-1v-6.2h0.9L426.7,297.8z"/>
			<path fill="#6D6E71" d="M432.9,294.9c0.1-0.1,0.3-0.2,0.6-0.2s0.5,0.1,0.6,0.3c0.2,0.2,0.2,0.4,0.2,0.7c0,0.3-0.1,0.6-0.3,0.9
				c-0.2,0.3-0.5,0.6-0.9,0.8l-0.7-0.4c0.5-0.3,0.9-0.6,1-1c-0.2,0-0.4-0.1-0.5-0.2c-0.1-0.1-0.2-0.3-0.2-0.5S432.8,295,432.9,294.9
				z"/>
			<path fill="#6D6E71" d="M439.6,302.7c-0.7,0.3-1.4,0.4-2,0.2c-0.4-0.1-0.8-0.4-0.9-0.9c-0.1-0.2-0.1-0.5-0.1-0.8v-3.8h-1v-0.8h1
				v-1.7h1v1.7h2v0.8h-2v3.8c0,0.6,0.3,0.9,0.9,0.9c0.3,0,0.7-0.1,1.1-0.2L439.6,302.7z"/>
			<path fill="#6D6E71" d="M444.3,294h1v8.9h-1V294z"/>
			<path fill="#6D6E71" d="M450.2,296.5c0.9,0,1.6,0.3,2.1,0.8c0.5,0.6,0.8,1.4,0.8,2.4c0,1-0.3,1.8-0.8,2.4
				c-0.5,0.6-1.2,0.8-2.1,0.8c-0.9,0-1.6-0.3-2.1-0.8c-0.5-0.6-0.8-1.4-0.8-2.4c0-1,0.3-1.9,0.8-2.4
				C448.6,296.7,449.3,296.5,450.2,296.5z M452,299.7c0-0.7-0.2-1.3-0.5-1.7c-0.3-0.4-0.8-0.6-1.4-0.6s-1.1,0.2-1.4,0.6
				c-0.3,0.4-0.5,1-0.5,1.7s0.2,1.3,0.5,1.7c0.3,0.4,0.8,0.6,1.4,0.6s1.1-0.2,1.4-0.6C451.9,301,452,300.5,452,299.7z"/>
			<path fill="#6D6E71" d="M457.3,296.5c0.9,0,1.6,0.3,2.1,0.8c0.5,0.6,0.8,1.4,0.8,2.4c0,1-0.3,1.8-0.8,2.4
				c-0.5,0.6-1.2,0.8-2.1,0.8c-0.9,0-1.6-0.3-2.1-0.8c-0.5-0.6-0.8-1.4-0.8-2.4c0-1,0.3-1.9,0.8-2.4
				C455.7,296.7,456.4,296.5,457.3,296.5z M459.1,299.7c0-0.7-0.2-1.3-0.5-1.7c-0.3-0.4-0.8-0.6-1.4-0.6s-1.1,0.2-1.4,0.6
				c-0.3,0.4-0.5,1-0.5,1.7s0.2,1.3,0.5,1.7c0.3,0.4,0.8,0.6,1.4,0.6s1.1-0.2,1.4-0.6C459,301,459.1,300.5,459.1,299.7z"/>
			<path fill="#6D6E71" d="M464,299.5l-0.8,0.7v2.6h-1V294h1v5.1l3-2.5h1.4l-2.9,2.3l3,3.9h-1.3L464,299.5z"/>
			<path fill="#6D6E71" d="M470,295.2c-0.2,0-0.4-0.1-0.5-0.2s-0.2-0.3-0.2-0.5c0-0.2,0.1-0.4,0.2-0.5c0.1-0.1,0.3-0.2,0.5-0.2
				s0.4,0.1,0.5,0.2c0.1,0.1,0.2,0.3,0.2,0.5c0,0.2-0.1,0.4-0.2,0.5S470.2,295.2,470,295.2z M469.5,296.6h1v6.2h-1V296.6z"/>
			<path fill="#6D6E71" d="M474.3,297.8c0.4-0.9,1.1-1.4,2.1-1.4c0.7,0,1.3,0.2,1.7,0.7c0.4,0.5,0.6,1.1,0.6,2v3.7h-1v-3.7
				c0-0.6-0.1-1-0.4-1.4c-0.3-0.3-0.7-0.5-1.2-0.5c-0.5,0-0.9,0.2-1.3,0.6c-0.3,0.4-0.5,1-0.5,1.8v3.1h-1v-6.2h0.9L474.3,297.8z"/>
			<path fill="#6D6E71" d="M481.4,302.6c-0.5-0.3-0.8-0.6-0.8-1.2c0-0.3,0.1-0.5,0.3-0.7c0.2-0.2,0.5-0.3,0.8-0.4
				c-0.5-0.4-0.7-1-0.7-1.6c0-0.7,0.2-1.2,0.7-1.6c0.5-0.4,1.1-0.6,1.7-0.6c0.7,0,1.2,0.2,1.7,0.5c0.1-0.5,0.2-0.8,0.6-1.1
				s0.7-0.4,1.2-0.4l-0.1,1c-0.8,0-1.2,0.3-1.2,1c0.3,0.4,0.5,0.8,0.5,1.3c0,0.7-0.2,1.2-0.7,1.6c-0.5,0.4-1.1,0.6-1.8,0.6
				c-0.5,0-0.9-0.1-1.3-0.3c-0.2,0-0.3,0.1-0.5,0.2c-0.1,0.1-0.2,0.3-0.2,0.5c0,0.5,0.4,0.7,1.1,0.7h2.4c0.6,0,1,0.1,1.4,0.4
				s0.5,0.6,0.5,1c0,0.7-0.3,1.2-1,1.7s-1.5,0.7-2.5,0.7c-1,0-1.8-0.2-2.4-0.6c-0.6-0.4-0.9-0.9-0.9-1.4c0-0.4,0.1-0.7,0.3-0.9
				C480.8,302.9,481.1,302.7,481.4,302.6z M481.2,304c0,0.3,0.2,0.6,0.5,0.9c0.4,0.2,0.9,0.4,1.6,0.4s1.3-0.2,1.8-0.5
				s0.7-0.7,0.7-1.1c0-0.2-0.1-0.4-0.2-0.5c-0.1-0.1-0.4-0.2-0.7-0.2h-2.5c-0.4,0-0.8,0.1-1,0.3C481.4,303.4,481.2,303.7,481.2,304z
				 M485.1,298.7c0-0.4-0.1-0.8-0.4-1.1c-0.3-0.3-0.6-0.4-1.1-0.4s-0.8,0.1-1.1,0.4c-0.3,0.3-0.4,0.6-0.4,1.1c0,0.5,0.1,0.8,0.4,1.1
				c0.3,0.3,0.6,0.4,1.1,0.4s0.8-0.1,1.1-0.4S485.1,299.2,485.1,298.7z"/>
			<path fill="#6D6E71" d="M491.9,302.6c-0.5-0.3-0.8-0.6-0.8-1.2c0-0.3,0.1-0.5,0.3-0.7c0.2-0.2,0.5-0.3,0.8-0.4
				c-0.5-0.4-0.7-1-0.7-1.6c0-0.7,0.2-1.2,0.7-1.6c0.5-0.4,1.1-0.6,1.7-0.6c0.7,0,1.2,0.2,1.7,0.5c0.1-0.5,0.2-0.8,0.6-1.1
				s0.7-0.4,1.2-0.4l-0.1,1c-0.8,0-1.2,0.3-1.2,1c0.3,0.4,0.5,0.8,0.5,1.3c0,0.7-0.2,1.2-0.7,1.6c-0.5,0.4-1.1,0.6-1.8,0.6
				c-0.5,0-0.9-0.1-1.3-0.3c-0.2,0-0.3,0.1-0.5,0.2c-0.1,0.1-0.2,0.3-0.2,0.5c0,0.5,0.4,0.7,1.1,0.7h2.4c0.6,0,1,0.1,1.4,0.4
				s0.5,0.6,0.5,1c0,0.7-0.3,1.2-1,1.7s-1.5,0.7-2.5,0.7c-1,0-1.8-0.2-2.4-0.6c-0.6-0.4-0.9-0.9-0.9-1.4c0-0.4,0.1-0.7,0.3-0.9
				C491.2,302.9,491.5,302.7,491.9,302.6z M491.7,304c0,0.3,0.2,0.6,0.5,0.9c0.4,0.2,0.9,0.4,1.6,0.4s1.3-0.2,1.8-0.5
				s0.7-0.7,0.7-1.1c0-0.2-0.1-0.4-0.2-0.5c-0.1-0.1-0.4-0.2-0.7-0.2h-2.5c-0.4,0-0.8,0.1-1,0.3C491.8,303.4,491.7,303.7,491.7,304z
				 M495.5,298.7c0-0.4-0.1-0.8-0.4-1.1c-0.3-0.3-0.6-0.4-1.1-0.4s-0.8,0.1-1.1,0.4c-0.3,0.3-0.4,0.6-0.4,1.1c0,0.5,0.1,0.8,0.4,1.1
				c0.3,0.3,0.6,0.4,1.1,0.4s0.8-0.1,1.1-0.4S495.5,299.2,495.5,298.7z"/>
			<path fill="#6D6E71" d="M501.5,297.5c-1,0-1.5,0.8-1.5,2.3v3h-1v-6.2h1v1.2c0.3-0.9,0.9-1.3,1.7-1.3c0.3,0,0.5,0,0.7,0.1l-0.1,1
				C502,297.5,501.8,297.5,501.5,297.5z"/>
			<path fill="#6D6E71" d="M506.1,302.1c0.9,0,1.3-0.4,1.5-1.1h1.1c-0.1,0.6-0.4,1.1-0.8,1.5c-0.5,0.3-1,0.5-1.7,0.5
				c-0.8,0-1.5-0.3-2-0.9c-0.5-0.6-0.8-1.4-0.8-2.4s0.3-1.8,0.8-2.4c0.5-0.6,1.2-0.9,2.1-0.9c0.9,0,1.5,0.3,2,1
				c0.4,0.7,0.6,1.5,0.4,2.5h-4.3c0,0.6,0.2,1.2,0.5,1.6C505.1,301.9,505.5,302.1,506.1,302.1z M506.8,297.4
				c-0.2-0.1-0.4-0.2-0.7-0.2c-0.5,0-0.9,0.2-1.3,0.5c-0.3,0.4-0.5,0.8-0.5,1.3h3.3C507.6,298.3,507.3,297.7,506.8,297.4z"/>
			<path fill="#6D6E71" d="M514.5,298.8c0-0.6-0.1-1-0.4-1.2c-0.2-0.2-0.6-0.4-1-0.4s-0.8,0.1-1.1,0.3c-0.3,0.2-0.4,0.5-0.4,0.8
				h-1.1c0-1,0.5-1.5,1.5-1.8c0.3-0.1,0.6-0.1,1-0.1c0.8,0,1.4,0.2,1.8,0.6c0.4,0.4,0.7,1,0.7,1.8v4h-0.9l-0.1-1
				c-0.4,0.8-1.1,1.2-2.1,1.2c-0.7,0-1.2-0.2-1.6-0.6c-0.4-0.4-0.6-0.8-0.6-1.4s0.2-1,0.7-1.3c0.4-0.3,1-0.5,1.7-0.5
				c0.7,0,1.3,0.1,1.9,0.3V298.8z M514.5,300.2c-0.6-0.2-1.2-0.3-1.6-0.3c-0.5,0-0.8,0.1-1.1,0.2c-0.3,0.2-0.4,0.4-0.4,0.8
				c0,0.8,0.4,1.2,1.3,1.2c0.5,0,0.9-0.2,1.3-0.5S514.5,300.8,514.5,300.2z"/>
			<path fill="#6D6E71" d="M521.1,302.7c-0.7,0.3-1.4,0.4-2,0.2c-0.4-0.1-0.8-0.4-0.9-0.9c-0.1-0.2-0.1-0.5-0.1-0.8v-3.8h-1v-0.8h1
				v-1.7h1v1.7h2v0.8h-2v3.8c0,0.6,0.3,0.9,0.9,0.9c0.3,0,0.7-0.1,1.1-0.2L521.1,302.7z"/>
			<path fill="#6D6E71" d="M275.5,313.2c-0.2,0-0.4-0.1-0.5-0.2s-0.2-0.3-0.2-0.5c0-0.2,0.1-0.4,0.2-0.5c0.1-0.1,0.3-0.2,0.5-0.2
				s0.4,0.1,0.5,0.2c0.1,0.1,0.2,0.3,0.2,0.5c0,0.2-0.1,0.4-0.2,0.5S275.7,313.2,275.5,313.2z M275,314.6h1v6.2h-1V314.6z"/>
			<path fill="#6D6E71" d="M279.8,315.8c0.4-0.9,1.1-1.4,2.1-1.4c0.7,0,1.3,0.2,1.7,0.7c0.4,0.5,0.6,1.1,0.6,2v3.7h-1v-3.7
				c0-0.6-0.1-1-0.4-1.4c-0.3-0.3-0.7-0.5-1.2-0.5c-0.5,0-0.9,0.2-1.3,0.6c-0.3,0.4-0.5,1-0.5,1.8v3.1h-1v-6.2h0.9L279.8,315.8z"/>
			<path fill="#6D6E71" d="M292,320.4c-0.4,0.4-0.9,0.6-1.5,0.6s-1.3-0.2-2-0.5v-1.1c0.6,0.4,1.2,0.6,1.7,0.6s0.9-0.1,1.1-0.4
				c0.2-0.3,0.3-0.6,0.3-1.1v-5.8h1v5.8C292.6,319.4,292.4,320,292,320.4z"/>
			<path fill="#6D6E71" d="M298.8,316.8c0-0.6-0.1-1-0.4-1.2c-0.2-0.2-0.6-0.4-1-0.4s-0.8,0.1-1.1,0.3c-0.3,0.2-0.4,0.5-0.4,0.8
				h-1.1c0-1,0.5-1.5,1.5-1.8c0.3-0.1,0.7-0.1,1-0.1c0.8,0,1.4,0.2,1.8,0.6c0.4,0.4,0.6,1,0.6,1.8v4H299l-0.1-1
				c-0.4,0.8-1.1,1.2-2.1,1.2c-0.7,0-1.2-0.2-1.6-0.6c-0.4-0.4-0.6-0.8-0.6-1.4s0.2-1,0.7-1.3c0.4-0.3,1-0.5,1.7-0.5
				c0.7,0,1.3,0.1,1.9,0.3V316.8z M298.8,318.2c-0.6-0.2-1.2-0.3-1.6-0.3c-0.5,0-0.8,0.1-1.1,0.2c-0.3,0.2-0.4,0.4-0.4,0.8
				c0,0.8,0.4,1.2,1.3,1.2c0.5,0,0.9-0.2,1.3-0.5C298.6,319.3,298.8,318.8,298.8,318.2z"/>
			<path fill="#6D6E71" d="M304.3,314.5c0.7,0,1.3,0.2,1.7,0.6s0.7,0.8,0.8,1.4l-1,0.1c-0.1-0.4-0.3-0.6-0.5-0.9
				c-0.3-0.2-0.5-0.3-0.8-0.3c-0.6,0-1,0.2-1.3,0.6c-0.3,0.4-0.5,1-0.5,1.7s0.2,1.3,0.5,1.7s0.8,0.7,1.2,0.7s0.9-0.1,1.1-0.3
				s0.4-0.6,0.4-1h1.1c0,0.7-0.2,1.2-0.7,1.6c-0.5,0.4-1.1,0.6-1.8,0.6c-0.8,0-1.5-0.3-2-0.9c-0.6-0.6-0.8-1.4-0.8-2.4
				s0.3-1.8,0.8-2.4C303,314.8,303.6,314.5,304.3,314.5z"/>
			<path fill="#6D6E71" d="M310.8,317.5l-0.8,0.7v2.6h-1V312h1v5.1l3-2.5h1.4l-2.9,2.3l3,3.9h-1.3L310.8,317.5z"/>
			<path fill="#6D6E71" d="M316.6,314.9c0.4-0.3,1-0.5,1.8-0.5s1.3,0.2,1.7,0.5c0.4,0.3,0.6,0.7,0.7,1.2h-1
				c-0.1-0.6-0.6-0.8-1.4-0.8c-0.4,0-0.8,0.1-1,0.3c-0.2,0.2-0.3,0.4-0.3,0.6c0,0.2,0.1,0.4,0.3,0.6s0.5,0.3,0.8,0.4l1.2,0.4
				c0.5,0.2,0.9,0.4,1.2,0.6c0.3,0.3,0.4,0.6,0.4,1.1s-0.2,0.8-0.7,1.2c-0.5,0.4-1.1,0.5-1.9,0.5c-0.8,0-1.5-0.2-1.9-0.6
				c-0.5-0.4-0.7-0.8-0.7-1.4h1c0,0.4,0.2,0.7,0.5,0.9c0.3,0.2,0.7,0.3,1.1,0.3s0.8-0.1,1.1-0.3c0.3-0.2,0.4-0.4,0.4-0.7
				c0-0.3-0.1-0.5-0.3-0.6c-0.2-0.1-0.5-0.3-0.8-0.4l-1.2-0.4c-1.1-0.3-1.6-0.9-1.6-1.7C316,315.6,316.2,315.2,316.6,314.9z"/>
			<path fill="#6D6E71" d="M325.4,314.5c0.9,0,1.6,0.3,2.1,0.8c0.5,0.6,0.8,1.4,0.8,2.4c0,1-0.3,1.8-0.8,2.4
				c-0.5,0.6-1.2,0.8-2.1,0.8c-0.9,0-1.6-0.3-2.1-0.8c-0.5-0.6-0.8-1.4-0.8-2.4c0-1,0.3-1.9,0.8-2.4
				C323.8,314.7,324.5,314.5,325.4,314.5z M327.2,317.7c0-0.7-0.2-1.3-0.5-1.7c-0.3-0.4-0.8-0.6-1.4-0.6s-1.1,0.2-1.4,0.6
				c-0.3,0.4-0.5,1-0.5,1.7s0.2,1.3,0.5,1.7c0.3,0.4,0.8,0.6,1.4,0.6s1.1-0.2,1.4-0.6C327.1,319,327.2,318.5,327.2,317.7z"/>
			<path fill="#6D6E71" d="M331.2,315.8c0.4-0.9,1.1-1.4,2.1-1.4c0.7,0,1.3,0.2,1.7,0.7c0.4,0.5,0.6,1.1,0.6,2v3.7h-1v-3.7
				c0-0.6-0.1-1-0.4-1.4c-0.3-0.3-0.7-0.5-1.2-0.5c-0.5,0-0.9,0.2-1.3,0.6c-0.3,0.4-0.5,1-0.5,1.8v3.1h-1v-6.2h0.9L331.2,315.8z"/>
			<path fill="#6D6E71" d="M341.2,312.7h5v0.9h-3.9v2.7h3.7v0.9h-3.7v3.7h-1V312.7z"/>
			<path fill="#6D6E71" d="M351.5,316.8c0-0.6-0.1-1-0.4-1.2c-0.2-0.2-0.6-0.4-1-0.4s-0.8,0.1-1.1,0.3c-0.3,0.2-0.4,0.5-0.4,0.8
				h-1.1c0-1,0.5-1.5,1.5-1.8c0.3-0.1,0.7-0.1,1-0.1c0.8,0,1.4,0.2,1.8,0.6c0.4,0.4,0.6,1,0.6,1.8v4h-0.9l-0.1-1
				c-0.4,0.8-1.1,1.2-2.1,1.2c-0.7,0-1.2-0.2-1.6-0.6c-0.4-0.4-0.6-0.8-0.6-1.4s0.2-1,0.7-1.3c0.4-0.3,1-0.5,1.7-0.5
				c0.7,0,1.3,0.1,1.9,0.3V316.8z M351.5,318.2c-0.6-0.2-1.2-0.3-1.6-0.3c-0.5,0-0.8,0.1-1.1,0.2c-0.3,0.2-0.4,0.4-0.4,0.8
				c0,0.8,0.4,1.2,1.3,1.2c0.5,0,0.9-0.2,1.3-0.5C351.3,319.3,351.5,318.8,351.5,318.2z"/>
			<path fill="#6D6E71" d="M354.9,312h1v8.9h-1V312z"/>
			<path fill="#6D6E71" d="M358.6,312h1v8.9h-1V312z"/>
			<path fill="#6D6E71" d="M362.5,314.9c0.4-0.3,1-0.5,1.8-0.5c0.7,0,1.3,0.2,1.7,0.5c0.4,0.3,0.6,0.7,0.7,1.2h-1
				c-0.1-0.6-0.6-0.8-1.4-0.8c-0.4,0-0.8,0.1-1,0.3c-0.2,0.2-0.3,0.4-0.3,0.6c0,0.2,0.1,0.4,0.3,0.6c0.2,0.2,0.5,0.3,0.8,0.4
				l1.2,0.4c0.5,0.2,0.9,0.4,1.2,0.6s0.4,0.6,0.4,1.1s-0.2,0.8-0.7,1.2c-0.5,0.4-1.1,0.5-1.9,0.5s-1.5-0.2-1.9-0.6
				c-0.5-0.4-0.7-0.8-0.7-1.4h1c0,0.4,0.2,0.7,0.5,0.9c0.3,0.2,0.7,0.3,1.1,0.3c0.5,0,0.8-0.1,1.1-0.3c0.3-0.2,0.4-0.4,0.4-0.7
				c0-0.3-0.1-0.5-0.3-0.6c-0.2-0.1-0.5-0.3-0.8-0.4l-1.2-0.4c-1.1-0.3-1.6-0.9-1.6-1.7C361.9,315.6,362.1,315.2,362.5,314.9z"/>
			<path fill="#6D6E71" d="M375.4,320.7c-0.7,0.3-1.4,0.4-2,0.2c-0.4-0.1-0.8-0.4-0.9-0.9c-0.1-0.2-0.1-0.5-0.1-0.8v-3.8h-1v-0.8h1
				v-1.7h1v1.7h2v0.8h-2v3.8c0,0.6,0.3,0.9,0.9,0.9c0.3,0,0.7-0.1,1.1-0.2L375.4,320.7z"/>
			<path fill="#6D6E71" d="M378.1,315.8c0.4-0.9,1.1-1.3,2.1-1.3c0.7,0,1.3,0.2,1.7,0.7c0.4,0.5,0.6,1.1,0.6,2v3.7h-1v-3.7
				c0-0.6-0.1-1-0.4-1.4c-0.3-0.3-0.7-0.5-1.2-0.5s-1,0.2-1.3,0.7c-0.3,0.4-0.5,1.1-0.5,1.9v2.9h-1V312h1V315.8z"/>
			<path fill="#6D6E71" d="M385.5,313.2c-0.2,0-0.4-0.1-0.5-0.2s-0.2-0.3-0.2-0.5c0-0.2,0.1-0.4,0.2-0.5c0.1-0.1,0.3-0.2,0.5-0.2
				s0.4,0.1,0.5,0.2c0.1,0.1,0.2,0.3,0.2,0.5c0,0.2-0.1,0.4-0.2,0.5S385.7,313.2,385.5,313.2z M384.9,314.6h1v6.2h-1V314.6z"/>
			<path fill="#6D6E71" d="M389.1,314.9c0.4-0.3,1-0.5,1.8-0.5s1.3,0.2,1.7,0.5c0.4,0.3,0.6,0.7,0.7,1.2h-1
				c-0.1-0.6-0.6-0.8-1.4-0.8c-0.4,0-0.8,0.1-1,0.3c-0.2,0.2-0.3,0.4-0.3,0.6c0,0.2,0.1,0.4,0.3,0.6s0.5,0.3,0.8,0.4l1.2,0.4
				c0.5,0.2,0.9,0.4,1.2,0.6c0.3,0.3,0.4,0.6,0.4,1.1s-0.2,0.8-0.7,1.2c-0.5,0.4-1.1,0.5-1.9,0.5c-0.8,0-1.5-0.2-1.9-0.6
				c-0.5-0.4-0.7-0.8-0.7-1.4h1c0,0.4,0.2,0.7,0.5,0.9c0.3,0.2,0.7,0.3,1.1,0.3s0.8-0.1,1.1-0.3c0.3-0.2,0.4-0.4,0.4-0.7
				c0-0.3-0.1-0.5-0.3-0.6c-0.2-0.1-0.5-0.3-0.8-0.4l-1.2-0.4c-1.1-0.3-1.6-0.9-1.6-1.7C388.4,315.6,388.7,315.2,389.1,314.9z"/>
			<path fill="#6D6E71" d="M398.7,314.6l1.5,5l1.5-4.7h0.9l1.5,4.7l1.5-5h1l-2,6.2h-1l-1.4-4.4l-1.4,4.4h-1l-2.1-6.2H398.7z"/>
			<path fill="#6D6E71" d="M410.3,320.1c0.9,0,1.3-0.4,1.5-1.1h1.1c-0.1,0.6-0.4,1.1-0.8,1.5c-0.5,0.3-1,0.5-1.7,0.5
				c-0.8,0-1.5-0.3-2-0.9c-0.5-0.6-0.8-1.4-0.8-2.4s0.3-1.8,0.8-2.4c0.5-0.6,1.2-0.9,2.1-0.9c0.9,0,1.5,0.3,2,1
				c0.4,0.7,0.6,1.5,0.4,2.5h-4.3c0,0.6,0.2,1.2,0.5,1.6C409.3,319.9,409.7,320.1,410.3,320.1z M411,315.4c-0.2-0.1-0.4-0.2-0.7-0.2
				c-0.5,0-0.9,0.2-1.3,0.5c-0.3,0.4-0.5,0.8-0.5,1.3h3.3C411.8,316.3,411.6,315.7,411,315.4z"/>
			<path fill="#6D6E71" d="M417,320.1c0.9,0,1.3-0.4,1.5-1.1h1.1c-0.1,0.6-0.4,1.1-0.8,1.5c-0.5,0.3-1,0.5-1.7,0.5
				c-0.8,0-1.5-0.3-2-0.9c-0.5-0.6-0.8-1.4-0.8-2.4s0.3-1.8,0.8-2.4c0.5-0.6,1.2-0.9,2.1-0.9s1.5,0.3,2,1c0.4,0.7,0.6,1.5,0.4,2.5
				h-4.3c0,0.6,0.2,1.2,0.5,1.6C416,319.9,416.4,320.1,417,320.1z M417.7,315.4c-0.2-0.1-0.4-0.2-0.7-0.2c-0.5,0-0.9,0.2-1.3,0.5
				c-0.3,0.4-0.5,0.8-0.5,1.3h3.3C418.5,316.3,418.2,315.7,417.7,315.4z"/>
			<path fill="#6D6E71" d="M423.4,317.5l-0.8,0.7v2.6h-1V312h1v5.1l3-2.5h1.4l-2.9,2.3l3,3.9h-1.3L423.4,317.5z"/>
			<path fill="#6D6E71" d="M431,320.1c0.9,0,1.3-0.4,1.5-1.1h1.1c-0.1,0.6-0.4,1.1-0.8,1.5c-0.5,0.3-1,0.5-1.7,0.5
				c-0.8,0-1.5-0.3-2-0.9c-0.5-0.6-0.8-1.4-0.8-2.4s0.3-1.8,0.8-2.4c0.5-0.6,1.2-0.9,2.1-0.9c0.9,0,1.5,0.3,2,1
				c0.4,0.7,0.6,1.5,0.4,2.5h-4.3c0,0.6,0.2,1.2,0.5,1.6C430,319.9,430.4,320.1,431,320.1z M431.7,315.4c-0.2-0.1-0.4-0.2-0.7-0.2
				c-0.5,0-0.9,0.2-1.3,0.5c-0.3,0.4-0.5,0.8-0.5,1.3h3.3C432.5,316.3,432.3,315.7,431.7,315.4z"/>
			<path fill="#6D6E71" d="M436.5,315.8c0.4-0.9,1.1-1.4,2.1-1.4c0.7,0,1.3,0.2,1.7,0.7c0.4,0.5,0.6,1.1,0.6,2v3.7h-1v-3.7
				c0-0.6-0.1-1-0.4-1.4c-0.3-0.3-0.7-0.5-1.2-0.5c-0.5,0-0.9,0.2-1.3,0.6c-0.3,0.4-0.5,1-0.5,1.8v3.1h-1v-6.2h0.9L436.5,315.8z"/>
			<path fill="#6D6E71" d="M447.5,315.5V312h1v8.9h-0.8l-0.1-1c-0.2,0.4-0.5,0.7-0.8,0.9s-0.7,0.3-1.1,0.3c-0.8,0-1.4-0.3-2-0.9
				s-0.8-1.4-0.8-2.4c0-1,0.3-1.8,0.8-2.3c0.5-0.6,1.2-0.9,2-0.9C446.4,314.5,447,314.8,447.5,315.5z M445.7,315.4
				c-0.5,0-0.9,0.2-1.3,0.6c-0.3,0.4-0.5,1-0.5,1.7c0,0.7,0.2,1.3,0.5,1.7c0.3,0.4,0.8,0.6,1.2,0.6s0.9-0.2,1.2-0.5
				c0.3-0.3,0.5-0.8,0.5-1.3v-1c0-0.6-0.2-1-0.5-1.4S446.2,315.4,445.7,315.4z"/>
			<path fill="#6D6E71" d="M457.2,312.9c-0.3-0.1-0.5-0.2-0.7-0.2c-0.3,0-0.5,0.1-0.7,0.2c-0.2,0.1-0.3,0.4-0.3,0.8v0.9h1.3v0.7
				h-1.3v5.5h-1v-5.5h-1v-0.7h1v-0.9c0-0.6,0.2-1.1,0.5-1.4s0.7-0.4,1.2-0.4s0.8,0.1,1.2,0.2L457.2,312.9z"/>
			<path fill="#6D6E71" d="M460.9,314.5c0.9,0,1.6,0.3,2.1,0.8c0.5,0.6,0.8,1.4,0.8,2.4c0,1-0.3,1.8-0.8,2.4s-1.2,0.8-2.1,0.8
				c-0.9,0-1.6-0.3-2.1-0.8s-0.8-1.4-0.8-2.4c0-1,0.3-1.9,0.8-2.4C459.3,314.7,460,314.5,460.9,314.5z M462.8,317.7
				c0-0.7-0.2-1.3-0.5-1.7c-0.3-0.4-0.8-0.6-1.4-0.6s-1.1,0.2-1.4,0.6c-0.3,0.4-0.5,1-0.5,1.7s0.2,1.3,0.5,1.7
				c0.3,0.4,0.8,0.6,1.4,0.6c0.6,0,1.1-0.2,1.4-0.6C462.6,319,462.8,318.5,462.8,317.7z"/>
			<path fill="#6D6E71" d="M468.3,315.5c-1,0-1.5,0.8-1.5,2.3v3h-1v-6.2h1v1.2c0.3-0.9,0.9-1.3,1.7-1.3c0.3,0,0.5,0,0.7,0.1l-0.1,1
				C468.8,315.5,468.6,315.5,468.3,315.5z"/>
			<path fill="#6D6E71" d="M472.6,322.6c0.4,0.3,0.9,0.5,1.3,0.5c0.3,0,0.6-0.2,0.9-0.5c0.2-0.3,0.3-0.6,0.5-1.1l0.2-0.6l-2.5-6.2
				h1.1l1.9,5l1.5-5h1l-2.3,7.4c-0.2,0.6-0.5,1.1-0.8,1.5c-0.3,0.3-0.7,0.5-1.2,0.5s-1-0.2-1.6-0.5V322.6z"/>
			<path fill="#6D6E71" d="M482.3,314.5c0.9,0,1.6,0.3,2.1,0.8c0.5,0.6,0.8,1.4,0.8,2.4c0,1-0.3,1.8-0.8,2.4s-1.2,0.8-2.1,0.8
				c-0.9,0-1.6-0.3-2.1-0.8s-0.8-1.4-0.8-2.4c0-1,0.3-1.9,0.8-2.4C480.8,314.7,481.5,314.5,482.3,314.5z M484.2,317.7
				c0-0.7-0.2-1.3-0.5-1.7c-0.3-0.4-0.8-0.6-1.4-0.6s-1.1,0.2-1.4,0.6c-0.3,0.4-0.5,1-0.5,1.7s0.2,1.3,0.5,1.7
				c0.3,0.4,0.8,0.6,1.4,0.6c0.6,0,1.1-0.2,1.4-0.6C484,319,484.2,318.5,484.2,317.7z"/>
			<path fill="#6D6E71" d="M491.4,319.6c-0.4,0.9-1.1,1.4-2.1,1.4c-0.7,0-1.3-0.2-1.7-0.6c-0.4-0.4-0.6-1-0.6-1.8v-4h1v3.9
				c0,1,0.5,1.6,1.5,1.6c0.6,0,1-0.2,1.4-0.6c0.4-0.4,0.5-1,0.6-1.7v-3.1h1v6.2h-1V319.6z"/>
			<path fill="#6D6E71" d="M497.6,315.5c-1,0-1.5,0.8-1.5,2.3v3h-1v-6.2h1v1.2c0.3-0.9,0.9-1.3,1.7-1.3c0.3,0,0.5,0,0.7,0.1l-0.1,1
				C498.1,315.5,497.9,315.5,497.6,315.5z"/>
			<path fill="#6D6E71" d="M277,332.5c0.7,0,1.3,0.2,1.7,0.6c0.4,0.4,0.7,0.8,0.8,1.4l-1,0.1c-0.1-0.4-0.3-0.6-0.5-0.9
				c-0.3-0.2-0.5-0.3-0.8-0.3c-0.6,0-1,0.2-1.3,0.6c-0.3,0.4-0.5,1-0.5,1.7s0.2,1.3,0.5,1.7c0.3,0.4,0.7,0.7,1.2,0.7
				c0.5,0,0.9-0.1,1.1-0.3s0.4-0.6,0.4-1h1.1c0,0.7-0.2,1.2-0.7,1.6c-0.5,0.4-1.1,0.6-1.8,0.6c-0.8,0-1.5-0.3-2-0.9
				s-0.8-1.4-0.8-2.4s0.3-1.8,0.8-2.4C275.6,332.8,276.2,332.5,277,332.5z"/>
			<path fill="#6D6E71" d="M281.6,330h1v8.9h-1V330z"/>
			<path fill="#6D6E71" d="M285.8,331.2c-0.2,0-0.4-0.1-0.5-0.2s-0.2-0.3-0.2-0.5c0-0.2,0.1-0.4,0.2-0.5c0.1-0.1,0.3-0.2,0.5-0.2
				s0.4,0.1,0.5,0.2c0.1,0.1,0.2,0.3,0.2,0.5c0,0.2-0.1,0.4-0.2,0.5S286,331.2,285.8,331.2z M285.3,332.6h1v6.2h-1V332.6z"/>
			<path fill="#6D6E71" d="M290.1,333.8c0.4-0.9,1.1-1.4,2.1-1.4c0.5,0,1,0.1,1.4,0.4c0.4,0.3,0.6,0.6,0.8,1.1
				c0.4-1,1.1-1.5,2.2-1.5c0.7,0,1.3,0.2,1.7,0.7s0.6,1.1,0.6,2v3.7h-1v-3.7c0-0.6-0.1-1-0.4-1.4c-0.3-0.3-0.7-0.5-1.2-0.5
				c-0.5,0-0.9,0.2-1.2,0.7c-0.3,0.4-0.4,1-0.4,1.8v3h-1v-3.7c0-0.6-0.1-1-0.4-1.4c-0.3-0.3-0.7-0.5-1.2-0.5c-0.5,0-0.9,0.2-1.3,0.6
				c-0.3,0.4-0.5,1-0.5,1.8v3.1h-1v-6.2h0.9L290.1,333.8z"/>
			<path fill="#6D6E71" d="M302.3,333.5c0.4-0.7,1-1.1,1.8-1.1c0.8,0,1.5,0.3,2,0.9c0.5,0.6,0.8,1.4,0.8,2.4c0,1-0.3,1.8-0.8,2.4
				c-0.5,0.6-1.2,0.9-2,0.9c-0.4,0-0.8-0.1-1.1-0.3c-0.3-0.2-0.6-0.5-0.8-0.9l-0.2,1.1h-0.7V330h1V333.5z M304.1,333.4
				c-0.5,0-0.9,0.2-1.2,0.5c-0.3,0.3-0.5,0.8-0.5,1.3v1c0,0.6,0.2,1,0.5,1.4c0.3,0.3,0.8,0.5,1.2,0.5s0.9-0.2,1.3-0.6
				c0.4-0.4,0.5-1,0.5-1.7c0-0.7-0.2-1.3-0.5-1.7C305,333.6,304.6,333.4,304.1,333.4z"/>
			<path fill="#6D6E71" d="M309.4,331.2c-0.2,0-0.4-0.1-0.5-0.2s-0.2-0.3-0.2-0.5c0-0.2,0.1-0.4,0.2-0.5c0.1-0.1,0.3-0.2,0.5-0.2
				s0.4,0.1,0.5,0.2c0.1,0.1,0.2,0.3,0.2,0.5c0,0.2-0.1,0.4-0.2,0.5C309.8,331.1,309.7,331.2,309.4,331.2z M308.9,332.6h1v6.2h-1
				V332.6z"/>
			<path fill="#6D6E71" d="M313.8,333.8c0.4-0.9,1.1-1.4,2.1-1.4c0.7,0,1.3,0.2,1.7,0.7c0.4,0.5,0.6,1.1,0.6,2v3.7h-1v-3.7
				c0-0.6-0.1-1-0.4-1.4c-0.3-0.3-0.7-0.5-1.2-0.5c-0.5,0-0.9,0.2-1.3,0.6c-0.3,0.4-0.5,1-0.5,1.8v3.1h-1v-6.2h0.9L313.8,333.8z"/>
			<path fill="#6D6E71" d="M320.9,338.6c-0.5-0.3-0.8-0.6-0.8-1.2c0-0.3,0.1-0.5,0.3-0.7c0.2-0.2,0.5-0.3,0.8-0.4
				c-0.5-0.4-0.7-1-0.7-1.6c0-0.7,0.2-1.2,0.7-1.6c0.5-0.4,1.1-0.6,1.7-0.6c0.7,0,1.2,0.2,1.7,0.5c0.1-0.5,0.2-0.8,0.6-1.1
				s0.7-0.4,1.2-0.4l-0.1,1c-0.8,0-1.2,0.3-1.2,1c0.3,0.4,0.5,0.8,0.5,1.3c0,0.7-0.2,1.2-0.7,1.6c-0.5,0.4-1.1,0.6-1.8,0.6
				c-0.5,0-0.9-0.1-1.3-0.3c-0.2,0-0.3,0.1-0.5,0.2c-0.1,0.1-0.2,0.3-0.2,0.5c0,0.5,0.4,0.7,1.1,0.7h2.4c0.6,0,1,0.1,1.4,0.4
				s0.5,0.6,0.5,1c0,0.7-0.3,1.2-1,1.7s-1.5,0.7-2.5,0.7c-1,0-1.8-0.2-2.4-0.6c-0.6-0.4-0.9-0.9-0.9-1.4c0-0.4,0.1-0.7,0.3-0.9
				C320.2,338.9,320.5,338.7,320.9,338.6z M320.7,340c0,0.3,0.2,0.6,0.5,0.9s0.9,0.4,1.6,0.4c0.7,0,1.3-0.2,1.8-0.5
				c0.5-0.3,0.7-0.7,0.7-1.1c0-0.2-0.1-0.4-0.2-0.5c-0.1-0.1-0.4-0.2-0.7-0.2H322c-0.4,0-0.8,0.1-1,0.3
				C320.8,339.4,320.7,339.7,320.7,340z M324.5,334.7c0-0.4-0.1-0.8-0.4-1.1c-0.3-0.3-0.6-0.4-1.1-0.4c-0.5,0-0.8,0.1-1.1,0.4
				c-0.3,0.3-0.4,0.6-0.4,1.1c0,0.5,0.1,0.8,0.4,1.1c0.3,0.3,0.6,0.4,1.1,0.4c0.5,0,0.8-0.1,1.1-0.4S324.5,335.2,324.5,334.7z"/>
			<path fill="#6D6E71" d="M334.3,338.7c-0.7,0.3-1.4,0.4-2,0.2c-0.4-0.1-0.8-0.4-0.9-0.9c-0.1-0.2-0.1-0.5-0.1-0.8v-3.8h-1v-0.8h1
				v-1.7h1v1.7h2v0.8h-2v3.8c0,0.6,0.3,0.9,0.9,0.9c0.3,0,0.7-0.1,1.1-0.2L334.3,338.7z"/>
			<path fill="#6D6E71" d="M338.5,333.5c-1,0-1.5,0.8-1.5,2.3v3h-1v-6.2h1v1.2c0.3-0.9,0.9-1.3,1.7-1.3c0.3,0,0.5,0,0.7,0.1l-0.1,1
				C339,333.5,338.7,333.5,338.5,333.5z"/>
			<path fill="#6D6E71" d="M341.5,331.2c-0.2,0-0.4-0.1-0.5-0.2s-0.2-0.3-0.2-0.5c0-0.2,0.1-0.4,0.2-0.5c0.1-0.1,0.3-0.2,0.5-0.2
				s0.4,0.1,0.5,0.2c0.1,0.1,0.2,0.3,0.2,0.5c0,0.2-0.1,0.4-0.2,0.5C341.8,331.1,341.7,331.2,341.5,331.2z M340.9,332.6h1v6.2h-1
				V332.6z"/>
			<path fill="#6D6E71" d="M345.7,333.6c0.4-0.7,1-1.1,1.8-1.1c0.8,0,1.5,0.3,2,0.9c0.5,0.6,0.8,1.4,0.8,2.4c0,1-0.3,1.8-0.8,2.4
				s-1.2,0.9-2,0.9c-0.8,0-1.4-0.3-1.8-0.9v3.8h-1v-9.3h0.8L345.7,333.6z M347.5,338.1c0.5,0,0.9-0.2,1.3-0.6s0.6-1,0.6-1.7
				s-0.2-1.3-0.5-1.7c-0.4-0.4-0.8-0.6-1.3-0.6c-0.5,0-0.9,0.2-1.2,0.5s-0.5,0.7-0.5,1.3v1.2c0,0.5,0.2,1,0.5,1.3
				C346.6,337.9,347,338.1,347.5,338.1z"/>
			<path fill="#6D6E71" d="M352.3,339c-0.2,0-0.4-0.1-0.5-0.2c-0.1-0.1-0.2-0.3-0.2-0.5c0-0.2,0.1-0.4,0.2-0.5
				c0.1-0.1,0.3-0.2,0.5-0.2c0.2,0,0.4,0.1,0.6,0.2c0.1,0.1,0.2,0.3,0.2,0.5c0,0.2-0.1,0.4-0.2,0.5C352.7,338.9,352.5,339,352.3,339
				z"/>
		</g>
		<g>
			<g>
				<path fill="#F1F2F2" d="M387.8,406.7H275.6c-2.2,0-4-1.8-4-4v-31c0-2.2,1.8-4,4-4h112.1c2.2,0,4,1.8,4,4v31
					C391.8,404.9,390,406.7,387.8,406.7z"/>
				<path fill="#939598" d="M387.8,407.2H275.6c-2.5,0-4.5-2-4.5-4.5v-31c0-2.5,2-4.5,4.5-4.5h112.1c2.5,0,4.5,2,4.5,4.5v31
					C392.3,405.1,390.3,407.2,387.8,407.2z M275.6,368.2c-1.9,0-3.5,1.6-3.5,3.5v31c0,1.9,1.6,3.5,3.5,3.5h112.1
					c1.9,0,3.5-1.6,3.5-3.5v-31c0-1.9-1.6-3.5-3.5-3.5H275.6z"/>
			</g>
			<g>
				<path fill="#58595B" d="M327.1,382.1c0.6,0,1.2,0.1,1.7,0.3c0.5,0.2,0.9,0.5,1.3,0.9c0.8,0.8,1.1,2,1.1,3.5
					c0,1.5-0.4,2.7-1.1,3.6c-0.7,0.8-1.7,1.2-3,1.2c-1.3,0-2.2-0.4-3-1.2c-0.8-0.8-1.1-2-1.1-3.5c0-1.5,0.4-2.7,1.1-3.6
					C324.9,382.5,325.9,382.1,327.1,382.1z M329.5,386.8c0-1-0.2-1.8-0.7-2.4c-0.4-0.6-1-0.8-1.8-0.8s-1.3,0.3-1.8,0.8
					c-0.4,0.6-0.7,1.4-0.7,2.4c0,1,0.2,1.8,0.7,2.4c0.4,0.6,1,0.8,1.8,0.8s1.3-0.3,1.8-0.8C329.3,388.6,329.5,387.8,329.5,386.8z"/>
				<path fill="#58595B" d="M334.9,382.2v3.7l3.6-3.7h2.3l-4,4.1l4.3,5h-2.1l-3.2-3.8l-0.7,0.8v3.1h-1.7v-9.1H334.9z"/>
			</g>
			<g>
				<path fill="#F1F2F2" d="M525.6,406.7H413.5c-2.2,0-4-1.8-4-4v-31c0-2.2,1.8-4,4-4h112.1c2.2,0,4,1.8,4,4v31
					C529.6,404.9,527.8,406.7,525.6,406.7z"/>
				<path fill="#939598" d="M525.6,407.2H413.5c-2.5,0-4.5-2-4.5-4.5v-31c0-2.5,2-4.5,4.5-4.5h112.1c2.5,0,4.5,2,4.5,4.5v31
					C530.1,405.1,528.1,407.2,525.6,407.2z M413.5,368.2c-1.9,0-3.5,1.6-3.5,3.5v31c0,1.9,1.6,3.5,3.5,3.5h112.1
					c1.9,0,3.5-1.6,3.5-3.5v-31c0-1.9-1.6-3.5-3.5-3.5H413.5z"/>
			</g>
			<g>
				<path fill="#58595B" d="M442,382.2l2.2,7l2.2-7h1.7l-3.1,9.1h-1.7l-3.1-9.1H442z"/>
				<path fill="#58595B" d="M449.7,382.3c0-0.3,0.1-0.5,0.3-0.7c0.2-0.2,0.4-0.3,0.8-0.3c0.3,0,0.6,0.1,0.7,0.3s0.3,0.4,0.3,0.7
					s-0.1,0.5-0.3,0.7s-0.4,0.3-0.7,0.3c-0.3,0-0.6-0.1-0.8-0.3C449.8,382.9,449.7,382.6,449.7,382.3z M449.9,384.5h1.7v6.8h-1.7
					V384.5z"/>
				<path fill="#58595B" d="M459.7,386.4c0.1,0.4,0.2,0.8,0.2,1.1s0,0.6-0.1,0.9h-4.4c0,0.6,0.2,1,0.4,1.3c0.3,0.3,0.6,0.5,1.1,0.5
					c0.7,0,1.1-0.3,1.2-0.9h1.7c-0.1,0.7-0.4,1.2-0.9,1.6c-0.5,0.4-1.2,0.6-1.9,0.6c-0.9,0-1.6-0.3-2.3-1c-0.6-0.7-0.9-1.6-0.9-2.6
					c0-1.1,0.3-2,0.9-2.6c0.6-0.6,1.3-1,2.3-1c0.9,0,1.7,0.3,2.2,1C459.4,385.6,459.5,386,459.7,386.4z M456.9,385.7
					c-0.5,0-0.8,0.2-1.1,0.5s-0.4,0.7-0.5,1.2h2.9c0-0.7-0.2-1.2-0.7-1.5C457.4,385.7,457.2,385.7,456.9,385.7z"/>
				<path fill="#58595B" d="M462.4,384.5l1.4,4.9l1.3-4.5h1.5l1.3,4.5l1.4-4.9h1.7l-2.2,6.8h-1.6l-1.3-4.1l-1.2,4.1h-1.6l-2.3-6.8
					H462.4z"/>
				<path fill="#58595B" d="M479.8,391.2c-0.6,0.2-1.1,0.4-1.5,0.4c-0.4,0-0.7,0-0.9-0.1s-0.5-0.2-0.7-0.4c-0.4-0.4-0.6-0.9-0.6-1.6
					v-3.8h-1v-1.1h1v-1.8h1.7v1.8h1.8v1.1h-1.8v3.8c0,0.6,0.3,0.8,0.8,0.8c0.3,0,0.6-0.1,1.1-0.2L479.8,391.2z"/>
				<path fill="#58595B" d="M483.1,385.9c0.4-1,1-1.5,1.8-1.5c0.2,0,0.4,0,0.6,0.1l0,1.7c-0.3-0.1-0.5-0.1-0.8-0.1
					c-1.1,0-1.7,0.8-1.7,2.3v3h-1.7v-6.8h1.7V385.9z"/>
				<path fill="#58595B" d="M487.3,382.3c0-0.3,0.1-0.5,0.3-0.7s0.4-0.3,0.8-0.3c0.3,0,0.6,0.1,0.8,0.3c0.2,0.2,0.3,0.4,0.3,0.7
					s-0.1,0.5-0.3,0.7c-0.2,0.2-0.4,0.3-0.8,0.3c-0.3,0-0.6-0.1-0.8-0.3S487.3,382.6,487.3,382.3z M487.5,384.5h1.7v6.8h-1.7V384.5z
					"/>
				<path fill="#58595B" d="M493.4,385.5c0.4-0.7,1.1-1.1,2-1.1c0.8,0,1.6,0.3,2.2,1c0.6,0.7,1,1.5,1,2.6c0,1.1-0.3,2-1,2.6
					c-0.6,0.6-1.3,1-2.1,1c-0.8,0-1.4-0.2-1.8-0.7v3.9h-1.7v-10.1h1.4L493.4,385.5z M495.1,390c0.2,0,0.4,0,0.6-0.1s0.4-0.2,0.6-0.4
					c0.4-0.4,0.6-0.9,0.6-1.6c0-0.7-0.2-1.2-0.5-1.5c-0.3-0.4-0.7-0.6-1.2-0.6c-0.5,0-0.8,0.1-1.1,0.4c-0.3,0.3-0.5,0.6-0.5,1.1v1.2
					c0,0.4,0.2,0.8,0.5,1.1C494.3,389.9,494.7,390,495.1,390z"/>
			</g>
		</g>
	</g>
</g>
</svg>
