<?xml version="1.0" encoding="utf-8"?>
<!-- Generator: Adobe Illustrator 18.1.1, SVG Export Plug-In . SVG Version: 6.00 Build 0)  -->
<svg version="1.1" id="Layer_1" xmlns="http://www.w3.org/2000/svg" xmlns:xlink="http://www.w3.org/1999/xlink" x="0px" y="0px"
	 viewBox="0 0 800 700" enable-background="new 0 0 800 700" xml:space="preserve">
<g>
	<g>
		<rect x="239" y="92" fill="none" stroke="#939598" stroke-width="2" stroke-miterlimit="10" width="320" height="496"/>
		<path fill="none" stroke="#939598" stroke-width="2" stroke-miterlimit="10" d="M586,612.9c0,31-25.1,56.1-56.1,56.1H269.1
			c-31,0-56.1-25.1-56.1-56.1V66.1c0-31,25.1-56.1,56.1-56.1h260.8c31,0,56.1,25.1,56.1,56.1V612.9z"/>
		<circle fill="none" stroke="#939598" stroke-width="2" stroke-miterlimit="10" cx="341.2" cy="50.8" r="7"/>
		<circle fill="none" stroke="#939598" stroke-width="2" stroke-miterlimit="10" cx="399.8" cy="29.2" r="4.7"/>
		<path fill="none" stroke="#939598" stroke-width="2" stroke-miterlimit="10" d="M429,51c0,2.2-1.8,4-4,4h-52c-2.2,0-4-1.8-4-4v0
			c0-2.2,1.8-4,4-4h52C427.2,47,429,48.8,429,51L429,51z"/>
		<circle fill="none" stroke="#939598" stroke-width="2" stroke-miterlimit="10" cx="399.8" cy="625.2" r="28"/>
		<circle fill="none" stroke="#939598" stroke-width="2" stroke-miterlimit="10" cx="399.8" cy="625.2" r="23.3"/>
	</g>
	<g>
		<g>
			<line fill="none" stroke="#BCBEC0" stroke-width="3" stroke-miterlimit="10" x1="311.7" y1="130.7" x2="263.6" y2="178.8"/>
			<line fill="none" stroke="#BCBEC0" stroke-width="3" stroke-miterlimit="10" x1="311.7" y1="178.8" x2="263.6" y2="130.7"/>
			<path fill="none" stroke="#939598" stroke-width="3" stroke-miterlimit="10" d="M306.9,182.6h-38.6c-4.4,0-8-3.6-8-8V136
				c0-4.4,3.6-8,8-8h38.6c4.4,0,8,3.6,8,8v38.6C314.9,179,311.4,182.6,306.9,182.6z"/>
		</g>
		<g>
			<line fill="none" stroke="#BCBEC0" stroke-width="3" stroke-miterlimit="10" x1="386.3" y1="130.7" x2="338.2" y2="178.8"/>
			<line fill="none" stroke="#BCBEC0" stroke-width="3" stroke-miterlimit="10" x1="386.3" y1="178.8" x2="338.2" y2="130.7"/>
			<path fill="none" stroke="#939598" stroke-width="3" stroke-miterlimit="10" d="M381.5,182.6h-38.6c-4.4,0-8-3.6-8-8V136
				c0-4.4,3.6-8,8-8h38.6c4.4,0,8,3.6,8,8v38.6C389.5,179,385.9,182.6,381.5,182.6z"/>
		</g>
		<g>
			<line fill="none" stroke="#BCBEC0" stroke-width="3" stroke-miterlimit="10" x1="460.8" y1="130.7" x2="412.7" y2="178.8"/>
			<line fill="none" stroke="#BCBEC0" stroke-width="3" stroke-miterlimit="10" x1="460.8" y1="178.8" x2="412.7" y2="130.7"/>
			<path fill="none" stroke="#939598" stroke-width="3" stroke-miterlimit="10" d="M456.1,182.6h-38.6c-4.4,0-8-3.6-8-8V136
				c0-4.4,3.6-8,8-8h38.6c4.4,0,8,3.6,8,8v38.6C464.1,179,460.5,182.6,456.1,182.6z"/>
		</g>
		<g>
			<line fill="none" stroke="#BCBEC0" stroke-width="3" stroke-miterlimit="10" x1="535.4" y1="130.7" x2="487.3" y2="178.8"/>
			<line fill="none" stroke="#BCBEC0" stroke-width="3" stroke-miterlimit="10" x1="535.4" y1="178.8" x2="487.3" y2="130.7"/>
			<path fill="none" stroke="#939598" stroke-width="3" stroke-miterlimit="10" d="M530.6,182.6h-38.6c-4.4,0-8-3.6-8-8V136
				c0-4.4,3.6-8,8-8h38.6c4.4,0,8,3.6,8,8v38.6C538.6,179,535.1,182.6,530.6,182.6z"/>
		</g>
	</g>
	<g>
		<g>
			<line fill="none" stroke="#BCBEC0" stroke-width="3" stroke-miterlimit="10" x1="311.7" y1="219.3" x2="263.6" y2="267.4"/>
			<line fill="none" stroke="#BCBEC0" stroke-width="3" stroke-miterlimit="10" x1="311.7" y1="267.4" x2="263.6" y2="219.3"/>
			<path fill="none" stroke="#939598" stroke-width="3" stroke-miterlimit="10" d="M306.9,271.1h-38.6c-4.4,0-8-3.6-8-8v-38.6
				c0-4.4,3.6-8,8-8h38.6c4.4,0,8,3.6,8,8v38.6C314.9,267.6,311.4,271.1,306.9,271.1z"/>
		</g>
		<g>
			<line fill="none" stroke="#BCBEC0" stroke-width="3" stroke-miterlimit="10" x1="386.3" y1="219.3" x2="338.2" y2="267.4"/>
			<line fill="none" stroke="#BCBEC0" stroke-width="3" stroke-miterlimit="10" x1="386.3" y1="267.4" x2="338.2" y2="219.3"/>
			<path fill="none" stroke="#939598" stroke-width="3" stroke-miterlimit="10" d="M381.5,271.1h-38.6c-4.4,0-8-3.6-8-8v-38.6
				c0-4.4,3.6-8,8-8h38.6c4.4,0,8,3.6,8,8v38.6C389.5,267.6,385.9,271.1,381.5,271.1z"/>
		</g>
		<g>
			<line fill="none" stroke="#BCBEC0" stroke-width="3" stroke-miterlimit="10" x1="460.8" y1="219.3" x2="412.7" y2="267.4"/>
			<line fill="none" stroke="#BCBEC0" stroke-width="3" stroke-miterlimit="10" x1="460.8" y1="267.4" x2="412.7" y2="219.3"/>
			<path fill="none" stroke="#939598" stroke-width="3" stroke-miterlimit="10" d="M456.1,271.1h-38.6c-4.4,0-8-3.6-8-8v-38.6
				c0-4.4,3.6-8,8-8h38.6c4.4,0,8,3.6,8,8v38.6C464.1,267.6,460.5,271.1,456.1,271.1z"/>
		</g>
		<g>
			<line fill="none" stroke="#BCBEC0" stroke-width="3" stroke-miterlimit="10" x1="535.4" y1="219.3" x2="487.3" y2="267.4"/>
			<line fill="none" stroke="#BCBEC0" stroke-width="3" stroke-miterlimit="10" x1="535.4" y1="267.4" x2="487.3" y2="219.3"/>
			<path fill="none" stroke="#939598" stroke-width="3" stroke-miterlimit="10" d="M530.6,271.1h-38.6c-4.4,0-8-3.6-8-8v-38.6
				c0-4.4,3.6-8,8-8h38.6c4.4,0,8,3.6,8,8v38.6C538.6,267.6,535.1,271.1,530.6,271.1z"/>
		</g>
	</g>
	<g>
		<g>
			<line fill="none" stroke="#BCBEC0" stroke-width="3" stroke-miterlimit="10" x1="311.7" y1="307.8" x2="263.6" y2="356"/>
			<line fill="none" stroke="#BCBEC0" stroke-width="3" stroke-miterlimit="10" x1="311.7" y1="356" x2="263.6" y2="307.8"/>
			<path fill="none" stroke="#939598" stroke-width="3" stroke-miterlimit="10" d="M306.9,359.7h-38.6c-4.4,0-8-3.6-8-8v-38.6
				c0-4.4,3.6-8,8-8h38.6c4.4,0,8,3.6,8,8v38.6C314.9,356.1,311.4,359.7,306.9,359.7z"/>
		</g>
		<g>
			<line fill="none" stroke="#BCBEC0" stroke-width="3" stroke-miterlimit="10" x1="386.3" y1="307.8" x2="338.2" y2="356"/>
			<line fill="none" stroke="#BCBEC0" stroke-width="3" stroke-miterlimit="10" x1="386.3" y1="356" x2="338.2" y2="307.8"/>
			<path fill="none" stroke="#939598" stroke-width="3" stroke-miterlimit="10" d="M381.5,359.7h-38.6c-4.4,0-8-3.6-8-8v-38.6
				c0-4.4,3.6-8,8-8h38.6c4.4,0,8,3.6,8,8v38.6C389.5,356.1,385.9,359.7,381.5,359.7z"/>
		</g>
		<g>
			<line fill="none" stroke="#BCBEC0" stroke-width="3" stroke-miterlimit="10" x1="460.8" y1="307.8" x2="412.7" y2="356"/>
			<line fill="none" stroke="#BCBEC0" stroke-width="3" stroke-miterlimit="10" x1="460.8" y1="356" x2="412.7" y2="307.8"/>
			<path fill="none" stroke="#939598" stroke-width="3" stroke-miterlimit="10" d="M456.1,359.7h-38.6c-4.4,0-8-3.6-8-8v-38.6
				c0-4.4,3.6-8,8-8h38.6c4.4,0,8,3.6,8,8v38.6C464.1,356.1,460.5,359.7,456.1,359.7z"/>
		</g>
		<g>
			<line fill="none" stroke="#BCBEC0" stroke-width="3" stroke-miterlimit="10" x1="535.4" y1="307.8" x2="487.3" y2="356"/>
			<line fill="none" stroke="#BCBEC0" stroke-width="3" stroke-miterlimit="10" x1="535.4" y1="356" x2="487.3" y2="307.8"/>
			<path fill="none" stroke="#939598" stroke-width="3" stroke-miterlimit="10" d="M530.6,359.7h-38.6c-4.4,0-8-3.6-8-8v-38.6
				c0-4.4,3.6-8,8-8h38.6c4.4,0,8,3.6,8,8v38.6C538.6,356.1,535.1,359.7,530.6,359.7z"/>
		</g>
	</g>
	<g>
		<g>
			<line fill="none" stroke="#BCBEC0" stroke-width="3" stroke-miterlimit="10" x1="311.7" y1="396.4" x2="263.6" y2="444.5"/>
			<line fill="none" stroke="#BCBEC0" stroke-width="3" stroke-miterlimit="10" x1="311.7" y1="444.5" x2="263.6" y2="396.4"/>
			<path fill="none" stroke="#939598" stroke-width="3" stroke-miterlimit="10" d="M306.9,448.3h-38.6c-4.4,0-8-3.6-8-8v-38.6
				c0-4.4,3.6-8,8-8h38.6c4.4,0,8,3.6,8,8v38.6C314.9,444.7,311.4,448.3,306.9,448.3z"/>
		</g>
		<g>
			<line fill="none" stroke="#BCBEC0" stroke-width="3" stroke-miterlimit="10" x1="386.3" y1="396.4" x2="338.2" y2="444.5"/>
			<line fill="none" stroke="#BCBEC0" stroke-width="3" stroke-miterlimit="10" x1="386.3" y1="444.5" x2="338.2" y2="396.4"/>
			<path fill="none" stroke="#939598" stroke-width="3" stroke-miterlimit="10" d="M381.5,448.3h-38.6c-4.4,0-8-3.6-8-8v-38.6
				c0-4.4,3.6-8,8-8h38.6c4.4,0,8,3.6,8,8v38.6C389.5,444.7,385.9,448.3,381.5,448.3z"/>
		</g>
		<g>
			<line fill="none" stroke="#BCBEC0" stroke-width="3" stroke-miterlimit="10" x1="460.8" y1="396.4" x2="412.7" y2="444.5"/>
			<line fill="none" stroke="#BCBEC0" stroke-width="3" stroke-miterlimit="10" x1="460.8" y1="444.5" x2="412.7" y2="396.4"/>
			<path fill="none" stroke="#939598" stroke-width="3" stroke-miterlimit="10" d="M456.1,448.3h-38.6c-4.4,0-8-3.6-8-8v-38.6
				c0-4.4,3.6-8,8-8h38.6c4.4,0,8,3.6,8,8v38.6C464.1,444.7,460.5,448.3,456.1,448.3z"/>
		</g>
		<g>
			<line fill="none" stroke="#BCBEC0" stroke-width="3" stroke-miterlimit="10" x1="535.4" y1="396.4" x2="487.3" y2="444.5"/>
			<line fill="none" stroke="#BCBEC0" stroke-width="3" stroke-miterlimit="10" x1="535.4" y1="444.5" x2="487.3" y2="396.4"/>
			<path fill="none" stroke="#939598" stroke-width="3" stroke-miterlimit="10" d="M530.6,448.3h-38.6c-4.4,0-8-3.6-8-8v-38.6
				c0-4.4,3.6-8,8-8h38.6c4.4,0,8,3.6,8,8v38.6C538.6,444.7,535.1,448.3,530.6,448.3z"/>
		</g>
	</g>
	<g>
		<g>
			<line fill="none" stroke="#BCBEC0" stroke-width="3" stroke-miterlimit="10" x1="311.7" y1="485" x2="263.6" y2="533.1"/>
			<line fill="none" stroke="#BCBEC0" stroke-width="3" stroke-miterlimit="10" x1="311.7" y1="533.1" x2="263.6" y2="485"/>
			<path fill="none" stroke="#939598" stroke-width="3" stroke-miterlimit="10" d="M306.9,536.8h-38.6c-4.4,0-8-3.6-8-8v-38.6
				c0-4.4,3.6-8,8-8h38.6c4.4,0,8,3.6,8,8v38.6C314.9,533.3,311.4,536.8,306.9,536.8z"/>
		</g>
	</g>
	<rect x="239.5" y="92" fill="#939598" width="320" height="17.2"/>
	<circle fill="#FFFFFF" cx="251.8" cy="100.3" r="3"/>
	<circle fill="#FFFFFF" cx="262.2" cy="100.3" r="3"/>
	<circle fill="#FFFFFF" cx="272.5" cy="100.3" r="3"/>
	<circle fill="#FFFFFF" cx="282.9" cy="100.3" r="3"/>
	<circle fill="none" stroke="#FFFFFF" stroke-miterlimit="10" cx="293.3" cy="100.3" r="3"/>
	<text transform="matrix(1 0 0 1 381.0103 103)" fill="#FFFFFF" font-family="'Karla-Bold'" font-size="10">7:45 AM</text>
	<rect x="526.8" y="97" fill="#FFFFFF" width="17.7" height="6.7"/>
	<polygon fill="none" stroke="#FFFFFF" stroke-miterlimit="10" points="551.8,103.7 526.8,103.7 526.8,97 551.8,97 551.8,98.7 
		552.9,98.7 552.9,102.3 551.8,102.3 	"/>
	<rect x="239.5" y="92" opacity="0.4" fill="#808285" stroke="#939598" stroke-miterlimit="10" width="320" height="496"/>
	<g>
		<path fill="#FFFFFF" stroke="#939598" stroke-miterlimit="10" d="M539.5,437.5h-280c-2.2,0-4-1.8-4-4v-200c0-2.2,1.8-4,4-4h280
			c2.2,0,4,1.8,4,4v200C543.5,435.8,541.7,437.5,539.5,437.5z"/>
		<rect x="274.1" y="251.6" fill="none" width="250" height="91.7"/>
		<text transform="matrix(1 0 0 1 299.2126 264.8361)"><tspan x="0" y="0" fill="#58595B" font-family="'Karla-Bold'" font-size="16">Climbing Weather Change</tspan><tspan x="-25.1" y="38" fill="#6D6E71" font-family="'Karla-Regular'" font-size="13">Heads up - the weather isn’t looking great </tspan><tspan x="-25.1" y="56" fill="#6D6E71" font-family="'Karla-Regular'" font-size="13">in Jackson Falls this weekend for your </tspan><tspan x="-25.1" y="74" fill="#6D6E71" font-family="'Karla-Regular'" font-size="13">climbing trip. </tspan></text>
		<g>
			<path fill="#F1F2F2" stroke="#939598" stroke-miterlimit="10" d="M388.3,406.7H276.1c-2.2,0-4-1.8-4-4v-31c0-2.2,1.8-4,4-4h112.1
				c2.2,0,4,1.8,4,4v31C392.3,404.9,390.5,406.7,388.3,406.7z"/>
			<g>
				<text transform="matrix(1 0 0 1 322.8521 391.3337)" fill="#58595B" font-family="'Karla-Bold'" font-size="14">OK</text>
			</g>
			<path fill="#F1F2F2" stroke="#939598" stroke-miterlimit="10" d="M526.1,406.7H414c-2.2,0-4-1.8-4-4v-31c0-2.2,1.8-4,4-4h112.1
				c2.2,0,4,1.8,4,4v31C530.1,404.9,528.3,406.7,526.1,406.7z"/>
			<g>
				<text transform="matrix(1 0 0 1 440.4927 391.3333)" fill="#58595B" font-family="'Karla-Bold'" font-size="14">View trip</text>
			</g>
		</g>
	</g>
</g>
</svg>
