<svg width="118" height="32" viewBox="0 0 118 32" fill="none" xmlns="http://www.w3.org/2000/svg">
<path d="M4 17.3787C13.1539 12.4633 22.302 8.99372 32.709 6.60659C36.1601 5.81499 39.6558 5.18653 43.1507 4.56295C43.1641 4.56055 46.1851 3.80705 46.6459 4.04726C47.4842 4.48429 44.0079 9.76601 43.7882 10.1209C40.9802 14.6551 36.6341 19.5457 36.0284 24.8084C35.2695 31.4015 51.0248 25.8733 53.8781 25.0185C65.7874 21.4504 78.3723 15.9056 91.1383 15.1823C92.7196 15.0927 93.1011 15.8262 94.3917 16.4237C96.5441 17.4202 98.8937 17.9304 101.316 18.1045C105.115 18.3775 110.498 18.5561 114 17.0349" stroke="#F0E4FF" stroke-width="7" stroke-linecap="round" stroke-linejoin="round"/>
</svg>
