<svg width="57" height="27" viewBox="0 0 57 27" fill="none" xmlns="http://www.w3.org/2000/svg">
<path d="M4 17.5757C7.38872 14.0007 10.7345 10.3695 14.3224 7.16721C15.3894 6.21493 16.8281 4.64336 18.1933 4.43604C20.0958 4.14715 22.144 3.09456 22.9769 5.87689C23.7535 8.47129 23.9101 11.2158 24.2514 13.9629C24.5317 16.2185 24.367 22.7467 26.6904 22.9736C30.3489 23.3307 33.2355 20.0011 36.0058 17.1886C37.2761 15.8989 39.3432 12.8148 40.8051 12.565C41.6771 12.4161 42.6143 13.6035 43.307 14.1349C45.4275 15.7619 47.1883 16.5121 49.5697 16.8876C50.7544 17.0744 51.9956 17.0477 53 17.9628" stroke="#E4F9FF" stroke-width="7" stroke-linecap="round" stroke-linejoin="round"/>
</svg>
