<svg width="74" height="27" viewBox="0 0 74 27" fill="none" xmlns="http://www.w3.org/2000/svg">
<path d="M4 14.6672C9.1316 12.981 13.83 9.60106 18.864 7.52667C19.8323 7.12767 24.4587 4.70848 25.6054 5.67095C26.1125 6.09662 26.145 7.67107 26.1973 8.25283C26.4612 11.1862 26.3683 14.151 26.1973 17.0877C26.1437 18.0092 24.8327 23.9951 26.3946 22.8566C32.5236 18.3889 37.7775 12.2917 43.988 7.88975C45.4405 6.86023 48.9178 3.74338 50.861 4.01693C51.548 4.11364 52.1904 7.62414 52.3408 8.05112C53.1862 10.451 54.2257 13.828 56.4514 14.7882C58.9221 15.854 61.7652 14.6668 63.8505 13.0132C66.1765 11.1687 67.6927 8.20345 70 6.31642" stroke="#FEECEA" stroke-width="7" stroke-linecap="round" stroke-linejoin="round"/>
</svg>
