<?xml version="1.0" encoding="utf-8"?>
<!-- Generator: Adobe Illustrator 15.0.2, SVG Export Plug-In . SVG Version: 6.00 Build 0)  -->
<!DOCTYPE svg PUBLIC "-//W3C//DTD SVG 1.1//EN" "http://www.w3.org/Graphics/SVG/1.1/DTD/svg11.dtd">
<svg version="1.1" id="Layer_1" xmlns="http://www.w3.org/2000/svg" xmlns:xlink="http://www.w3.org/1999/xlink" x="0px" y="0px"
	 width="100px" height="100px" viewBox="0 0 100 100" enable-background="new 0 0 100 100" xml:space="preserve">
<g>
	<g>
		<g>
			<path fill="#FFFFFF" stroke="#6D6E70" stroke-width="2" stroke-miterlimit="10" d="M90.061,68.2c0,0.415-0.449,0.747-1.002,0.747
				H10.941c-0.55,0-1.002-0.332-1.002-0.747V24.633c0-0.411,0.452-0.753,1.002-0.753h78.116c0.555,0,1.004,0.342,1.004,0.753V68.2
				L90.061,68.2z"/>
		</g>
	</g>
	
		<line fill="none" stroke="#6D6E70" stroke-linecap="round" stroke-miterlimit="10" x1="30.697" y1="34.144" x2="35.43" y2="34.144"/>
	
		<line fill="none" stroke="#DD5045" stroke-linecap="round" stroke-miterlimit="10" x1="30.697" y1="38.469" x2="47.599" y2="38.469"/>
	
		<line fill="none" stroke="#DD5045" stroke-linecap="round" stroke-miterlimit="10" x1="30.697" y1="40.926" x2="62.873" y2="40.926"/>
	
		<line fill="none" stroke="#6D6E70" stroke-linecap="round" stroke-miterlimit="10" x1="54.492" y1="34.144" x2="59.225" y2="34.144"/>
	
		<line fill="none" stroke="#6D6E70" stroke-linecap="round" stroke-miterlimit="10" x1="63.898" y1="34.144" x2="68.631" y2="34.144"/>
	<g>
		<path fill="#BBBCBE" d="M69.318,49.396c0,0.338-0.275,0.615-0.613,0.615H30.622c-0.337,0-0.614-0.277-0.614-0.615v-3.441
			c0-0.338,0.277-0.613,0.614-0.613h38.083c0.338,0,0.613,0.275,0.613,0.613V49.396z"/>
	</g>
	<g>
		<path fill="#BBBCBE" d="M69.318,56.992c0,0.339-0.275,0.613-0.613,0.613H30.622c-0.337,0-0.614-0.274-0.614-0.613v-3.44
			c0-0.338,0.277-0.614,0.614-0.614h38.083c0.338,0,0.613,0.276,0.613,0.614V56.992z"/>
	</g>
	<g>
		<path fill="#BBBCBE" d="M69.318,67.938H30.008v-7.302c0-0.338,0.277-0.614,0.614-0.614h38.083c0.338,0,0.613,0.276,0.613,0.614
			V67.938z"/>
	</g>
	<rect x="25.737" y="27.796" fill="#6D6E70" width="48.527" height="2.002"/>
	<g>
		<path fill="#6D6E70" d="M97.167,75.12c0,0.55-0.45,1-1,1H3.833c-0.55,0-1-0.45-1-1v-1.228c0-0.551,0.45-1,1-1h92.334
			c0.55,0,1,0.449,1,1V75.12z"/>
		<path fill="none" stroke="#6D6E70" stroke-width="2" stroke-miterlimit="10" d="M97.167,75.12c0,0.55-0.45,1-1,1H3.833
			c-0.55,0-1-0.45-1-1v-1.228c0-0.551,0.45-1,1-1h92.334c0.55,0,1,0.449,1,1V75.12z"/>
	</g>
</g>
</svg>
