<?xml version="1.0" encoding="utf-8"?>
<!-- Generator: Adobe Illustrator 15.0.2, SVG Export Plug-In . SVG Version: 6.00 Build 0)  -->
<!DOCTYPE svg PUBLIC "-//W3C//DTD SVG 1.1//EN" "http://www.w3.org/Graphics/SVG/1.1/DTD/svg11.dtd">
<svg version="1.1" id="Layer_1" xmlns="http://www.w3.org/2000/svg" xmlns:xlink="http://www.w3.org/1999/xlink" x="0px" y="0px"
	 width="100px" height="100px" viewBox="0 0 100 100" enable-background="new 0 0 100 100" xml:space="preserve">
<g>
	<g>
		<g>
			<g>
				<path fill="#FFFFFF" stroke="#BBBCBE" stroke-width="2" stroke-miterlimit="10" d="M81.869,69.37c0,0.551-0.449,1-1,1h-78
					c-0.549,0-1-0.449-1-1v-58c0-0.55,0.451-1,1-1h78c0.551,0,1,0.45,1,1V69.37z"/>
			</g>
		</g>
		<rect x="2.369" y="10.37" fill="#BBBCBE" width="79" height="3.261"/>
	</g>
	<g>
		<g>
			<g>
				<path fill="#FFFFFF" stroke="#BBBCBE" stroke-width="2" stroke-miterlimit="10" d="M89.596,79.098c0,0.551-0.447,1-1,1h-78
					c-0.549,0-1-0.449-1-1v-58c0-0.55,0.451-1,1-1h78c0.553,0,1,0.45,1,1V79.098z"/>
			</g>
		</g>
		<rect x="10.096" y="20.098" fill="#BBBCBE" width="79" height="3.26"/>
	</g>
	<g>
		<g>
			<path fill="#FFFFFF" stroke="#6D6E70" stroke-width="2" stroke-miterlimit="10" d="M98.129,88.63c0,0.552-0.449,1-1,1h-78
				c-0.549,0-1-0.448-1-1V30.629c0-0.55,0.451-1,1-1h78c0.551,0,1,0.45,1,1V88.63z"/>
		</g>
	</g>
	
		<line fill="none" stroke="#6D6E70" stroke-width="2" stroke-linecap="round" stroke-miterlimit="10" x1="27.205" y1="39.965" x2="34.91" y2="39.965"/>
	
		<line fill="none" stroke="#DD5045" stroke-width="2" stroke-linecap="round" stroke-miterlimit="10" x1="27.205" y1="47.006" x2="54.721" y2="47.006"/>
	
		<line fill="none" stroke="#DD5045" stroke-width="2" stroke-linecap="round" stroke-miterlimit="10" x1="27.205" y1="51.006" x2="79.588" y2="51.006"/>
	
		<line fill="none" stroke="#6D6E70" stroke-width="2" stroke-linecap="round" stroke-miterlimit="10" x1="65.943" y1="39.965" x2="73.648" y2="39.965"/>
	
		<line fill="none" stroke="#6D6E70" stroke-width="2" stroke-linecap="round" stroke-miterlimit="10" x1="81.256" y1="39.965" x2="88.963" y2="39.965"/>
	<g>
		<path fill="#BBBCBE" d="M90.082,64.798c0,0.55-0.449,1-1,1h-62c-0.549,0-1-0.45-1-1v-5.603c0-0.551,0.451-1,1-1h62
			c0.551,0,1,0.449,1,1V64.798z"/>
	</g>
	<g>
		<path fill="#BBBCBE" d="M90.082,76.398c0,0.552-0.449,1-1,1h-62c-0.549,0-1-0.448-1-1v-5.603c0-0.551,0.451-1,1-1h62
			c0.551,0,1,0.449,1,1V76.398z"/>
	</g>
	<g>
		<path fill="#BBBCBE" d="M90.082,88.63h-64V82.4c0-0.551,0.451-1,1-1h62c0.551,0,1,0.449,1,1V88.63z"/>
	</g>
	<rect x="19.129" y="29.631" fill="#6D6E70" width="79.002" height="3.26"/>
</g>
</svg>
