<?xml version="1.0" encoding="UTF-8" standalone="no"?>
<!DOCTYPE svg PUBLIC "-//W3C//DTD SVG 1.1//EN" "http://www.w3.org/Graphics/SVG/1.1/DTD/svg11.dtd">
<svg width="100%" height="100%" viewBox="0 0 74 86" version="1.1" xmlns="http://www.w3.org/2000/svg" xmlns:xlink="http://www.w3.org/1999/xlink" xml:space="preserve" style="fill-rule:evenodd;clip-rule:evenodd;stroke-miterlimit:1.41421;">
    <g id="Path-3-Copy-2---Path-Copy-2-Copy-Copy" transform="matrix(1,0,0,1,10,9)">
        <path id="Path-3-Copy-2" d="M8.059,12.129C8.059,12.129 17.047,12.138 32.033,12.129C32.622,12.128 33.198,12.146 33.761,12.18M42.187,14.321C51.112,18.726 54.88,29.168 54.889,40.1C54.902,54.518 47.925,67.801 32.033,67.801C22.174,67.801 9.859,67.724 0,67.801L0,0.199C0,0.199 21.881,0.226 28.205,0.199C37.173,0.16 41.965,8.152 41.965,14.2C42.023,18.094 42.654,22.115 37.271,28.035C42.113,31.423 42.592,35.988 42.724,41.775C42.856,47.563 40.72,59.771 26.636,59.848C13.57,59.749 8.059,59.848 8.059,59.848L8.059,8.152C8.059,8.152 23.576,8.152 28.205,8.152C32.835,8.152 34.013,11.842 34.013,16.019C34.013,20.195 32,24.092 27.067,24.092C22.134,24.092 16.439,24.092 16.439,24.092" style="fill:none;stroke-width:1.8px;stroke:rgb(190,195,196);"/>
        <path id="Path-Copy-2" d="M26.976,59.848C26.976,59.848 30.75,59.945 31.832,59.848C44.031,59.815 46.561,48.045 46.561,39.965C46.561,34.471 45.298,27.256 40.718,23.2M33.183,20.134C32.746,20.1 32.296,20.082 31.832,20.082C31.66,20.082 16.117,20.082 16.117,20.082L16.117,51.895C16.117,51.895 20.955,51.939 26.591,51.895C32.226,51.851 34.856,46.999 34.856,41.848C34.856,35.939 31.963,31.981 27.19,32.012C22.417,32.042 16.117,32.012 16.117,32.012" style="fill:none;stroke-width:1.6px;stroke-linecap:round;stroke:rgb(190,195,196);"/>
    </g>
</svg>
