<?xml version="1.0" encoding="UTF-8" standalone="no"?>
<svg width="60px" height="70px" viewBox="0 0 60 70" version="1.1" xmlns="http://www.w3.org/2000/svg" xmlns:xlink="http://www.w3.org/1999/xlink" xmlns:sketch="http://www.bohemiancoding.com/sketch/ns">
    <!-- Generator: Sketch 3.4.4 (17249) - http://www.bohemiancoding.com/sketch -->
    <title>small 3</title>
    <desc>Created with Sketch.</desc>
    <defs></defs>
    <g id="Page-1" stroke="none" stroke-width="1" fill="none" fill-rule="evenodd" sketch:type="MSPage">
        <g id="small-3" sketch:type="MSArtboardGroup" stroke="#DB240D" stroke-width="1.5">
            <g id="Path-3-Copy-2-+-Path-Copy-2-Copy-Copy" sketch:type="MSLayerGroup" transform="translate(9.000000, 8.000000)">
                <path d="M6.44688645,9.63157895 C6.44688645,9.63157895 13.6379968,9.63882513 25.6263736,9.63157895 C26.0974433,9.63129422 26.5583311,9.64508436 27.0091582,9.67247277 M33.7498045,11.3729078 C40.8898617,14.8709964 43.9036889,23.1626584 43.9113713,31.8442696 C43.9215027,43.2936662 38.340296,53.8421053 25.6263736,53.8421053 C17.739087,53.8421053 7.88715362,53.7807836 0,53.8421053 L0,0.157894737 C0,0.157894737 17.505198,0.17957797 22.5641026,0.157894737 C29.7384636,0.127144336 33.5720043,6.47368439 33.5720038,11.2763361 C33.6184866,14.3685571 34.1229959,17.5615872 29.8168498,22.2631574 C33.6903303,24.953188 34.0732813,28.5789474 34.1791174,33.1746609 C34.2849535,37.7703744 32.5758908,47.4653349 21.3091495,47.5263158 C10.8559062,47.4478444 6.44688645,47.5263158 6.44688645,47.5263158 L6.44688645,6.47368421 C6.44688645,6.47368421 18.8606043,6.47368421 22.5641026,6.47368421 C26.2676008,6.47368421 27.2107159,9.4041469 27.2107159,12.7206345 C27.2107159,16.0371221 25.5999375,19.1317159 21.6537378,19.1317159 C17.7075382,19.1317159 13.1508048,19.1317156 13.1508048,19.1317156" id="Path-3-Copy-2" sketch:type="MSShapeGroup"></path>
                <path d="M21.5805101,47.5263158 C21.5805101,47.5263158 24.6000832,47.6036357 25.4652015,47.5263158 C35.2245395,47.4999594 37.2485694,38.1533595 37.2485678,31.7368421 C37.2485667,27.3739636 36.2382939,21.6442492 32.5743709,18.4235135 M26.5462199,15.9887417 C26.196774,15.9613975 25.8365355,15.9473684 25.4652015,15.9473684 C25.3282638,15.9473684 12.8937729,15.9473684 12.8937729,15.9473684 L12.8937729,41.2105263 C12.8937729,41.2105263 16.7638841,41.2455747 21.2725127,41.2105263 C25.7811413,41.1754779 27.885197,37.3224212 27.885197,33.2322691 C27.885197,28.5394229 25.5705257,25.3969276 21.7518957,25.4210526 C17.9332657,25.4451776 12.8937729,25.4210526 12.8937729,25.4210526" id="Path-Copy-2" stroke-linecap="round" sketch:type="MSShapeGroup"></path>
            </g>
        </g>
    </g>
</svg>