<?xml version="1.0" encoding="utf-8"?>
<!-- Generator: Adobe Illustrator 15.0.2, SVG Export Plug-In . SVG Version: 6.00 Build 0)  -->
<!DOCTYPE svg PUBLIC "-//W3C//DTD SVG 1.1//EN" "http://www.w3.org/Graphics/SVG/1.1/DTD/svg11.dtd">
<svg version="1.1" id="Layer_1" xmlns="http://www.w3.org/2000/svg" xmlns:xlink="http://www.w3.org/1999/xlink" x="0px" y="0px"
	 width="150.873px" height="206.574px" viewBox="0 0 150.873 206.574" enable-background="new 0 0 150.873 206.574"
	 xml:space="preserve">
<path fill="#959595" d="M149.703,129.232c-0.065-1.869-0.224-3.682-0.463-5.584c-0.237-1.793-0.542-3.605-0.896-5.396
	c-0.707-3.588-1.65-7.139-2.844-10.617c-2.395-6.943-5.811-13.618-10.375-19.47c-4.541-5.863-10.152-10.896-16.422-14.791
	c-3.127-1.959-6.416-3.637-9.803-5.04c-2.114-0.862-4.269-1.659-6.479-2.34c0.945-1.094,1.938-2.295,2.805-3.528
	c4.149-5.781,6.74-12.938,6.68-20.24c0.003-7.297-2.693-14.46-7.119-20.095c-4.421-5.678-10.494-9.859-17.066-12.347
	c-6.593-2.529-13.674-3.33-20.5-3.082C60.363,6.959,53.528,8.17,47.049,10.67c-3.229,1.266-6.375,2.866-9.229,5.005
	c-2.829,2.119-5.428,4.89-7.028,8.188l-0.03,0.062c-0.483,0.998-0.087,2.206,0.903,2.72c1.008,0.524,2.25,0.131,2.773-0.876
	c1.372-2.64,3.483-4.779,5.978-6.556c1.6-1.138,3.347-2.103,5.167-2.944c-0.054,6.71-0.04,13.379,0.02,20.064l0.138,21.712
	c0.003,5.071,0.086,10.14,0.15,15.208c-3.332,1.829-6.515,3.947-9.449,6.428c-1.616,1.375-3.141,2.874-4.556,4.478
	c-5.194-1.742-10.047-4.354-14.033-7.932c-4.546-4.056-7.841-9.36-9.581-15.238c-0.871-2.924-1.414-6.04-1.54-9.061
	c-0.123-3.053,0.175-6.13,0.845-9.144c1.343-6.036,4.159-11.78,7.862-16.891c3.69-5.13,8.259-9.686,13.399-13.434
	c2.572-1.872,5.292-3.54,8.132-4.936c2.833-1.405,5.793-2.543,8.822-3.263l0.017-0.004c1.104-0.264,1.806-1.361,1.572-2.479
	c-0.238-1.139-1.354-1.87-2.493-1.632c-6.873,1.436-13.153,4.553-18.793,8.45c-5.636,3.922-10.676,8.704-14.832,14.229
	c-4.122,5.533-7.367,11.859-9.001,18.737C1.449,44.993,1.051,48.55,1.146,52.11c0.106,3.59,0.666,7.051,1.629,10.479
	c1.886,6.85,5.817,13.232,11.142,18.006c4.18,3.782,9.09,6.572,14.244,8.538c-1.69,2.748-3.004,5.765-3.781,8.871l-0.012,0.045
	c-0.236,0.951,0.318,1.928,1.269,2.205c0.974,0.285,1.993-0.273,2.278-1.248c0.901-3.086,2.374-5.929,4.236-8.521
	c0.084,0.025,0.168,0.055,0.252,0.08c3.35,0.974,6.764,1.643,10.19,2.058c0.86,0.107,1.706,0.192,2.589,0.268l0.864,0.067
	c0.005,2.8,0.004,5.589-0.184,8.274c-0.369,7.385-0.488,14.564-0.647,21.836c-0.12,6.222-0.199,12.442-0.268,18.666
	c-1.728,0.146-3.476,0.379-5.263,0.768c-1.078,0.232-1.869,1.211-1.83,2.352c0.044,1.283,1.12,2.287,2.403,2.244l0.056-0.002
	c1.479-0.052,3.015-0.006,4.574,0.062c-0.054,6.469-0.083,12.938-0.056,19.418c0.017,3.631,0.049,7.266,0.12,10.908
	c0.083,3.66,0.153,7.266,0.457,11.082c0.001,0.008,0.003,0.029,0.003,0.035c0.175,1.945,1.893,3.379,3.838,3.205
	c1.944-0.174,3.379-1.893,3.204-3.838l-0.004-0.047c-0.305-3.396-0.42-7.035-0.532-10.607c-0.104-3.592-0.171-7.193-0.222-10.803
	c-0.087-6.334-0.117-12.677-0.126-19.021l0.699,0.036l12.301,0.631c4.122,0.23,8.262,0.4,12.45,0.447
	c2.099,0.023,4.205,0.023,6.36-0.1c0.961-0.052,1.937-0.129,2.938-0.24c2.863,4.068,5.748,8.129,8.672,12.168
	c2.742,3.793,5.507,7.572,8.342,11.328c2.859,3.754,5.689,7.473,8.977,11.146c0.356,0.386,0.713,0.77,1.086,1.152
	c-4.258,2.658-8.817,4.943-13.521,6.865c-12.62,5.141-26.292,7.902-39.973,8.32c-13.671,0.457-27.52-1.635-40.051-7.057
	l-0.013-0.004c-1.1-0.477-2.388-0.002-2.913,1.088c-0.54,1.117-0.071,2.463,1.047,3.002c6.519,3.146,13.464,5.355,20.543,6.74
	c7.081,1.395,14.296,2.012,21.495,1.971c7.202-0.057,14.387-0.814,21.461-2.156c7.073-1.352,14.046-3.307,20.786-5.945
	c6.738-2.65,13.271-5.932,19.282-10.244c6.003-4.277,11.293-9.639,15.562-15.662C145.646,158.914,150.214,144.084,149.703,129.232z
	 M115.877,182.441c0.001-0.006,0,0,0.002-0.008v-0.002C115.879,182.436,115.878,182.438,115.877,182.441L115.877,182.441z
	 M84.985,133.244l-16.028-22.939c-2.682-3.826-5.406-7.625-8.178-11.416c-1.393-1.891-2.815-3.764-4.275-5.638
	c-0.153-0.197-0.322-0.392-0.478-0.588c5.96-0.761,11.729-2.444,17.169-4.803c4.775-2.066,9.304-4.639,13.542-7.609l-0.018,0.441
	c-0.049,1.459-0.093,2.928-0.109,4.398c-0.062,2.941-0.035,5.891-0.026,8.842l0.022,17.727c0.015,5.916,0.105,11.834,0.22,17.764
	c0.041,2.245,0.118,4.494,0.211,6.748C86.354,135.193,85.67,134.221,84.985,133.244z M87.085,72.517
	c-4.997,3.944-10.475,7.272-16.293,9.758c-5.813,2.465-11.967,4.18-18.164,4.658c-0.128,0.01-0.255,0.011-0.383,0.019
	c-0.021-2.433-0.046-4.864-0.093-7.293c-0.027-1.349-0.053-2.697-0.078-4.045c1.646-0.703,3.321-1.347,5.016-1.928
	c6.434-2.185,13.153-3.609,19.925-4.172c4.516-0.37,9.073-0.376,13.523,0.103C89.414,70.615,88.265,71.585,87.085,72.517z
	 M51.636,57.932c-0.492-14.467-0.977-28.966-1.55-43.383l-0.001-0.035c0-0.004-0.002-0.008-0.002-0.013
	c5.521-1.817,11.409-2.695,17.264-2.789c3.176-0.034,6.371,0.136,9.458,0.605c3.09,0.48,6.118,1.273,8.998,2.416
	c5.752,2.266,10.909,5.965,14.568,10.801c3.684,4.809,5.743,10.745,5.73,16.707c0.02,5.975-2.105,11.866-5.676,16.799
	c-0.896,1.256-1.845,2.375-2.947,3.621c-0.526,0.595-1.069,1.19-1.625,1.779c-6.471-1.079-12.974-1.069-19.357-0.427
	c-7.213,0.763-14.327,2.351-21.122,4.9c-1.145,0.433-2.278,0.9-3.405,1.386C51.888,66.175,51.792,62.052,51.636,57.932z
	 M43.307,86.657c-2.279-0.266-4.537-0.657-6.754-1.178c0.87-0.827,1.766-1.63,2.706-2.379c2.095-1.666,4.341-3.145,6.688-4.468
	c0.003,0.37,0.009,0.74,0.011,1.11l0.059,7.176l-0.361-0.026C44.889,86.827,44.089,86.751,43.307,86.657z M77.104,142.107
	c-4.057-0.066-8.153-0.234-12.269-0.344c-4.116-0.109-8.245-0.309-12.411-0.301c-0.282,0.003-0.565,0.008-0.848,0.012
	c0.01-6.104,0.029-12.209,0.09-18.312c0.087-7.203,0.146-14.502,0.433-21.579c0.044-0.7,0.068-1.391,0.094-2.082
	c0.883,1.224,1.762,2.455,2.642,3.69l8.024,11.391l15.965,22.957c1.056,1.521,2.124,3.037,3.184,4.559
	C80.394,142.122,78.756,142.127,77.104,142.107z M109.229,167.33c-2.765-3.703-5.48-7.465-8.181-11.246
	c-2.885-4.061-5.756-8.137-8.623-12.223c-0.026-0.151-0.057-0.305-0.108-0.455c-0.006-0.021-0.021-0.037-0.025-0.059
	c-0.014-0.271-0.029-0.531-0.043-0.805c-0.059-1.438-0.087-2.896-0.105-4.359l-0.025-8.814l0.119-17.701l0.104-17.731
	c0.015-2.959,0.035-5.92-0.065-8.89c-0.041-1.485-0.116-2.972-0.229-4.467c-0.05-0.749-0.123-1.498-0.21-2.259
	c-0.065-0.579-0.125-1.143-0.231-1.769c2.174-1.779,4.256-3.664,6.24-5.643c2.907,0.748,5.799,1.855,8.631,3.086
	c2.885,1.279,5.662,2.764,8.315,4.426c-0.021,0.144-0.036,0.286-0.052,0.424c-0.069,0.65-0.112,1.264-0.149,1.874
	c-0.071,1.216-0.11,2.404-0.142,3.59c-0.059,2.369-0.073,4.717-0.074,7.062c0.001,4.688,0.053,9.361,0.132,14.033l0.716,27.988
	l0.728,27.941c0.095,4.646,0.18,9.299,0.176,13.906l-0.009,0.896C113.769,173.34,111.479,170.329,109.229,167.33z M115.883,182.412
	c0,0,0,0.001,0,0.002c-0.006,0.016-0.008,0.021-0.012,0.031l0,0C115.875,182.436,115.878,182.426,115.883,182.412z M131.511,167.045
	c-2.414,3.455-5.177,6.65-8.248,9.523l-0.009-1.371c-0.071-4.719-0.229-9.389-0.399-14.062l-1.166-27.975l-1.152-27.932
	c-0.184-4.646-0.362-9.295-0.479-13.93c-0.058-2.316-0.101-4.631-0.104-6.925c0-0.771,0.018-1.528,0.031-2.288
	c3.709,2.941,7.043,6.331,9.89,10.101c3.996,5.295,7.078,11.285,9.21,17.631c1.066,3.174,1.914,6.432,2.545,9.74
	c0.316,1.656,0.585,3.312,0.799,5.002c0.19,1.582,0.32,3.273,0.381,4.916C143.297,142.738,139.144,156.154,131.511,167.045z"/>
</svg>
