<?xml version="1.0" encoding="utf-8"?>
<!-- Generator: Adobe Illustrator 15.0.2, SVG Export Plug-In . SVG Version: 6.00 Build 0)  -->
<!DOCTYPE svg PUBLIC "-//W3C//DTD SVG 1.1//EN" "http://www.w3.org/Graphics/SVG/1.1/DTD/svg11.dtd">
<svg version="1.1" id="Layer_1" xmlns="http://www.w3.org/2000/svg" xmlns:xlink="http://www.w3.org/1999/xlink" x="0px" y="0px"
	 width="100px" height="100px" viewBox="0 0 100 100" enable-background="new 0 0 100 100" xml:space="preserve">
<g>
	<g>
		<path fill="#FFFFFF" d="M30.898,29.896c0,0.552-0.449,1-1,1H13.695c-0.551,0-1-0.448-1-1V13.695c0-0.551,0.449-1,1-1h16.203
			c0.551,0,1,0.449,1,1V29.896z"/>
		<path fill="none" stroke="#6D6E70" stroke-width="2" stroke-miterlimit="10" d="M30.898,29.896c0,0.552-0.449,1-1,1H13.695
			c-0.551,0-1-0.448-1-1V13.695c0-0.551,0.449-1,1-1h16.203c0.551,0,1,0.449,1,1V29.896z"/>
	</g>
	<g>
		<path fill="#FFFFFF" d="M59.102,29.896c0,0.552-0.449,1-1,1H41.898c-0.551,0-1-0.448-1-1V13.695c0-0.551,0.449-1,1-1h16.204
			c0.551,0,1,0.449,1,1V29.896L59.102,29.896z"/>
		<path fill="none" stroke="#6D6E70" stroke-width="2" stroke-miterlimit="10" d="M59.102,29.896c0,0.552-0.449,1-1,1H41.898
			c-0.551,0-1-0.448-1-1V13.695c0-0.551,0.449-1,1-1h16.204c0.551,0,1,0.449,1,1V29.896L59.102,29.896z"/>
	</g>
	<g>
		<path fill="#FFFFFF" d="M87.305,29.896c0,0.552-0.447,1-1,1H70.102c-0.549,0-1-0.448-1-1V13.695c0-0.551,0.451-1,1-1h16.203
			c0.553,0,1,0.449,1,1V29.896z"/>
		<path fill="none" stroke="#6D6E70" stroke-width="2" stroke-miterlimit="10" d="M87.305,29.896c0,0.552-0.447,1-1,1H70.102
			c-0.549,0-1-0.448-1-1V13.695c0-0.551,0.451-1,1-1h16.203c0.553,0,1,0.449,1,1V29.896z"/>
	</g>
</g>
<g>
	<g>
		<path fill="#FFFFFF" d="M30.898,58.102c0,0.551-0.449,1-1,1H13.695c-0.551,0-1-0.449-1-1V41.896c0-0.549,0.449-1,1-1h16.203
			c0.551,0,1,0.451,1,1V58.102z"/>
		<path fill="none" stroke="#6D6E70" stroke-width="2" stroke-miterlimit="10" d="M30.898,58.102c0,0.551-0.449,1-1,1H13.695
			c-0.551,0-1-0.449-1-1V41.896c0-0.549,0.449-1,1-1h16.203c0.551,0,1,0.451,1,1V58.102z"/>
	</g>
	<g>
		<path fill="#FFFFFF" d="M59.102,58.102c0,0.551-0.449,1-1,1H41.898c-0.551,0-1-0.449-1-1V41.896c0-0.549,0.449-1,1-1h16.204
			c0.551,0,1,0.451,1,1V58.102L59.102,58.102z"/>
		<path fill="none" stroke="#6D6E70" stroke-width="2" stroke-miterlimit="10" d="M59.102,58.102c0,0.551-0.449,1-1,1H41.898
			c-0.551,0-1-0.449-1-1V41.896c0-0.549,0.449-1,1-1h16.204c0.551,0,1,0.451,1,1V58.102L59.102,58.102z"/>
	</g>
	<g>
		<path fill="#FFFFFF" d="M87.305,58.102c0,0.551-0.447,1-1,1H70.102c-0.549,0-1-0.449-1-1V41.896c0-0.549,0.451-1,1-1h16.203
			c0.553,0,1,0.451,1,1V58.102z"/>
		<path fill="none" stroke="#6D6E70" stroke-width="2" stroke-miterlimit="10" d="M87.305,58.102c0,0.551-0.447,1-1,1H70.102
			c-0.549,0-1-0.449-1-1V41.896c0-0.549,0.451-1,1-1h16.203c0.553,0,1,0.451,1,1V58.102z"/>
	</g>
</g>
<g>
	<g>
		<path fill="#FFFFFF" d="M30.898,86.305c0,0.551-0.449,1-1,1H13.695c-0.551,0-1-0.449-1-1V70.102c0-0.551,0.449-1,1-1h16.203
			c0.551,0,1,0.449,1,1V86.305z"/>
		<path fill="none" stroke="#6D6E70" stroke-width="2" stroke-miterlimit="10" d="M30.898,86.305c0,0.551-0.449,1-1,1H13.695
			c-0.551,0-1-0.449-1-1V70.102c0-0.551,0.449-1,1-1h16.203c0.551,0,1,0.449,1,1V86.305z"/>
	</g>
	<g>
		<path fill="#FFFFFF" d="M59.102,86.305c0,0.551-0.449,1-1,1H41.898c-0.551,0-1-0.449-1-1V70.102c0-0.551,0.449-1,1-1h16.204
			c0.551,0,1,0.449,1,1V86.305L59.102,86.305z"/>
		<path fill="none" stroke="#6D6E70" stroke-width="2" stroke-miterlimit="10" d="M59.102,86.305c0,0.551-0.449,1-1,1H41.898
			c-0.551,0-1-0.449-1-1V70.102c0-0.551,0.449-1,1-1h16.204c0.551,0,1,0.449,1,1V86.305L59.102,86.305z"/>
	</g>
	<g>
		<path fill="#FFFFFF" d="M87.305,86.305c0,0.551-0.447,1-1,1H70.102c-0.549,0-1-0.449-1-1V70.102c0-0.551,0.451-1,1-1h16.203
			c0.553,0,1,0.449,1,1V86.305z"/>
		<path fill="none" stroke="#6D6E70" stroke-width="2" stroke-miterlimit="10" d="M87.305,86.305c0,0.551-0.447,1-1,1H70.102
			c-0.549,0-1-0.449-1-1V70.102c0-0.551,0.451-1,1-1h16.203c0.553,0,1,0.449,1,1V86.305z"/>
	</g>
</g>
<g>
	<g>
		<g>
			<line fill="none" stroke="#DD5045" stroke-width="2" stroke-miterlimit="10" x1="21.797" y1="50" x2="50.002" y2="21.796"/>
			<circle fill="#FFFFFF" stroke="#DD5045" stroke-width="2" stroke-miterlimit="10" cx="21.797" cy="49.999" r="2.833"/>
		</g>
		<circle fill="#FFFFFF" stroke="#DD5045" stroke-width="2" stroke-miterlimit="10" cx="50.002" cy="21.796" r="2.833"/>
	</g>
	<line fill="none" stroke="#DD5045" stroke-width="2" stroke-miterlimit="10" x1="50" y1="50" x2="78.205" y2="50"/>
	<circle fill="none" stroke="#DD5045" stroke-width="2" stroke-miterlimit="10" cx="50.002" cy="49.999" r="2.833"/>
	<circle fill="none" stroke="#DD5045" stroke-width="2" stroke-miterlimit="10" cx="78.203" cy="50" r="2.833"/>
	<g>
		<line fill="none" stroke="#DD5045" stroke-width="2" stroke-miterlimit="10" x1="50" y1="49.999" x2="50" y2="78.203"/>
		<circle fill="#FFFFFF" stroke="#DD5045" stroke-width="2" stroke-miterlimit="10" cx="50.002" cy="50" r="2.833"/>
		<circle fill="#FFFFFF" stroke="#DD5045" stroke-width="2" stroke-miterlimit="10" cx="50" cy="78.203" r="2.834"/>
	</g>
	<g>
		<g>
			<line fill="none" stroke="#DD5045" stroke-width="2" stroke-miterlimit="10" x1="21.797" y1="21.795" x2="21.797" y2="49.999"/>
			<circle fill="#FFFFFF" stroke="#DD5045" stroke-width="2" stroke-miterlimit="10" cx="21.797" cy="21.796" r="2.833"/>
		</g>
		<circle fill="#FFFFFF" stroke="#DD5045" stroke-width="2" stroke-miterlimit="10" cx="21.797" cy="49.999" r="2.834"/>
	</g>
	<line fill="none" stroke="#DD5045" stroke-width="2" stroke-miterlimit="10" x1="50" y1="78.205" x2="78.205" y2="78.205"/>
	<circle fill="#FFFFFF" stroke="#DD5045" stroke-width="2" stroke-miterlimit="10" cx="50" cy="78.204" r="2.833"/>
	<circle fill="#FFFFFF" stroke="#DD5045" stroke-width="2" stroke-miterlimit="10" cx="78.205" cy="78.205" r="2.834"/>
	<g>
		<line fill="none" stroke="#DD5045" stroke-width="2" stroke-miterlimit="10" x1="21.797" y1="21.795" x2="78.203" y2="50"/>
		<circle fill="#FFFFFF" stroke="#DD5045" stroke-width="2" stroke-miterlimit="10" cx="21.797" cy="21.795" r="2.834"/>
		<circle fill="#FFFFFF" stroke="#DD5045" stroke-width="2" stroke-miterlimit="10" cx="78.203" cy="50" r="2.834"/>
	</g>
</g>
</svg>
