<?xml version="1.0" encoding="utf-8"?>
<!-- Generator: Adobe Illustrator 15.0.2, SVG Export Plug-In . SVG Version: 6.00 Build 0)  -->
<!DOCTYPE svg PUBLIC "-//W3C//DTD SVG 1.1//EN" "http://www.w3.org/Graphics/SVG/1.1/DTD/svg11.dtd">
<svg version="1.1" id="Layer_1" xmlns="http://www.w3.org/2000/svg" xmlns:xlink="http://www.w3.org/1999/xlink" x="0px" y="0px"
	 width="100px" height="100px" viewBox="231.5 49.5 100 100" enable-background="new 231.5 49.5 100 100" xml:space="preserve">
<g>
	<path fill="#FFFFFF" d="M167.439,127.943c-0.113,0.539-0.646,0.889-1.184,0.775l-15.859-3.311
		c-0.538-0.113-0.888-0.645-0.775-1.184l3.31-15.861c0.113-0.539,0.645-0.889,1.184-0.775l15.861,3.311
		c0.539,0.113,0.888,0.645,0.774,1.182L167.439,127.943z"/>
	<path fill="none" stroke="#6D6E70" stroke-width="2" stroke-miterlimit="10" d="M167.439,127.943
		c-0.113,0.539-0.646,0.889-1.184,0.775l-15.859-3.311c-0.538-0.113-0.888-0.645-0.775-1.184l3.31-15.861
		c0.113-0.539,0.645-0.889,1.184-0.775l15.861,3.311c0.539,0.113,0.888,0.645,0.774,1.182L167.439,127.943z"/>
</g>
<g>
	<path fill="#FFFFFF" d="M127.77,103.172c0.063,0.546-0.331,1.045-0.877,1.107L110.8,106.16c-0.546,0.064-1.046-0.33-1.109-0.876
		l-1.882-16.096c-0.063-0.546,0.332-1.046,0.878-1.109l16.094-1.878c0.546-0.064,1.045,0.331,1.109,0.877L127.77,103.172z"/>
	<path fill="none" stroke="#6D6E70" stroke-width="2" stroke-miterlimit="10" d="M127.77,103.172
		c0.063,0.546-0.331,1.045-0.877,1.107L110.8,106.16c-0.546,0.064-1.046-0.33-1.109-0.876l-1.882-16.096
		c-0.063-0.546,0.332-1.046,0.878-1.109l16.094-1.878c0.546-0.064,1.045,0.331,1.109,0.877L127.77,103.172z"/>
</g>
<g>
	<path fill="#FFFFFF" d="M151.771,129.924c0.107,0.539-0.247,1.067-0.786,1.174l-15.893,3.149c-0.54,0.106-1.068-0.245-1.176-0.785
		l-3.151-15.896c-0.106-0.54,0.248-1.069,0.787-1.176l15.894-3.148c0.54-0.106,1.069,0.248,1.177,0.787L151.771,129.924z"/>
	<path fill="none" stroke="#6D6E70" stroke-width="2" stroke-miterlimit="10" d="M151.771,129.924
		c0.107,0.539-0.247,1.067-0.786,1.174l-15.893,3.149c-0.54,0.106-1.068-0.245-1.176-0.785l-3.151-15.896
		c-0.106-0.54,0.248-1.069,0.787-1.176l15.894-3.148c0.54-0.106,1.069,0.248,1.177,0.787L151.771,129.924z"/>
</g>
<g>
	<path fill="#FFFFFF" d="M135.751,101.45c-0.186,0.519-0.761,0.79-1.278,0.604l-15.256-5.458c-0.518-0.186-0.79-0.761-0.604-1.278
		l5.457-15.257c0.186-0.518,0.761-0.79,1.278-0.604l15.257,5.457c0.518,0.186,0.79,0.761,0.604,1.278L135.751,101.45z"/>
	<path fill="none" stroke="#6D6E70" stroke-width="2" stroke-miterlimit="10" d="M135.751,101.45
		c-0.186,0.519-0.761,0.79-1.278,0.604l-15.256-5.458c-0.518-0.186-0.79-0.761-0.604-1.278l5.457-15.257
		c0.186-0.518,0.761-0.79,1.278-0.604l15.257,5.457c0.518,0.186,0.79,0.761,0.604,1.278L135.751,101.45z"/>
</g>
<g>
	<path fill="#FFFFFF" d="M160.344,115.389c-0.187,0.518-0.762,0.789-1.279,0.604l-15.255-5.457c-0.518-0.186-0.79-0.761-0.604-1.277
		L148.662,94c0.186-0.518,0.761-0.79,1.278-0.604l15.257,5.456c0.518,0.186,0.79,0.761,0.604,1.277L160.344,115.389z"/>
	<path fill="none" stroke="#6D6E70" stroke-width="2" stroke-miterlimit="10" d="M160.344,115.389
		c-0.187,0.518-0.762,0.789-1.279,0.604l-15.255-5.457c-0.518-0.186-0.79-0.761-0.604-1.277L148.662,94
		c0.186-0.518,0.761-0.79,1.278-0.604l15.257,5.456c0.518,0.186,0.79,0.761,0.604,1.277L160.344,115.389z"/>
</g>
<g>
	<path fill="#FFFFFF" d="M153.072,101.644c-0.085,0.543-0.6,0.918-1.143,0.833l-16.006-2.516c-0.543-0.085-0.918-0.6-0.833-1.143
		l2.517-16.009c0.085-0.543,0.6-0.918,1.143-0.833l16.008,2.517c0.543,0.085,0.918,0.6,0.832,1.143L153.072,101.644z"/>
	<path fill="none" stroke="#6D6E70" stroke-width="2" stroke-miterlimit="10" d="M153.072,101.644
		c-0.085,0.543-0.6,0.918-1.143,0.833l-16.006-2.516c-0.543-0.085-0.918-0.6-0.833-1.143l2.517-16.009
		c0.085-0.543,0.6-0.918,1.143-0.833l16.008,2.517c0.543,0.085,0.918,0.6,0.832,1.143L153.072,101.644z"/>
</g>
<g>
	<path fill="#FFFFFF" d="M145.001,79.315c0.187,0.518-0.084,1.093-0.602,1.28l-15.244,5.494c-0.518,0.187-1.093-0.084-1.28-0.602
		l-5.494-15.243c-0.187-0.518,0.084-1.093,0.602-1.28l15.242-5.494c0.518-0.187,1.094,0.084,1.28,0.602L145.001,79.315z"/>
	<path fill="none" stroke="#6D6E70" stroke-width="2" stroke-miterlimit="10" d="M145.001,79.315
		c0.187,0.518-0.084,1.093-0.602,1.28l-15.244,5.494c-0.518,0.187-1.093-0.084-1.28-0.602l-5.494-15.243
		c-0.187-0.518,0.084-1.093,0.602-1.28l15.242-5.494c0.518-0.187,1.094,0.084,1.28,0.602L145.001,79.315z"/>
</g>
<g>
	<path fill="#FFFFFF" d="M181.773,131.656c0.055,0.547-0.347,1.038-0.896,1.094l-16.123,1.611c-0.548,0.056-1.04-0.349-1.095-0.896
		l-1.611-16.123c-0.056-0.549,0.348-1.039,0.896-1.094l16.121-1.612c0.549-0.055,1.042,0.349,1.096,0.896L181.773,131.656z"/>
	<path fill="none" stroke="#6D6E70" stroke-width="2" stroke-miterlimit="10" d="M181.773,131.656
		c0.055,0.547-0.347,1.038-0.896,1.094l-16.123,1.611c-0.548,0.056-1.04-0.349-1.095-0.896l-1.611-16.123
		c-0.056-0.549,0.348-1.039,0.896-1.094l16.121-1.612c0.549-0.055,1.042,0.349,1.096,0.896L181.773,131.656z"/>
</g>
<g>
	<path fill="#FFFFFF" d="M162.734,80.449c-0.127,0.535-0.667,0.87-1.203,0.744l-15.772-3.717c-0.535-0.126-0.87-0.667-0.744-1.203
		l3.717-15.771c0.126-0.535,0.667-0.87,1.203-0.744l15.771,3.717c0.535,0.126,0.87,0.667,0.744,1.203L162.734,80.449z"/>
	<path fill="none" stroke="#6D6E70" stroke-width="2" stroke-miterlimit="10" d="M162.734,80.449
		c-0.127,0.535-0.667,0.87-1.203,0.744l-15.772-3.717c-0.535-0.126-0.87-0.667-0.744-1.203l3.717-15.771
		c0.126-0.535,0.667-0.87,1.203-0.744l15.771,3.717c0.535,0.126,0.87,0.667,0.744,1.203L162.734,80.449z"/>
</g>
<g>
	<path fill="#FFFFFF" d="M141.889,114.682c0.284,0.471,0.131,1.089-0.34,1.373l-13.875,8.369c-0.471,0.283-1.089,0.131-1.373-0.34
		l-8.368-13.88c-0.284-0.471-0.131-1.089,0.34-1.372l13.875-8.365c0.471-0.285,1.089-0.131,1.373,0.34L141.889,114.682z"/>
	<path fill="none" stroke="#6D6E70" stroke-width="2" stroke-miterlimit="10" d="M141.889,114.682
		c0.284,0.471,0.131,1.089-0.34,1.373l-13.875,8.369c-0.471,0.283-1.089,0.131-1.373-0.34l-8.368-13.88
		c-0.284-0.471-0.131-1.089,0.34-1.372l13.875-8.365c0.471-0.285,1.089-0.131,1.373,0.34L141.889,114.682z"/>
</g>
<g>
	<path fill="#FFFFFF" d="M173.93,90.86c0.01,0.55-0.433,1.008-0.982,1.018l-16.2,0.29c-0.55,0.01-1.008-0.432-1.019-0.982
		l-0.291-16.2c-0.01-0.55,0.433-1.008,0.982-1.018l16.199-0.292c0.55-0.01,1.008,0.432,1.018,0.982L173.93,90.86z"/>
	<path fill="none" stroke="#6D6E70" stroke-width="2" stroke-miterlimit="10" d="M173.93,90.86c0.01,0.55-0.433,1.008-0.982,1.018
		l-16.2,0.29c-0.55,0.01-1.008-0.432-1.019-0.982l-0.291-16.2c-0.01-0.55,0.433-1.008,0.982-1.018l16.199-0.292
		c0.55-0.01,1.008,0.432,1.018,0.982L173.93,90.86z"/>
</g>
<g>
	<path fill="#FFFFFF" d="M182.641,108.258c0.229,0.5,0.008,1.098-0.492,1.326l-14.721,6.764c-0.5,0.229-1.098,0.009-1.326-0.491
		l-6.767-14.724c-0.229-0.5-0.009-1.098,0.491-1.327l14.725-6.765c0.5-0.229,1.096-0.009,1.325,0.491L182.641,108.258z"/>
	<path fill="none" stroke="#6D6E70" stroke-width="2" stroke-miterlimit="10" d="M182.641,108.258
		c0.229,0.5,0.008,1.098-0.492,1.326l-14.721,6.764c-0.5,0.229-1.098,0.009-1.326-0.491l-6.767-14.724
		c-0.229-0.5-0.009-1.098,0.491-1.327l14.725-6.765c0.5-0.229,1.096-0.009,1.325,0.491L182.641,108.258z"/>
</g>
<g>
	<path fill="#FFFFFF" d="M187.528,98.62c0.014,0.55-0.424,1.013-0.974,1.026l-16.195,0.42c-0.55,0.014-1.012-0.424-1.026-0.974
		l-0.422-16.198c-0.014-0.551,0.424-1.013,0.974-1.026l16.198-0.421c0.55-0.014,1.012,0.424,1.025,0.973L187.528,98.62z"/>
	<path fill="none" stroke="#6D6E70" stroke-width="2" stroke-miterlimit="10" d="M187.528,98.62c0.014,0.55-0.424,1.013-0.974,1.026
		l-16.195,0.42c-0.55,0.014-1.012-0.424-1.026-0.974l-0.422-16.198c-0.014-0.551,0.424-1.013,0.974-1.026l16.198-0.421
		c0.55-0.014,1.012,0.424,1.025,0.973L187.528,98.62z"/>
</g>
<g>
	<g>
		<path fill="#FFFFFF" d="M262.398,79.397c0,0.551-0.449,1-1,1h-16.203c-0.551,0-1-0.449-1-1V63.195c0-0.551,0.449-1,1-1h16.203
			c0.551,0,1,0.449,1,1V79.397z"/>
		<path fill="none" stroke="#6D6E70" stroke-width="2" stroke-miterlimit="10" d="M262.398,79.397c0,0.551-0.449,1-1,1h-16.203
			c-0.551,0-1-0.449-1-1V63.195c0-0.551,0.449-1,1-1h16.203c0.551,0,1,0.449,1,1V79.397z"/>
	</g>
	<g>
		<path fill="#FFFFFF" d="M290.602,79.397c0,0.551-0.449,1-1,1h-16.203c-0.551,0-1-0.449-1-1V63.195c0-0.551,0.449-1,1-1h16.203
			c0.551,0,1,0.449,1,1V79.397z"/>
		<path fill="none" stroke="#6D6E70" stroke-width="2" stroke-miterlimit="10" d="M290.602,79.397c0,0.551-0.449,1-1,1h-16.203
			c-0.551,0-1-0.449-1-1V63.195c0-0.551,0.449-1,1-1h16.203c0.551,0,1,0.449,1,1V79.397z"/>
	</g>
	<g>
		<path fill="#FFFFFF" d="M318.805,79.397c0,0.551-0.449,1-1,1h-16.203c-0.549,0-1-0.449-1-1V63.195c0-0.551,0.451-1,1-1h16.203
			c0.551,0,1,0.449,1,1V79.397z"/>
		<path fill="none" stroke="#6D6E70" stroke-width="2" stroke-miterlimit="10" d="M318.805,79.397c0,0.551-0.449,1-1,1h-16.203
			c-0.549,0-1-0.449-1-1V63.195c0-0.551,0.451-1,1-1h16.203c0.551,0,1,0.449,1,1V79.397z"/>
	</g>
</g>
<g>
	<g>
		<path fill="#FFFFFF" d="M262.398,107.602c0,0.551-0.449,1-1,1h-16.203c-0.551,0-1-0.449-1-1V91.397c0-0.55,0.449-1,1-1h16.203
			c0.551,0,1,0.45,1,1V107.602z"/>
		<path fill="none" stroke="#6D6E70" stroke-width="2" stroke-miterlimit="10" d="M262.398,107.602c0,0.551-0.449,1-1,1h-16.203
			c-0.551,0-1-0.449-1-1V91.397c0-0.55,0.449-1,1-1h16.203c0.551,0,1,0.45,1,1V107.602z"/>
	</g>
	<g>
		<path fill="#FFFFFF" d="M290.602,107.602c0,0.551-0.449,1-1,1h-16.203c-0.551,0-1-0.449-1-1V91.397c0-0.55,0.449-1,1-1h16.203
			c0.551,0,1,0.45,1,1V107.602z"/>
		<path fill="none" stroke="#6D6E70" stroke-width="2" stroke-miterlimit="10" d="M290.602,107.602c0,0.551-0.449,1-1,1h-16.203
			c-0.551,0-1-0.449-1-1V91.397c0-0.55,0.449-1,1-1h16.203c0.551,0,1,0.45,1,1V107.602z"/>
	</g>
	<g>
		<path fill="#FFFFFF" d="M318.805,107.602c0,0.551-0.449,1-1,1h-16.203c-0.549,0-1-0.449-1-1V91.397c0-0.55,0.451-1,1-1h16.203
			c0.551,0,1,0.45,1,1V107.602z"/>
		<path fill="none" stroke="#6D6E70" stroke-width="2" stroke-miterlimit="10" d="M318.805,107.602c0,0.551-0.449,1-1,1h-16.203
			c-0.549,0-1-0.449-1-1V91.397c0-0.55,0.451-1,1-1h16.203c0.551,0,1,0.45,1,1V107.602z"/>
	</g>
</g>
<g>
	<g>
		<path fill="#FFFFFF" d="M262.398,135.805c0,0.55-0.449,1-1,1h-16.203c-0.551,0-1-0.45-1-1v-16.204c0-0.55,0.449-1,1-1h16.203
			c0.551,0,1,0.45,1,1V135.805z"/>
		<path fill="none" stroke="#6D6E70" stroke-width="2" stroke-miterlimit="10" d="M262.398,135.805c0,0.55-0.449,1-1,1h-16.203
			c-0.551,0-1-0.45-1-1v-16.204c0-0.55,0.449-1,1-1h16.203c0.551,0,1,0.45,1,1V135.805z"/>
	</g>
	<g>
		<path fill="#FFFFFF" d="M290.602,135.805c0,0.55-0.449,1-1,1h-16.203c-0.551,0-1-0.45-1-1v-16.204c0-0.55,0.449-1,1-1h16.203
			c0.551,0,1,0.45,1,1V135.805z"/>
		<path fill="none" stroke="#6D6E70" stroke-width="2" stroke-miterlimit="10" d="M290.602,135.805c0,0.55-0.449,1-1,1h-16.203
			c-0.551,0-1-0.45-1-1v-16.204c0-0.55,0.449-1,1-1h16.203c0.551,0,1,0.45,1,1V135.805z"/>
	</g>
	<g>
		<path fill="#FFFFFF" d="M318.805,135.805c0,0.55-0.449,1-1,1h-16.203c-0.549,0-1-0.45-1-1v-16.204c0-0.55,0.451-1,1-1h16.203
			c0.551,0,1,0.45,1,1V135.805z"/>
		<path fill="none" stroke="#6D6E70" stroke-width="2" stroke-miterlimit="10" d="M318.805,135.805c0,0.55-0.449,1-1,1h-16.203
			c-0.549,0-1-0.45-1-1v-16.204c0-0.55,0.451-1,1-1h16.203c0.551,0,1,0.45,1,1V135.805z"/>
	</g>
</g>
<g>
	<g>
		<g>
			<line fill="none" stroke="#E8AE30" stroke-width="2" stroke-miterlimit="10" x1="253.297" y1="99.5" x2="281.502" y2="71.296"/>
			<circle fill="#FFFFFF" stroke="#E8AE30" stroke-width="2" stroke-miterlimit="10" cx="253.297" cy="99.499" r="2.833"/>
		</g>
		<circle fill="#FFFFFF" stroke="#E8AE30" stroke-width="2" stroke-miterlimit="10" cx="281.502" cy="71.296" r="2.833"/>
	</g>
	<line fill="none" stroke="#E8AE30" stroke-width="2" stroke-miterlimit="10" x1="281.5" y1="99.5" x2="309.705" y2="99.5"/>
	<circle fill="none" stroke="#E8AE30" stroke-width="2" stroke-miterlimit="10" cx="281.502" cy="99.499" r="2.833"/>
	<circle fill="none" stroke="#E8AE30" stroke-width="2" stroke-miterlimit="10" cx="309.703" cy="99.5" r="2.833"/>
	<g>
		<line fill="none" stroke="#E8AE30" stroke-width="2" stroke-miterlimit="10" x1="281.5" y1="99.499" x2="281.5" y2="127.703"/>
		<circle fill="#FFFFFF" stroke="#E8AE30" stroke-width="2" stroke-miterlimit="10" cx="281.502" cy="99.5" r="2.833"/>
		<circle fill="#FFFFFF" stroke="#E8AE30" stroke-width="2" stroke-miterlimit="10" cx="281.5" cy="127.703" r="2.834"/>
	</g>
	<g>
		<g>
			
				<line fill="none" stroke="#E8AE30" stroke-width="2" stroke-miterlimit="10" x1="253.297" y1="71.295" x2="253.297" y2="99.499"/>
			<circle fill="#FFFFFF" stroke="#E8AE30" stroke-width="2" stroke-miterlimit="10" cx="253.297" cy="71.296" r="2.833"/>
		</g>
		<circle fill="#FFFFFF" stroke="#E8AE30" stroke-width="2" stroke-miterlimit="10" cx="253.297" cy="99.499" r="2.834"/>
	</g>
	<line fill="none" stroke="#E8AE30" stroke-width="2" stroke-miterlimit="10" x1="281.5" y1="127.705" x2="309.705" y2="127.705"/>
	<circle fill="#FFFFFF" stroke="#E8AE30" stroke-width="2" stroke-miterlimit="10" cx="281.5" cy="127.704" r="2.833"/>
	<circle fill="#FFFFFF" stroke="#E8AE30" stroke-width="2" stroke-miterlimit="10" cx="309.705" cy="127.705" r="2.834"/>
	<g>
		<line fill="none" stroke="#E8AE30" stroke-width="2" stroke-miterlimit="10" x1="253.297" y1="71.295" x2="309.703" y2="99.5"/>
		<circle fill="#FFFFFF" stroke="#E8AE30" stroke-width="2" stroke-miterlimit="10" cx="253.297" cy="71.295" r="2.834"/>
		<circle fill="#FFFFFF" stroke="#E8AE30" stroke-width="2" stroke-miterlimit="10" cx="309.703" cy="99.5" r="2.834"/>
	</g>
</g>
<g>
	<g>
		<g>
			<g>
				<path fill="#FFFFFF" stroke="#BBBCBE" stroke-width="2" stroke-miterlimit="10" d="M464.369,118.87c0,0.551-0.449,1-1,1h-78
					c-0.549,0-1-0.449-1-1v-58c0-0.55,0.451-1,1-1h78c0.551,0,1,0.45,1,1V118.87z"/>
			</g>
		</g>
		<rect x="384.869" y="59.87" fill="#BBBCBE" width="79" height="3.261"/>
	</g>
	<g>
		<g>
			<g>
				<path fill="#FFFFFF" stroke="#BBBCBE" stroke-width="2" stroke-miterlimit="10" d="M472.096,128.598c0,0.55-0.449,1-1,1h-78
					c-0.549,0-1-0.45-1-1v-58c0-0.55,0.451-1,1-1h78c0.551,0,1,0.45,1,1V128.598z"/>
			</g>
		</g>
		<rect x="392.596" y="69.598" fill="#BBBCBE" width="79" height="3.26"/>
	</g>
	<g>
		<g>
			<path fill="#FFFFFF" stroke="#6D6E70" stroke-width="2" stroke-miterlimit="10" d="M480.629,138.13c0,0.551-0.449,1-1,1h-78
				c-0.549,0-1-0.449-1-1V80.129c0-0.55,0.451-1,1-1h78c0.551,0,1,0.45,1,1V138.13z"/>
		</g>
	</g>
	
		<line fill="none" stroke="#6D6E70" stroke-width="2" stroke-linecap="round" stroke-miterlimit="10" x1="409.705" y1="89.465" x2="417.41" y2="89.465"/>
	
		<line fill="none" stroke="#6D6E70" stroke-width="2" stroke-linecap="round" stroke-miterlimit="10" x1="409.705" y1="96.506" x2="437.221" y2="96.506"/>
	
		<line fill="none" stroke="#6D6E70" stroke-width="2" stroke-linecap="round" stroke-miterlimit="10" x1="409.705" y1="100.506" x2="462.088" y2="100.506"/>
	
		<line fill="none" stroke="#6D6E70" stroke-width="2" stroke-linecap="round" stroke-miterlimit="10" x1="448.443" y1="89.465" x2="456.148" y2="89.465"/>
	
		<line fill="none" stroke="#6D6E70" stroke-width="2" stroke-linecap="round" stroke-miterlimit="10" x1="463.756" y1="89.465" x2="471.463" y2="89.465"/>
	<g>
		<path fill="#BBBCBE" d="M472.582,114.298c0,0.55-0.449,1-1,1h-62c-0.549,0-1-0.45-1-1v-5.602c0-0.551,0.451-1,1-1h62
			c0.551,0,1,0.449,1,1V114.298z"/>
	</g>
	<g>
		<path fill="#BBBCBE" d="M472.582,125.899c0,0.551-0.449,1-1,1h-62c-0.549,0-1-0.449-1-1v-5.602c0-0.551,0.451-1,1-1h62
			c0.551,0,1,0.449,1,1V125.899z"/>
	</g>
	<g>
		<path fill="#BBBCBE" d="M472.582,138.13h-64v-6.23c0-0.551,0.451-1,1-1h62c0.551,0,1,0.449,1,1V138.13z"/>
	</g>
	<rect x="401.629" y="79.131" fill="#6D6E70" width="79.002" height="3.26"/>
</g>
</svg>
