<?xml version="1.0" encoding="utf-8"?>
<!-- Generator: Adobe Illustrator 15.0.2, SVG Export Plug-In . SVG Version: 6.00 Build 0)  -->
<!DOCTYPE svg PUBLIC "-//W3C//DTD SVG 1.1//EN" "http://www.w3.org/Graphics/SVG/1.1/DTD/svg11.dtd">
<svg version="1.1" id="Layer_1" xmlns="http://www.w3.org/2000/svg" xmlns:xlink="http://www.w3.org/1999/xlink" x="0px" y="0px"
	 width="500px" height="200px" viewBox="0 0 500 200" enable-background="new 0 0 500 200" xml:space="preserve">
<g>
	<g>
		<path fill="#FFFFFF" d="M50.57,83.298c-0.186,0.518-0.761,0.79-1.278,0.604l-15.256-5.458c-0.518-0.186-0.79-0.761-0.604-1.278
			l5.457-15.257c0.186-0.518,0.761-0.79,1.278-0.604l15.257,5.457c0.518,0.186,0.79,0.761,0.604,1.278L50.57,83.298z"/>
		<path fill="none" stroke="#6D6E70" stroke-width="2" stroke-miterlimit="10" d="M50.57,83.298
			c-0.186,0.518-0.761,0.79-1.278,0.604l-15.256-5.458c-0.518-0.186-0.79-0.761-0.604-1.278l5.457-15.257
			c0.186-0.518,0.761-0.79,1.278-0.604l15.257,5.457c0.518,0.186,0.79,0.761,0.604,1.278L50.57,83.298z"/>
	</g>
	<g>
		<path fill="#FFFFFF" d="M75.162,97.236c-0.186,0.518-0.761,0.79-1.278,0.604l-15.256-5.457c-0.518-0.186-0.79-0.761-0.604-1.278
			l5.457-15.258c0.186-0.518,0.761-0.79,1.278-0.604l15.257,5.456c0.518,0.186,0.79,0.761,0.604,1.278L75.162,97.236z"/>
		<path fill="none" stroke="#6D6E70" stroke-width="2" stroke-miterlimit="10" d="M75.162,97.236
			c-0.186,0.518-0.761,0.79-1.278,0.604l-15.256-5.457c-0.518-0.186-0.79-0.761-0.604-1.278l5.457-15.258
			c0.186-0.518,0.761-0.79,1.278-0.604l15.257,5.456c0.518,0.186,0.79,0.761,0.604,1.278L75.162,97.236z"/>
	</g>
	<g>
		<path fill="#FFFFFF" d="M67.891,83.491c-0.085,0.543-0.6,0.918-1.143,0.833l-16.006-2.516c-0.543-0.085-0.918-0.6-0.833-1.143
			l2.517-16.009c0.085-0.543,0.6-0.918,1.143-0.833l16.007,2.517c0.543,0.085,0.918,0.6,0.833,1.143L67.891,83.491z"/>
		<path fill="none" stroke="#6D6E70" stroke-width="2" stroke-miterlimit="10" d="M67.891,83.491
			c-0.085,0.543-0.6,0.918-1.143,0.833l-16.006-2.516c-0.543-0.085-0.918-0.6-0.833-1.143l2.517-16.009
			c0.085-0.543,0.6-0.918,1.143-0.833l16.007,2.517c0.543,0.085,0.918,0.6,0.833,1.143L67.891,83.491z"/>
	</g>
	<g>
		<path fill="#FFFFFF" d="M59.82,61.163c0.187,0.518-0.084,1.093-0.602,1.28l-15.244,5.494c-0.518,0.187-1.093-0.084-1.28-0.602
			L37.2,52.092c-0.187-0.518,0.084-1.093,0.602-1.28l15.242-5.494c0.518-0.187,1.094,0.084,1.28,0.602L59.82,61.163z"/>
		<path fill="none" stroke="#6D6E70" stroke-width="2" stroke-miterlimit="10" d="M59.82,61.163c0.187,0.518-0.084,1.093-0.602,1.28
			l-15.244,5.494c-0.518,0.187-1.093-0.084-1.28-0.602L37.2,52.092c-0.187-0.518,0.084-1.093,0.602-1.28l15.242-5.494
			c0.518-0.187,1.094,0.084,1.28,0.602L59.82,61.163z"/>
	</g>
	<g>
		<path fill="#FFFFFF" d="M77.553,62.297c-0.126,0.535-0.667,0.87-1.203,0.744l-15.772-3.717c-0.535-0.126-0.87-0.667-0.744-1.203
			l3.717-15.771c0.126-0.535,0.667-0.87,1.203-0.744l15.771,3.717c0.535,0.126,0.87,0.667,0.744,1.203L77.553,62.297z"/>
		<path fill="none" stroke="#6D6E70" stroke-width="2" stroke-miterlimit="10" d="M77.553,62.297
			c-0.126,0.535-0.667,0.87-1.203,0.744l-15.772-3.717c-0.535-0.126-0.87-0.667-0.744-1.203l3.717-15.771
			c0.126-0.535,0.667-0.87,1.203-0.744l15.771,3.717c0.535,0.126,0.87,0.667,0.744,1.203L77.553,62.297z"/>
	</g>
	<g>
		<path fill="#FFFFFF" d="M56.708,96.529c0.284,0.471,0.131,1.089-0.34,1.373l-13.875,8.37c-0.471,0.283-1.089,0.131-1.373-0.34
			l-8.368-13.88c-0.284-0.471-0.131-1.089,0.34-1.373l13.875-8.365c0.471-0.284,1.089-0.131,1.373,0.34L56.708,96.529z"/>
		<path fill="none" stroke="#6D6E70" stroke-width="2" stroke-miterlimit="10" d="M56.708,96.529
			c0.284,0.471,0.131,1.089-0.34,1.373l-13.875,8.37c-0.471,0.283-1.089,0.131-1.373-0.34l-8.368-13.88
			c-0.284-0.471-0.131-1.089,0.34-1.373l13.875-8.365c0.471-0.284,1.089-0.131,1.373,0.34L56.708,96.529z"/>
	</g>
	<g>
		<path fill="#FFFFFF" d="M88.748,72.708c0.01,0.55-0.432,1.008-0.982,1.018l-16.2,0.29c-0.55,0.01-1.008-0.432-1.018-0.982
			l-0.291-16.2c-0.01-0.55,0.432-1.008,0.982-1.018l16.199-0.292c0.55-0.01,1.008,0.432,1.018,0.982L88.748,72.708z"/>
		<path fill="none" stroke="#6D6E70" stroke-width="2" stroke-miterlimit="10" d="M88.748,72.708c0.01,0.55-0.432,1.008-0.982,1.018
			l-16.2,0.29c-0.55,0.01-1.008-0.432-1.018-0.982l-0.291-16.2c-0.01-0.55,0.432-1.008,0.982-1.018l16.199-0.292
			c0.55-0.01,1.008,0.432,1.018,0.982L88.748,72.708z"/>
	</g>
	<g>
		<path fill="#FFFFFF" d="M97.459,90.106c0.229,0.5,0.009,1.097-0.491,1.326l-14.722,6.763c-0.5,0.229-1.097,0.009-1.326-0.491
			L74.154,82.98c-0.229-0.5-0.009-1.097,0.491-1.326l14.724-6.765c0.5-0.229,1.097-0.009,1.326,0.491L97.459,90.106z"/>
		<path fill="none" stroke="#6D6E70" stroke-width="2" stroke-miterlimit="10" d="M97.459,90.106c0.229,0.5,0.009,1.097-0.491,1.326
			l-14.722,6.763c-0.5,0.229-1.097,0.009-1.326-0.491L74.154,82.98c-0.229-0.5-0.009-1.097,0.491-1.326l14.724-6.765
			c0.5-0.229,1.097-0.009,1.326,0.491L97.459,90.106z"/>
	</g>
	<g>
		<path fill="#FFFFFF" d="M79.009,110.439c-0.042,0.549-0.525,0.963-1.073,0.92l-16.155-1.232c-0.548-0.042-0.963-0.523-0.921-1.072
			l1.232-16.159c0.042-0.548,0.525-0.963,1.073-0.921l16.156,1.235c0.548,0.042,0.963,0.525,0.921,1.073L79.009,110.439z"/>
		<path fill="none" stroke="#6D6E70" stroke-width="2" stroke-miterlimit="10" d="M79.009,110.439
			c-0.042,0.549-0.525,0.963-1.073,0.92l-16.155-1.232c-0.548-0.042-0.963-0.523-0.921-1.072l1.232-16.159
			c0.042-0.548,0.525-0.963,1.073-0.921l16.156,1.235c0.548,0.042,0.963,0.525,0.921,1.073L79.009,110.439z"/>
	</g>
</g>
<g>
	<g>
		<g>
			<path fill="#FFFFFF" d="M216.081,55.091c0,0.55-0.45,1-1,1h-16.204c-0.55,0-1-0.45-1-1V38.888c0-0.55,0.45-1,1-1h16.204
				c0.55,0,1,0.45,1,1V55.091z"/>
			<path fill="none" stroke="#6D6E70" stroke-width="2" stroke-miterlimit="10" d="M216.081,55.091c0,0.55-0.45,1-1,1h-16.204
				c-0.55,0-1-0.45-1-1V38.888c0-0.55,0.45-1,1-1h16.204c0.55,0,1,0.45,1,1V55.091z"/>
		</g>
		<g>
			<path fill="#FFFFFF" d="M244.284,55.091c0,0.55-0.45,1-1,1H227.08c-0.55,0-1-0.45-1-1V38.888c0-0.55,0.45-1,1-1h16.204
				c0.55,0,1,0.45,1,1V55.091z"/>
			<path fill="none" stroke="#6D6E70" stroke-width="2" stroke-miterlimit="10" d="M244.284,55.091c0,0.55-0.45,1-1,1H227.08
				c-0.55,0-1-0.45-1-1V38.888c0-0.55,0.45-1,1-1h16.204c0.55,0,1,0.45,1,1V55.091z"/>
		</g>
		<g>
			<path fill="#FFFFFF" d="M272.486,55.091c0,0.55-0.449,1-1,1h-16.202c-0.55,0-1-0.45-1-1V38.888c0-0.55,0.45-1,1-1h16.202
				c0.551,0,1,0.45,1,1V55.091z"/>
			<path fill="none" stroke="#6D6E70" stroke-width="2" stroke-miterlimit="10" d="M272.486,55.091c0,0.55-0.449,1-1,1h-16.202
				c-0.55,0-1-0.45-1-1V38.888c0-0.55,0.45-1,1-1h16.202c0.551,0,1,0.45,1,1V55.091z"/>
		</g>
	</g>
	<g>
		<g>
			<path fill="#FFFFFF" d="M216.081,83.295c0,0.55-0.45,1-1,1h-16.204c-0.55,0-1-0.45-1-1V67.091c0-0.55,0.45-1,1-1h16.204
				c0.55,0,1,0.45,1,1V83.295z"/>
			<path fill="none" stroke="#6D6E70" stroke-width="2" stroke-miterlimit="10" d="M216.081,83.295c0,0.55-0.45,1-1,1h-16.204
				c-0.55,0-1-0.45-1-1V67.091c0-0.55,0.45-1,1-1h16.204c0.55,0,1,0.45,1,1V83.295z"/>
		</g>
		<g>
			<path fill="#FFFFFF" d="M244.284,83.295c0,0.55-0.45,1-1,1H227.08c-0.55,0-1-0.45-1-1V67.091c0-0.55,0.45-1,1-1h16.204
				c0.55,0,1,0.45,1,1V83.295z"/>
			<path fill="none" stroke="#6D6E70" stroke-width="2" stroke-miterlimit="10" d="M244.284,83.295c0,0.55-0.45,1-1,1H227.08
				c-0.55,0-1-0.45-1-1V67.091c0-0.55,0.45-1,1-1h16.204c0.55,0,1,0.45,1,1V83.295z"/>
		</g>
		<g>
			<path fill="#FFFFFF" d="M272.486,83.295c0,0.55-0.449,1-1,1h-16.202c-0.55,0-1-0.45-1-1V67.091c0-0.55,0.45-1,1-1h16.202
				c0.551,0,1,0.45,1,1V83.295z"/>
			<path fill="none" stroke="#6D6E70" stroke-width="2" stroke-miterlimit="10" d="M272.486,83.295c0,0.55-0.449,1-1,1h-16.202
				c-0.55,0-1-0.45-1-1V67.091c0-0.55,0.45-1,1-1h16.202c0.551,0,1,0.45,1,1V83.295z"/>
		</g>
	</g>
	<g>
		<g>
			<path fill="#FFFFFF" d="M216.081,111.498c0,0.55-0.45,1-1,1h-16.204c-0.55,0-1-0.45-1-1V95.294c0-0.55,0.45-1,1-1h16.204
				c0.55,0,1,0.45,1,1V111.498z"/>
			<path fill="none" stroke="#6D6E70" stroke-width="2" stroke-miterlimit="10" d="M216.081,111.498c0,0.55-0.45,1-1,1h-16.204
				c-0.55,0-1-0.45-1-1V95.294c0-0.55,0.45-1,1-1h16.204c0.55,0,1,0.45,1,1V111.498z"/>
		</g>
		<g>
			<path fill="#FFFFFF" d="M244.284,111.498c0,0.55-0.45,1-1,1H227.08c-0.55,0-1-0.45-1-1V95.294c0-0.55,0.45-1,1-1h16.204
				c0.55,0,1,0.45,1,1V111.498z"/>
			<path fill="none" stroke="#6D6E70" stroke-width="2" stroke-miterlimit="10" d="M244.284,111.498c0,0.55-0.45,1-1,1H227.08
				c-0.55,0-1-0.45-1-1V95.294c0-0.55,0.45-1,1-1h16.204c0.55,0,1,0.45,1,1V111.498z"/>
		</g>
		<g>
			<path fill="#FFFFFF" d="M272.486,111.498c0,0.55-0.449,1-1,1h-16.202c-0.55,0-1-0.45-1-1V95.294c0-0.55,0.45-1,1-1h16.202
				c0.551,0,1,0.45,1,1V111.498z"/>
			<path fill="none" stroke="#6D6E70" stroke-width="2" stroke-miterlimit="10" d="M272.486,111.498c0,0.55-0.449,1-1,1h-16.202
				c-0.55,0-1-0.45-1-1V95.294c0-0.55,0.45-1,1-1h16.202c0.551,0,1,0.45,1,1V111.498z"/>
		</g>
	</g>
	<g>
		<g>
			
				<line fill="none" stroke="#619886" stroke-width="2" stroke-miterlimit="10" x1="206.979" y1="75.193" x2="235.183" y2="46.989"/>
			<circle fill="#FFFFFF" stroke="#619886" stroke-width="2" stroke-miterlimit="10" cx="206.979" cy="75.192" r="2.833"/>
		</g>
		<circle fill="#FFFFFF" stroke="#619886" stroke-width="2" stroke-miterlimit="10" cx="235.183" cy="46.989" r="2.833"/>
	</g>
	<g>
		<g>
			
				<line fill="none" stroke="#619886" stroke-width="2" stroke-miterlimit="10" x1="235.182" y1="75.193" x2="263.387" y2="75.193"/>
			<circle fill="none" stroke="#619886" stroke-width="2" stroke-miterlimit="10" cx="235.183" cy="75.192" r="2.833"/>
		</g>
		<circle fill="none" stroke="#619886" stroke-width="2" stroke-miterlimit="10" cx="263.386" cy="75.193" r="2.833"/>
	</g>
	<g>
		<g>
			
				<line fill="none" stroke="#619886" stroke-width="2" stroke-miterlimit="10" x1="235.182" y1="75.192" x2="235.182" y2="103.396"/>
			<circle fill="#FFFFFF" stroke="#619886" stroke-width="2" stroke-miterlimit="10" cx="235.183" cy="75.193" r="2.833"/>
		</g>
		<circle fill="#FFFFFF" stroke="#619886" stroke-width="2" stroke-miterlimit="10" cx="235.182" cy="103.396" r="2.834"/>
	</g>
	<g>
		<g>
			
				<line fill="none" stroke="#619886" stroke-width="2" stroke-miterlimit="10" x1="206.979" y1="46.988" x2="206.979" y2="75.192"/>
			<circle fill="#FFFFFF" stroke="#619886" stroke-width="2" stroke-miterlimit="10" cx="206.979" cy="46.989" r="2.833"/>
		</g>
		<circle fill="#FFFFFF" stroke="#619886" stroke-width="2" stroke-miterlimit="10" cx="206.979" cy="75.192" r="2.834"/>
	</g>
	<g>
		<g>
			
				<line fill="none" stroke="#619886" stroke-width="2" stroke-miterlimit="10" x1="235.182" y1="103.398" x2="263.387" y2="103.398"/>
			<circle fill="#FFFFFF" stroke="#619886" stroke-width="2" stroke-miterlimit="10" cx="235.182" cy="103.397" r="2.833"/>
		</g>
		<circle fill="#FFFFFF" stroke="#619886" stroke-width="2" stroke-miterlimit="10" cx="263.387" cy="103.398" r="2.834"/>
	</g>
	<g>
		<g>
			
				<line fill="none" stroke="#619886" stroke-width="2" stroke-miterlimit="10" x1="206.978" y1="46.988" x2="263.385" y2="75.193"/>
			<circle fill="#FFFFFF" stroke="#619886" stroke-width="2" stroke-miterlimit="10" cx="206.978" cy="46.988" r="2.834"/>
		</g>
		<circle fill="#FFFFFF" stroke="#619886" stroke-width="2" stroke-miterlimit="10" cx="263.385" cy="75.193" r="2.834"/>
	</g>
</g>
<g>
	<text transform="matrix(1 0 0 1 42.2207 158.9062)" fill="#6D6E70" font-family="'Raleway-SemiBold'" font-size="14">Gather</text>
</g>
<g>
	<text transform="matrix(1 0 0 1 207.0073 158.9062)" fill="#6D6E70" font-family="'Raleway-SemiBold'" font-size="14">Connect</text>
</g>
<text transform="matrix(1 0 0 1 389.9824 158.9062)" fill="#6D6E70" font-family="'Raleway-SemiBold'" font-size="14">Iterate</text>
<g>
	<g>
		<g>
			<path fill="#FFFFFF" stroke="#BBBCBE" stroke-width="2" stroke-miterlimit="10" d="M442.095,93.563c0,0.55-0.45,1-1,1h-78.001
				c-0.549,0-1-0.45-1-1v-58c0-0.55,0.451-1,1-1h78.001c0.55,0,1,0.45,1,1V93.563z"/>
		</g>
	</g>
	<rect x="362.594" y="34.563" fill="#BBBCBE" width="79.001" height="3.26"/>
</g>
<g>
	<g>
		<g>
			<path fill="#FFFFFF" stroke="#BBBCBE" stroke-width="2" stroke-miterlimit="10" d="M449.821,103.29c0,0.55-0.45,1-1,1H370.82
				c-0.549,0-1-0.45-1-1v-58c0-0.55,0.451-1,1-1h78.001c0.55,0,1,0.45,1,1V103.29z"/>
		</g>
	</g>
	<rect x="370.32" y="44.29" fill="#BBBCBE" width="79.001" height="3.26"/>
</g>
<g>
	<g>
		<path fill="#FFFFFF" stroke="#6D6E70" stroke-width="2" stroke-miterlimit="10" d="M458.354,112.822c0,0.551-0.45,1-1,1h-78.001
			c-0.549,0-1-0.449-1-1v-58c0-0.55,0.451-1,1-1h78.001c0.55,0,1,0.45,1,1V112.822z"/>
	</g>
</g>
<line fill="none" stroke="#6D6E70" stroke-width="2" stroke-linecap="round" stroke-miterlimit="10" x1="387.43" y1="64.157" x2="395.135" y2="64.157"/>
<line fill="none" stroke="#6D6E70" stroke-width="2" stroke-linecap="round" stroke-miterlimit="10" x1="387.43" y1="71.198" x2="414.945" y2="71.198"/>
<line fill="none" stroke="#6D6E70" stroke-width="2" stroke-linecap="round" stroke-miterlimit="10" x1="387.43" y1="75.198" x2="439.813" y2="75.198"/>
<line fill="none" stroke="#6D6E70" stroke-width="2" stroke-linecap="round" stroke-miterlimit="10" x1="426.169" y1="64.157" x2="433.874" y2="64.157"/>
<line fill="none" stroke="#6D6E70" stroke-width="2" stroke-linecap="round" stroke-miterlimit="10" x1="441.481" y1="64.157" x2="449.188" y2="64.157"/>
<g>
	<path fill="#BBBCBE" d="M450.308,88.99c0,0.55-0.45,1-1,1h-62.001c-0.549,0-1-0.45-1-1v-5.602c0-0.55,0.451-1,1-1h62.001
		c0.55,0,1,0.45,1,1V88.99z"/>
</g>
<g>
	<path fill="#BBBCBE" d="M450.308,100.592c0,0.55-0.45,1-1,1h-62.001c-0.549,0-1-0.45-1-1V94.99c0-0.55,0.451-1,1-1h62.001
		c0.55,0,1,0.45,1,1V100.592z"/>
</g>
<g>
	<path fill="#BBBCBE" d="M450.308,112.822h-64.001v-6.23c0-0.551,0.451-1,1-1h62.001c0.55,0,1,0.449,1,1V112.822z"/>
</g>
<rect x="379.354" y="53.823" fill="#6D6E70" width="79.001" height="3.26"/>
</svg>
