<?xml version="1.0" encoding="utf-8"?>
<!-- Generator: Adobe Illustrator 15.0.2, SVG Export Plug-In . SVG Version: 6.00 Build 0)  -->
<!DOCTYPE svg PUBLIC "-//W3C//DTD SVG 1.1//EN" "http://www.w3.org/Graphics/SVG/1.1/DTD/svg11.dtd">
<svg version="1.1" id="Layer_1" xmlns="http://www.w3.org/2000/svg" xmlns:xlink="http://www.w3.org/1999/xlink" x="0px" y="0px"
	 width="24px" height="50px" viewBox="0 0 24 50" enable-background="new 0 0 24 50" xml:space="preserve">
<g>
	<g>
		<g>
			<linearGradient id="SVGID_1_" gradientUnits="userSpaceOnUse" x1="11.9995" y1="0.2178" x2="11.9995" y2="23.6738">
				<stop  offset="0" style="stop-color:#C1C1C1"/>
				<stop  offset="1" style="stop-color:#737373"/>
			</linearGradient>
			<path fill="url(#SVGID_1_)" d="M4,23.906c-2.154,0-3.907-1.753-3.907-3.906V4c0-2.154,1.753-3.907,3.907-3.907h16
				c2.154,0,3.906,1.753,3.906,3.907v16c0,2.153-1.752,3.906-3.906,3.906H4z"/>
			<g>
				<path fill="#686868" d="M20,0.188c2.103,0,3.812,1.71,3.812,3.813v16c0,2.103-1.71,3.812-3.812,3.812H4
					c-2.102,0-3.813-1.71-3.813-3.812V4c0-2.103,1.711-3.813,3.813-3.813H20 M20,0H4C1.8,0,0,1.8,0,4v16c0,2.201,1.8,4,4,4h16
					c2.2,0,4-1.799,4-4V4C24,1.8,22.2,0,20,0L20,0z"/>
			</g>
		</g>
		<g>
			<linearGradient id="SVGID_2_" gradientUnits="userSpaceOnUse" x1="11.9995" y1="0.125" x2="11.9995" y2="23.7657">
				<stop  offset="0" style="stop-color:#EAEAEA"/>
				<stop  offset="1" style="stop-color:#CFCFCF"/>
			</linearGradient>
			<path fill="url(#SVGID_2_)" d="M20,0H4C1.8,0,0,1.8,0,4v16c0,2.201,1.8,4,4,4h16c2.2,0,4-1.799,4-4V4C24,1.8,22.2,0,20,0z
				 M23.25,20c0,1.793-1.457,3.25-3.25,3.25H4c-1.792,0-3.25-1.457-3.25-3.25V4c0-1.792,1.458-3.25,3.25-3.25h16
				c1.793,0,3.25,1.458,3.25,3.25V20z"/>
		</g>
		<g opacity="0.3">
			<linearGradient id="SVGID_3_" gradientUnits="userSpaceOnUse" x1="12.0005" y1="23.3438" x2="12.0005" y2="10.5821">
				<stop  offset="0" style="stop-color:#FFFFFF"/>
				<stop  offset="1" style="stop-color:#000000"/>
			</linearGradient>
			<path fill="url(#SVGID_3_)" d="M20,0.75H4C2.208,0.75,0.75,2.208,0.75,4v16c0,1.793,1.458,3.25,3.25,3.25h16
				c1.793,0,3.25-1.457,3.25-3.25V4C23.25,2.208,21.793,0.75,20,0.75z M22.5,20c0,1.378-1.121,2.5-2.5,2.5H4
				c-1.378,0-2.5-1.122-2.5-2.5V4c0-1.378,1.122-2.5,2.5-2.5h16c1.379,0,2.5,1.122,2.5,2.5V20z"/>
		</g>
		<g opacity="0.7">
			<linearGradient id="SVGID_4_" gradientUnits="userSpaceOnUse" x1="11.9995" y1="0.771" x2="11.9995" y2="4.7116">
				<stop  offset="0" style="stop-color:#FFFFFF"/>
				<stop  offset="1" style="stop-color:#000000"/>
			</linearGradient>
			<path fill="url(#SVGID_4_)" d="M20,0.75H4C2.208,0.75,0.75,2.208,0.75,4v0.75C0.75,2.958,2.208,1.5,4,1.5h16
				c1.793,0,3.25,1.458,3.25,3.25V4C23.25,2.208,21.793,0.75,20,0.75z"/>
		</g>
	</g>
	<linearGradient id="SVGID_5_" gradientUnits="userSpaceOnUse" x1="2.25" y1="12.3784" x2="20.749" y2="12.3784">
		<stop  offset="0" style="stop-color:#EAEAEA"/>
		<stop  offset="1" style="stop-color:#CFCFCF"/>
	</linearGradient>
	<path fill="url(#SVGID_5_)" d="M20.749,11.884c-0.651,0.111-1.595-0.004-2.096-0.213c1.039-0.085,1.743-0.558,2.015-1.199
		c-0.375,0.229-1.539,0.481-2.18,0.242c-0.033-0.151-0.068-0.295-0.103-0.426c-0.488-1.798-2.165-3.248-3.921-3.073
		c0.141-0.057,0.285-0.109,0.43-0.159c0.192-0.069,1.327-0.255,1.148-0.655c-0.15-0.353-1.537,0.266-1.797,0.347
		C14.59,6.619,15.16,6.397,15.221,6c-0.527,0.072-1.045,0.322-1.445,0.686c0.144-0.156,0.254-0.346,0.277-0.549
		c-1.408,0.9-2.23,2.713-2.896,4.474c-0.522-0.507-0.987-0.906-1.401-1.128C8.59,8.858,7.197,8.205,5.01,7.393
		C4.942,8.116,5.367,9.081,6.59,9.72c-0.264-0.036-0.75,0.044-1.137,0.137c0.158,0.831,0.674,1.514,2.071,1.844
		c-0.638,0.041-0.968,0.188-1.267,0.501c0.29,0.577,1.001,1.256,2.276,1.117c-1.419,0.612-0.579,1.747,0.577,1.578
		c-1.97,2.038-5.077,1.887-6.861,0.183c4.657,6.354,14.783,3.757,16.291-2.362C19.673,12.727,20.337,12.327,20.749,11.884z"/>
	<path fill="#FFFFFF" d="M20.749,11.134c-0.651,0.111-1.595-0.004-2.096-0.213c1.039-0.085,1.743-0.558,2.015-1.199
		c-0.375,0.229-1.539,0.481-2.18,0.242c-0.033-0.151-0.068-0.295-0.103-0.426c-0.488-1.798-2.165-3.248-3.921-3.073
		c0.141-0.057,0.285-0.109,0.43-0.159c0.192-0.069,1.327-0.255,1.148-0.655c-0.15-0.353-1.537,0.266-1.797,0.347
		c0.344-0.129,0.914-0.352,0.975-0.749c-0.527,0.072-1.045,0.322-1.445,0.686c0.144-0.156,0.254-0.346,0.277-0.549
		c-1.408,0.9-2.23,2.713-2.896,4.474c-0.522-0.507-0.987-0.906-1.401-1.128C8.59,8.108,7.197,7.455,5.01,6.643
		C4.942,7.366,5.367,8.331,6.59,8.97c-0.264-0.036-0.75,0.044-1.137,0.137c0.158,0.831,0.674,1.514,2.071,1.844
		c-0.638,0.041-0.968,0.188-1.267,0.501c0.29,0.577,1.001,1.256,2.276,1.117c-1.419,0.612-0.579,1.747,0.577,1.578
		c-1.97,2.038-5.077,1.887-6.861,0.183c4.657,6.354,14.783,3.756,16.291-2.363C19.673,11.977,20.337,11.577,20.749,11.134z"/>
</g>
<g>
	<g>
		<g>
			<linearGradient id="SVGID_6_" gradientUnits="userSpaceOnUse" x1="11.9995" y1="26.2178" x2="11.9995" y2="49.6738">
				<stop  offset="0" style="stop-color:#82B4E3"/>
				<stop  offset="1" style="stop-color:#4775B8"/>
			</linearGradient>
			<path fill="url(#SVGID_6_)" d="M4,49.906c-2.154,0-3.907-1.753-3.907-3.906V30c0-2.153,1.753-3.906,3.907-3.906h16
				c2.154,0,3.906,1.753,3.906,3.906v16c0,2.153-1.752,3.906-3.906,3.906H4z"/>
			<g>
				<path fill="#436DAF" d="M20,26.188c2.103,0,3.812,1.71,3.812,3.812v16c0,2.103-1.71,3.812-3.812,3.812H4
					c-2.102,0-3.813-1.71-3.813-3.812V30c0-2.103,1.711-3.812,3.813-3.812H20 M20,26H4c-2.2,0-4,1.801-4,4v16c0,2.201,1.8,4,4,4h16
					c2.2,0,4-1.799,4-4V30C24,27.801,22.2,26,20,26L20,26z"/>
			</g>
		</g>
		<g>
			<linearGradient id="SVGID_7_" gradientUnits="userSpaceOnUse" x1="11.9995" y1="26.125" x2="11.9995" y2="49.7657">
				<stop  offset="0" style="stop-color:#DFE2E4"/>
				<stop  offset="1" style="stop-color:#BEC4C9"/>
			</linearGradient>
			<path fill="url(#SVGID_7_)" d="M20,26H4c-2.2,0-4,1.801-4,4v16c0,2.201,1.8,4,4,4h16c2.2,0,4-1.799,4-4V30
				C24,27.801,22.2,26,20,26z M23.25,46c0,1.793-1.457,3.25-3.25,3.25H4c-1.792,0-3.25-1.457-3.25-3.25V30
				c0-1.792,1.458-3.25,3.25-3.25h16c1.793,0,3.25,1.458,3.25,3.25V46z"/>
		</g>
		<g opacity="0.3">
			<linearGradient id="SVGID_8_" gradientUnits="userSpaceOnUse" x1="12.0005" y1="49.3438" x2="12.0005" y2="36.5821">
				<stop  offset="0" style="stop-color:#FFFFFF"/>
				<stop  offset="1" style="stop-color:#010302"/>
			</linearGradient>
			<path fill="url(#SVGID_8_)" d="M20,26.75H4c-1.792,0-3.25,1.458-3.25,3.25v16c0,1.793,1.458,3.25,3.25,3.25h16
				c1.793,0,3.25-1.457,3.25-3.25V30C23.25,28.208,21.793,26.75,20,26.75z M22.5,46c0,1.378-1.121,2.5-2.5,2.5H4
				c-1.378,0-2.5-1.122-2.5-2.5V30c0-1.378,1.122-2.5,2.5-2.5h16c1.379,0,2.5,1.122,2.5,2.5V46z"/>
		</g>
		<g opacity="0.7">
			<linearGradient id="SVGID_9_" gradientUnits="userSpaceOnUse" x1="11.9995" y1="26.7705" x2="11.9995" y2="30.7106">
				<stop  offset="0" style="stop-color:#FFFFFF"/>
				<stop  offset="1" style="stop-color:#010302"/>
			</linearGradient>
			<path fill="url(#SVGID_9_)" d="M20,26.75H4c-1.792,0-3.25,1.458-3.25,3.25v0.75c0-1.792,1.458-3.25,3.25-3.25h16
				c1.793,0,3.25,1.458,3.25,3.25V30C23.25,28.208,21.793,26.75,20,26.75z"/>
		</g>
	</g>
	<linearGradient id="SVGID_10_" gradientUnits="userSpaceOnUse" x1="2.25" y1="38.3789" x2="20.749" y2="38.3789">
		<stop  offset="0" style="stop-color:#DFE2E4"/>
		<stop  offset="1" style="stop-color:#BEC4C9"/>
	</linearGradient>
	<path fill="url(#SVGID_10_)" d="M20.749,37.884c-0.651,0.111-1.595-0.004-2.096-0.213c1.039-0.086,1.743-0.558,2.015-1.199
		c-0.375,0.229-1.539,0.481-2.18,0.242c-0.033-0.151-0.068-0.295-0.103-0.426c-0.488-1.798-2.165-3.248-3.921-3.073
		c0.141-0.057,0.285-0.109,0.43-0.159c0.192-0.068,1.327-0.255,1.148-0.654c-0.15-0.353-1.537,0.266-1.797,0.347
		c0.344-0.129,0.914-0.352,0.975-0.748c-0.527,0.072-1.045,0.322-1.445,0.686c0.144-0.156,0.254-0.346,0.277-0.549
		c-1.408,0.899-2.23,2.713-2.896,4.474c-0.522-0.507-0.987-0.906-1.401-1.129c-1.166-0.623-2.559-1.276-4.746-2.089
		c-0.067,0.724,0.357,1.688,1.581,2.327c-0.264-0.035-0.75,0.044-1.137,0.137c0.158,0.831,0.674,1.515,2.071,1.845
		c-0.638,0.041-0.968,0.188-1.267,0.501c0.29,0.577,1.001,1.256,2.276,1.117c-1.419,0.612-0.579,1.747,0.577,1.578
		c-1.97,2.038-5.077,1.887-6.861,0.183c4.657,6.354,14.783,3.757,16.291-2.362C19.673,38.727,20.337,38.327,20.749,37.884z"/>
	<path fill="#FFFFFF" d="M20.749,37.134c-0.651,0.111-1.595-0.004-2.096-0.213c1.039-0.086,1.743-0.558,2.015-1.199
		c-0.375,0.229-1.539,0.481-2.18,0.242c-0.033-0.151-0.068-0.295-0.103-0.426c-0.488-1.798-2.165-3.248-3.921-3.073
		c0.141-0.057,0.285-0.109,0.43-0.158c0.192-0.069,1.327-0.256,1.148-0.655c-0.15-0.353-1.537,0.266-1.797,0.347
		c0.344-0.129,0.914-0.352,0.975-0.748c-0.527,0.072-1.045,0.322-1.445,0.686c0.144-0.156,0.254-0.346,0.277-0.549
		c-1.408,0.899-2.23,2.713-2.896,4.474c-0.522-0.507-0.987-0.906-1.401-1.129c-1.166-0.623-2.559-1.276-4.746-2.089
		c-0.067,0.724,0.357,1.688,1.581,2.327c-0.264-0.035-0.75,0.044-1.137,0.137c0.158,0.831,0.674,1.515,2.071,1.845
		c-0.638,0.041-0.968,0.188-1.267,0.501c0.29,0.577,1.001,1.256,2.276,1.117c-1.419,0.612-0.579,1.746,0.577,1.578
		c-1.97,2.038-5.077,1.887-6.861,0.184c4.657,6.354,14.783,3.756,16.291-2.363C19.673,37.977,20.337,37.577,20.749,37.134z"/>
</g>
</svg>
