<?xml version="1.0" encoding="utf-8"?>
<!-- Generator: Adobe Illustrator 15.0.2, SVG Export Plug-In . SVG Version: 6.00 Build 0)  -->
<!DOCTYPE svg PUBLIC "-//W3C//DTD SVG 1.1//EN" "http://www.w3.org/Graphics/SVG/1.1/DTD/svg11.dtd">
<svg version="1.1" id="Layer_1" xmlns="http://www.w3.org/2000/svg" xmlns:xlink="http://www.w3.org/1999/xlink" x="0px" y="0px"
	 width="38px" height="38px" viewBox="0 0 38 38" enable-background="new 0 0 38 38" xml:space="preserve">
<g>
	<g>
		<path fill="#888888" d="M19,5H0V0h19V5z M1,4h17V1H1V4z"/>
	</g>
	<g>
		<path fill="#888888" d="M19,12H0V7h19V12z M1,11h17V8H1V11z"/>
	</g>
	<g>
		<path fill="#888888" d="M19,19H0v-5h19V19z M1,18h17v-3H1V18z"/>
	</g>
</g>
<rect x="20" y="6" fill="#888888" width="18" height="2"/>
<rect x="20" y="1" fill="#888888" width="18" height="2"/>
<rect x="20" y="11" fill="#888888" width="18" height="2"/>
<rect x="20" y="16" fill="#888888" width="18" height="2"/>
<g>
	<g>
		<path fill="#A8292A" d="M19,24H0v-5h19V24z M1,23h17v-3H1V23z"/>
	</g>
	<g>
		<path fill="#A8292A" d="M19,31H0v-5h19V31z M1,30h17v-3H1V30z"/>
	</g>
	<g>
		<path fill="#A8292A" d="M19,38H0v-5h19V38z M1,37h17v-3H1V37z"/>
	</g>
</g>
<rect x="20" y="25" fill="#A8292A" width="18" height="2"/>
<rect x="20" y="20" fill="#A8292A" width="18" height="2"/>
<rect x="20" y="30" fill="#A8292A" width="18" height="2"/>
<rect x="20" y="35" fill="#A8292A" width="18" height="2"/>
</svg>
