<svg width="20" height="16" viewBox="0 0 20 16" version="1.1" xmlns="http://www.w3.org/2000/svg" xmlns:xlink="http://www.w3.org/1999/xlink">
<title>icon-insta</title>
<desc>Created using Figma</desc>
<g id="Canvas" transform="translate(-1892 -3820)">
<g id="icon-insta">
<use xlink:href="#path0_fill" transform="translate(1892 3820)"/>
</g>
</g>
<defs>
<path id="path0_fill" fill-rule="evenodd" d="M 7.22217 1L 3.22217 1L 3.22217 2L 7.22217 2L 7.22217 1ZM 2.22217 1L 2.22217 2L 1 2L 0 2L 0 3L 0 15L 0 16L 1 16L 19 16L 20 16L 20 15L 20 3L 20 2L 19 2L 8.22217 2L 8.22217 1L 8.22217 0L 7.22217 0L 3.22217 0L 2.22217 0L 2.22217 1ZM 7.22217 3L 8.22217 3L 19 3L 19 15L 1 15L 1 3L 2.22217 3L 3.22217 3L 7.22217 3ZM 13 9C 13 10.6567 11.6569 12 10 12C 8.34314 12 7 10.6567 7 9C 7 7.34326 8.34314 6 10 6C 11.6569 6 13 7.34326 13 9ZM 14 9C 14 11.2092 12.2091 13 10 13C 7.79089 13 6 11.2092 6 9C 6 6.79077 7.79089 5 10 5C 12.2091 5 14 6.79077 14 9Z"/>
</defs>
</svg>
