<svg width="20" height="20" viewBox="0 0 20 20" version="1.1" xmlns="http://www.w3.org/2000/svg" xmlns:xlink="http://www.w3.org/1999/xlink">
<title>icon-twitter</title>
<desc>Created using Figma</desc>
<g id="Canvas" transform="translate(-1851 -3819)">
<g id="icon-twitter">
<use xlink:href="#path0_fill" transform="translate(1851 3819)"/>
</g>
</g>
<defs>
<path id="path0_fill" d="M 19.5578 9.49738C 19.4393 9.321 19.3292 9.11884 19.2126 8.90487C 18.7485 8.05305 18.1129 6.88651 16.4092 6.88651C 16.0395 6.88651 15.7039 6.97054 15.4009 7.11042C 14.8154 5.41763 13.7941 4.6174 12.8018 3.84077C 11.8939 3.13029 11.0363 2.45919 10.4154 1.0543L 9.94934 -3.23709e-09L 9.32422 0.966714C 9.27965 1.03559 8.31875 2.53525 7.66008 4.64136C 6.38332 4.17467 5.10223 3.65751 3.96211 2.91309L 3.22844 2.43397L 3.01848 3.29073C 3.00328 3.35289 2.65016 4.83377 3.06871 6.59606C 3.22441 7.25156 3.50129 7.99642 3.98484 8.72896C 4.04023 9.22047 4.25238 10.6964 4.91949 12.189C 5.43297 13.3379 6.09832 14.2354 6.89551 14.8682C 5.8482 14.9544 4.0591 14.9351 1.41992 14.3729L 0 14.0705L 0.760273 15.3195C 0.801094 15.3866 1.78301 16.9778 3.73832 18.29C 4.89066 19.0632 6.14504 19.5812 7.4668 19.8295C 8.07215 19.9432 8.69133 20 9.32191 20C 10.405 20 11.5218 19.8325 12.66 19.4982C 16.2465 18.445 17.2478 15.2818 17.9788 12.9722C 18.3564 11.7794 18.713 10.6527 19.2645 10.4397L 20 10.1557L 19.5578 9.49738ZM 9.83758 2.60799C 10.5097 3.6407 11.3113 4.26802 12.0383 4.83692C 13.0355 5.61734 13.9049 6.29795 14.3452 7.92083C 14.1854 8.09908 14.0429 8.28714 13.9171 8.47407C 13.7691 8.20304 13.5857 7.9236 13.361 7.63358C 12.4018 6.3952 10.6875 5.7288 8.83637 5.06415C 9.14395 4.0719 9.52988 3.21439 9.83758 2.60799ZM 16.7911 12.5883C 16.4435 13.6866 16.0495 14.9314 15.3692 15.9844C 14.6148 17.1521 13.6147 17.9058 12.312 18.2883C 10.7116 18.7583 9.16859 18.862 7.72586 18.5965C 6.57469 18.3847 5.4793 17.9377 4.47004 17.2682C 3.8041 16.8265 3.26184 16.3434 2.84539 15.9144C 6.32234 16.4426 8.15086 15.9992 8.74508 15.7998C 9.19434 15.9186 9.66867 15.9793 10.1666 15.9793L 10.1666 14.7193C 8.35172 14.7193 6.97285 13.7028 6.06828 11.698C 5.87285 11.2648 5.72066 10.8289 5.60227 10.4232C 6.21207 10.8751 6.95648 11.2811 7.86512 11.6065L 8.28172 10.419C 6.10762 9.64038 4.76547 8.27077 4.29242 6.34819C 4.11699 5.63522 4.09605 4.96895 4.12137 4.4703C 5.41336 5.17727 6.8073 5.67532 8.06375 6.12424C 9.8732 6.77075 11.5823 7.38141 12.379 8.41005C 13.6326 10.0285 13.2387 11.0091 12.5237 12.7893C 12.4476 12.9789 12.3688 13.1751 12.2896 13.3788L 13.4504 13.8392C 13.5269 13.6421 13.6043 13.4494 13.6792 13.2631C 14.1057 12.2011 14.4986 11.2226 14.4309 10.1648C 14.6385 9.65546 15.3441 8.14648 16.4092 8.14648C 17.331 8.14648 17.6448 8.64008 18.1202 9.5125C 18.1455 9.55903 18.1711 9.60592 18.197 9.65289C 17.5245 10.2715 17.1786 11.3641 16.7911 12.5883Z"/>
</defs>
</svg>
