<?xml version="1.0" encoding="utf-8"?>
<!-- Generator: Adobe Illustrator 15.0.2, SVG Export Plug-In . SVG Version: 6.00 Build 0)  -->
<!DOCTYPE svg PUBLIC "-//W3C//DTD SVG 1.1//EN" "http://www.w3.org/Graphics/SVG/1.1/DTD/svg11.dtd">
<svg version="1.1" xmlns="http://www.w3.org/2000/svg" xmlns:xlink="http://www.w3.org/1999/xlink" x="0px" y="0px" width="234px"
	 height="92.6px" viewBox="0 0 234 92.6" enable-background="new 0 0 234 92.6" xml:space="preserve">
<g id="Layer_1">
</g>
<g id="bible">
</g>
<g id="book">
</g>
<g id="journal">
	<g display="none">
		<path display="inline" fill="#D0D1D3" stroke="#BBBCBE" stroke-miterlimit="10" d="M56.552,60.011l0.327,6.244
			c0.149,2.852-1.359,4.527-3.323,4.632l-33.783,1.77c-0.98,0.052-1.817-0.653-1.868-1.636l-2.491-47.547
			c-0.052-0.982,0.333-2.256,1.01-3.087c0.655-0.806,1.31-1.108,2.924-1.193"/>
		<path display="inline" fill="#F1F1F2" stroke="#BBBCBE" stroke-miterlimit="10" d="M18.312,72.124
			c0.346,0.355,0.846,0.561,1.389,0.532l33.782-1.77c1.963-0.104,3.472-1.78,3.323-4.632l-0.277-3.635l-27.686-1.409L18.312,72.124z
			"/>
		<path display="inline" fill="none" stroke="#A6A8AA" stroke-linecap="round" stroke-linejoin="round" stroke-miterlimit="10" d="
			M56.529,59.587"/>
		<path display="inline" fill="#FFFFFF" stroke="#BBBCBE" stroke-miterlimit="10" d="M18.312,19.248l32.447-1.702
			c1.964-0.102,3.64,1.408,3.743,3.371l2.306,44.004c0.103,1.963-1.452,2.75-3.417,2.854l-32.448,1.7L18.312,19.248z"/>
		<g display="inline">
			<polygon fill="#6D6E70" points="46.524,71.56 44.362,71.3 47.596,67.722 44.989,18.007 46.768,17.914 49.412,68.366 
				47.017,71.016 			"/>
		</g>
		<g display="inline">
			<path fill="#6D6E70" d="M31.717,37.839c-0.549,0.029-0.794-0.349-0.544-0.838l3.66-7.186c0.25-0.489,0.699-0.514,0.999-0.052
				l4.391,6.762c0.299,0.462,0.095,0.862-0.454,0.892L31.717,37.839z"/>
		</g>
		<path display="inline" fill="#D0D1D3" stroke="#BBBCBE" stroke-miterlimit="10" d="M137.097,60.42l0.421,8.022
			c0.076,1.473-1.056,2.73-2.528,2.809l-34.671,1.814c-0.982,0.053-0.929-0.699-0.979-1.682l-2.444-46.659
			c-0.053-0.979,0.197-2.946,0.906-3.749c0.793-0.896,1.602-1.346,2.834-1.411"/>
		<path display="inline" fill="#F1F1F2" stroke="#BBBCBE" stroke-miterlimit="10" d="M137.099,60.444l0.419,8.023
			c0.078,1.471-1.054,2.729-2.528,2.805l-34.518,1.811c-0.216,0.007-0.679,0.016-0.812-0.199c0.346-0.545,3.576-3.967,3.576-3.967"
			/>
		<g display="inline">
			<path fill="#6D6E70" d="M113.285,23.074c0.029,0.55-0.397,1.022-0.946,1.051l-8.535,0.446c-0.549,0.028-1.022-0.397-1.051-0.947
				l-0.311-5.899c-0.029-0.55,0.397-1.022,0.946-1.052l8.536-0.447c0.549-0.029,1.022,0.396,1.051,0.946L113.285,23.074z"/>
		</g>
		<path display="inline" fill="none" stroke="#A6A8AA" stroke-linecap="round" stroke-linejoin="round" stroke-miterlimit="10" d="
			M137.074,59.997"/>
		<path display="inline" fill="#FFFFFF" stroke="#A6A8AA" stroke-miterlimit="10" d="M133.844,66.407"/>
		<line display="inline" fill="none" stroke="#BBBCBE" stroke-miterlimit="10" x1="99.923" y1="72.593" x2="103.235" y2="68.917"/>
		<path display="inline" fill="none" stroke="#BBBCBE" stroke-miterlimit="10" d="M137.19,64.271l0.116,2.232
			c0.077,1.474-1.055,2.729-2.528,2.808l-33.387,1.654"/>
		<path display="inline" fill="#FFFFFF" stroke="#BBBCBE" stroke-miterlimit="10" d="M135,20.438l2.307,44.005
			c0.077,1.475-1.055,2.729-2.528,2.808l-31.559,1.653l-2.584-49.339l31.558-1.653C133.668,17.833,134.923,18.965,135,20.438z"/>
		<g display="inline">
			<path fill="none" stroke="#BBBCBE" stroke-miterlimit="10" d="M132.439,60.846c0.029,0.55-0.397,1.022-0.946,1.052l-22.895,1.201
				c-0.549,0.029-1.022-0.396-1.051-0.946l-1.955-37.294c-0.029-0.55,0.397-1.022,0.946-1.052l22.894-1.198
				c0.549-0.029,1.022,0.396,1.051,0.946L132.439,60.846z"/>
		</g>
		<g display="inline">
			
				<line fill="none" stroke="#6D6E70" stroke-linecap="round" stroke-miterlimit="10" x1="109.071" y1="27.411" x2="120.815" y2="26.796"/>
			
				<line fill="none" stroke="#6D6E70" stroke-linecap="round" stroke-miterlimit="10" x1="109.233" y1="30.509" x2="120.979" y2="29.896"/>
			
				<line fill="none" stroke="#6D6E70" stroke-linecap="round" stroke-miterlimit="10" x1="109.396" y1="33.604" x2="115.268" y2="33.296"/>
			
				<line fill="none" stroke="#6D6E70" stroke-linecap="round" stroke-miterlimit="10" x1="110.745" y1="59.372" x2="118.745" y2="58.953"/>
		</g>
		<path display="inline" fill="#D0D1D3" stroke="#BBBCBE" stroke-miterlimit="10" d="M217.755,60.011l0.42,8.021
			c0.076,1.473-1.055,2.73-2.527,2.809l-34.67,1.816c-0.982,0.051-0.927-0.7-0.979-1.683l-2.465-47.015
			c-0.052-0.981,0.026-2.765,0.736-3.569c0.791-0.896,1.463-1.153,3.023-1.235"/>
		<path display="inline" fill="#F1F1F2" stroke="#BBBCBE" stroke-miterlimit="10" d="M217.755,60.036l0.422,8.021
			c0.076,1.473-1.055,2.729-2.529,2.807l-34.516,1.81c-0.217,0.007-0.68,0.015-0.813-0.2c0.346-0.544,3.515-4.869,3.515-4.869"/>
		<line display="inline" fill="none" stroke="#BBBCBE" stroke-miterlimit="10" x1="180.582" y1="72.183" x2="183.848" y2="67.618"/>
		<path display="inline" fill="none" stroke="#A6A8AA" stroke-linecap="round" stroke-linejoin="round" stroke-miterlimit="10" d="
			M217.733,59.589"/>
		<path display="inline" fill="#FFFFFF" stroke="#A6A8AA" stroke-miterlimit="10" d="M214.503,65.999"/>
		<path display="inline" fill="#FFFFFF" stroke="#BBBCBE" stroke-miterlimit="10" d="M215.659,20.028l2.328,44.449
			c0.078,1.474-1.053,2.729-2.527,2.807l-32.447,1.701l-2.607-49.783l32.447-1.701C214.325,17.425,215.581,18.556,215.659,20.028z"
			/>
		
			<circle display="inline" fill="none" stroke="#D0D1D3" stroke-linecap="square" stroke-miterlimit="10" cx="198.802" cy="34.294" r="4.034"/>
		<g display="inline">
			
				<line fill="none" stroke="#6D6E70" stroke-width="2" stroke-linecap="square" stroke-miterlimit="10" x1="198.466" y1="27.892" x2="199.538" y2="48.327"/>
			
				<line fill="none" stroke="#6D6E70" stroke-width="2" stroke-linecap="square" stroke-miterlimit="10" x1="192.784" y1="34.608" x2="204.816" y2="33.978"/>
		</g>
		<polygon display="inline" fill="#6D6E70" points="189.645,76.142 187.794,74.825 186.089,76.326 185.764,70.104 189.319,69.917 		
			"/>
	</g>
	<line fill="none" stroke="#BBBCBE" stroke-miterlimit="10" x1="18.491" y1="41.996" x2="20.947" y2="39.27"/>
	<polygon fill="#6D6E70" points="26.507,46.006 24.656,44.691 22.952,46.193 22.672,40.859 26.228,40.672 	"/>
	<g>
		<path fill="#928C7B" stroke="#928C7B" stroke-miterlimit="10" d="M217.733,60.154l0.418,7.992
			c0.076,1.467-1.051,2.719-2.518,2.797l-34.542,1.811c-0.979,0.051-0.924-0.697-0.975-1.678l-2.455-46.84
			c-0.053-0.977,0.025-2.754,0.732-3.555c0.789-0.893,1.459-1.15,3.013-1.232"/>
		<path fill="#FFFFFF" stroke="#928C7B" stroke-miterlimit="10" d="M217.733,60.18l0.42,7.99c0.076,1.467-1.051,2.721-2.52,2.797
			l-34.387,1.803c-0.217,0.008-0.678,0.016-0.811-0.199c0.344-0.541,3.5-4.852,3.5-4.852"/>
		<line fill="none" stroke="#928C7B" stroke-miterlimit="10" x1="180.7" y1="72.281" x2="183.952" y2="67.732"/>
		<path fill="none" stroke="#A6A8AA" stroke-linecap="round" stroke-linejoin="round" stroke-miterlimit="10" d="M217.71,59.732"/>
		<path fill="#FFFFFF" stroke="#A6A8AA" stroke-miterlimit="10" d="M214.493,66.119"/>
		<path fill="#A9A492" stroke="#928C7B" stroke-miterlimit="10" d="M215.646,20.32l2.318,44.283
			c0.078,1.469-1.049,2.719-2.518,2.797l-32.326,1.693l-2.599-49.598l32.327-1.693C214.315,17.727,215.569,18.854,215.646,20.32z"/>
		<g>
			<path fill="none" stroke="#928C7B" stroke-linecap="round" stroke-miterlimit="10" d="M203.598,34.59
				c0.139,2.619-1.876,4.857-4.498,4.996c-2.623,0.137-4.857-1.878-4.995-4.499c-0.14-2.622,1.874-4.858,4.496-4.997
				C201.223,29.954,203.461,31.966,203.598,34.59z"/>
			<g>
				
					<line fill="none" stroke="#FFFFFF" stroke-width="2" stroke-linecap="round" stroke-miterlimit="10" x1="198.455" y1="27.295" x2="199.718" y2="51.374"/>
				
					<line fill="none" stroke="#FFFFFF" stroke-width="2" stroke-linecap="round" stroke-miterlimit="10" x1="191.761" y1="35.209" x2="205.938" y2="34.468"/>
			</g>
		</g>
		<polygon fill="#6D6E70" points="189.727,76.223 187.884,74.914 186.185,76.408 185.861,70.209 189.403,70.023 		"/>
	</g>
	<g>
		<path fill="#4E5D70" stroke="#4E5D70" stroke-miterlimit="10" d="M137.227,60.166l0.419,7.992
			c0.076,1.467-1.052,2.719-2.519,2.797l-34.542,1.809c-0.979,0.051-0.925-0.697-0.975-1.676l-2.436-46.484
			c-0.052-0.977,0.197-2.938,0.904-3.736c0.79-0.893,1.595-1.342,2.822-1.406"/>
		<path fill="#FFFFFF" stroke="#4E5D70" stroke-miterlimit="10" d="M137.229,60.189l0.417,7.992c0.078,1.467-1.05,2.719-2.519,2.797
			l-34.39,1.803c-0.215,0.006-0.675,0.016-0.809-0.199c0.345-0.543,3.563-3.951,3.563-3.951"/>
		<g>
			<path fill="#BBBCBE" d="M113.504,22.954c0.029,0.55-0.397,1.022-0.946,1.051l-8.497,0.445c-0.549,0.028-1.022-0.397-1.051-0.947
				l-0.309-5.871c-0.029-0.55,0.397-1.022,0.946-1.052l8.497-0.445c0.549-0.029,1.022,0.396,1.051,0.946L113.504,22.954z"/>
		</g>
		<path fill="none" stroke="#A6A8AA" stroke-linecap="round" stroke-linejoin="round" stroke-miterlimit="10" d="M137.204,59.744"/>
		<path fill="#FFFFFF" stroke="#A6A8AA" stroke-miterlimit="10" d="M133.986,66.129"/>
		<path fill="#647286" stroke="#4E5D70" stroke-miterlimit="10" d="M135.138,20.332l2.298,43.84
			c0.077,1.469-1.051,2.719-2.519,2.797l-31.441,1.648l-2.576-49.156l31.441-1.646C133.811,17.736,135.062,18.865,135.138,20.332z"
			/>
		<g>
			<path fill="none" stroke="#4E5D70" stroke-miterlimit="10" d="M132.586,60.587c0.029,0.55-0.397,1.022-0.946,1.052l-22.801,1.195
				c-0.549,0.029-1.022-0.396-1.051-0.946l-1.948-37.148c-0.029-0.55,0.397-1.022,0.946-1.052l22.801-1.193
				c0.549-0.029,1.022,0.396,1.051,0.946L132.586,60.587z"/>
		</g>
		<g>
			
				<line fill="none" stroke="#FFFFFF" stroke-linecap="round" stroke-miterlimit="10" x1="109.305" y1="27.279" x2="121.006" y2="26.666"/>
			
				<line fill="none" stroke="#FFFFFF" stroke-linecap="round" stroke-miterlimit="10" x1="109.466" y1="30.365" x2="121.169" y2="29.752"/>
			
				<line fill="none" stroke="#FFFFFF" stroke-linecap="round" stroke-miterlimit="10" x1="109.629" y1="33.449" x2="115.479" y2="33.143"/>
			
				<line fill="none" stroke="#FFFFFF" stroke-linecap="round" stroke-miterlimit="10" x1="110.974" y1="59.121" x2="118.943" y2="58.703"/>
		</g>
		
			<line fill="#6D6E70" stroke="#647286" stroke-linecap="round" stroke-miterlimit="10" x1="101.893" y1="70.67" x2="135.082" y2="68.932"/>
		<line fill="none" stroke="#4E5D70" stroke-miterlimit="10" x1="100.192" y1="72.293" x2="103.492" y2="68.631"/>
	</g>
	<g>
		<path fill="#424243" stroke="#424243" stroke-miterlimit="10" d="M56.832,60.162l0.326,6.221c0.149,2.842-1.354,4.51-3.31,4.613
			l-33.657,1.766c-0.977,0.051-1.81-0.652-1.861-1.631L15.848,23.76c-0.052-0.977,0.333-2.246,1.007-3.074
			c0.653-0.803,1.305-1.105,2.914-1.189"/>
		<path fill="#F1F1F2" stroke="#424243" stroke-miterlimit="10" d="M18.734,72.23c0.345,0.355,0.843,0.559,1.384,0.531l33.657-1.766
			c1.956-0.104,3.459-1.771,3.31-4.613l-0.275-3.621l-27.583-1.404L18.734,72.23z"/>
		<line fill="none" stroke="#424243" stroke-miterlimit="10" x1="18.914" y1="72.334" x2="21.36" y2="69.619"/>
		<path fill="none" stroke="#A6A8AA" stroke-linecap="round" stroke-linejoin="round" stroke-miterlimit="10" d="M56.81,59.74"/>
		<polygon fill="#424243" points="26.9,76.33 25.055,75.021 23.357,76.518 23.079,71.203 26.621,71.018 		"/>
		<path fill="#58595B" stroke="#424243" stroke-miterlimit="10" d="M18.736,19.551l32.327-1.695
			c1.957-0.102,3.626,1.402,3.729,3.357l2.298,43.842c0.102,1.955-1.447,2.738-3.404,2.842l-32.328,1.695L18.736,19.551z"/>
		<g>
			<polygon fill="#424243" points="46.843,71.668 44.688,71.408 47.91,67.844 45.313,18.314 47.085,18.221 49.719,68.486 
				47.333,71.125 			"/>
		</g>
		<g>
			<path fill="#FFFFFF" d="M32.094,38.072c-0.549,0.029-0.794-0.349-0.544-0.838l3.643-7.152c0.25-0.489,0.699-0.514,0.999-0.052
				l4.37,6.73c0.299,0.462,0.095,0.862-0.454,0.892L32.094,38.072z"/>
		</g>
	</g>
</g>
</svg>
