<?xml version="1.0" encoding="utf-8"?>
<!-- Generator: Adobe Illustrator 15.0.2, SVG Export Plug-In . SVG Version: 6.00 Build 0)  -->
<!DOCTYPE svg PUBLIC "-//W3C//DTD SVG 1.1//EN" "http://www.w3.org/Graphics/SVG/1.1/DTD/svg11.dtd">
<svg version="1.1" xmlns="http://www.w3.org/2000/svg" xmlns:xlink="http://www.w3.org/1999/xlink" x="0px" y="0px" width="234px"
	 height="92.6px" viewBox="0 0 234 92.6" enable-background="new 0 0 234 92.6" xml:space="preserve">
<g id="Layer_1">
</g>
<g id="bible">
	<g>
		<path fill="#E1E2E3" stroke="#A6A8AA" stroke-miterlimit="10" d="M331.252-32.767v9.023c0,1.656-1.342,3-3,3h-39
			c-1.104,0-1-0.84-1-1.945v-52.887c0-1.104,0.193-3.1,1.037-3.96c0.939-0.958,1.709-1.208,3.463-1.208"/>
		<path fill="#F1F1F2" stroke="#A6A8AA" stroke-miterlimit="10" d="M331.252-32.739v9.023c0,1.656-1.342,3-3,3h-38.828
			c-0.244-0.006-0.764-0.023-0.898-0.271c0.42-0.59,4.227-5.256,4.227-5.256"/>
		<line fill="none" stroke="#A6A8AA" stroke-miterlimit="10" x1="288.838" y1="-21.298" x2="292.768" y2="-26.228"/>
		<path fill="none" stroke="#A6A8AA" stroke-linecap="round" stroke-linejoin="round" stroke-miterlimit="10" d="M331.252-33.243"/>
		<path fill="#FFFFFF" stroke="#A6A8AA" stroke-miterlimit="10" d="M327.252-26.243"/>
		<path fill="#FFFFFF" stroke="#A6A8AA" stroke-miterlimit="10" d="M331.252-77.743v50c0,1.656-1.344,3-3,3h-36.5v-56h36.5
			C329.91-80.743,331.252-79.4,331.252-77.743z"/>
		<g>
			<circle fill="none" stroke="#D0D1D3" stroke-miterlimit="10" cx="311.503" cy="-62.732" r="4.532"/>
			<g>
				
					<line fill="none" stroke="#6D6E70" stroke-width="2" stroke-miterlimit="10" x1="311.502" y1="-69.935" x2="311.502" y2="-46.944"/>
				
					<line fill="none" stroke="#6D6E70" stroke-width="2" stroke-miterlimit="10" x1="304.734" y1="-62.732" x2="318.27" y2="-62.732"/>
			</g>
		</g>
		<polygon fill="#6D6E70" points="298.771,-16.327 296.771,-17.911 294.771,-16.327 294.771,-23.327 298.771,-23.327 		"/>
	</g>
</g>
<g id="book">
	<g>
		<path fill="#E1E2E3" stroke="#A6A8AA" stroke-miterlimit="10" d="M168.117-32.767v9.023c0,1.656-1.344,3-3,3h-39
			c-1.105,0-1-0.84-1-1.945v-52.485c0-1.104,0.396-3.294,1.24-4.153c0.939-0.959,1.875-1.416,3.26-1.416"/>
		<path fill="#F1F1F2" stroke="#A6A8AA" stroke-miterlimit="10" d="M168.117-32.739v9.023c0,1.656-1.344,3-3,3h-38.828
			c-0.244-0.006-0.764-0.023-0.9-0.271c0.42-0.59,4.244-4.24,4.244-4.24"/>
		<g>
			<path fill="#6D6E70" d="M140.33-78.567c0,0.55-0.45,1-1,1h-6c-0.55,0-1-0.45-1-1v-4c0-0.55,0.45-1,1-1h6c0.55,0,1,0.45,1,1
				V-78.567z"/>
		</g>
		<line fill="none" stroke="#A6A8AA" stroke-miterlimit="10" x1="125.703" y1="-21.298" x2="129.633" y2="-25.228"/>
		<path fill="none" stroke="#A6A8AA" stroke-linecap="round" stroke-linejoin="round" stroke-miterlimit="10" d="M168.117-33.243"/>
		<path fill="#FFFFFF" stroke="#A6A8AA" stroke-miterlimit="10" d="M164.117-26.243"/>
		<path fill="#FFFFFF" stroke="#A6A8AA" stroke-miterlimit="10" d="M168.117-77.743l-0.002,49.5c0,1.656-1.342,3-3,3h-35.498v-55.5
			h35.5C166.773-80.743,168.117-79.4,168.117-77.743z"/>
		<g>
			<path fill="none" stroke="#BBBCBE" stroke-miterlimit="10" d="M162.867-32.438c0,0.55-0.45,1-1,1h-26c-0.55,0-1-0.45-1-1v-42.198
				c0-0.55,0.45-1,1-1h26c0.55,0,1,0.45,1,1V-32.438z"/>
		</g>
		<line fill="none" stroke="#6D6E70" stroke-miterlimit="10" x1="138.619" y1="-71.444" x2="151.83" y2="-71.444"/>
		<line fill="none" stroke="#6D6E70" stroke-miterlimit="10" x1="138.619" y1="-67.96" x2="151.83" y2="-67.96"/>
		<line fill="none" stroke="#6D6E70" stroke-miterlimit="10" x1="138.619" y1="-64.478" x2="145.225" y2="-64.478"/>
		<line fill="none" stroke="#6D6E70" stroke-miterlimit="10" x1="138.619" y1="-35.493" x2="147.617" y2="-35.493"/>
	</g>
</g>
<g id="journal">
	<path fill="#D0D1D3" stroke="#BBBCBE" stroke-miterlimit="10" d="M56.552,60.011l0.327,6.244c0.149,2.852-1.359,4.527-3.323,4.632
		l-33.783,1.77c-0.98,0.052-1.817-0.653-1.868-1.636l-2.491-47.547c-0.052-0.982,0.333-2.256,1.01-3.087
		c0.655-0.806,1.31-1.108,2.924-1.193"/>
	<path fill="#F1F1F2" stroke="#BBBCBE" stroke-miterlimit="10" d="M18.312,72.124c0.346,0.355,0.846,0.561,1.389,0.532l33.782-1.77
		c1.963-0.104,3.472-1.78,3.323-4.632l-0.277-3.635l-27.686-1.409L18.312,72.124z"/>
	<line fill="none" stroke="#BBBCBE" stroke-miterlimit="10" x1="18.491" y1="72.229" x2="20.947" y2="69.503"/>
	<path fill="none" stroke="#A6A8AA" stroke-linecap="round" stroke-linejoin="round" stroke-miterlimit="10" d="M56.529,59.587"/>
	<polygon fill="#6D6E70" points="26.507,76.24 24.656,74.925 22.952,76.427 22.672,71.093 26.228,70.906 	"/>
	<path fill="#FFFFFF" stroke="#BBBCBE" stroke-miterlimit="10" d="M18.312,19.248l32.447-1.702c1.964-0.102,3.64,1.408,3.743,3.371
		l2.306,44.004c0.103,1.963-1.452,2.75-3.417,2.854l-32.448,1.7L18.312,19.248z"/>
	<g>
		<polygon fill="#6D6E70" points="46.524,71.56 44.362,71.3 47.596,67.722 44.989,18.007 46.768,17.914 49.412,68.366 
			47.017,71.016 		"/>
	</g>
	<g>
		<path fill="#6D6E70" d="M31.717,37.839c-0.549,0.029-0.794-0.349-0.544-0.838l3.66-7.186c0.25-0.489,0.699-0.514,0.999-0.052
			l4.391,6.762c0.299,0.462,0.095,0.862-0.454,0.892L31.717,37.839z"/>
	</g>
	<path fill="#D0D1D3" stroke="#BBBCBE" stroke-miterlimit="10" d="M137.097,60.42l0.421,8.022c0.076,1.473-1.056,2.73-2.528,2.809
		l-34.671,1.814c-0.982,0.053-0.929-0.699-0.979-1.682l-2.444-46.659c-0.053-0.979,0.197-2.946,0.906-3.749
		c0.793-0.896,1.602-1.346,2.834-1.411"/>
	<path fill="#F1F1F2" stroke="#BBBCBE" stroke-miterlimit="10" d="M137.099,60.444l0.419,8.023c0.078,1.471-1.054,2.729-2.528,2.805
		l-34.518,1.811c-0.216,0.007-0.679,0.016-0.812-0.199c0.346-0.545,3.576-3.967,3.576-3.967"/>
	<g>
		<path fill="#6D6E70" d="M113.285,23.074c0.029,0.55-0.397,1.022-0.946,1.051l-8.535,0.446c-0.549,0.028-1.022-0.397-1.051-0.947
			l-0.311-5.899c-0.029-0.55,0.397-1.022,0.946-1.052l8.536-0.447c0.549-0.029,1.022,0.396,1.051,0.946L113.285,23.074z"/>
	</g>
	<path fill="none" stroke="#A6A8AA" stroke-linecap="round" stroke-linejoin="round" stroke-miterlimit="10" d="M137.074,59.997"/>
	<path fill="#FFFFFF" stroke="#A6A8AA" stroke-miterlimit="10" d="M133.844,66.407"/>
	<line fill="none" stroke="#BBBCBE" stroke-miterlimit="10" x1="99.923" y1="72.593" x2="103.235" y2="68.917"/>
	<path fill="none" stroke="#BBBCBE" stroke-miterlimit="10" d="M137.19,64.271l0.116,2.232c0.077,1.474-1.055,2.729-2.528,2.808
		l-33.387,1.654"/>
	<path fill="#FFFFFF" stroke="#BBBCBE" stroke-miterlimit="10" d="M135,20.438l2.307,44.005c0.077,1.475-1.055,2.729-2.528,2.808
		l-31.559,1.653l-2.584-49.339l31.558-1.653C133.668,17.833,134.923,18.965,135,20.438z"/>
	<g>
		<path fill="none" stroke="#BBBCBE" stroke-miterlimit="10" d="M132.439,60.846c0.029,0.55-0.397,1.022-0.946,1.052l-22.895,1.201
			c-0.549,0.029-1.022-0.396-1.051-0.946l-1.955-37.294c-0.029-0.55,0.397-1.022,0.946-1.052l22.894-1.198
			c0.549-0.029,1.022,0.396,1.051,0.946L132.439,60.846z"/>
	</g>
	<g>
		
			<line fill="none" stroke="#6D6E70" stroke-linecap="round" stroke-miterlimit="10" x1="109.071" y1="27.411" x2="120.815" y2="26.796"/>
		
			<line fill="none" stroke="#6D6E70" stroke-linecap="round" stroke-miterlimit="10" x1="109.233" y1="30.509" x2="120.979" y2="29.896"/>
		
			<line fill="none" stroke="#6D6E70" stroke-linecap="round" stroke-miterlimit="10" x1="109.396" y1="33.604" x2="115.268" y2="33.296"/>
		
			<line fill="none" stroke="#6D6E70" stroke-linecap="round" stroke-miterlimit="10" x1="110.745" y1="59.372" x2="118.745" y2="58.953"/>
	</g>
	<path fill="#D0D1D3" stroke="#BBBCBE" stroke-miterlimit="10" d="M217.755,60.011l0.42,8.021c0.076,1.473-1.055,2.73-2.527,2.809
		l-34.67,1.816c-0.982,0.051-0.927-0.7-0.979-1.683l-2.465-47.015c-0.052-0.981,0.026-2.765,0.736-3.569
		c0.791-0.896,1.463-1.153,3.023-1.235"/>
	<path fill="#F1F1F2" stroke="#BBBCBE" stroke-miterlimit="10" d="M217.755,60.036l0.422,8.021c0.076,1.473-1.055,2.729-2.529,2.807
		l-34.516,1.81c-0.217,0.007-0.68,0.015-0.813-0.2c0.346-0.544,3.515-4.869,3.515-4.869"/>
	<line fill="none" stroke="#BBBCBE" stroke-miterlimit="10" x1="180.582" y1="72.183" x2="183.848" y2="67.618"/>
	<path fill="none" stroke="#A6A8AA" stroke-linecap="round" stroke-linejoin="round" stroke-miterlimit="10" d="M217.733,59.589"/>
	<path fill="#FFFFFF" stroke="#A6A8AA" stroke-miterlimit="10" d="M214.503,65.999"/>
	<path fill="#FFFFFF" stroke="#BBBCBE" stroke-miterlimit="10" d="M215.659,20.028l2.328,44.449
		c0.078,1.474-1.053,2.729-2.527,2.807l-32.447,1.701l-2.607-49.783l32.447-1.701C214.325,17.425,215.581,18.556,215.659,20.028z"/>
	<circle fill="none" stroke="#D0D1D3" stroke-linecap="square" stroke-miterlimit="10" cx="198.802" cy="34.294" r="4.034"/>
	<g>
		
			<line fill="none" stroke="#6D6E70" stroke-width="2" stroke-linecap="square" stroke-miterlimit="10" x1="198.466" y1="27.892" x2="199.538" y2="48.327"/>
		
			<line fill="none" stroke="#6D6E70" stroke-width="2" stroke-linecap="square" stroke-miterlimit="10" x1="192.784" y1="34.608" x2="204.816" y2="33.978"/>
	</g>
	<polygon fill="#6D6E70" points="189.645,76.142 187.794,74.825 186.089,76.326 185.764,70.104 189.319,69.917 	"/>
	<g>
		<path fill="#EBEBEB" stroke="#A6A8AA" stroke-miterlimit="10" d="M-1.17-32.767v7.023c0,3.209-1.791,5-4,5h-38
			c-1.104,0-2-0.84-2-1.945v-53.485c0-1.104,0.508-2.51,1.316-3.403c0.782-0.865,1.535-1.166,3.351-1.166"/>
		<line fill="none" stroke="#A6A8AA" stroke-miterlimit="10" x1="-44.584" y1="-21.298" x2="-41.67" y2="-24.212"/>
		<path fill="none" stroke="#A6A8AA" stroke-linecap="round" stroke-linejoin="round" stroke-miterlimit="10" d="M-1.17-33.243"/>
		<polygon fill="#6D6E70" points="-35.827,-16.327 -37.827,-17.911 -39.827,-16.327 -39.827,-22.327 -35.827,-22.327 		"/>
		<path fill="#FFFFFF" stroke="#A6A8AA" stroke-miterlimit="10" d="M-41.67-80.743h36.5c2.209,0,4,1.791,4,4v49.5
			c0,2.209-1.791,3-4,3h-36.5V-80.743z"/>
		<g>
			<polygon fill="#6D6E70" points="-13.097,-20.401 -15.508,-20.819 -11.67,-24.644 -11.67,-80.567 -9.67,-80.567 -9.67,-23.813 
				-12.512,-20.983 			"/>
		</g>
		<g>
			<path fill="#6D6E70" d="M-27.184-59.636c-0.55,0-0.775-0.39-0.5-0.866l4.015-6.952c0.275-0.477,0.725-0.477,1,0l4.015,6.952
				c0.275,0.477,0.05,0.866-0.5,0.866H-27.184z"/>
		</g>
	</g>
</g>
</svg>
