<?xml version="1.0" encoding="utf-8"?>
<!-- Generator: Adobe Illustrator 15.0.2, SVG Export Plug-In . SVG Version: 6.00 Build 0)  -->
<!DOCTYPE svg PUBLIC "-//W3C//DTD SVG 1.1//EN" "http://www.w3.org/Graphics/SVG/1.1/DTD/svg11.dtd">
<svg version="1.1" id="Layer_1" xmlns="http://www.w3.org/2000/svg" xmlns:xlink="http://www.w3.org/1999/xlink" x="0px" y="0px"
	 width="100px" height="100px" viewBox="0 0 100 100" enable-background="new 0 0 100 100" xml:space="preserve">
<g>
	<g>
		<path fill="#FFFFFF" d="M69.774,80.895c-0.113,0.539-0.646,0.889-1.185,0.774l-15.858-3.311c-0.539-0.113-0.889-0.646-0.775-1.185
			l3.311-15.861c0.112-0.538,0.645-0.889,1.184-0.774l15.861,3.312c0.539,0.112,0.888,0.645,0.773,1.182L69.774,80.895z"/>
		<path fill="none" stroke="#6D6E70" stroke-width="2" stroke-miterlimit="10" d="M69.774,80.895
			c-0.113,0.539-0.646,0.889-1.185,0.774l-15.858-3.311c-0.539-0.113-0.889-0.646-0.775-1.185l3.311-15.861
			c0.112-0.538,0.645-0.889,1.184-0.774l15.861,3.312c0.539,0.112,0.888,0.645,0.773,1.182L69.774,80.895z"/>
	</g>
	<g>
		<path fill="#FFFFFF" d="M30.104,56.123c0.063,0.546-0.33,1.045-0.877,1.107l-16.093,1.881c-0.546,0.064-1.046-0.33-1.108-0.876
			l-1.883-16.097c-0.062-0.545,0.332-1.045,0.879-1.108l16.094-1.878c0.546-0.064,1.045,0.331,1.109,0.877L30.104,56.123z"/>
		<path fill="none" stroke="#6D6E70" stroke-width="2" stroke-miterlimit="10" d="M30.104,56.123
			c0.063,0.546-0.33,1.045-0.877,1.107l-16.093,1.881c-0.546,0.064-1.046-0.33-1.108-0.876l-1.883-16.097
			c-0.062-0.545,0.332-1.045,0.879-1.108l16.094-1.878c0.546-0.064,1.045,0.331,1.109,0.877L30.104,56.123z"/>
	</g>
	<g>
		<path fill="#FFFFFF" d="M54.106,82.875c0.106,0.539-0.248,1.067-0.787,1.174l-15.893,3.149c-0.54,0.106-1.068-0.245-1.176-0.785
			l-3.15-15.896c-0.106-0.541,0.248-1.069,0.786-1.176l15.894-3.148c0.541-0.106,1.07,0.248,1.178,0.787L54.106,82.875z"/>
		<path fill="none" stroke="#6D6E70" stroke-width="2" stroke-miterlimit="10" d="M54.106,82.875
			c0.106,0.539-0.248,1.067-0.787,1.174l-15.893,3.149c-0.54,0.106-1.068-0.245-1.176-0.785l-3.15-15.896
			c-0.106-0.541,0.248-1.069,0.786-1.176l15.894-3.148c0.541-0.106,1.07,0.248,1.178,0.787L54.106,82.875z"/>
	</g>
	<g>
		<path fill="#FFFFFF" d="M38.086,54.401c-0.187,0.519-0.761,0.79-1.278,0.604l-15.256-5.459c-0.518-0.186-0.789-0.761-0.604-1.277
			l5.457-15.258c0.186-0.518,0.761-0.789,1.277-0.604l15.258,5.457c0.518,0.186,0.789,0.761,0.604,1.277L38.086,54.401z"/>
		<path fill="none" stroke="#6D6E70" stroke-width="2" stroke-miterlimit="10" d="M38.086,54.401
			c-0.187,0.519-0.761,0.79-1.278,0.604l-15.256-5.459c-0.518-0.186-0.789-0.761-0.604-1.277l5.457-15.258
			c0.186-0.518,0.761-0.789,1.277-0.604l15.258,5.457c0.518,0.186,0.789,0.761,0.604,1.277L38.086,54.401z"/>
	</g>
	<g>
		<path fill="#FFFFFF" d="M62.679,68.34c-0.187,0.519-0.762,0.789-1.279,0.604l-15.254-5.457c-0.519-0.187-0.791-0.761-0.604-1.277
			l5.456-15.259c0.186-0.518,0.761-0.79,1.277-0.604l15.258,5.455c0.518,0.187,0.789,0.762,0.604,1.277L62.679,68.34z"/>
		<path fill="none" stroke="#6D6E70" stroke-width="2" stroke-miterlimit="10" d="M62.679,68.34
			c-0.187,0.519-0.762,0.789-1.279,0.604l-15.254-5.457c-0.519-0.187-0.791-0.761-0.604-1.277l5.456-15.259
			c0.186-0.518,0.761-0.79,1.277-0.604l15.258,5.455c0.518,0.187,0.789,0.762,0.604,1.277L62.679,68.34z"/>
	</g>
	<g>
		<path fill="#FFFFFF" d="M55.407,54.596c-0.086,0.543-0.6,0.918-1.143,0.832l-16.007-2.516c-0.543-0.085-0.918-0.6-0.833-1.143
			l2.518-16.01c0.084-0.543,0.6-0.918,1.143-0.832l16.008,2.517c0.543,0.085,0.918,0.6,0.832,1.143L55.407,54.596z"/>
		<path fill="none" stroke="#6D6E70" stroke-width="2" stroke-miterlimit="10" d="M55.407,54.596
			c-0.086,0.543-0.6,0.918-1.143,0.832l-16.007-2.516c-0.543-0.085-0.918-0.6-0.833-1.143l2.518-16.01
			c0.084-0.543,0.6-0.918,1.143-0.832l16.008,2.517c0.543,0.085,0.918,0.6,0.832,1.143L55.407,54.596z"/>
	</g>
	<g>
		<path fill="#FFFFFF" d="M47.336,32.266c0.187,0.519-0.084,1.094-0.603,1.281L31.489,39.04c-0.518,0.187-1.092-0.084-1.279-0.603
			l-5.494-15.242c-0.188-0.518,0.084-1.094,0.602-1.28l15.242-5.493c0.519-0.188,1.094,0.084,1.28,0.602L47.336,32.266z"/>
		<path fill="none" stroke="#6D6E70" stroke-width="2" stroke-miterlimit="10" d="M47.336,32.266
			c0.187,0.519-0.084,1.094-0.603,1.281L31.489,39.04c-0.518,0.187-1.092-0.084-1.279-0.603l-5.494-15.242
			c-0.188-0.518,0.084-1.094,0.602-1.28l15.242-5.493c0.519-0.188,1.094,0.084,1.28,0.602L47.336,32.266z"/>
	</g>
	<g>
		<path fill="#FFFFFF" d="M84.108,84.607c0.055,0.547-0.348,1.037-0.896,1.094l-16.123,1.611c-0.548,0.056-1.04-0.35-1.095-0.896
			l-1.611-16.123c-0.056-0.549,0.349-1.039,0.896-1.094l16.121-1.612c0.549-0.055,1.043,0.349,1.097,0.896L84.108,84.607z"/>
		<path fill="none" stroke="#6D6E70" stroke-width="2" stroke-miterlimit="10" d="M84.108,84.607
			c0.055,0.547-0.348,1.037-0.896,1.094l-16.123,1.611c-0.548,0.056-1.04-0.35-1.095-0.896l-1.611-16.123
			c-0.056-0.549,0.349-1.039,0.896-1.094l16.121-1.612c0.549-0.055,1.043,0.349,1.097,0.896L84.108,84.607z"/>
	</g>
	<g>
		<path fill="#FFFFFF" d="M65.069,33.4c-0.127,0.535-0.668,0.869-1.203,0.744l-15.772-3.717c-0.534-0.127-0.87-0.668-0.743-1.203
			l3.717-15.771c0.125-0.535,0.666-0.87,1.203-0.744l15.771,3.717c0.535,0.127,0.87,0.668,0.744,1.203L65.069,33.4z"/>
		<path fill="none" stroke="#6D6E70" stroke-width="2" stroke-miterlimit="10" d="M65.069,33.4
			c-0.127,0.535-0.668,0.869-1.203,0.744l-15.772-3.717c-0.534-0.127-0.87-0.668-0.743-1.203l3.717-15.771
			c0.125-0.535,0.666-0.87,1.203-0.744l15.771,3.717c0.535,0.127,0.87,0.668,0.744,1.203L65.069,33.4z"/>
	</g>
	<g>
		<path fill="#FFFFFF" d="M44.224,67.633c0.284,0.471,0.131,1.09-0.34,1.373l-13.875,8.369c-0.471,0.283-1.089,0.131-1.373-0.34
			l-8.367-13.88c-0.285-0.472-0.131-1.089,0.34-1.372l13.875-8.365c0.471-0.285,1.088-0.131,1.373,0.34L44.224,67.633z"/>
		<path fill="none" stroke="#6D6E70" stroke-width="2" stroke-miterlimit="10" d="M44.224,67.633c0.284,0.471,0.131,1.09-0.34,1.373
			l-13.875,8.369c-0.471,0.283-1.089,0.131-1.373-0.34l-8.367-13.88c-0.285-0.472-0.131-1.089,0.34-1.372l13.875-8.365
			c0.471-0.285,1.088-0.131,1.373,0.34L44.224,67.633z"/>
	</g>
	<g>
		<path fill="#FFFFFF" d="M76.265,43.811c0.01,0.551-0.433,1.009-0.981,1.019l-16.2,0.29c-0.55,0.01-1.008-0.432-1.02-0.982
			l-0.291-16.199c-0.01-0.551,0.434-1.008,0.982-1.019l16.199-0.292c0.55-0.01,1.008,0.432,1.018,0.982L76.265,43.811z"/>
		<path fill="none" stroke="#6D6E70" stroke-width="2" stroke-miterlimit="10" d="M76.265,43.811
			c0.01,0.551-0.433,1.009-0.981,1.019l-16.2,0.29c-0.55,0.01-1.008-0.432-1.02-0.982l-0.291-16.199
			c-0.01-0.551,0.434-1.008,0.982-1.019l16.199-0.292c0.55-0.01,1.008,0.432,1.018,0.982L76.265,43.811z"/>
	</g>
	<g>
		<path fill="#FFFFFF" d="M84.976,61.209c0.229,0.5,0.008,1.098-0.492,1.326l-14.721,6.764c-0.5,0.229-1.098,0.01-1.326-0.49
			L61.67,54.084c-0.229-0.5-0.009-1.098,0.491-1.326l14.725-6.766c0.5-0.229,1.096-0.009,1.325,0.491L84.976,61.209z"/>
		<path fill="none" stroke="#6D6E70" stroke-width="2" stroke-miterlimit="10" d="M84.976,61.209c0.229,0.5,0.008,1.098-0.492,1.326
			l-14.721,6.764c-0.5,0.229-1.098,0.01-1.326-0.49L61.67,54.084c-0.229-0.5-0.009-1.098,0.491-1.326l14.725-6.766
			c0.5-0.229,1.096-0.009,1.325,0.491L84.976,61.209z"/>
	</g>
	<g>
		<path fill="#FFFFFF" d="M89.862,51.571c0.015,0.55-0.424,1.013-0.973,1.026l-16.195,0.42c-0.551,0.014-1.012-0.424-1.026-0.975
			l-0.422-16.197c-0.015-0.552,0.424-1.014,0.974-1.026l16.198-0.421c0.55-0.014,1.013,0.424,1.024,0.973L89.862,51.571z"/>
		<path fill="none" stroke="#6D6E70" stroke-width="2" stroke-miterlimit="10" d="M89.862,51.571
			c0.015,0.55-0.424,1.013-0.973,1.026l-16.195,0.42c-0.551,0.014-1.012-0.424-1.026-0.975l-0.422-16.197
			c-0.015-0.552,0.424-1.014,0.974-1.026l16.198-0.421c0.55-0.014,1.013,0.424,1.024,0.973L89.862,51.571z"/>
	</g>
</g>
</svg>
