<?xml version="1.0" encoding="utf-8"?>
<!-- Generator: Adobe Illustrator 15.0.2, SVG Export Plug-In . SVG Version: 6.00 Build 0)  -->
<!DOCTYPE svg PUBLIC "-//W3C//DTD SVG 1.1//EN" "http://www.w3.org/Graphics/SVG/1.1/DTD/svg11.dtd">
<svg version="1.1" id="Layer_1" xmlns="http://www.w3.org/2000/svg" xmlns:xlink="http://www.w3.org/1999/xlink" x="0px" y="0px"
	 width="400px" height="400px" viewBox="0 0 400 400" enable-background="new 0 0 400 400" xml:space="preserve">
<g id="Layer_1_1_" display="none">
</g>
<g id="Layer_2" display="none">
	<g display="inline">
		<g>
			<g>
				<path fill="#A6A8AA" d="M-666.378,106.858c7.024-6.206,16.968-9.248,26.153-10.074c8.808-0.792,19.469,0.686,24.876,8.523
					c6.748,9.782,4.428,21.743-2.704,30.504c-7.194,8.837-18.054,14.841-29.032,17.482c-16.401,3.946-37.975-2.673-40.4-21.684
					c-1.155-9.046,1.581-18.858,7.506-25.793c5.946-6.958,14.572-11.193,22.748-14.924c2.003-0.914,0.265-3.858-1.725-2.95
					c-9.373,4.278-18.743,9.254-25.142,17.573c-6.224,8.091-8.402,19.805-6.197,29.685c2.148,9.626,9.716,16.526,18.62,20.031
					c9.547,3.758,20.295,3.203,29.925,0.114c19.48-6.249,41.013-25.538,31.491-47.789c-8.101-18.932-34.226-16.103-49.521-8.967
					c-3.258,1.52-6.319,3.471-9.015,5.853C-670.449,105.904-668.022,108.312-666.378,106.858L-666.378,106.858z"/>
			</g>
		</g>
		<g>
			<g>
				<path fill="#A6A8AA" d="M-657.904,98.814c0.013,13.806,0.557,27.602,0.802,41.404c0.223,12.604-0.208,25.146-0.657,37.737
					c-0.668,18.778-1.485,37.855-0.146,56.621c0.156,2.185,3.574,2.199,3.417,0c-1.339-18.768-0.509-37.839,0.146-56.621
					c0.439-12.593,0.866-25.131,0.657-37.737c-0.229-13.802-0.789-27.598-0.802-41.404
					C-654.489,96.611-657.906,96.611-657.904,98.814L-657.904,98.814z"/>
			</g>
		</g>
		<g>
			<g>
				<path fill="#A6A8AA" d="M-666.525,165.112c10.792-19.9,40.302-22.543,59.119-14.057c11.271,5.083,18.502,15.114,22.242,26.649
					c4.144,12.783-0.545,26.508-8.818,36.603c-9.133,11.146-23.389,17.245-36.882,21.189c-7.017,2.051-14.211,3.486-21.446,4.503
					c-7.996,1.123-15.9,1.25-23.961,1.25c-2.204,0-2.204,3.418,0,3.418c11.474,0,22.582-0.685,33.868-2.876
					c10.921-2.119,21.696-5.425,31.646-10.445c9.101-4.592,17.52-11.054,22.925-19.816c3.342-5.418,6.034-11.276,7.171-17.568
					c1.21-6.693,0.23-13.47-2.127-19.798c-3.153-8.463-8.08-15.999-15.278-21.533c-7.435-5.715-16.88-8.448-26.104-9.273
					c-16.815-1.504-36.787,4.326-45.304,20.033C-670.526,165.325-667.575,167.05-666.525,165.112L-666.525,165.112z"/>
			</g>
		</g>
		<g>
			<g>
				<path fill="#A6A8AA" d="M-652.226,163.466c7.889,10.213,15.91,20.324,23.91,30.45c7.618,9.645,15.096,19.445,23.023,28.841
					c1.423,1.687,3.827-0.743,2.416-2.416c-7.676-9.097-14.919-18.587-22.298-27.923c-8.055-10.191-16.186-20.429-24.101-30.676
					C-650.602,160.024-653.572,161.722-652.226,163.466L-652.226,163.466z"/>
			</g>
		</g>
		<g>
			<g>
				<path fill="#A6A8AA" d="M-657.608,199.796c11.184,1.669,22.536,0.101,33.772,0.061c2.203-0.008,2.204-3.425,0-3.417
					c-10.896,0.039-22.021,1.679-32.864,0.061C-658.854,196.179-659.782,199.472-657.608,199.796L-657.608,199.796z"/>
			</g>
		</g>
		<g>
			<g>
				<path fill="#A6A8AA" d="M-628.408,145.943c1.881,17.471,1.211,35.024,2.113,52.545c0.113,2.192,3.531,2.204,3.418,0
					c-0.902-17.521-0.233-35.074-2.113-52.545C-625.224,143.776-628.644,143.753-628.408,145.943L-628.408,145.943z"/>
			</g>
		</g>
		<g>
			<g>
				<path fill="#A6A8AA" d="M-605.793,151.285c-0.008,24.698-0.737,49.441,0.855,74.107c0.142,2.188,3.56,2.199,3.418,0
					c-1.593-24.666-0.864-49.412-0.855-74.107C-602.375,149.081-605.792,149.081-605.793,151.285L-605.793,151.285z"/>
			</g>
		</g>
	</g>
</g>
<g>
	<path fill="#E45555" d="M155.837,45.041l2.713,75.936c0.48,12.668,0.643,25.346,0.904,38.029l0.213,19.051
		c-0.008,6.365,0.115,12.717-0.303,19.328c-0.502,12.389-0.604,25.164-0.756,37.773l-0.186,37.951
		c0.002,12.649,0.059,25.297,0.234,37.928c0.09,6.311,0.205,12.621,0.387,18.908c0.199,6.252,0.398,12.619,0.932,18.565l0.01,0.08
		c0.305,3.406-2.207,6.414-5.611,6.722c-3.404,0.309-6.41-2.209-6.717-5.611c-0.002-0.01-0.004-0.053-0.004-0.062
		c-0.533-6.682-0.658-12.992-0.803-19.396c-0.127-6.384-0.182-12.736-0.211-19.099c-0.055-12.711,0.006-25.396,0.125-38.09
		l0.547-38.059c0.275-12.723,0.486-25.287,1.131-38.219c0.422-6.037,0.303-12.367,0.32-18.668l-0.152-18.953
		c-0.078-12.652-0.373-25.312-0.377-37.977c-0.07-25.346-0.518-50.633-0.266-76.066c0.023-2.174,1.801-3.92,3.979-3.898
		c2.109,0.021,3.814,1.697,3.891,3.787V45.041L155.837,45.041z"/>
</g>
<g>
	<path fill="#E45555" d="M122.063,61.346c2.805-5.771,7.352-10.623,12.303-14.334c4.996-3.744,10.504-6.545,16.156-8.762
		c11.342-4.375,23.303-6.494,35.309-6.941c11.949-0.439,24.34,0.975,35.877,5.402c11.506,4.355,22.14,11.67,29.875,21.605
		c7.74,9.869,12.476,22.4,12.457,35.174c0.127,12.781-4.437,25.303-11.692,35.42c-1.779,2.527-3.853,5.008-5.752,7.166
		c-2.003,2.283-4.019,4.453-6.128,6.592c-4.202,4.27-8.655,8.303-13.352,12.047c-9.39,7.484-19.736,13.846-30.832,18.646
		c-11.084,4.807-22.949,8.025-35.219,8.938c-3.064,0.219-6.156,0.291-9.264,0.166l-2.352-0.129l-2.197-0.17
		c-1.547-0.135-3.025-0.283-4.531-0.471c-5.998-0.725-11.977-1.896-17.838-3.6c-11.697-3.385-23.055-9.033-32.355-17.453
		c-9.322-8.354-16.201-19.525-19.502-31.516c-0.854-2.986-1.51-6.021-1.982-9.066l-0.33-2.289l-0.25-2.256
		c-0.146-1.57-0.242-3.205-0.291-4.729c-0.162-6.232,0.535-12.457,1.963-18.463c2.854-12.041,8.533-23.117,15.752-32.799
		c7.279-9.666,16.09-18.045,25.959-24.904c9.875-6.818,20.863-12.281,32.895-14.795c1.99-0.416,3.947,0.865,4.363,2.857
		c0.408,1.953-0.812,3.867-2.736,4.336l-0.045,0.012c-10.615,2.574-20.672,7.852-29.674,14.352
		c-9.004,6.553-16.99,14.539-23.455,23.512c-6.486,8.945-11.41,19-13.76,29.566c-1.176,5.273-1.699,10.66-1.484,16.004
		c0.062,1.367,0.15,2.619,0.291,3.934l0.256,2.055l0.316,2.006c0.451,2.666,1.059,5.295,1.83,7.865
		c3.047,10.287,8.816,19.574,16.77,26.672c7.943,7.129,17.85,12.07,28.365,15.066c5.262,1.506,10.693,2.549,16.189,3.193
		c1.367,0.162,2.768,0.297,4.107,0.406l2.129,0.156l1.986,0.098c2.678,0.098,5.383,0.023,8.092-0.182
		c10.846-0.836,21.615-3.84,31.795-8.154c10.184-4.352,19.768-10.176,28.516-17.078c4.369-3.455,8.537-7.189,12.476-11.154
		c1.963-1.973,3.895-4.037,5.719-6.098c1.936-2.18,3.584-4.148,5.15-6.342c6.237-8.635,9.981-18.939,9.932-29.398
		c0.037-10.439-3.59-20.824-10.027-29.244c-6.404-8.461-15.438-14.932-25.502-18.9c-5.039-1.996-10.34-3.389-15.746-4.232
		c-5.479-0.82-10.953-1.119-16.555-1.061c-11.119,0.178-22.314,1.945-32.678,5.709c-5.164,1.893-10.105,4.322-14.463,7.424
		c-4.365,3.109-8.062,6.855-10.461,11.475c-0.918,1.764-3.092,2.451-4.855,1.535c-1.732-0.9-2.43-3.014-1.58-4.76L122.063,61.346z"
		/>
</g>
<g>
	<path fill="#E45555" d="M110.841,191.121c1.57-6.285,4.396-12.373,8.049-17.752c3.668-5.4,8.162-10.154,13.066-14.322
		c9.85-8.33,21.279-14.367,33.141-18.848c11.895-4.463,24.346-7.242,36.971-8.576c12.627-1.273,25.514-1.141,38.291,1.572
		c6.457,1.391,12.512,3.578,18.432,5.996c5.928,2.451,11.684,5.391,17.148,8.832c10.959,6.836,20.762,15.658,28.686,25.926
		c7.949,10.262,13.98,21.902,18.172,34.055c2.098,6.082,3.758,12.293,5.004,18.568c0.625,3.131,1.16,6.303,1.586,9.441
		c0.424,3.331,0.713,6.5,0.816,9.77c0.867,26.008-7.207,51.916-22.125,73.031c-7.445,10.549-16.688,19.94-27.186,27.451
		c-10.504,7.569-21.943,13.303-33.734,17.944c-23.625,9.166-48.748,13.881-73.947,14.179c-12.604,0.071-25.229-1.011-37.625-3.451
		c-12.391-2.42-24.545-6.287-35.957-11.793c-1.957-0.949-2.777-3.304-1.832-5.261c0.918-1.899,3.174-2.733,5.1-1.899l0.021,0.01
		c21.936,9.492,46.176,13.152,70.105,12.352c23.945-0.731,47.881-5.566,69.965-14.562c11.016-4.502,21.58-10.146,31.047-16.949
		c9.484-6.838,17.695-15.26,24.398-24.808c13.396-19.067,20.59-42.602,19.717-65.799c-0.117-2.871-0.332-5.834-0.658-8.604
		c-0.369-2.959-0.83-5.856-1.389-8.758c-1.097-5.796-2.564-11.498-4.427-17.06c-3.725-11.117-9.069-21.641-16.108-30.902
		c-7.023-9.264-15.699-17.234-25.549-23.508c-4.929-3.131-10.103-5.906-15.476-8.293c-5.399-2.348-10.918-4.475-16.476-5.768
		c-11.262-2.635-23.27-3.047-35.09-2.076c-11.852,0.984-23.612,3.479-34.876,7.303c-11.232,3.852-22.027,9.174-31.209,16.479
		c-9.139,7.281-16.596,16.686-19.859,27.848c-0.498,1.703-2.283,2.684-3.986,2.182c-1.66-0.484-2.633-2.195-2.219-3.859
		L110.841,191.121z"/>
</g>
<g>
	<path fill="#E45555" d="M137.63,269.01c3.848-0.824,7.609-1.107,11.299-1.281c3.693-0.188,7.352-0.209,10.992-0.151
		c7.287,0.104,14.506,0.562,21.705,0.871c7.197,0.311,14.369,0.719,21.485,0.944c3.556,0.101,7.101,0.15,10.574,0.121
		c1.736-0.024,3.455-0.084,5.103-0.225c1.604-0.141,3.308-0.344,4.305-0.67l0.214-0.068c2.137-0.678,4.411,0.502,5.096,2.635
		c0.652,2.049-0.414,4.232-2.381,5.015c-2.394,0.932-4.299,1.225-6.271,1.521c-1.938,0.264-3.815,0.432-5.69,0.566
		c-3.732,0.268-7.406,0.328-11.066,0.338c-7.311,0.033-14.557-0.148-21.775-0.438l-21.549-0.756
		c-7.105-0.234-14.312-0.675-20.938-0.377l-0.061,0.004c-2.246,0.1-4.148-1.642-4.248-3.886
		C134.333,271.154,135.726,269.416,137.63,269.01z"/>
</g>
<g>
	<path fill="#E45555" d="M228.294,152.453c0.336,1.568,0.463,2.871,0.621,4.215c0.151,1.332,0.28,2.643,0.367,3.953
		c0.192,2.619,0.325,5.221,0.396,7.818c0.178,5.197,0.146,10.381,0.117,15.559l-0.18,31.043l-0.211,30.979l0.031,15.431
		c0.033,2.559,0.076,5.118,0.176,7.631c0.049,1.262,0.111,2.508,0.207,3.707c0.049,0.599,0.104,1.188,0.17,1.717l0.109,0.711
		c0.018,0.164,0.104,0.378-0.027,0.089c0.941,2.049,0.049,4.469-2.002,5.418c-2.047,0.936-4.473,0.045-5.412-2.007
		c-0.389-0.883-0.457-1.301-0.578-1.771l-0.236-1.199c-0.129-0.748-0.221-1.443-0.301-2.131c-0.154-1.377-0.275-2.709-0.379-4.031
		c-0.207-2.645-0.35-5.26-0.48-7.869c-0.248-5.223-0.445-10.414-0.535-15.6c-0.198-10.379-0.36-20.74-0.387-31.094l-0.037-31.031
		c-0.021-5.168-0.062-10.328,0.045-15.477c0.031-2.572,0.109-5.145,0.193-7.697c0.076-2.498,0.217-5.225,0.234-7.326l0.004-0.215
		c0.02-2.26,1.869-4.08,4.125-4.059C226.277,149.232,227.902,150.617,228.294,152.453z"/>
</g>
<g>
	<path fill="#E45555" d="M278.409,157.232l-0.086,0.17c0.045-0.061,0.135-0.238,0.178-0.361c0.063-0.193,0.058-0.156,0.058-0.154
		l0,0l-0.062,0.383l-0.131,1.219c-0.072,0.893-0.121,1.855-0.148,2.826c-0.068,1.945-0.084,3.947-0.084,5.951
		c0.004,4.014,0.078,8.066,0.18,12.121c0.201,8.113,0.517,16.252,0.836,24.388l2.015,48.884l2.047,48.967
		c0.295,8.181,0.574,16.354,0.696,24.617c0.037,4.184,0.132,8.159-0.165,12.803c-0.05,0.625-0.101,1.226-0.238,2.088
		c-0.049,0.253-0.069,0.429-0.158,0.779l-0.053,0.242c0.181-0.517-0.319,0.977-0.278,0.84l-0.07,0.174
		c0.014-0.032-0.015,0.062-0.236,0.506c-0.166,0.335-0.363,0.654-0.584,0.964c-0.455,0.635-0.949,1.121-1.498,1.524
		c-0.562,0.418-1.166,0.748-1.76,0.959c-0.553,0.211-1.344,0.388-1.754,0.403c-0.463,0.046-0.945,0.048-1.412,0.009
		c-0.365-0.037-0.645-0.084-0.967-0.152c-0.722-0.155-0.955-0.274-1.418-0.444c-0.705-0.297-1.207-0.584-1.617-0.836
		c-0.816-0.519-1.414-0.98-1.937-1.41c-2.065-1.74-3.506-3.314-5.004-4.943c-5.754-6.432-10.703-12.941-15.709-19.514
		c-4.961-6.572-9.803-13.191-14.603-19.826c-9.604-13.266-18.981-26.652-28.293-40.072l-27.946-40.178l-14-19.973
		c-2.348-3.299-4.707-6.584-7.1-9.791l-3.557-4.736l-1.764-2.205c-0.547-0.668-1.207-1.385-1.43-1.602l-0.316-0.305
		c-2.389-2.301-2.459-6.1-0.158-8.488c2.207-2.291,5.807-2.438,8.203-0.418c1.324,1.119,2.035,1.92,2.836,2.783
		c0.77,0.84,1.48,1.662,2.174,2.482c1.383,1.641,2.715,3.254,3.98,4.908c2.543,3.291,5.006,6.592,7.447,9.9
		c4.871,6.619,9.672,13.244,14.354,19.949l28.059,40.158l28.119,39.973c4.723,6.617,9.48,13.203,14.318,19.688
		c4.838,6.441,9.76,12.951,14.863,18.716c1.252,1.391,2.596,2.807,3.658,3.696c0.254,0.226,0.477,0.369,0.522,0.404
		c0.022,0.023-0.033-0.023-0.271-0.121c-0.221-0.09-0.227-0.088-0.688-0.215c-0.199-0.043-0.354-0.061-0.598-0.086
		c-0.334-0.035-0.691-0.035-1.029,0.01c-0.275,0.031-0.949,0.137-1.385,0.32c-0.457,0.184-0.969,0.436-1.428,0.773
		c-0.435,0.336-0.839,0.735-1.226,1.264c-0.185,0.252-0.34,0.525-0.476,0.809c-0.178,0.396-0.178,0.432-0.145,0.336l0.07-0.178
		c0.066-0.189-0.426,1.23-0.225,0.66l-0.017,0.051c-0.021,0.109-0.006,0.023-0.006,0.029c0.03-0.143,0.082-0.557,0.118-0.953
		c0.287-3.498,0.298-7.695,0.318-11.664c0.004-8.061-0.145-16.203-0.311-24.338l-1.273-48.904l-1.25-48.994
		c-0.143-8.176-0.232-16.359-0.234-24.563c0.002-4.107,0.031-8.217,0.136-12.363c0.049-2.074,0.121-4.154,0.241-6.285
		c0.066-1.066,0.146-2.143,0.265-3.279c0.062-0.576,0.138-1.162,0.246-1.82c0.056-0.336,0.131-0.703,0.233-1.119l0.104-0.369
		c0.039-0.119,0.054-0.209,0.172-0.52c0.089-0.242,0.224-0.537,0.312-0.719l0.091-0.168c1.211-2.273,4.034-3.135,6.307-1.924
		c2.238,1.191,3.109,3.943,1.98,6.195L278.409,157.232z"/>
</g>
</svg>
